<?xml version="1.0" encoding="utf-8" standalone="no"?>
<!DOCTYPE svg PUBLIC "-//W3C//DTD SVG 1.1//EN"
  "http://www.w3.org/Graphics/SVG/1.1/DTD/svg11.dtd">
<!-- Created with matplotlib (https://matplotlib.org/) -->
<svg height="727.2pt" version="1.1" viewBox="0 0 1382.4 727.2" width="1382.4pt" xmlns="http://www.w3.org/2000/svg" xmlns:xlink="http://www.w3.org/1999/xlink">
 <defs>
  <style type="text/css">
*{stroke-linecap:butt;stroke-linejoin:round;white-space:pre;}
  </style>
 </defs>
 <g id="figure_1">
  <g id="patch_1">
   <path d="M 0 727.2 
L 1382.4 727.2 
L 1382.4 0 
L 0 0 
z
" style="fill:#ffffff;"/>
  </g>
  <g id="axes_1">
   <g id="patch_2">
    <path d="M 345.6 638.151667 
L 1350 638.151667 
L 1350 57.3175 
L 345.6 57.3175 
z
" style="fill:#ffffff;"/>
   </g>
   <g id="matplotlib.axis_1">
    <g id="xtick_1">
     <g id="line2d_1">
      <defs>
       <path d="M 0 0 
L 0 3.5 
" id="m9277239aa3" style="stroke:#000000;stroke-width:0.8;"/>
      </defs>
      <g>
       <use style="stroke:#000000;stroke-width:0.8;" x="391.084333" xlink:href="#m9277239aa3" y="638.151667"/>
      </g>
     </g>
     <g id="text_1">
      <!-- 0 -->
      <defs>
       <path d="M 31.78125 66.40625 
Q 24.171875 66.40625 20.328125 58.90625 
Q 16.5 51.421875 16.5 36.375 
Q 16.5 21.390625 20.328125 13.890625 
Q 24.171875 6.390625 31.78125 6.390625 
Q 39.453125 6.390625 43.28125 13.890625 
Q 47.125 21.390625 47.125 36.375 
Q 47.125 51.421875 43.28125 58.90625 
Q 39.453125 66.40625 31.78125 66.40625 
z
M 31.78125 74.21875 
Q 44.046875 74.21875 50.515625 64.515625 
Q 56.984375 54.828125 56.984375 36.375 
Q 56.984375 17.96875 50.515625 8.265625 
Q 44.046875 -1.421875 31.78125 -1.421875 
Q 19.53125 -1.421875 13.0625 8.265625 
Q 6.59375 17.96875 6.59375 36.375 
Q 6.59375 54.828125 13.0625 64.515625 
Q 19.53125 74.21875 31.78125 74.21875 
z
" id="DejaVuSans-48"/>
      </defs>
      <g transform="translate(387.903083 652.750104)scale(0.1 -0.1)">
       <use xlink:href="#DejaVuSans-48"/>
      </g>
     </g>
    </g>
    <g id="xtick_2">
     <g id="line2d_2">
      <g>
       <use style="stroke:#000000;stroke-width:0.8;" x="564.770529" xlink:href="#m9277239aa3" y="638.151667"/>
      </g>
     </g>
     <g id="text_2">
      <!-- 100000 -->
      <defs>
       <path d="M 12.40625 8.296875 
L 28.515625 8.296875 
L 28.515625 63.921875 
L 10.984375 60.40625 
L 10.984375 69.390625 
L 28.421875 72.90625 
L 38.28125 72.90625 
L 38.28125 8.296875 
L 54.390625 8.296875 
L 54.390625 0 
L 12.40625 0 
z
" id="DejaVuSans-49"/>
      </defs>
      <g transform="translate(545.683029 652.750104)scale(0.1 -0.1)">
       <use xlink:href="#DejaVuSans-49"/>
       <use x="63.623047" xlink:href="#DejaVuSans-48"/>
       <use x="127.246094" xlink:href="#DejaVuSans-48"/>
       <use x="190.869141" xlink:href="#DejaVuSans-48"/>
       <use x="254.492188" xlink:href="#DejaVuSans-48"/>
       <use x="318.115234" xlink:href="#DejaVuSans-48"/>
      </g>
     </g>
    </g>
    <g id="xtick_3">
     <g id="line2d_3">
      <g>
       <use style="stroke:#000000;stroke-width:0.8;" x="738.456724" xlink:href="#m9277239aa3" y="638.151667"/>
      </g>
     </g>
     <g id="text_3">
      <!-- 200000 -->
      <defs>
       <path d="M 19.1875 8.296875 
L 53.609375 8.296875 
L 53.609375 0 
L 7.328125 0 
L 7.328125 8.296875 
Q 12.9375 14.109375 22.625 23.890625 
Q 32.328125 33.6875 34.8125 36.53125 
Q 39.546875 41.84375 41.421875 45.53125 
Q 43.3125 49.21875 43.3125 52.78125 
Q 43.3125 58.59375 39.234375 62.25 
Q 35.15625 65.921875 28.609375 65.921875 
Q 23.96875 65.921875 18.8125 64.3125 
Q 13.671875 62.703125 7.8125 59.421875 
L 7.8125 69.390625 
Q 13.765625 71.78125 18.9375 73 
Q 24.125 74.21875 28.421875 74.21875 
Q 39.75 74.21875 46.484375 68.546875 
Q 53.21875 62.890625 53.21875 53.421875 
Q 53.21875 48.921875 51.53125 44.890625 
Q 49.859375 40.875 45.40625 35.40625 
Q 44.1875 33.984375 37.640625 27.21875 
Q 31.109375 20.453125 19.1875 8.296875 
z
" id="DejaVuSans-50"/>
      </defs>
      <g transform="translate(719.369224 652.750104)scale(0.1 -0.1)">
       <use xlink:href="#DejaVuSans-50"/>
       <use x="63.623047" xlink:href="#DejaVuSans-48"/>
       <use x="127.246094" xlink:href="#DejaVuSans-48"/>
       <use x="190.869141" xlink:href="#DejaVuSans-48"/>
       <use x="254.492188" xlink:href="#DejaVuSans-48"/>
       <use x="318.115234" xlink:href="#DejaVuSans-48"/>
      </g>
     </g>
    </g>
    <g id="xtick_4">
     <g id="line2d_4">
      <g>
       <use style="stroke:#000000;stroke-width:0.8;" x="912.14292" xlink:href="#m9277239aa3" y="638.151667"/>
      </g>
     </g>
     <g id="text_4">
      <!-- 300000 -->
      <defs>
       <path d="M 40.578125 39.3125 
Q 47.65625 37.796875 51.625 33 
Q 55.609375 28.21875 55.609375 21.1875 
Q 55.609375 10.40625 48.1875 4.484375 
Q 40.765625 -1.421875 27.09375 -1.421875 
Q 22.515625 -1.421875 17.65625 -0.515625 
Q 12.796875 0.390625 7.625 2.203125 
L 7.625 11.71875 
Q 11.71875 9.328125 16.59375 8.109375 
Q 21.484375 6.890625 26.8125 6.890625 
Q 36.078125 6.890625 40.9375 10.546875 
Q 45.796875 14.203125 45.796875 21.1875 
Q 45.796875 27.640625 41.28125 31.265625 
Q 36.765625 34.90625 28.71875 34.90625 
L 20.21875 34.90625 
L 20.21875 43.015625 
L 29.109375 43.015625 
Q 36.375 43.015625 40.234375 45.921875 
Q 44.09375 48.828125 44.09375 54.296875 
Q 44.09375 59.90625 40.109375 62.90625 
Q 36.140625 65.921875 28.71875 65.921875 
Q 24.65625 65.921875 20.015625 65.03125 
Q 15.375 64.15625 9.8125 62.3125 
L 9.8125 71.09375 
Q 15.4375 72.65625 20.34375 73.4375 
Q 25.25 74.21875 29.59375 74.21875 
Q 40.828125 74.21875 47.359375 69.109375 
Q 53.90625 64.015625 53.90625 55.328125 
Q 53.90625 49.265625 50.4375 45.09375 
Q 46.96875 40.921875 40.578125 39.3125 
z
" id="DejaVuSans-51"/>
      </defs>
      <g transform="translate(893.05542 652.750104)scale(0.1 -0.1)">
       <use xlink:href="#DejaVuSans-51"/>
       <use x="63.623047" xlink:href="#DejaVuSans-48"/>
       <use x="127.246094" xlink:href="#DejaVuSans-48"/>
       <use x="190.869141" xlink:href="#DejaVuSans-48"/>
       <use x="254.492188" xlink:href="#DejaVuSans-48"/>
       <use x="318.115234" xlink:href="#DejaVuSans-48"/>
      </g>
     </g>
    </g>
    <g id="xtick_5">
     <g id="line2d_5">
      <g>
       <use style="stroke:#000000;stroke-width:0.8;" x="1085.829115" xlink:href="#m9277239aa3" y="638.151667"/>
      </g>
     </g>
     <g id="text_5">
      <!-- 400000 -->
      <defs>
       <path d="M 37.796875 64.3125 
L 12.890625 25.390625 
L 37.796875 25.390625 
z
M 35.203125 72.90625 
L 47.609375 72.90625 
L 47.609375 25.390625 
L 58.015625 25.390625 
L 58.015625 17.1875 
L 47.609375 17.1875 
L 47.609375 0 
L 37.796875 0 
L 37.796875 17.1875 
L 4.890625 17.1875 
L 4.890625 26.703125 
z
" id="DejaVuSans-52"/>
      </defs>
      <g transform="translate(1066.741615 652.750104)scale(0.1 -0.1)">
       <use xlink:href="#DejaVuSans-52"/>
       <use x="63.623047" xlink:href="#DejaVuSans-48"/>
       <use x="127.246094" xlink:href="#DejaVuSans-48"/>
       <use x="190.869141" xlink:href="#DejaVuSans-48"/>
       <use x="254.492188" xlink:href="#DejaVuSans-48"/>
       <use x="318.115234" xlink:href="#DejaVuSans-48"/>
      </g>
     </g>
    </g>
    <g id="xtick_6">
     <g id="line2d_6">
      <g>
       <use style="stroke:#000000;stroke-width:0.8;" x="1259.515311" xlink:href="#m9277239aa3" y="638.151667"/>
      </g>
     </g>
     <g id="text_6">
      <!-- 500000 -->
      <defs>
       <path d="M 10.796875 72.90625 
L 49.515625 72.90625 
L 49.515625 64.59375 
L 19.828125 64.59375 
L 19.828125 46.734375 
Q 21.96875 47.46875 24.109375 47.828125 
Q 26.265625 48.1875 28.421875 48.1875 
Q 40.625 48.1875 47.75 41.5 
Q 54.890625 34.8125 54.890625 23.390625 
Q 54.890625 11.625 47.5625 5.09375 
Q 40.234375 -1.421875 26.90625 -1.421875 
Q 22.3125 -1.421875 17.546875 -0.640625 
Q 12.796875 0.140625 7.71875 1.703125 
L 7.71875 11.625 
Q 12.109375 9.234375 16.796875 8.0625 
Q 21.484375 6.890625 26.703125 6.890625 
Q 35.15625 6.890625 40.078125 11.328125 
Q 45.015625 15.765625 45.015625 23.390625 
Q 45.015625 31 40.078125 35.4375 
Q 35.15625 39.890625 26.703125 39.890625 
Q 22.75 39.890625 18.8125 39.015625 
Q 14.890625 38.140625 10.796875 36.28125 
z
" id="DejaVuSans-53"/>
      </defs>
      <g transform="translate(1240.427811 652.750104)scale(0.1 -0.1)">
       <use xlink:href="#DejaVuSans-53"/>
       <use x="63.623047" xlink:href="#DejaVuSans-48"/>
       <use x="127.246094" xlink:href="#DejaVuSans-48"/>
       <use x="190.869141" xlink:href="#DejaVuSans-48"/>
       <use x="254.492188" xlink:href="#DejaVuSans-48"/>
       <use x="318.115234" xlink:href="#DejaVuSans-48"/>
      </g>
     </g>
    </g>
    <g id="text_7">
     <!-- Głosy na poszczególnych kandydatów -->
     <defs>
      <path d="M 59.515625 10.40625 
L 59.515625 29.984375 
L 43.40625 29.984375 
L 43.40625 38.09375 
L 69.28125 38.09375 
L 69.28125 6.78125 
Q 63.578125 2.734375 56.6875 0.65625 
Q 49.8125 -1.421875 42 -1.421875 
Q 24.90625 -1.421875 15.25 8.5625 
Q 5.609375 18.5625 5.609375 36.375 
Q 5.609375 54.25 15.25 64.234375 
Q 24.90625 74.21875 42 74.21875 
Q 49.125 74.21875 55.546875 72.453125 
Q 61.96875 70.703125 67.390625 67.28125 
L 67.390625 56.78125 
Q 61.921875 61.421875 55.765625 63.765625 
Q 49.609375 66.109375 42.828125 66.109375 
Q 29.4375 66.109375 22.71875 58.640625 
Q 16.015625 51.171875 16.015625 36.375 
Q 16.015625 21.625 22.71875 14.15625 
Q 29.4375 6.6875 42.828125 6.6875 
Q 48.046875 6.6875 52.140625 7.59375 
Q 56.25 8.5 59.515625 10.40625 
z
" id="DejaVuSans-71"/>
      <path d="M 9.71875 75.984375 
L 18.703125 75.984375 
L 18.703125 46.578125 
L 24.8125 50.984375 
L 28.515625 45.796875 
L 18.703125 38.921875 
L 18.703125 0 
L 9.71875 0 
L 9.71875 32.515625 
L 3.71875 28.21875 
L 0.09375 33.40625 
L 9.71875 40.28125 
z
" id="DejaVuSans-322"/>
      <path d="M 30.609375 48.390625 
Q 23.390625 48.390625 19.1875 42.75 
Q 14.984375 37.109375 14.984375 27.296875 
Q 14.984375 17.484375 19.15625 11.84375 
Q 23.34375 6.203125 30.609375 6.203125 
Q 37.796875 6.203125 41.984375 11.859375 
Q 46.1875 17.53125 46.1875 27.296875 
Q 46.1875 37.015625 41.984375 42.703125 
Q 37.796875 48.390625 30.609375 48.390625 
z
M 30.609375 56 
Q 42.328125 56 49.015625 48.375 
Q 55.71875 40.765625 55.71875 27.296875 
Q 55.71875 13.875 49.015625 6.21875 
Q 42.328125 -1.421875 30.609375 -1.421875 
Q 18.84375 -1.421875 12.171875 6.21875 
Q 5.515625 13.875 5.515625 27.296875 
Q 5.515625 40.765625 12.171875 48.375 
Q 18.84375 56 30.609375 56 
z
" id="DejaVuSans-111"/>
      <path d="M 44.28125 53.078125 
L 44.28125 44.578125 
Q 40.484375 46.53125 36.375 47.5 
Q 32.28125 48.484375 27.875 48.484375 
Q 21.1875 48.484375 17.84375 46.4375 
Q 14.5 44.390625 14.5 40.28125 
Q 14.5 37.15625 16.890625 35.375 
Q 19.28125 33.59375 26.515625 31.984375 
L 29.59375 31.296875 
Q 39.15625 29.25 43.1875 25.515625 
Q 47.21875 21.78125 47.21875 15.09375 
Q 47.21875 7.46875 41.1875 3.015625 
Q 35.15625 -1.421875 24.609375 -1.421875 
Q 20.21875 -1.421875 15.453125 -0.5625 
Q 10.6875 0.296875 5.421875 2 
L 5.421875 11.28125 
Q 10.40625 8.6875 15.234375 7.390625 
Q 20.0625 6.109375 24.8125 6.109375 
Q 31.15625 6.109375 34.5625 8.28125 
Q 37.984375 10.453125 37.984375 14.40625 
Q 37.984375 18.0625 35.515625 20.015625 
Q 33.0625 21.96875 24.703125 23.78125 
L 21.578125 24.515625 
Q 13.234375 26.265625 9.515625 29.90625 
Q 5.8125 33.546875 5.8125 39.890625 
Q 5.8125 47.609375 11.28125 51.796875 
Q 16.75 56 26.8125 56 
Q 31.78125 56 36.171875 55.265625 
Q 40.578125 54.546875 44.28125 53.078125 
z
" id="DejaVuSans-115"/>
      <path d="M 32.171875 -5.078125 
Q 28.375 -14.84375 24.75 -17.8125 
Q 21.140625 -20.796875 15.09375 -20.796875 
L 7.90625 -20.796875 
L 7.90625 -13.28125 
L 13.1875 -13.28125 
Q 16.890625 -13.28125 18.9375 -11.515625 
Q 21 -9.765625 23.484375 -3.21875 
L 25.09375 0.875 
L 2.984375 54.6875 
L 12.5 54.6875 
L 29.59375 11.921875 
L 46.6875 54.6875 
L 56.203125 54.6875 
z
" id="DejaVuSans-121"/>
      <path id="DejaVuSans-32"/>
      <path d="M 54.890625 33.015625 
L 54.890625 0 
L 45.90625 0 
L 45.90625 32.71875 
Q 45.90625 40.484375 42.875 44.328125 
Q 39.84375 48.1875 33.796875 48.1875 
Q 26.515625 48.1875 22.3125 43.546875 
Q 18.109375 38.921875 18.109375 30.90625 
L 18.109375 0 
L 9.078125 0 
L 9.078125 54.6875 
L 18.109375 54.6875 
L 18.109375 46.1875 
Q 21.34375 51.125 25.703125 53.5625 
Q 30.078125 56 35.796875 56 
Q 45.21875 56 50.046875 50.171875 
Q 54.890625 44.34375 54.890625 33.015625 
z
" id="DejaVuSans-110"/>
      <path d="M 34.28125 27.484375 
Q 23.390625 27.484375 19.1875 25 
Q 14.984375 22.515625 14.984375 16.5 
Q 14.984375 11.71875 18.140625 8.90625 
Q 21.296875 6.109375 26.703125 6.109375 
Q 34.1875 6.109375 38.703125 11.40625 
Q 43.21875 16.703125 43.21875 25.484375 
L 43.21875 27.484375 
z
M 52.203125 31.203125 
L 52.203125 0 
L 43.21875 0 
L 43.21875 8.296875 
Q 40.140625 3.328125 35.546875 0.953125 
Q 30.953125 -1.421875 24.3125 -1.421875 
Q 15.921875 -1.421875 10.953125 3.296875 
Q 6 8.015625 6 15.921875 
Q 6 25.140625 12.171875 29.828125 
Q 18.359375 34.515625 30.609375 34.515625 
L 43.21875 34.515625 
L 43.21875 35.40625 
Q 43.21875 41.609375 39.140625 45 
Q 35.0625 48.390625 27.6875 48.390625 
Q 23 48.390625 18.546875 47.265625 
Q 14.109375 46.140625 10.015625 43.890625 
L 10.015625 52.203125 
Q 14.9375 54.109375 19.578125 55.046875 
Q 24.21875 56 28.609375 56 
Q 40.484375 56 46.34375 49.84375 
Q 52.203125 43.703125 52.203125 31.203125 
z
" id="DejaVuSans-97"/>
      <path d="M 18.109375 8.203125 
L 18.109375 -20.796875 
L 9.078125 -20.796875 
L 9.078125 54.6875 
L 18.109375 54.6875 
L 18.109375 46.390625 
Q 20.953125 51.265625 25.265625 53.625 
Q 29.59375 56 35.59375 56 
Q 45.5625 56 51.78125 48.09375 
Q 58.015625 40.1875 58.015625 27.296875 
Q 58.015625 14.40625 51.78125 6.484375 
Q 45.5625 -1.421875 35.59375 -1.421875 
Q 29.59375 -1.421875 25.265625 0.953125 
Q 20.953125 3.328125 18.109375 8.203125 
z
M 48.6875 27.296875 
Q 48.6875 37.203125 44.609375 42.84375 
Q 40.53125 48.484375 33.40625 48.484375 
Q 26.265625 48.484375 22.1875 42.84375 
Q 18.109375 37.203125 18.109375 27.296875 
Q 18.109375 17.390625 22.1875 11.75 
Q 26.265625 6.109375 33.40625 6.109375 
Q 40.53125 6.109375 44.609375 11.75 
Q 48.6875 17.390625 48.6875 27.296875 
z
" id="DejaVuSans-112"/>
      <path d="M 5.515625 54.6875 
L 48.1875 54.6875 
L 48.1875 46.484375 
L 14.40625 7.171875 
L 48.1875 7.171875 
L 48.1875 0 
L 4.296875 0 
L 4.296875 8.203125 
L 38.09375 47.515625 
L 5.515625 47.515625 
z
" id="DejaVuSans-122"/>
      <path d="M 48.78125 52.59375 
L 48.78125 44.1875 
Q 44.96875 46.296875 41.140625 47.34375 
Q 37.3125 48.390625 33.40625 48.390625 
Q 24.65625 48.390625 19.8125 42.84375 
Q 14.984375 37.3125 14.984375 27.296875 
Q 14.984375 17.28125 19.8125 11.734375 
Q 24.65625 6.203125 33.40625 6.203125 
Q 37.3125 6.203125 41.140625 7.25 
Q 44.96875 8.296875 48.78125 10.40625 
L 48.78125 2.09375 
Q 45.015625 0.34375 40.984375 -0.53125 
Q 36.96875 -1.421875 32.421875 -1.421875 
Q 20.0625 -1.421875 12.78125 6.34375 
Q 5.515625 14.109375 5.515625 27.296875 
Q 5.515625 40.671875 12.859375 48.328125 
Q 20.21875 56 33.015625 56 
Q 37.15625 56 41.109375 55.140625 
Q 45.0625 54.296875 48.78125 52.59375 
z
" id="DejaVuSans-99"/>
      <path d="M 56.203125 29.59375 
L 56.203125 25.203125 
L 14.890625 25.203125 
Q 15.484375 15.921875 20.484375 11.0625 
Q 25.484375 6.203125 34.421875 6.203125 
Q 39.59375 6.203125 44.453125 7.46875 
Q 49.3125 8.734375 54.109375 11.28125 
L 54.109375 2.78125 
Q 49.265625 0.734375 44.1875 -0.34375 
Q 39.109375 -1.421875 33.890625 -1.421875 
Q 20.796875 -1.421875 13.15625 6.1875 
Q 5.515625 13.8125 5.515625 26.8125 
Q 5.515625 40.234375 12.765625 48.109375 
Q 20.015625 56 32.328125 56 
Q 43.359375 56 49.78125 48.890625 
Q 56.203125 41.796875 56.203125 29.59375 
z
M 47.21875 32.234375 
Q 47.125 39.59375 43.09375 43.984375 
Q 39.0625 48.390625 32.421875 48.390625 
Q 24.90625 48.390625 20.390625 44.140625 
Q 15.875 39.890625 15.1875 32.171875 
z
" id="DejaVuSans-101"/>
      <path d="M 45.40625 27.984375 
Q 45.40625 37.75 41.375 43.109375 
Q 37.359375 48.484375 30.078125 48.484375 
Q 22.859375 48.484375 18.828125 43.109375 
Q 14.796875 37.75 14.796875 27.984375 
Q 14.796875 18.265625 18.828125 12.890625 
Q 22.859375 7.515625 30.078125 7.515625 
Q 37.359375 7.515625 41.375 12.890625 
Q 45.40625 18.265625 45.40625 27.984375 
z
M 54.390625 6.78125 
Q 54.390625 -7.171875 48.1875 -13.984375 
Q 42 -20.796875 29.203125 -20.796875 
Q 24.46875 -20.796875 20.265625 -20.09375 
Q 16.0625 -19.390625 12.109375 -17.921875 
L 12.109375 -9.1875 
Q 16.0625 -11.328125 19.921875 -12.34375 
Q 23.78125 -13.375 27.78125 -13.375 
Q 36.625 -13.375 41.015625 -8.765625 
Q 45.40625 -4.15625 45.40625 5.171875 
L 45.40625 9.625 
Q 42.625 4.78125 38.28125 2.390625 
Q 33.9375 0 27.875 0 
Q 17.828125 0 11.671875 7.65625 
Q 5.515625 15.328125 5.515625 27.984375 
Q 5.515625 40.671875 11.671875 48.328125 
Q 17.828125 56 27.875 56 
Q 33.9375 56 38.28125 53.609375 
Q 42.625 51.21875 45.40625 46.390625 
L 45.40625 54.6875 
L 54.390625 54.6875 
z
" id="DejaVuSans-103"/>
      <path d="M 30.609375 48.390625 
Q 23.390625 48.390625 19.1875 42.75 
Q 14.984375 37.109375 14.984375 27.296875 
Q 14.984375 17.484375 19.15625 11.84375 
Q 23.34375 6.203125 30.609375 6.203125 
Q 37.796875 6.203125 41.984375 11.859375 
Q 46.1875 17.53125 46.1875 27.296875 
Q 46.1875 37.015625 41.984375 42.703125 
Q 37.796875 48.390625 30.609375 48.390625 
z
M 30.609375 56 
Q 42.328125 56 49.015625 48.375 
Q 55.71875 40.765625 55.71875 27.296875 
Q 55.71875 13.875 49.015625 6.21875 
Q 42.328125 -1.421875 30.609375 -1.421875 
Q 18.84375 -1.421875 12.171875 6.21875 
Q 5.515625 13.875 5.515625 27.296875 
Q 5.515625 40.765625 12.171875 48.375 
Q 18.84375 56 30.609375 56 
z
M 37.40625 79.984375 
L 47.125 79.984375 
L 31.21875 61.625 
L 23.734375 61.625 
z
" id="DejaVuSans-243"/>
      <path d="M 9.421875 75.984375 
L 18.40625 75.984375 
L 18.40625 0 
L 9.421875 0 
z
" id="DejaVuSans-108"/>
      <path d="M 54.890625 33.015625 
L 54.890625 0 
L 45.90625 0 
L 45.90625 32.71875 
Q 45.90625 40.484375 42.875 44.328125 
Q 39.84375 48.1875 33.796875 48.1875 
Q 26.515625 48.1875 22.3125 43.546875 
Q 18.109375 38.921875 18.109375 30.90625 
L 18.109375 0 
L 9.078125 0 
L 9.078125 75.984375 
L 18.109375 75.984375 
L 18.109375 46.1875 
Q 21.34375 51.125 25.703125 53.5625 
Q 30.078125 56 35.796875 56 
Q 45.21875 56 50.046875 50.171875 
Q 54.890625 44.34375 54.890625 33.015625 
z
" id="DejaVuSans-104"/>
      <path d="M 9.078125 75.984375 
L 18.109375 75.984375 
L 18.109375 31.109375 
L 44.921875 54.6875 
L 56.390625 54.6875 
L 27.390625 29.109375 
L 57.625 0 
L 45.90625 0 
L 18.109375 26.703125 
L 18.109375 0 
L 9.078125 0 
z
" id="DejaVuSans-107"/>
      <path d="M 45.40625 46.390625 
L 45.40625 75.984375 
L 54.390625 75.984375 
L 54.390625 0 
L 45.40625 0 
L 45.40625 8.203125 
Q 42.578125 3.328125 38.25 0.953125 
Q 33.9375 -1.421875 27.875 -1.421875 
Q 17.96875 -1.421875 11.734375 6.484375 
Q 5.515625 14.40625 5.515625 27.296875 
Q 5.515625 40.1875 11.734375 48.09375 
Q 17.96875 56 27.875 56 
Q 33.9375 56 38.25 53.625 
Q 42.578125 51.265625 45.40625 46.390625 
z
M 14.796875 27.296875 
Q 14.796875 17.390625 18.875 11.75 
Q 22.953125 6.109375 30.078125 6.109375 
Q 37.203125 6.109375 41.296875 11.75 
Q 45.40625 17.390625 45.40625 27.296875 
Q 45.40625 37.203125 41.296875 42.84375 
Q 37.203125 48.484375 30.078125 48.484375 
Q 22.953125 48.484375 18.875 42.84375 
Q 14.796875 37.203125 14.796875 27.296875 
z
" id="DejaVuSans-100"/>
      <path d="M 18.3125 70.21875 
L 18.3125 54.6875 
L 36.8125 54.6875 
L 36.8125 47.703125 
L 18.3125 47.703125 
L 18.3125 18.015625 
Q 18.3125 11.328125 20.140625 9.421875 
Q 21.96875 7.515625 27.59375 7.515625 
L 36.8125 7.515625 
L 36.8125 0 
L 27.59375 0 
Q 17.1875 0 13.234375 3.875 
Q 9.28125 7.765625 9.28125 18.015625 
L 9.28125 47.703125 
L 2.6875 47.703125 
L 2.6875 54.6875 
L 9.28125 54.6875 
L 9.28125 70.21875 
z
" id="DejaVuSans-116"/>
      <path d="M 4.203125 54.6875 
L 13.1875 54.6875 
L 24.421875 12.015625 
L 35.59375 54.6875 
L 46.1875 54.6875 
L 57.421875 12.015625 
L 68.609375 54.6875 
L 77.59375 54.6875 
L 63.28125 0 
L 52.6875 0 
L 40.921875 44.828125 
L 29.109375 0 
L 18.5 0 
z
" id="DejaVuSans-119"/>
     </defs>
     <g transform="translate(752.692187 666.828229)scale(0.1 -0.1)">
      <use xlink:href="#DejaVuSans-71"/>
      <use x="77.490234" xlink:href="#DejaVuSans-322"/>
      <use x="105.908203" xlink:href="#DejaVuSans-111"/>
      <use x="167.089844" xlink:href="#DejaVuSans-115"/>
      <use x="219.189453" xlink:href="#DejaVuSans-121"/>
      <use x="278.369141" xlink:href="#DejaVuSans-32"/>
      <use x="310.15625" xlink:href="#DejaVuSans-110"/>
      <use x="373.535156" xlink:href="#DejaVuSans-97"/>
      <use x="434.814453" xlink:href="#DejaVuSans-32"/>
      <use x="466.601562" xlink:href="#DejaVuSans-112"/>
      <use x="530.078125" xlink:href="#DejaVuSans-111"/>
      <use x="591.259766" xlink:href="#DejaVuSans-115"/>
      <use x="643.359375" xlink:href="#DejaVuSans-122"/>
      <use x="695.849609" xlink:href="#DejaVuSans-99"/>
      <use x="750.830078" xlink:href="#DejaVuSans-122"/>
      <use x="803.320312" xlink:href="#DejaVuSans-101"/>
      <use x="864.84375" xlink:href="#DejaVuSans-103"/>
      <use x="928.320312" xlink:href="#DejaVuSans-243"/>
      <use x="989.501953" xlink:href="#DejaVuSans-108"/>
      <use x="1017.285156" xlink:href="#DejaVuSans-110"/>
      <use x="1080.664062" xlink:href="#DejaVuSans-121"/>
      <use x="1139.84375" xlink:href="#DejaVuSans-99"/>
      <use x="1194.824219" xlink:href="#DejaVuSans-104"/>
      <use x="1258.203125" xlink:href="#DejaVuSans-32"/>
      <use x="1289.990234" xlink:href="#DejaVuSans-107"/>
      <use x="1347.884766" xlink:href="#DejaVuSans-97"/>
      <use x="1409.164062" xlink:href="#DejaVuSans-110"/>
      <use x="1472.542969" xlink:href="#DejaVuSans-100"/>
      <use x="1536.019531" xlink:href="#DejaVuSans-121"/>
      <use x="1595.199219" xlink:href="#DejaVuSans-100"/>
      <use x="1658.675781" xlink:href="#DejaVuSans-97"/>
      <use x="1719.955078" xlink:href="#DejaVuSans-116"/>
      <use x="1759.164062" xlink:href="#DejaVuSans-243"/>
      <use x="1820.345703" xlink:href="#DejaVuSans-119"/>
     </g>
    </g>
   </g>
   <g id="matplotlib.axis_2">
    <g id="ytick_1">
     <g id="line2d_7">
      <defs>
       <path d="M 0 0 
L -3.5 0 
" id="m47056be7d2" style="stroke:#000000;stroke-width:0.8;"/>
      </defs>
      <g>
       <use style="stroke:#000000;stroke-width:0.8;" x="345.6" xlink:href="#m47056be7d2" y="57.3175"/>
      </g>
     </g>
    </g>
    <g id="ytick_2">
     <g id="line2d_8">
      <g>
       <use style="stroke:#000000;stroke-width:0.8;" x="345.6" xlink:href="#m47056be7d2" y="85.650874"/>
      </g>
     </g>
     <g id="text_8">
      <!-- parlamentarzysta -->
      <defs>
       <path d="M 41.109375 46.296875 
Q 39.59375 47.171875 37.8125 47.578125 
Q 36.03125 48 33.890625 48 
Q 26.265625 48 22.1875 43.046875 
Q 18.109375 38.09375 18.109375 28.8125 
L 18.109375 0 
L 9.078125 0 
L 9.078125 54.6875 
L 18.109375 54.6875 
L 18.109375 46.1875 
Q 20.953125 51.171875 25.484375 53.578125 
Q 30.03125 56 36.53125 56 
Q 37.453125 56 38.578125 55.875 
Q 39.703125 55.765625 41.0625 55.515625 
z
" id="DejaVuSans-114"/>
       <path d="M 52 44.1875 
Q 55.375 50.25 60.0625 53.125 
Q 64.75 56 71.09375 56 
Q 79.640625 56 84.28125 50.015625 
Q 88.921875 44.046875 88.921875 33.015625 
L 88.921875 0 
L 79.890625 0 
L 79.890625 32.71875 
Q 79.890625 40.578125 77.09375 44.375 
Q 74.3125 48.1875 68.609375 48.1875 
Q 61.625 48.1875 57.5625 43.546875 
Q 53.515625 38.921875 53.515625 30.90625 
L 53.515625 0 
L 44.484375 0 
L 44.484375 32.71875 
Q 44.484375 40.625 41.703125 44.40625 
Q 38.921875 48.1875 33.109375 48.1875 
Q 26.21875 48.1875 22.15625 43.53125 
Q 18.109375 38.875 18.109375 30.90625 
L 18.109375 0 
L 9.078125 0 
L 9.078125 54.6875 
L 18.109375 54.6875 
L 18.109375 46.1875 
Q 21.1875 51.21875 25.484375 53.609375 
Q 29.78125 56 35.6875 56 
Q 41.65625 56 45.828125 52.96875 
Q 50 49.953125 52 44.1875 
z
" id="DejaVuSans-109"/>
      </defs>
      <g transform="translate(250.290625 89.450093)scale(0.1 -0.1)">
       <use xlink:href="#DejaVuSans-112"/>
       <use x="63.476562" xlink:href="#DejaVuSans-97"/>
       <use x="124.755859" xlink:href="#DejaVuSans-114"/>
       <use x="165.869141" xlink:href="#DejaVuSans-108"/>
       <use x="193.652344" xlink:href="#DejaVuSans-97"/>
       <use x="254.931641" xlink:href="#DejaVuSans-109"/>
       <use x="352.34375" xlink:href="#DejaVuSans-101"/>
       <use x="413.867188" xlink:href="#DejaVuSans-110"/>
       <use x="477.246094" xlink:href="#DejaVuSans-116"/>
       <use x="516.455078" xlink:href="#DejaVuSans-97"/>
       <use x="577.734375" xlink:href="#DejaVuSans-114"/>
       <use x="618.847656" xlink:href="#DejaVuSans-122"/>
       <use x="671.337891" xlink:href="#DejaVuSans-121"/>
       <use x="730.517578" xlink:href="#DejaVuSans-115"/>
       <use x="782.617188" xlink:href="#DejaVuSans-116"/>
       <use x="821.826172" xlink:href="#DejaVuSans-97"/>
      </g>
     </g>
    </g>
    <g id="ytick_3">
     <g id="line2d_9">
      <g>
       <use style="stroke:#000000;stroke-width:0.8;" x="345.6" xlink:href="#m47056be7d2" y="113.984248"/>
      </g>
     </g>
     <g id="text_9">
      <!-- politolog -->
      <defs>
       <path d="M 9.421875 54.6875 
L 18.40625 54.6875 
L 18.40625 0 
L 9.421875 0 
z
M 9.421875 75.984375 
L 18.40625 75.984375 
L 18.40625 64.59375 
L 9.421875 64.59375 
z
" id="DejaVuSans-105"/>
      </defs>
      <g transform="translate(295.292187 117.783467)scale(0.1 -0.1)">
       <use xlink:href="#DejaVuSans-112"/>
       <use x="63.476562" xlink:href="#DejaVuSans-111"/>
       <use x="124.658203" xlink:href="#DejaVuSans-108"/>
       <use x="152.441406" xlink:href="#DejaVuSans-105"/>
       <use x="180.224609" xlink:href="#DejaVuSans-116"/>
       <use x="219.433594" xlink:href="#DejaVuSans-111"/>
       <use x="280.615234" xlink:href="#DejaVuSans-108"/>
       <use x="308.398438" xlink:href="#DejaVuSans-111"/>
       <use x="369.580078" xlink:href="#DejaVuSans-103"/>
      </g>
     </g>
    </g>
    <g id="ytick_4">
     <g id="line2d_10">
      <g>
       <use style="stroke:#000000;stroke-width:0.8;" x="345.6" xlink:href="#m47056be7d2" y="142.317622"/>
      </g>
     </g>
     <g id="text_10">
      <!-- nauczyciel akademicki -->
      <defs>
       <path d="M 8.5 21.578125 
L 8.5 54.6875 
L 17.484375 54.6875 
L 17.484375 21.921875 
Q 17.484375 14.15625 20.5 10.265625 
Q 23.53125 6.390625 29.59375 6.390625 
Q 36.859375 6.390625 41.078125 11.03125 
Q 45.3125 15.671875 45.3125 23.6875 
L 45.3125 54.6875 
L 54.296875 54.6875 
L 54.296875 0 
L 45.3125 0 
L 45.3125 8.40625 
Q 42.046875 3.421875 37.71875 1 
Q 33.40625 -1.421875 27.6875 -1.421875 
Q 18.265625 -1.421875 13.375 4.4375 
Q 8.5 10.296875 8.5 21.578125 
z
M 31.109375 56 
z
" id="DejaVuSans-117"/>
      </defs>
      <g transform="translate(225.6125 146.116841)scale(0.1 -0.1)">
       <use xlink:href="#DejaVuSans-110"/>
       <use x="63.378906" xlink:href="#DejaVuSans-97"/>
       <use x="124.658203" xlink:href="#DejaVuSans-117"/>
       <use x="188.037109" xlink:href="#DejaVuSans-99"/>
       <use x="243.017578" xlink:href="#DejaVuSans-122"/>
       <use x="295.507812" xlink:href="#DejaVuSans-121"/>
       <use x="354.6875" xlink:href="#DejaVuSans-99"/>
       <use x="409.667969" xlink:href="#DejaVuSans-105"/>
       <use x="437.451172" xlink:href="#DejaVuSans-101"/>
       <use x="498.974609" xlink:href="#DejaVuSans-108"/>
       <use x="526.757812" xlink:href="#DejaVuSans-32"/>
       <use x="558.544922" xlink:href="#DejaVuSans-97"/>
       <use x="619.824219" xlink:href="#DejaVuSans-107"/>
       <use x="677.71875" xlink:href="#DejaVuSans-97"/>
       <use x="738.998047" xlink:href="#DejaVuSans-100"/>
       <use x="802.474609" xlink:href="#DejaVuSans-101"/>
       <use x="863.998047" xlink:href="#DejaVuSans-109"/>
       <use x="961.410156" xlink:href="#DejaVuSans-105"/>
       <use x="989.193359" xlink:href="#DejaVuSans-99"/>
       <use x="1044.173828" xlink:href="#DejaVuSans-107"/>
       <use x="1102.083984" xlink:href="#DejaVuSans-105"/>
      </g>
     </g>
    </g>
    <g id="ytick_5">
     <g id="line2d_11">
      <g>
       <use style="stroke:#000000;stroke-width:0.8;" x="345.6" xlink:href="#m47056be7d2" y="170.650996"/>
      </g>
     </g>
     <g id="text_11">
      <!-- ekonomista -->
      <g transform="translate(280.309375 174.450215)scale(0.1 -0.1)">
       <use xlink:href="#DejaVuSans-101"/>
       <use x="61.523438" xlink:href="#DejaVuSans-107"/>
       <use x="119.386719" xlink:href="#DejaVuSans-111"/>
       <use x="180.568359" xlink:href="#DejaVuSans-110"/>
       <use x="243.947266" xlink:href="#DejaVuSans-111"/>
       <use x="305.128906" xlink:href="#DejaVuSans-109"/>
       <use x="402.541016" xlink:href="#DejaVuSans-105"/>
       <use x="430.324219" xlink:href="#DejaVuSans-115"/>
       <use x="482.423828" xlink:href="#DejaVuSans-116"/>
       <use x="521.632812" xlink:href="#DejaVuSans-97"/>
      </g>
     </g>
    </g>
    <g id="ytick_6">
     <g id="line2d_12">
      <g>
       <use style="stroke:#000000;stroke-width:0.8;" x="345.6" xlink:href="#m47056be7d2" y="198.98437"/>
      </g>
     </g>
     <g id="text_12">
      <!-- historyk -->
      <g transform="translate(298.415625 202.783589)scale(0.1 -0.1)">
       <use xlink:href="#DejaVuSans-104"/>
       <use x="63.378906" xlink:href="#DejaVuSans-105"/>
       <use x="91.162109" xlink:href="#DejaVuSans-115"/>
       <use x="143.261719" xlink:href="#DejaVuSans-116"/>
       <use x="182.470703" xlink:href="#DejaVuSans-111"/>
       <use x="243.652344" xlink:href="#DejaVuSans-114"/>
       <use x="284.765625" xlink:href="#DejaVuSans-121"/>
       <use x="343.945312" xlink:href="#DejaVuSans-107"/>
      </g>
     </g>
    </g>
    <g id="ytick_7">
     <g id="line2d_13">
      <g>
       <use style="stroke:#000000;stroke-width:0.8;" x="345.6" xlink:href="#m47056be7d2" y="227.317744"/>
      </g>
     </g>
     <g id="text_13">
      <!-- prawnik -->
      <g transform="translate(298.928125 231.116963)scale(0.1 -0.1)">
       <use xlink:href="#DejaVuSans-112"/>
       <use x="63.476562" xlink:href="#DejaVuSans-114"/>
       <use x="104.589844" xlink:href="#DejaVuSans-97"/>
       <use x="165.869141" xlink:href="#DejaVuSans-119"/>
       <use x="247.65625" xlink:href="#DejaVuSans-110"/>
       <use x="311.035156" xlink:href="#DejaVuSans-105"/>
       <use x="338.818359" xlink:href="#DejaVuSans-107"/>
      </g>
     </g>
    </g>
    <g id="ytick_8">
     <g id="line2d_14">
      <g>
       <use style="stroke:#000000;stroke-width:0.8;" x="345.6" xlink:href="#m47056be7d2" y="255.651118"/>
      </g>
     </g>
     <g id="text_14">
      <!-- lekarz -->
      <g transform="translate(308.392187 259.450337)scale(0.1 -0.1)">
       <use xlink:href="#DejaVuSans-108"/>
       <use x="27.783203" xlink:href="#DejaVuSans-101"/>
       <use x="89.306641" xlink:href="#DejaVuSans-107"/>
       <use x="147.201172" xlink:href="#DejaVuSans-97"/>
       <use x="208.480469" xlink:href="#DejaVuSans-114"/>
       <use x="249.59375" xlink:href="#DejaVuSans-122"/>
      </g>
     </g>
    </g>
    <g id="ytick_9">
     <g id="line2d_15">
      <g>
       <use style="stroke:#000000;stroke-width:0.8;" x="345.6" xlink:href="#m47056be7d2" y="283.984492"/>
      </g>
     </g>
     <g id="text_15">
      <!-- poseł do Parlamentu -->
      <defs>
       <path d="M 19.671875 64.796875 
L 19.671875 37.40625 
L 32.078125 37.40625 
Q 38.96875 37.40625 42.71875 40.96875 
Q 46.484375 44.53125 46.484375 51.125 
Q 46.484375 57.671875 42.71875 61.234375 
Q 38.96875 64.796875 32.078125 64.796875 
z
M 9.8125 72.90625 
L 32.078125 72.90625 
Q 44.34375 72.90625 50.609375 67.359375 
Q 56.890625 61.8125 56.890625 51.125 
Q 56.890625 40.328125 50.609375 34.8125 
Q 44.34375 29.296875 32.078125 29.296875 
L 19.671875 29.296875 
L 19.671875 0 
L 9.8125 0 
z
" id="DejaVuSans-80"/>
      </defs>
      <g transform="translate(235.446875 282.944648)scale(0.1 -0.1)">
       <use xlink:href="#DejaVuSans-112"/>
       <use x="63.476562" xlink:href="#DejaVuSans-111"/>
       <use x="124.658203" xlink:href="#DejaVuSans-115"/>
       <use x="176.757812" xlink:href="#DejaVuSans-101"/>
       <use x="238.28125" xlink:href="#DejaVuSans-322"/>
       <use x="266.699219" xlink:href="#DejaVuSans-32"/>
       <use x="298.486328" xlink:href="#DejaVuSans-100"/>
       <use x="361.962891" xlink:href="#DejaVuSans-111"/>
       <use x="423.144531" xlink:href="#DejaVuSans-32"/>
       <use x="454.931641" xlink:href="#DejaVuSans-80"/>
       <use x="515.171875" xlink:href="#DejaVuSans-97"/>
       <use x="576.451172" xlink:href="#DejaVuSans-114"/>
       <use x="617.564453" xlink:href="#DejaVuSans-108"/>
       <use x="645.347656" xlink:href="#DejaVuSans-97"/>
       <use x="706.626953" xlink:href="#DejaVuSans-109"/>
       <use x="804.039062" xlink:href="#DejaVuSans-101"/>
       <use x="865.5625" xlink:href="#DejaVuSans-110"/>
       <use x="928.941406" xlink:href="#DejaVuSans-116"/>
       <use x="968.150391" xlink:href="#DejaVuSans-117"/>
      </g>
      <!-- Europejskiego -->
      <defs>
       <path d="M 9.8125 72.90625 
L 55.90625 72.90625 
L 55.90625 64.59375 
L 19.671875 64.59375 
L 19.671875 43.015625 
L 54.390625 43.015625 
L 54.390625 34.71875 
L 19.671875 34.71875 
L 19.671875 8.296875 
L 56.78125 8.296875 
L 56.78125 0 
L 9.8125 0 
z
" id="DejaVuSans-69"/>
       <path d="M 9.421875 54.6875 
L 18.40625 54.6875 
L 18.40625 -0.984375 
Q 18.40625 -11.421875 14.421875 -16.109375 
Q 10.453125 -20.796875 1.609375 -20.796875 
L -1.8125 -20.796875 
L -1.8125 -13.1875 
L 0.59375 -13.1875 
Q 5.71875 -13.1875 7.5625 -10.8125 
Q 9.421875 -8.453125 9.421875 -0.984375 
z
M 9.421875 75.984375 
L 18.40625 75.984375 
L 18.40625 64.59375 
L 9.421875 64.59375 
z
" id="DejaVuSans-106"/>
      </defs>
      <g transform="translate(268.039062 294.142461)scale(0.1 -0.1)">
       <use xlink:href="#DejaVuSans-69"/>
       <use x="63.183594" xlink:href="#DejaVuSans-117"/>
       <use x="126.5625" xlink:href="#DejaVuSans-114"/>
       <use x="167.644531" xlink:href="#DejaVuSans-111"/>
       <use x="228.826172" xlink:href="#DejaVuSans-112"/>
       <use x="292.302734" xlink:href="#DejaVuSans-101"/>
       <use x="353.826172" xlink:href="#DejaVuSans-106"/>
       <use x="381.609375" xlink:href="#DejaVuSans-115"/>
       <use x="433.708984" xlink:href="#DejaVuSans-107"/>
       <use x="491.619141" xlink:href="#DejaVuSans-105"/>
       <use x="519.402344" xlink:href="#DejaVuSans-101"/>
       <use x="580.925781" xlink:href="#DejaVuSans-103"/>
       <use x="644.402344" xlink:href="#DejaVuSans-111"/>
      </g>
     </g>
    </g>
    <g id="ytick_10">
     <g id="line2d_16">
      <g>
       <use style="stroke:#000000;stroke-width:0.8;" x="345.6" xlink:href="#m47056be7d2" y="312.317866"/>
      </g>
     </g>
     <g id="text_16">
      <!-- pedagog -->
      <g transform="translate(294.80625 316.117085)scale(0.1 -0.1)">
       <use xlink:href="#DejaVuSans-112"/>
       <use x="63.476562" xlink:href="#DejaVuSans-101"/>
       <use x="125" xlink:href="#DejaVuSans-100"/>
       <use x="188.476562" xlink:href="#DejaVuSans-97"/>
       <use x="249.755859" xlink:href="#DejaVuSans-103"/>
       <use x="313.232422" xlink:href="#DejaVuSans-111"/>
       <use x="374.414062" xlink:href="#DejaVuSans-103"/>
      </g>
     </g>
    </g>
    <g id="ytick_11">
     <g id="line2d_17">
      <g>
       <use style="stroke:#000000;stroke-width:0.8;" x="345.6" xlink:href="#m47056be7d2" y="340.65124"/>
      </g>
     </g>
     <g id="text_17">
      <!-- socjolog -->
      <g transform="translate(297.63125 344.450459)scale(0.1 -0.1)">
       <use xlink:href="#DejaVuSans-115"/>
       <use x="52.099609" xlink:href="#DejaVuSans-111"/>
       <use x="113.28125" xlink:href="#DejaVuSans-99"/>
       <use x="168.261719" xlink:href="#DejaVuSans-106"/>
       <use x="196.044922" xlink:href="#DejaVuSans-111"/>
       <use x="257.226562" xlink:href="#DejaVuSans-108"/>
       <use x="285.009766" xlink:href="#DejaVuSans-111"/>
       <use x="346.191406" xlink:href="#DejaVuSans-103"/>
      </g>
     </g>
    </g>
    <g id="ytick_12">
     <g id="line2d_18">
      <g>
       <use style="stroke:#000000;stroke-width:0.8;" x="345.6" xlink:href="#m47056be7d2" y="368.984614"/>
      </g>
     </g>
     <g id="text_18">
      <!-- ekonomistka -->
      <g transform="translate(274.520312 372.783833)scale(0.1 -0.1)">
       <use xlink:href="#DejaVuSans-101"/>
       <use x="61.523438" xlink:href="#DejaVuSans-107"/>
       <use x="119.386719" xlink:href="#DejaVuSans-111"/>
       <use x="180.568359" xlink:href="#DejaVuSans-110"/>
       <use x="243.947266" xlink:href="#DejaVuSans-111"/>
       <use x="305.128906" xlink:href="#DejaVuSans-109"/>
       <use x="402.541016" xlink:href="#DejaVuSans-105"/>
       <use x="430.324219" xlink:href="#DejaVuSans-115"/>
       <use x="482.423828" xlink:href="#DejaVuSans-116"/>
       <use x="521.632812" xlink:href="#DejaVuSans-107"/>
       <use x="579.527344" xlink:href="#DejaVuSans-97"/>
      </g>
     </g>
    </g>
    <g id="ytick_13">
     <g id="line2d_19">
      <g>
       <use style="stroke:#000000;stroke-width:0.8;" x="345.6" xlink:href="#m47056be7d2" y="397.317988"/>
      </g>
     </g>
     <g id="text_19">
      <!-- przedsiębiorca -->
      <defs>
       <path d="M 56.203125 29.59375 
L 56.203125 25.203125 
L 14.890625 25.203125 
Q 15.484375 15.921875 20.484375 11.0625 
Q 25.484375 6.203125 34.421875 6.203125 
Q 39.59375 6.203125 44.453125 7.46875 
Q 49.3125 8.734375 54.109375 11.28125 
L 54.109375 2.78125 
Q 49.265625 0.734375 44.1875 -0.34375 
Q 39.109375 -1.421875 33.890625 -1.421875 
Q 20.796875 -1.421875 13.15625 6.1875 
Q 5.515625 13.8125 5.515625 26.8125 
Q 5.515625 40.234375 12.765625 48.109375 
Q 20.015625 56 32.328125 56 
Q 43.359375 56 49.78125 48.890625 
Q 56.203125 41.796875 56.203125 29.59375 
z
M 47.21875 32.234375 
Q 47.125 39.59375 43.09375 43.984375 
Q 39.0625 48.390625 32.421875 48.390625 
Q 24.90625 48.390625 20.390625 44.140625 
Q 15.875 39.890625 15.1875 32.171875 
z
M 39.859375 0 
L 45.671875 0 
Q 43.46875 -2.984375 42.421875 -5.125 
Q 41.375 -7.28125 41.375 -8.796875 
Q 41.375 -11.03125 42.71875 -12.15625 
Q 44.0625 -13.28125 46.703125 -13.28125 
Q 48.265625 -13.28125 49.765625 -12.90625 
Q 51.28125 -12.546875 52.796875 -11.8125 
L 52.796875 -18.3125 
Q 50.9375 -18.796875 49.28125 -19.03125 
Q 47.625 -19.28125 46.15625 -19.28125 
Q 40.203125 -19.28125 37.390625 -17.15625 
Q 34.59375 -15.046875 34.59375 -10.5 
Q 34.59375 -8.15625 35.875 -5.59375 
Q 37.171875 -3.03125 39.859375 0 
z
" id="DejaVuSans-281"/>
       <path d="M 48.6875 27.296875 
Q 48.6875 37.203125 44.609375 42.84375 
Q 40.53125 48.484375 33.40625 48.484375 
Q 26.265625 48.484375 22.1875 42.84375 
Q 18.109375 37.203125 18.109375 27.296875 
Q 18.109375 17.390625 22.1875 11.75 
Q 26.265625 6.109375 33.40625 6.109375 
Q 40.53125 6.109375 44.609375 11.75 
Q 48.6875 17.390625 48.6875 27.296875 
z
M 18.109375 46.390625 
Q 20.953125 51.265625 25.265625 53.625 
Q 29.59375 56 35.59375 56 
Q 45.5625 56 51.78125 48.09375 
Q 58.015625 40.1875 58.015625 27.296875 
Q 58.015625 14.40625 51.78125 6.484375 
Q 45.5625 -1.421875 35.59375 -1.421875 
Q 29.59375 -1.421875 25.265625 0.953125 
Q 20.953125 3.328125 18.109375 8.203125 
L 18.109375 0 
L 9.078125 0 
L 9.078125 75.984375 
L 18.109375 75.984375 
z
" id="DejaVuSans-98"/>
      </defs>
      <g transform="translate(265.270312 401.117207)scale(0.1 -0.1)">
       <use xlink:href="#DejaVuSans-112"/>
       <use x="63.476562" xlink:href="#DejaVuSans-114"/>
       <use x="104.589844" xlink:href="#DejaVuSans-122"/>
       <use x="157.080078" xlink:href="#DejaVuSans-101"/>
       <use x="218.603516" xlink:href="#DejaVuSans-100"/>
       <use x="282.080078" xlink:href="#DejaVuSans-115"/>
       <use x="334.179688" xlink:href="#DejaVuSans-105"/>
       <use x="361.962891" xlink:href="#DejaVuSans-281"/>
       <use x="423.486328" xlink:href="#DejaVuSans-98"/>
       <use x="486.962891" xlink:href="#DejaVuSans-105"/>
       <use x="514.746094" xlink:href="#DejaVuSans-111"/>
       <use x="575.927734" xlink:href="#DejaVuSans-114"/>
       <use x="617.009766" xlink:href="#DejaVuSans-99"/>
       <use x="671.990234" xlink:href="#DejaVuSans-97"/>
      </g>
     </g>
    </g>
    <g id="ytick_14">
     <g id="line2d_20">
      <g>
       <use style="stroke:#000000;stroke-width:0.8;" x="345.6" xlink:href="#m47056be7d2" y="425.651362"/>
      </g>
     </g>
     <g id="text_20">
      <!-- pracownik humanitarny -->
      <g transform="translate(220.059375 429.450581)scale(0.1 -0.1)">
       <use xlink:href="#DejaVuSans-112"/>
       <use x="63.476562" xlink:href="#DejaVuSans-114"/>
       <use x="104.589844" xlink:href="#DejaVuSans-97"/>
       <use x="165.869141" xlink:href="#DejaVuSans-99"/>
       <use x="220.849609" xlink:href="#DejaVuSans-111"/>
       <use x="282.03125" xlink:href="#DejaVuSans-119"/>
       <use x="363.818359" xlink:href="#DejaVuSans-110"/>
       <use x="427.197266" xlink:href="#DejaVuSans-105"/>
       <use x="454.980469" xlink:href="#DejaVuSans-107"/>
       <use x="512.890625" xlink:href="#DejaVuSans-32"/>
       <use x="544.677734" xlink:href="#DejaVuSans-104"/>
       <use x="608.056641" xlink:href="#DejaVuSans-117"/>
       <use x="671.435547" xlink:href="#DejaVuSans-109"/>
       <use x="768.847656" xlink:href="#DejaVuSans-97"/>
       <use x="830.126953" xlink:href="#DejaVuSans-110"/>
       <use x="893.505859" xlink:href="#DejaVuSans-105"/>
       <use x="921.289062" xlink:href="#DejaVuSans-116"/>
       <use x="960.498047" xlink:href="#DejaVuSans-97"/>
       <use x="1021.777344" xlink:href="#DejaVuSans-114"/>
       <use x="1062.875" xlink:href="#DejaVuSans-110"/>
       <use x="1126.253906" xlink:href="#DejaVuSans-121"/>
      </g>
     </g>
    </g>
    <g id="ytick_15">
     <g id="line2d_21">
      <g>
       <use style="stroke:#000000;stroke-width:0.8;" x="345.6" xlink:href="#m47056be7d2" y="453.984736"/>
      </g>
     </g>
     <g id="text_21">
      <!-- polityk -->
      <g transform="translate(304.946875 457.783955)scale(0.1 -0.1)">
       <use xlink:href="#DejaVuSans-112"/>
       <use x="63.476562" xlink:href="#DejaVuSans-111"/>
       <use x="124.658203" xlink:href="#DejaVuSans-108"/>
       <use x="152.441406" xlink:href="#DejaVuSans-105"/>
       <use x="180.224609" xlink:href="#DejaVuSans-116"/>
       <use x="219.433594" xlink:href="#DejaVuSans-121"/>
       <use x="278.613281" xlink:href="#DejaVuSans-107"/>
      </g>
     </g>
    </g>
    <g id="ytick_16">
     <g id="line2d_22">
      <g>
       <use style="stroke:#000000;stroke-width:0.8;" x="345.6" xlink:href="#m47056be7d2" y="482.31811"/>
      </g>
     </g>
     <g id="text_22">
      <!-- adwokat -->
      <g transform="translate(295.989062 486.117329)scale(0.1 -0.1)">
       <use xlink:href="#DejaVuSans-97"/>
       <use x="61.279297" xlink:href="#DejaVuSans-100"/>
       <use x="124.755859" xlink:href="#DejaVuSans-119"/>
       <use x="206.542969" xlink:href="#DejaVuSans-111"/>
       <use x="267.724609" xlink:href="#DejaVuSans-107"/>
       <use x="325.619141" xlink:href="#DejaVuSans-97"/>
       <use x="386.898438" xlink:href="#DejaVuSans-116"/>
      </g>
     </g>
    </g>
    <g id="ytick_17">
     <g id="line2d_23">
      <g>
       <use style="stroke:#000000;stroke-width:0.8;" x="345.6" xlink:href="#m47056be7d2" y="510.651484"/>
      </g>
     </g>
     <g id="text_23">
      <!-- nauczyciel -->
      <g transform="translate(285.923437 514.450702)scale(0.1 -0.1)">
       <use xlink:href="#DejaVuSans-110"/>
       <use x="63.378906" xlink:href="#DejaVuSans-97"/>
       <use x="124.658203" xlink:href="#DejaVuSans-117"/>
       <use x="188.037109" xlink:href="#DejaVuSans-99"/>
       <use x="243.017578" xlink:href="#DejaVuSans-122"/>
       <use x="295.507812" xlink:href="#DejaVuSans-121"/>
       <use x="354.6875" xlink:href="#DejaVuSans-99"/>
       <use x="409.667969" xlink:href="#DejaVuSans-105"/>
       <use x="437.451172" xlink:href="#DejaVuSans-101"/>
       <use x="498.974609" xlink:href="#DejaVuSans-108"/>
      </g>
     </g>
    </g>
    <g id="ytick_18">
     <g id="line2d_24">
      <g>
       <use style="stroke:#000000;stroke-width:0.8;" x="345.6" xlink:href="#m47056be7d2" y="538.984858"/>
      </g>
     </g>
     <g id="text_24">
      <!-- wykładowca akademicki -->
      <g transform="translate(217.159375 542.784076)scale(0.1 -0.1)">
       <use xlink:href="#DejaVuSans-119"/>
       <use x="81.787109" xlink:href="#DejaVuSans-121"/>
       <use x="140.966797" xlink:href="#DejaVuSans-107"/>
       <use x="198.876953" xlink:href="#DejaVuSans-322"/>
       <use x="227.294922" xlink:href="#DejaVuSans-97"/>
       <use x="288.574219" xlink:href="#DejaVuSans-100"/>
       <use x="352.050781" xlink:href="#DejaVuSans-111"/>
       <use x="413.232422" xlink:href="#DejaVuSans-119"/>
       <use x="495.019531" xlink:href="#DejaVuSans-99"/>
       <use x="550" xlink:href="#DejaVuSans-97"/>
       <use x="611.279297" xlink:href="#DejaVuSans-32"/>
       <use x="643.066406" xlink:href="#DejaVuSans-97"/>
       <use x="704.345703" xlink:href="#DejaVuSans-107"/>
       <use x="762.240234" xlink:href="#DejaVuSans-97"/>
       <use x="823.519531" xlink:href="#DejaVuSans-100"/>
       <use x="886.996094" xlink:href="#DejaVuSans-101"/>
       <use x="948.519531" xlink:href="#DejaVuSans-109"/>
       <use x="1045.931641" xlink:href="#DejaVuSans-105"/>
       <use x="1073.714844" xlink:href="#DejaVuSans-99"/>
       <use x="1128.695312" xlink:href="#DejaVuSans-107"/>
       <use x="1186.605469" xlink:href="#DejaVuSans-105"/>
      </g>
     </g>
    </g>
    <g id="ytick_19">
     <g id="line2d_25">
      <g>
       <use style="stroke:#000000;stroke-width:0.8;" x="345.6" xlink:href="#m47056be7d2" y="567.318232"/>
      </g>
     </g>
     <g id="text_25">
      <!-- filolog angielski -->
      <defs>
       <path d="M 37.109375 75.984375 
L 37.109375 68.5 
L 28.515625 68.5 
Q 23.6875 68.5 21.796875 66.546875 
Q 19.921875 64.59375 19.921875 59.515625 
L 19.921875 54.6875 
L 34.71875 54.6875 
L 34.71875 47.703125 
L 19.921875 47.703125 
L 19.921875 0 
L 10.890625 0 
L 10.890625 47.703125 
L 2.296875 47.703125 
L 2.296875 54.6875 
L 10.890625 54.6875 
L 10.890625 58.5 
Q 10.890625 67.625 15.140625 71.796875 
Q 19.390625 75.984375 28.609375 75.984375 
z
" id="DejaVuSans-102"/>
      </defs>
      <g transform="translate(260.679687 571.11745)scale(0.1 -0.1)">
       <use xlink:href="#DejaVuSans-102"/>
       <use x="35.205078" xlink:href="#DejaVuSans-105"/>
       <use x="62.988281" xlink:href="#DejaVuSans-108"/>
       <use x="90.771484" xlink:href="#DejaVuSans-111"/>
       <use x="151.953125" xlink:href="#DejaVuSans-108"/>
       <use x="179.736328" xlink:href="#DejaVuSans-111"/>
       <use x="240.917969" xlink:href="#DejaVuSans-103"/>
       <use x="304.394531" xlink:href="#DejaVuSans-32"/>
       <use x="336.181641" xlink:href="#DejaVuSans-97"/>
       <use x="397.460938" xlink:href="#DejaVuSans-110"/>
       <use x="460.839844" xlink:href="#DejaVuSans-103"/>
       <use x="524.316406" xlink:href="#DejaVuSans-105"/>
       <use x="552.099609" xlink:href="#DejaVuSans-101"/>
       <use x="613.623047" xlink:href="#DejaVuSans-108"/>
       <use x="641.40625" xlink:href="#DejaVuSans-115"/>
       <use x="693.505859" xlink:href="#DejaVuSans-107"/>
       <use x="751.416016" xlink:href="#DejaVuSans-105"/>
      </g>
     </g>
    </g>
    <g id="ytick_20">
     <g id="line2d_26">
      <g>
       <use style="stroke:#000000;stroke-width:0.8;" x="345.6" xlink:href="#m47056be7d2" y="595.651606"/>
      </g>
     </g>
     <g id="text_26">
      <!-- lekarz - specjalista -->
      <defs>
       <path d="M 4.890625 31.390625 
L 31.203125 31.390625 
L 31.203125 23.390625 
L 4.890625 23.390625 
z
" id="DejaVuSans-45"/>
      </defs>
      <g transform="translate(245.498437 594.611762)scale(0.1 -0.1)">
       <use xlink:href="#DejaVuSans-108"/>
       <use x="27.783203" xlink:href="#DejaVuSans-101"/>
       <use x="89.306641" xlink:href="#DejaVuSans-107"/>
       <use x="147.201172" xlink:href="#DejaVuSans-97"/>
       <use x="208.480469" xlink:href="#DejaVuSans-114"/>
       <use x="249.59375" xlink:href="#DejaVuSans-122"/>
       <use x="302.083984" xlink:href="#DejaVuSans-32"/>
       <use x="333.871094" xlink:href="#DejaVuSans-45"/>
       <use x="369.955078" xlink:href="#DejaVuSans-32"/>
       <use x="401.742188" xlink:href="#DejaVuSans-115"/>
       <use x="453.841797" xlink:href="#DejaVuSans-112"/>
       <use x="517.318359" xlink:href="#DejaVuSans-101"/>
       <use x="578.841797" xlink:href="#DejaVuSans-99"/>
       <use x="633.822266" xlink:href="#DejaVuSans-106"/>
       <use x="661.605469" xlink:href="#DejaVuSans-97"/>
       <use x="722.884766" xlink:href="#DejaVuSans-108"/>
       <use x="750.667969" xlink:href="#DejaVuSans-105"/>
       <use x="778.451172" xlink:href="#DejaVuSans-115"/>
       <use x="830.550781" xlink:href="#DejaVuSans-116"/>
       <use x="869.759766" xlink:href="#DejaVuSans-97"/>
      </g>
      <!-- pediatrii -->
      <g transform="translate(297.25625 605.809574)scale(0.1 -0.1)">
       <use xlink:href="#DejaVuSans-112"/>
       <use x="63.476562" xlink:href="#DejaVuSans-101"/>
       <use x="125" xlink:href="#DejaVuSans-100"/>
       <use x="188.476562" xlink:href="#DejaVuSans-105"/>
       <use x="216.259766" xlink:href="#DejaVuSans-97"/>
       <use x="277.539062" xlink:href="#DejaVuSans-116"/>
       <use x="316.748047" xlink:href="#DejaVuSans-114"/>
       <use x="357.861328" xlink:href="#DejaVuSans-105"/>
       <use x="385.644531" xlink:href="#DejaVuSans-105"/>
      </g>
     </g>
    </g>
    <g id="ytick_21">
     <g id="line2d_27">
      <g>
       <use style="stroke:#000000;stroke-width:0.8;" x="345.6" xlink:href="#m47056be7d2" y="623.98498"/>
      </g>
     </g>
     <g id="text_27">
      <!-- rolnik -->
      <g transform="translate(310.689062 627.784198)scale(0.1 -0.1)">
       <use xlink:href="#DejaVuSans-114"/>
       <use x="41.082031" xlink:href="#DejaVuSans-111"/>
       <use x="102.263672" xlink:href="#DejaVuSans-108"/>
       <use x="130.046875" xlink:href="#DejaVuSans-110"/>
       <use x="193.425781" xlink:href="#DejaVuSans-105"/>
       <use x="221.208984" xlink:href="#DejaVuSans-107"/>
      </g>
     </g>
    </g>
    <g id="text_28">
     <!-- Zawód -->
     <defs>
      <path d="M 5.609375 72.90625 
L 62.890625 72.90625 
L 62.890625 65.375 
L 16.796875 8.296875 
L 64.015625 8.296875 
L 64.015625 0 
L 4.5 0 
L 4.5 7.515625 
L 50.59375 64.59375 
L 5.609375 64.59375 
z
" id="DejaVuSans-90"/>
     </defs>
     <g transform="translate(211.079687 364.546302)rotate(-90)scale(0.1 -0.1)">
      <use xlink:href="#DejaVuSans-90"/>
      <use x="68.505859" xlink:href="#DejaVuSans-97"/>
      <use x="129.785156" xlink:href="#DejaVuSans-119"/>
      <use x="211.572266" xlink:href="#DejaVuSans-243"/>
      <use x="272.753906" xlink:href="#DejaVuSans-100"/>
     </g>
    </g>
   </g>
   <g id="line2d_28">
    <path clip-path="url(#p87774f07d9)" d="M 407.826814 78.56753 
L 407.826814 92.734217 
L 476.006027 92.734217 
L 476.006027 78.56753 
L 407.826814 78.56753 
" style="fill:none;stroke:#000000;stroke-linecap:square;"/>
   </g>
   <g id="line2d_29">
    <path clip-path="url(#p87774f07d9)" d="M 407.826814 85.650874 
L 399.341375 85.650874 
" style="fill:none;stroke:#000000;stroke-linecap:square;"/>
   </g>
   <g id="line2d_30">
    <path clip-path="url(#p87774f07d9)" d="M 476.006027 85.650874 
L 480.048139 85.650874 
" style="fill:none;stroke:#000000;stroke-linecap:square;"/>
   </g>
   <g id="line2d_31">
    <path clip-path="url(#p87774f07d9)" d="M 399.341375 82.109202 
L 399.341375 89.192546 
" style="fill:none;stroke:#000000;stroke-linecap:square;"/>
   </g>
   <g id="line2d_32">
    <path clip-path="url(#p87774f07d9)" d="M 480.048139 82.109202 
L 480.048139 89.192546 
" style="fill:none;stroke:#000000;stroke-linecap:square;"/>
   </g>
   <g id="line2d_33">
    <defs>
     <path d="M 0 3 
C 0.795609 3 1.55874 2.683901 2.12132 2.12132 
C 2.683901 1.55874 3 0.795609 3 0 
C 3 -0.795609 2.683901 -1.55874 2.12132 -2.12132 
C 1.55874 -2.683901 0.795609 -3 0 -3 
C -0.795609 -3 -1.55874 -2.683901 -2.12132 -2.12132 
C -2.683901 -1.55874 -3 -0.795609 -3 0 
C -3 0.795609 -2.683901 1.55874 -2.12132 2.12132 
C -1.55874 2.683901 -0.795609 3 0 3 
z
" id="m4efe9ac5d2" style="stroke:#000000;"/>
    </defs>
    <g clip-path="url(#p87774f07d9)">
     <use style="fill-opacity:0;stroke:#000000;" x="1304.345455" xlink:href="#m4efe9ac5d2" y="85.650874"/>
     <use style="fill-opacity:0;stroke:#000000;" x="683.462464" xlink:href="#m4efe9ac5d2" y="85.650874"/>
     <use style="fill-opacity:0;stroke:#000000;" x="754.618225" xlink:href="#m4efe9ac5d2" y="85.650874"/>
     <use style="fill-opacity:0;stroke:#000000;" x="712.695588" xlink:href="#m4efe9ac5d2" y="85.650874"/>
    </g>
   </g>
   <g id="line2d_34">
    <path clip-path="url(#p87774f07d9)" d="M 394.264527 106.900904 
L 394.264527 121.067591 
L 421.15115 121.067591 
L 421.15115 106.900904 
L 394.264527 106.900904 
" style="fill:none;stroke:#000000;stroke-linecap:square;"/>
   </g>
   <g id="line2d_35">
    <path clip-path="url(#p87774f07d9)" d="M 394.264527 113.984248 
L 391.489022 113.984248 
" style="fill:none;stroke:#000000;stroke-linecap:square;"/>
   </g>
   <g id="line2d_36">
    <path clip-path="url(#p87774f07d9)" d="M 421.15115 113.984248 
L 444.838474 113.984248 
" style="fill:none;stroke:#000000;stroke-linecap:square;"/>
   </g>
   <g id="line2d_37">
    <path clip-path="url(#p87774f07d9)" d="M 391.489022 110.442576 
L 391.489022 117.52592 
" style="fill:none;stroke:#000000;stroke-linecap:square;"/>
   </g>
   <g id="line2d_38">
    <path clip-path="url(#p87774f07d9)" d="M 444.838474 110.442576 
L 444.838474 117.52592 
" style="fill:none;stroke:#000000;stroke-linecap:square;"/>
   </g>
   <g id="line2d_39">
    <g clip-path="url(#p87774f07d9)">
     <use style="fill-opacity:0;stroke:#000000;" x="531.606886" xlink:href="#m4efe9ac5d2" y="113.984248"/>
     <use style="fill-opacity:0;stroke:#000000;" x="615.728321" xlink:href="#m4efe9ac5d2" y="113.984248"/>
     <use style="fill-opacity:0;stroke:#000000;" x="558.496983" xlink:href="#m4efe9ac5d2" y="113.984248"/>
     <use style="fill-opacity:0;stroke:#000000;" x="752.082406" xlink:href="#m4efe9ac5d2" y="113.984248"/>
     <use style="fill-opacity:0;stroke:#000000;" x="528.956435" xlink:href="#m4efe9ac5d2" y="113.984248"/>
     <use style="fill-opacity:0;stroke:#000000;" x="575.031909" xlink:href="#m4efe9ac5d2" y="113.984248"/>
     <use style="fill-opacity:0;stroke:#000000;" x="839.830409" xlink:href="#m4efe9ac5d2" y="113.984248"/>
     <use style="fill-opacity:0;stroke:#000000;" x="475.81367" xlink:href="#m4efe9ac5d2" y="113.984248"/>
    </g>
   </g>
   <g id="line2d_40">
    <path clip-path="url(#p87774f07d9)" d="M 394.844639 135.234278 
L 394.844639 149.400965 
L 458.012572 149.400965 
L 458.012572 135.234278 
L 394.844639 135.234278 
" style="fill:none;stroke:#000000;stroke-linecap:square;"/>
   </g>
   <g id="line2d_41">
    <path clip-path="url(#p87774f07d9)" d="M 394.844639 142.317622 
L 391.758235 142.317622 
" style="fill:none;stroke:#000000;stroke-linecap:square;"/>
   </g>
   <g id="line2d_42">
    <path clip-path="url(#p87774f07d9)" d="M 458.012572 142.317622 
L 514.255635 142.317622 
" style="fill:none;stroke:#000000;stroke-linecap:square;"/>
   </g>
   <g id="line2d_43">
    <path clip-path="url(#p87774f07d9)" d="M 391.758235 138.77595 
L 391.758235 145.859294 
" style="fill:none;stroke:#000000;stroke-linecap:square;"/>
   </g>
   <g id="line2d_44">
    <path clip-path="url(#p87774f07d9)" d="M 514.255635 138.77595 
L 514.255635 145.859294 
" style="fill:none;stroke:#000000;stroke-linecap:square;"/>
   </g>
   <g id="line2d_45">
    <g clip-path="url(#p87774f07d9)">
     <use style="fill-opacity:0;stroke:#000000;" x="737.746347" xlink:href="#m4efe9ac5d2" y="142.317622"/>
     <use style="fill-opacity:0;stroke:#000000;" x="645.961877" xlink:href="#m4efe9ac5d2" y="142.317622"/>
     <use style="fill-opacity:0;stroke:#000000;" x="715.618726" xlink:href="#m4efe9ac5d2" y="142.317622"/>
     <use style="fill-opacity:0;stroke:#000000;" x="624.527264" xlink:href="#m4efe9ac5d2" y="142.317622"/>
     <use style="fill-opacity:0;stroke:#000000;" x="675.988747" xlink:href="#m4efe9ac5d2" y="142.317622"/>
    </g>
   </g>
   <g id="line2d_46">
    <path clip-path="url(#p87774f07d9)" d="M 393.088672 163.567652 
L 393.088672 177.734339 
L 411.848518 177.734339 
L 411.848518 163.567652 
L 393.088672 163.567652 
" style="fill:none;stroke:#000000;stroke-linecap:square;"/>
   </g>
   <g id="line2d_47">
    <path clip-path="url(#p87774f07d9)" d="M 393.088672 170.650996 
L 391.400442 170.650996 
" style="fill:none;stroke:#000000;stroke-linecap:square;"/>
   </g>
   <g id="line2d_48">
    <path clip-path="url(#p87774f07d9)" d="M 411.848518 170.650996 
L 433.922296 170.650996 
" style="fill:none;stroke:#000000;stroke-linecap:square;"/>
   </g>
   <g id="line2d_49">
    <path clip-path="url(#p87774f07d9)" d="M 391.400442 167.109324 
L 391.400442 174.192668 
" style="fill:none;stroke:#000000;stroke-linecap:square;"/>
   </g>
   <g id="line2d_50">
    <path clip-path="url(#p87774f07d9)" d="M 433.922296 167.109324 
L 433.922296 174.192668 
" style="fill:none;stroke:#000000;stroke-linecap:square;"/>
   </g>
   <g id="line2d_51">
    <g clip-path="url(#p87774f07d9)">
     <use style="fill-opacity:0;stroke:#000000;" x="601.227261" xlink:href="#m4efe9ac5d2" y="170.650996"/>
     <use style="fill-opacity:0;stroke:#000000;" x="577.124828" xlink:href="#m4efe9ac5d2" y="170.650996"/>
     <use style="fill-opacity:0;stroke:#000000;" x="542.924279" xlink:href="#m4efe9ac5d2" y="170.650996"/>
     <use style="fill-opacity:0;stroke:#000000;" x="708.091166" xlink:href="#m4efe9ac5d2" y="170.650996"/>
     <use style="fill-opacity:0;stroke:#000000;" x="571.546027" xlink:href="#m4efe9ac5d2" y="170.650996"/>
     <use style="fill-opacity:0;stroke:#000000;" x="513.25694" xlink:href="#m4efe9ac5d2" y="170.650996"/>
     <use style="fill-opacity:0;stroke:#000000;" x="469.317806" xlink:href="#m4efe9ac5d2" y="170.650996"/>
     <use style="fill-opacity:0;stroke:#000000;" x="503.992518" xlink:href="#m4efe9ac5d2" y="170.650996"/>
    </g>
   </g>
   <g id="line2d_52">
    <path clip-path="url(#p87774f07d9)" d="M 394.143381 191.901026 
L 394.143381 206.067713 
L 579.437459 206.067713 
L 579.437459 191.901026 
L 394.143381 191.901026 
" style="fill:none;stroke:#000000;stroke-linecap:square;"/>
   </g>
   <g id="line2d_53">
    <path clip-path="url(#p87774f07d9)" d="M 394.143381 198.98437 
L 392.878511 198.98437 
" style="fill:none;stroke:#000000;stroke-linecap:square;"/>
   </g>
   <g id="line2d_54">
    <path clip-path="url(#p87774f07d9)" d="M 579.437459 198.98437 
L 682.913616 198.98437 
" style="fill:none;stroke:#000000;stroke-linecap:square;"/>
   </g>
   <g id="line2d_55">
    <path clip-path="url(#p87774f07d9)" d="M 392.878511 195.442698 
L 392.878511 202.526042 
" style="fill:none;stroke:#000000;stroke-linecap:square;"/>
   </g>
   <g id="line2d_56">
    <path clip-path="url(#p87774f07d9)" d="M 682.913616 195.442698 
L 682.913616 202.526042 
" style="fill:none;stroke:#000000;stroke-linecap:square;"/>
   </g>
   <g id="line2d_57">
    <g clip-path="url(#p87774f07d9)">
     <use style="fill-opacity:0;stroke:#000000;" x="870.482549" xlink:href="#m4efe9ac5d2" y="198.98437"/>
    </g>
   </g>
   <g id="line2d_58">
    <path clip-path="url(#p87774f07d9)" d="M 393.675297 220.2344 
L 393.675297 234.401087 
L 416.421241 234.401087 
L 416.421241 220.2344 
L 393.675297 220.2344 
" style="fill:none;stroke:#000000;stroke-linecap:square;"/>
   </g>
   <g id="line2d_59">
    <path clip-path="url(#p87774f07d9)" d="M 393.675297 227.317744 
L 391.443863 227.317744 
" style="fill:none;stroke:#000000;stroke-linecap:square;"/>
   </g>
   <g id="line2d_60">
    <path clip-path="url(#p87774f07d9)" d="M 416.421241 227.317744 
L 438.283557 227.317744 
" style="fill:none;stroke:#000000;stroke-linecap:square;"/>
   </g>
   <g id="line2d_61">
    <path clip-path="url(#p87774f07d9)" d="M 391.443863 223.776072 
L 391.443863 230.859416 
" style="fill:none;stroke:#000000;stroke-linecap:square;"/>
   </g>
   <g id="line2d_62">
    <path clip-path="url(#p87774f07d9)" d="M 438.283557 223.776072 
L 438.283557 230.859416 
" style="fill:none;stroke:#000000;stroke-linecap:square;"/>
   </g>
   <g id="line2d_63">
    <g clip-path="url(#p87774f07d9)">
     <use style="fill-opacity:0;stroke:#000000;" x="483.410704" xlink:href="#m4efe9ac5d2" y="227.317744"/>
     <use style="fill-opacity:0;stroke:#000000;" x="537.371531" xlink:href="#m4efe9ac5d2" y="227.317744"/>
     <use style="fill-opacity:0;stroke:#000000;" x="500.982536" xlink:href="#m4efe9ac5d2" y="227.317744"/>
     <use style="fill-opacity:0;stroke:#000000;" x="710.760723" xlink:href="#m4efe9ac5d2" y="227.317744"/>
     <use style="fill-opacity:0;stroke:#000000;" x="455.186697" xlink:href="#m4efe9ac5d2" y="227.317744"/>
     <use style="fill-opacity:0;stroke:#000000;" x="472.192313" xlink:href="#m4efe9ac5d2" y="227.317744"/>
    </g>
   </g>
   <g id="line2d_64">
    <path clip-path="url(#p87774f07d9)" d="M 395.865046 248.567774 
L 395.865046 262.734461 
L 456.933112 262.734461 
L 456.933112 248.567774 
L 395.865046 248.567774 
" style="fill:none;stroke:#000000;stroke-linecap:square;"/>
   </g>
   <g id="line2d_65">
    <path clip-path="url(#p87774f07d9)" d="M 395.865046 255.651118 
L 392.466875 255.651118 
" style="fill:none;stroke:#000000;stroke-linecap:square;"/>
   </g>
   <g id="line2d_66">
    <path clip-path="url(#p87774f07d9)" d="M 456.933112 255.651118 
L 489.199665 255.651118 
" style="fill:none;stroke:#000000;stroke-linecap:square;"/>
   </g>
   <g id="line2d_67">
    <path clip-path="url(#p87774f07d9)" d="M 392.466875 252.109446 
L 392.466875 259.19279 
" style="fill:none;stroke:#000000;stroke-linecap:square;"/>
   </g>
   <g id="line2d_68">
    <path clip-path="url(#p87774f07d9)" d="M 489.199665 252.109446 
L 489.199665 259.19279 
" style="fill:none;stroke:#000000;stroke-linecap:square;"/>
   </g>
   <g id="line2d_69">
    <g clip-path="url(#p87774f07d9)">
     <use style="fill-opacity:0;stroke:#000000;" x="617.498184" xlink:href="#m4efe9ac5d2" y="255.651118"/>
     <use style="fill-opacity:0;stroke:#000000;" x="828.829125" xlink:href="#m4efe9ac5d2" y="255.651118"/>
    </g>
   </g>
   <g id="line2d_70">
    <path clip-path="url(#p87774f07d9)" d="M 465.322155 276.901148 
L 465.322155 291.067835 
L 804.632901 291.067835 
L 804.632901 276.901148 
L 465.322155 276.901148 
" style="fill:none;stroke:#000000;stroke-linecap:square;"/>
   </g>
   <g id="line2d_71">
    <path clip-path="url(#p87774f07d9)" d="M 465.322155 283.984492 
L 446.191489 283.984492 
" style="fill:none;stroke:#000000;stroke-linecap:square;"/>
   </g>
   <g id="line2d_72">
    <path clip-path="url(#p87774f07d9)" d="M 804.632901 283.984492 
L 1124.812982 283.984492 
" style="fill:none;stroke:#000000;stroke-linecap:square;"/>
   </g>
   <g id="line2d_73">
    <path clip-path="url(#p87774f07d9)" d="M 446.191489 280.44282 
L 446.191489 287.526164 
" style="fill:none;stroke:#000000;stroke-linecap:square;"/>
   </g>
   <g id="line2d_74">
    <path clip-path="url(#p87774f07d9)" d="M 1124.812982 280.44282 
L 1124.812982 287.526164 
" style="fill:none;stroke:#000000;stroke-linecap:square;"/>
   </g>
   <g id="line2d_75"/>
   <g id="line2d_76">
    <path clip-path="url(#p87774f07d9)" d="M 394.394792 305.234522 
L 394.394792 319.401209 
L 399.759958 319.401209 
L 399.759958 305.234522 
L 394.394792 305.234522 
" style="fill:none;stroke:#000000;stroke-linecap:square;"/>
   </g>
   <g id="line2d_77">
    <path clip-path="url(#p87774f07d9)" d="M 394.394792 312.317866 
L 391.341389 312.317866 
" style="fill:none;stroke:#000000;stroke-linecap:square;"/>
   </g>
   <g id="line2d_78">
    <path clip-path="url(#p87774f07d9)" d="M 399.759958 312.317866 
L 401.693086 312.317866 
" style="fill:none;stroke:#000000;stroke-linecap:square;"/>
   </g>
   <g id="line2d_79">
    <path clip-path="url(#p87774f07d9)" d="M 391.341389 308.776194 
L 391.341389 315.859538 
" style="fill:none;stroke:#000000;stroke-linecap:square;"/>
   </g>
   <g id="line2d_80">
    <path clip-path="url(#p87774f07d9)" d="M 401.693086 308.776194 
L 401.693086 315.859538 
" style="fill:none;stroke:#000000;stroke-linecap:square;"/>
   </g>
   <g id="line2d_81">
    <g clip-path="url(#p87774f07d9)">
     <use style="fill-opacity:0;stroke:#000000;" x="1102.108722" xlink:href="#m4efe9ac5d2" y="312.317866"/>
     <use style="fill-opacity:0;stroke:#000000;" x="451.726868" xlink:href="#m4efe9ac5d2" y="312.317866"/>
    </g>
   </g>
   <g id="line2d_82">
    <path clip-path="url(#p87774f07d9)" d="M 393.790364 333.567896 
L 393.790364 347.734583 
L 407.035673 347.734583 
L 407.035673 333.567896 
L 393.790364 333.567896 
" style="fill:none;stroke:#000000;stroke-linecap:square;"/>
   </g>
   <g id="line2d_83">
    <path clip-path="url(#p87774f07d9)" d="M 393.790364 340.65124 
L 391.492496 340.65124 
" style="fill:none;stroke:#000000;stroke-linecap:square;"/>
   </g>
   <g id="line2d_84">
    <path clip-path="url(#p87774f07d9)" d="M 407.035673 340.65124 
L 407.035673 340.65124 
" style="fill:none;stroke:#000000;stroke-linecap:square;"/>
   </g>
   <g id="line2d_85">
    <path clip-path="url(#p87774f07d9)" d="M 391.492496 337.109568 
L 391.492496 344.192912 
" style="fill:none;stroke:#000000;stroke-linecap:square;"/>
   </g>
   <g id="line2d_86">
    <path clip-path="url(#p87774f07d9)" d="M 407.035673 337.109568 
L 407.035673 344.192912 
" style="fill:none;stroke:#000000;stroke-linecap:square;"/>
   </g>
   <g id="line2d_87">
    <g clip-path="url(#p87774f07d9)">
     <use style="fill-opacity:0;stroke:#000000;" x="746.607817" xlink:href="#m4efe9ac5d2" y="340.65124"/>
     <use style="fill-opacity:0;stroke:#000000;" x="431.091211" xlink:href="#m4efe9ac5d2" y="340.65124"/>
     <use style="fill-opacity:0;stroke:#000000;" x="510.94344" xlink:href="#m4efe9ac5d2" y="340.65124"/>
     <use style="fill-opacity:0;stroke:#000000;" x="437.514127" xlink:href="#m4efe9ac5d2" y="340.65124"/>
    </g>
   </g>
   <g id="line2d_88">
    <path clip-path="url(#p87774f07d9)" d="M 395.819019 361.90127 
L 395.819019 376.067957 
L 437.104227 376.067957 
L 437.104227 361.90127 
L 395.819019 361.90127 
" style="fill:none;stroke:#000000;stroke-linecap:square;"/>
   </g>
   <g id="line2d_89">
    <path clip-path="url(#p87774f07d9)" d="M 395.819019 368.984614 
L 394.261053 368.984614 
" style="fill:none;stroke:#000000;stroke-linecap:square;"/>
   </g>
   <g id="line2d_90">
    <path clip-path="url(#p87774f07d9)" d="M 437.104227 368.984614 
L 461.838878 368.984614 
" style="fill:none;stroke:#000000;stroke-linecap:square;"/>
   </g>
   <g id="line2d_91">
    <path clip-path="url(#p87774f07d9)" d="M 394.261053 365.442942 
L 394.261053 372.526286 
" style="fill:none;stroke:#000000;stroke-linecap:square;"/>
   </g>
   <g id="line2d_92">
    <path clip-path="url(#p87774f07d9)" d="M 461.838878 365.442942 
L 461.838878 372.526286 
" style="fill:none;stroke:#000000;stroke-linecap:square;"/>
   </g>
   <g id="line2d_93">
    <g clip-path="url(#p87774f07d9)">
     <use style="fill-opacity:0;stroke:#000000;" x="669.880203" xlink:href="#m4efe9ac5d2" y="368.984614"/>
     <use style="fill-opacity:0;stroke:#000000;" x="524.741071" xlink:href="#m4efe9ac5d2" y="368.984614"/>
    </g>
   </g>
   <g id="line2d_94">
    <path clip-path="url(#p87774f07d9)" d="M 392.415638 390.234644 
L 392.415638 404.401331 
L 395.65228 404.401331 
L 395.65228 390.234644 
L 392.415638 390.234644 
" style="fill:none;stroke:#000000;stroke-linecap:square;"/>
   </g>
   <g id="line2d_95">
    <path clip-path="url(#p87774f07d9)" d="M 392.415638 397.317988 
L 391.254545 397.317988 
" style="fill:none;stroke:#000000;stroke-linecap:square;"/>
   </g>
   <g id="line2d_96">
    <path clip-path="url(#p87774f07d9)" d="M 395.65228 397.317988 
L 400.12991 397.317988 
" style="fill:none;stroke:#000000;stroke-linecap:square;"/>
   </g>
   <g id="line2d_97">
    <path clip-path="url(#p87774f07d9)" d="M 391.254545 393.776316 
L 391.254545 400.85966 
" style="fill:none;stroke:#000000;stroke-linecap:square;"/>
   </g>
   <g id="line2d_98">
    <path clip-path="url(#p87774f07d9)" d="M 400.12991 393.776316 
L 400.12991 400.85966 
" style="fill:none;stroke:#000000;stroke-linecap:square;"/>
   </g>
   <g id="line2d_99">
    <g clip-path="url(#p87774f07d9)">
     <use style="fill-opacity:0;stroke:#000000;" x="609.659726" xlink:href="#m4efe9ac5d2" y="397.317988"/>
     <use style="fill-opacity:0;stroke:#000000;" x="404.57975" xlink:href="#m4efe9ac5d2" y="397.317988"/>
     <use style="fill-opacity:0;stroke:#000000;" x="422.676115" xlink:href="#m4efe9ac5d2" y="397.317988"/>
     <use style="fill-opacity:0;stroke:#000000;" x="405.49855" xlink:href="#m4efe9ac5d2" y="397.317988"/>
     <use style="fill-opacity:0;stroke:#000000;" x="413.548906" xlink:href="#m4efe9ac5d2" y="397.317988"/>
     <use style="fill-opacity:0;stroke:#000000;" x="434.137667" xlink:href="#m4efe9ac5d2" y="397.317988"/>
     <use style="fill-opacity:0;stroke:#000000;" x="412.329628" xlink:href="#m4efe9ac5d2" y="397.317988"/>
    </g>
   </g>
   <g id="line2d_100">
    <path clip-path="url(#p87774f07d9)" d="M 924.695221 418.568018 
L 924.695221 432.734705 
L 924.695221 432.734705 
L 924.695221 418.568018 
L 924.695221 418.568018 
" style="fill:none;stroke:#000000;stroke-linecap:square;"/>
   </g>
   <g id="line2d_101">
    <path clip-path="url(#p87774f07d9)" d="M 924.695221 425.651362 
L 924.695221 425.651362 
" style="fill:none;stroke:#000000;stroke-linecap:square;"/>
   </g>
   <g id="line2d_102">
    <path clip-path="url(#p87774f07d9)" d="M 924.695221 425.651362 
L 924.695221 425.651362 
" style="fill:none;stroke:#000000;stroke-linecap:square;"/>
   </g>
   <g id="line2d_103">
    <path clip-path="url(#p87774f07d9)" d="M 924.695221 422.10969 
L 924.695221 429.193034 
" style="fill:none;stroke:#000000;stroke-linecap:square;"/>
   </g>
   <g id="line2d_104">
    <path clip-path="url(#p87774f07d9)" d="M 924.695221 422.10969 
L 924.695221 429.193034 
" style="fill:none;stroke:#000000;stroke-linecap:square;"/>
   </g>
   <g id="line2d_105"/>
   <g id="line2d_106">
    <path clip-path="url(#p87774f07d9)" d="M 437.878868 446.901392 
L 437.878868 461.068079 
L 627.163821 461.068079 
L 627.163821 446.901392 
L 437.878868 446.901392 
" style="fill:none;stroke:#000000;stroke-linecap:square;"/>
   </g>
   <g id="line2d_107">
    <path clip-path="url(#p87774f07d9)" d="M 437.878868 453.984736 
L 394.063051 453.984736 
" style="fill:none;stroke:#000000;stroke-linecap:square;"/>
   </g>
   <g id="line2d_108">
    <path clip-path="url(#p87774f07d9)" d="M 627.163821 453.984736 
L 772.632957 453.984736 
" style="fill:none;stroke:#000000;stroke-linecap:square;"/>
   </g>
   <g id="line2d_109">
    <path clip-path="url(#p87774f07d9)" d="M 394.063051 450.443064 
L 394.063051 457.526408 
" style="fill:none;stroke:#000000;stroke-linecap:square;"/>
   </g>
   <g id="line2d_110">
    <path clip-path="url(#p87774f07d9)" d="M 772.632957 450.443064 
L 772.632957 457.526408 
" style="fill:none;stroke:#000000;stroke-linecap:square;"/>
   </g>
   <g id="line2d_111"/>
   <g id="line2d_112">
    <path clip-path="url(#p87774f07d9)" d="M 393.439952 475.234766 
L 393.439952 489.401453 
L 451.574893 489.401453 
L 451.574893 475.234766 
L 393.439952 475.234766 
" style="fill:none;stroke:#000000;stroke-linecap:square;"/>
   </g>
   <g id="line2d_113">
    <path clip-path="url(#p87774f07d9)" d="M 393.439952 482.31811 
L 391.614076 482.31811 
" style="fill:none;stroke:#000000;stroke-linecap:square;"/>
   </g>
   <g id="line2d_114">
    <path clip-path="url(#p87774f07d9)" d="M 451.574893 482.31811 
L 500.557005 482.31811 
" style="fill:none;stroke:#000000;stroke-linecap:square;"/>
   </g>
   <g id="line2d_115">
    <path clip-path="url(#p87774f07d9)" d="M 391.614076 478.776438 
L 391.614076 485.859782 
" style="fill:none;stroke:#000000;stroke-linecap:square;"/>
   </g>
   <g id="line2d_116">
    <path clip-path="url(#p87774f07d9)" d="M 500.557005 478.776438 
L 500.557005 485.859782 
" style="fill:none;stroke:#000000;stroke-linecap:square;"/>
   </g>
   <g id="line2d_117">
    <g clip-path="url(#p87774f07d9)">
     <use style="fill-opacity:0;stroke:#000000;" x="539.99593" xlink:href="#m4efe9ac5d2" y="482.31811"/>
    </g>
   </g>
   <g id="line2d_118">
    <path clip-path="url(#p87774f07d9)" d="M 392.538086 503.56814 
L 392.538086 517.734827 
L 412.985294 517.734827 
L 412.985294 503.56814 
L 392.538086 503.56814 
" style="fill:none;stroke:#000000;stroke-linecap:square;"/>
   </g>
   <g id="line2d_119">
    <path clip-path="url(#p87774f07d9)" d="M 392.538086 510.651484 
L 391.52897 510.651484 
" style="fill:none;stroke:#000000;stroke-linecap:square;"/>
   </g>
   <g id="line2d_120">
    <path clip-path="url(#p87774f07d9)" d="M 412.985294 510.651484 
L 440.775954 510.651484 
" style="fill:none;stroke:#000000;stroke-linecap:square;"/>
   </g>
   <g id="line2d_121">
    <path clip-path="url(#p87774f07d9)" d="M 391.52897 507.109812 
L 391.52897 514.193155 
" style="fill:none;stroke:#000000;stroke-linecap:square;"/>
   </g>
   <g id="line2d_122">
    <path clip-path="url(#p87774f07d9)" d="M 440.775954 507.109812 
L 440.775954 514.193155 
" style="fill:none;stroke:#000000;stroke-linecap:square;"/>
   </g>
   <g id="line2d_123">
    <g clip-path="url(#p87774f07d9)">
     <use style="fill-opacity:0;stroke:#000000;" x="457.175404" xlink:href="#m4efe9ac5d2" y="510.651484"/>
     <use style="fill-opacity:0;stroke:#000000;" x="502.439764" xlink:href="#m4efe9ac5d2" y="510.651484"/>
    </g>
   </g>
   <g id="line2d_124">
    <path clip-path="url(#p87774f07d9)" d="M 394.873297 531.901514 
L 394.873297 546.068201 
L 479.532291 546.068201 
L 479.532291 531.901514 
L 394.873297 531.901514 
" style="fill:none;stroke:#000000;stroke-linecap:square;"/>
   </g>
   <g id="line2d_125">
    <path clip-path="url(#p87774f07d9)" d="M 394.873297 538.984858 
L 391.396968 538.984858 
" style="fill:none;stroke:#000000;stroke-linecap:square;"/>
   </g>
   <g id="line2d_126">
    <path clip-path="url(#p87774f07d9)" d="M 479.532291 538.984858 
L 514.50227 538.984858 
" style="fill:none;stroke:#000000;stroke-linecap:square;"/>
   </g>
   <g id="line2d_127">
    <path clip-path="url(#p87774f07d9)" d="M 391.396968 535.443186 
L 391.396968 542.526529 
" style="fill:none;stroke:#000000;stroke-linecap:square;"/>
   </g>
   <g id="line2d_128">
    <path clip-path="url(#p87774f07d9)" d="M 514.50227 535.443186 
L 514.50227 542.526529 
" style="fill:none;stroke:#000000;stroke-linecap:square;"/>
   </g>
   <g id="line2d_129">
    <g clip-path="url(#p87774f07d9)">
     <use style="fill-opacity:0;stroke:#000000;" x="632.254563" xlink:href="#m4efe9ac5d2" y="538.984858"/>
    </g>
   </g>
   <g id="line2d_130">
    <path clip-path="url(#p87774f07d9)" d="M 408.423426 560.234888 
L 408.423426 574.401575 
L 597.859486 574.401575 
L 597.859486 560.234888 
L 408.423426 560.234888 
" style="fill:none;stroke:#000000;stroke-linecap:square;"/>
   </g>
   <g id="line2d_131">
    <path clip-path="url(#p87774f07d9)" d="M 408.423426 567.318232 
L 396.54329 567.318232 
" style="fill:none;stroke:#000000;stroke-linecap:square;"/>
   </g>
   <g id="line2d_132">
    <path clip-path="url(#p87774f07d9)" d="M 597.859486 567.318232 
L 775.41541 567.318232 
" style="fill:none;stroke:#000000;stroke-linecap:square;"/>
   </g>
   <g id="line2d_133">
    <path clip-path="url(#p87774f07d9)" d="M 396.54329 563.77656 
L 396.54329 570.859903 
" style="fill:none;stroke:#000000;stroke-linecap:square;"/>
   </g>
   <g id="line2d_134">
    <path clip-path="url(#p87774f07d9)" d="M 775.41541 563.77656 
L 775.41541 570.859903 
" style="fill:none;stroke:#000000;stroke-linecap:square;"/>
   </g>
   <g id="line2d_135"/>
   <g id="line2d_136">
    <path clip-path="url(#p87774f07d9)" d="M 807.745358 588.568262 
L 807.745358 602.734949 
L 807.745358 602.734949 
L 807.745358 588.568262 
L 807.745358 588.568262 
" style="fill:none;stroke:#000000;stroke-linecap:square;"/>
   </g>
   <g id="line2d_137">
    <path clip-path="url(#p87774f07d9)" d="M 807.745358 595.651606 
L 807.745358 595.651606 
" style="fill:none;stroke:#000000;stroke-linecap:square;"/>
   </g>
   <g id="line2d_138">
    <path clip-path="url(#p87774f07d9)" d="M 807.745358 595.651606 
L 807.745358 595.651606 
" style="fill:none;stroke:#000000;stroke-linecap:square;"/>
   </g>
   <g id="line2d_139">
    <path clip-path="url(#p87774f07d9)" d="M 807.745358 592.109934 
L 807.745358 599.193277 
" style="fill:none;stroke:#000000;stroke-linecap:square;"/>
   </g>
   <g id="line2d_140">
    <path clip-path="url(#p87774f07d9)" d="M 807.745358 592.109934 
L 807.745358 599.193277 
" style="fill:none;stroke:#000000;stroke-linecap:square;"/>
   </g>
   <g id="line2d_141"/>
   <g id="line2d_142">
    <path clip-path="url(#p87774f07d9)" d="M 392.713075 616.901636 
L 392.713075 631.068323 
L 401.130777 631.068323 
L 401.130777 616.901636 
L 392.713075 616.901636 
" style="fill:none;stroke:#000000;stroke-linecap:square;"/>
   </g>
   <g id="line2d_143">
    <path clip-path="url(#p87774f07d9)" d="M 392.713075 623.98498 
L 391.311862 623.98498 
" style="fill:none;stroke:#000000;stroke-linecap:square;"/>
   </g>
   <g id="line2d_144">
    <path clip-path="url(#p87774f07d9)" d="M 401.130777 623.98498 
L 403.515054 623.98498 
" style="fill:none;stroke:#000000;stroke-linecap:square;"/>
   </g>
   <g id="line2d_145">
    <path clip-path="url(#p87774f07d9)" d="M 391.311862 620.443308 
L 391.311862 627.526651 
" style="fill:none;stroke:#000000;stroke-linecap:square;"/>
   </g>
   <g id="line2d_146">
    <path clip-path="url(#p87774f07d9)" d="M 403.515054 620.443308 
L 403.515054 627.526651 
" style="fill:none;stroke:#000000;stroke-linecap:square;"/>
   </g>
   <g id="line2d_147">
    <g clip-path="url(#p87774f07d9)">
     <use style="fill-opacity:0;stroke:#000000;" x="572.093139" xlink:href="#m4efe9ac5d2" y="623.98498"/>
    </g>
   </g>
   <g id="line2d_148">
    <path clip-path="url(#p87774f07d9)" d="M 423.811154 78.56753 
L 423.811154 92.734217 
" style="fill:none;stroke:#ff7f0e;stroke-linecap:square;"/>
   </g>
   <g id="line2d_149">
    <path clip-path="url(#p87774f07d9)" d="M 400.782102 106.900904 
L 400.782102 121.067591 
" style="fill:none;stroke:#ff7f0e;stroke-linecap:square;"/>
   </g>
   <g id="line2d_150">
    <path clip-path="url(#p87774f07d9)" d="M 397.90499 135.234278 
L 397.90499 149.400965 
" style="fill:none;stroke:#ff7f0e;stroke-linecap:square;"/>
   </g>
   <g id="line2d_151">
    <path clip-path="url(#p87774f07d9)" d="M 398.165519 163.567652 
L 398.165519 177.734339 
" style="fill:none;stroke:#ff7f0e;stroke-linecap:square;"/>
   </g>
   <g id="line2d_152">
    <path clip-path="url(#p87774f07d9)" d="M 397.828568 191.901026 
L 397.828568 206.067713 
" style="fill:none;stroke:#ff7f0e;stroke-linecap:square;"/>
   </g>
   <g id="line2d_153">
    <path clip-path="url(#p87774f07d9)" d="M 396.442552 220.2344 
L 396.442552 234.401087 
" style="fill:none;stroke:#ff7f0e;stroke-linecap:square;"/>
   </g>
   <g id="line2d_154">
    <path clip-path="url(#p87774f07d9)" d="M 419.893662 248.567774 
L 419.893662 262.734461 
" style="fill:none;stroke:#ff7f0e;stroke-linecap:square;"/>
   </g>
   <g id="line2d_155">
    <path clip-path="url(#p87774f07d9)" d="M 484.452821 276.901148 
L 484.452821 291.067835 
" style="fill:none;stroke:#ff7f0e;stroke-linecap:square;"/>
   </g>
   <g id="line2d_156">
    <path clip-path="url(#p87774f07d9)" d="M 395.85723 305.234522 
L 395.85723 319.401209 
" style="fill:none;stroke:#ff7f0e;stroke-linecap:square;"/>
   </g>
   <g id="line2d_157">
    <path clip-path="url(#p87774f07d9)" d="M 398.174203 333.567896 
L 398.174203 347.734583 
" style="fill:none;stroke:#ff7f0e;stroke-linecap:square;"/>
   </g>
   <g id="line2d_158">
    <path clip-path="url(#p87774f07d9)" d="M 398.855053 361.90127 
L 398.855053 376.067957 
" style="fill:none;stroke:#ff7f0e;stroke-linecap:square;"/>
   </g>
   <g id="line2d_159">
    <path clip-path="url(#p87774f07d9)" d="M 393.645336 390.234644 
L 393.645336 404.401331 
" style="fill:none;stroke:#ff7f0e;stroke-linecap:square;"/>
   </g>
   <g id="line2d_160">
    <path clip-path="url(#p87774f07d9)" d="M 924.695221 418.568018 
L 924.695221 432.734705 
" style="fill:none;stroke:#ff7f0e;stroke-linecap:square;"/>
   </g>
   <g id="line2d_161">
    <path clip-path="url(#p87774f07d9)" d="M 481.694684 446.901392 
L 481.694684 461.068079 
" style="fill:none;stroke:#ff7f0e;stroke-linecap:square;"/>
   </g>
   <g id="line2d_162">
    <path clip-path="url(#p87774f07d9)" d="M 406.571063 475.234766 
L 406.571063 489.401453 
" style="fill:none;stroke:#ff7f0e;stroke-linecap:square;"/>
   </g>
   <g id="line2d_163">
    <path clip-path="url(#p87774f07d9)" d="M 394.314028 503.56814 
L 394.314028 517.734827 
" style="fill:none;stroke:#ff7f0e;stroke-linecap:square;"/>
   </g>
   <g id="line2d_164">
    <path clip-path="url(#p87774f07d9)" d="M 396.353972 531.901514 
L 396.353972 546.068201 
" style="fill:none;stroke:#ff7f0e;stroke-linecap:square;"/>
   </g>
   <g id="line2d_165">
    <path clip-path="url(#p87774f07d9)" d="M 420.303562 560.234888 
L 420.303562 574.401575 
" style="fill:none;stroke:#ff7f0e;stroke-linecap:square;"/>
   </g>
   <g id="line2d_166">
    <path clip-path="url(#p87774f07d9)" d="M 807.745358 588.568262 
L 807.745358 602.734949 
" style="fill:none;stroke:#ff7f0e;stroke-linecap:square;"/>
   </g>
   <g id="line2d_167">
    <path clip-path="url(#p87774f07d9)" d="M 393.727837 616.901636 
L 393.727837 631.068323 
" style="fill:none;stroke:#ff7f0e;stroke-linecap:square;"/>
   </g>
   <g id="patch_3">
    <path d="M 345.6 638.151667 
L 345.6 57.3175 
" style="fill:none;stroke:#000000;stroke-linecap:square;stroke-linejoin:miter;stroke-width:0.8;"/>
   </g>
   <g id="patch_4">
    <path d="M 1350 638.151667 
L 1350 57.3175 
" style="fill:none;stroke:#000000;stroke-linecap:square;stroke-linejoin:miter;stroke-width:0.8;"/>
   </g>
   <g id="patch_5">
    <path d="M 345.6 638.151667 
L 1350 638.151667 
" style="fill:none;stroke:#000000;stroke-linecap:square;stroke-linejoin:miter;stroke-width:0.8;"/>
   </g>
   <g id="patch_6">
    <path d="M 345.6 57.3175 
L 1350 57.3175 
" style="fill:none;stroke:#000000;stroke-linecap:square;stroke-linejoin:miter;stroke-width:0.8;"/>
   </g>
   <g id="text_29">
    <!-- Głosy na kandydatów poszczególnych zawodów -->
    <g transform="translate(703.9725 51.3175)scale(0.12 -0.12)">
     <use xlink:href="#DejaVuSans-71"/>
     <use x="77.490234" xlink:href="#DejaVuSans-322"/>
     <use x="105.908203" xlink:href="#DejaVuSans-111"/>
     <use x="167.089844" xlink:href="#DejaVuSans-115"/>
     <use x="219.189453" xlink:href="#DejaVuSans-121"/>
     <use x="278.369141" xlink:href="#DejaVuSans-32"/>
     <use x="310.15625" xlink:href="#DejaVuSans-110"/>
     <use x="373.535156" xlink:href="#DejaVuSans-97"/>
     <use x="434.814453" xlink:href="#DejaVuSans-32"/>
     <use x="466.601562" xlink:href="#DejaVuSans-107"/>
     <use x="524.496094" xlink:href="#DejaVuSans-97"/>
     <use x="585.775391" xlink:href="#DejaVuSans-110"/>
     <use x="649.154297" xlink:href="#DejaVuSans-100"/>
     <use x="712.630859" xlink:href="#DejaVuSans-121"/>
     <use x="771.810547" xlink:href="#DejaVuSans-100"/>
     <use x="835.287109" xlink:href="#DejaVuSans-97"/>
     <use x="896.566406" xlink:href="#DejaVuSans-116"/>
     <use x="935.775391" xlink:href="#DejaVuSans-243"/>
     <use x="996.957031" xlink:href="#DejaVuSans-119"/>
     <use x="1078.744141" xlink:href="#DejaVuSans-32"/>
     <use x="1110.53125" xlink:href="#DejaVuSans-112"/>
     <use x="1174.007812" xlink:href="#DejaVuSans-111"/>
     <use x="1235.189453" xlink:href="#DejaVuSans-115"/>
     <use x="1287.289062" xlink:href="#DejaVuSans-122"/>
     <use x="1339.779297" xlink:href="#DejaVuSans-99"/>
     <use x="1394.759766" xlink:href="#DejaVuSans-122"/>
     <use x="1447.25" xlink:href="#DejaVuSans-101"/>
     <use x="1508.773438" xlink:href="#DejaVuSans-103"/>
     <use x="1572.25" xlink:href="#DejaVuSans-243"/>
     <use x="1633.431641" xlink:href="#DejaVuSans-108"/>
     <use x="1661.214844" xlink:href="#DejaVuSans-110"/>
     <use x="1724.59375" xlink:href="#DejaVuSans-121"/>
     <use x="1783.773438" xlink:href="#DejaVuSans-99"/>
     <use x="1838.753906" xlink:href="#DejaVuSans-104"/>
     <use x="1902.132812" xlink:href="#DejaVuSans-32"/>
     <use x="1933.919922" xlink:href="#DejaVuSans-122"/>
     <use x="1986.410156" xlink:href="#DejaVuSans-97"/>
     <use x="2047.689453" xlink:href="#DejaVuSans-119"/>
     <use x="2129.476562" xlink:href="#DejaVuSans-111"/>
     <use x="2190.658203" xlink:href="#DejaVuSans-100"/>
     <use x="2254.134766" xlink:href="#DejaVuSans-243"/>
     <use x="2315.316406" xlink:href="#DejaVuSans-119"/>
    </g>
   </g>
  </g>
 </g>
 <defs>
  <clipPath id="p87774f07d9">
   <rect height="580.834167" width="1004.4" x="345.6" y="57.3175"/>
  </clipPath>
 </defs>
</svg>
