<?xml version="1.0" encoding="utf-8" standalone="no"?>
<!DOCTYPE svg PUBLIC "-//W3C//DTD SVG 1.1//EN"
  "http://www.w3.org/Graphics/SVG/1.1/DTD/svg11.dtd">
<!-- Created with matplotlib (https://matplotlib.org/) -->
<svg height="727.2pt" version="1.1" viewBox="0 0 1382.4 727.2" width="1382.4pt" xmlns="http://www.w3.org/2000/svg" xmlns:xlink="http://www.w3.org/1999/xlink">
 <defs>
  <style type="text/css">
*{stroke-linecap:butt;stroke-linejoin:round;white-space:pre;}
  </style>
 </defs>
 <g id="figure_1">
  <g id="patch_1">
   <path d="M 0 727.2 
L 1382.4 727.2 
L 1382.4 0 
L 0 0 
z
" style="fill:#ffffff;"/>
  </g>
  <g id="axes_1">
   <g id="patch_2">
    <path d="M 345.6 638.151667 
L 1350 638.151667 
L 1350 57.3175 
L 345.6 57.3175 
z
" style="fill:#ffffff;"/>
   </g>
   <g id="matplotlib.axis_1">
    <g id="xtick_1">
     <g id="line2d_1">
      <defs>
       <path d="M 0 0 
L 0 3.5 
" id="me8b1a5289a" style="stroke:#000000;stroke-width:0.8;"/>
      </defs>
      <g>
       <use style="stroke:#000000;stroke-width:0.8;" x="391.084333" xlink:href="#me8b1a5289a" y="638.151667"/>
      </g>
     </g>
     <g id="text_1">
      <!-- 0 -->
      <defs>
       <path d="M 31.78125 66.40625 
Q 24.171875 66.40625 20.328125 58.90625 
Q 16.5 51.421875 16.5 36.375 
Q 16.5 21.390625 20.328125 13.890625 
Q 24.171875 6.390625 31.78125 6.390625 
Q 39.453125 6.390625 43.28125 13.890625 
Q 47.125 21.390625 47.125 36.375 
Q 47.125 51.421875 43.28125 58.90625 
Q 39.453125 66.40625 31.78125 66.40625 
z
M 31.78125 74.21875 
Q 44.046875 74.21875 50.515625 64.515625 
Q 56.984375 54.828125 56.984375 36.375 
Q 56.984375 17.96875 50.515625 8.265625 
Q 44.046875 -1.421875 31.78125 -1.421875 
Q 19.53125 -1.421875 13.0625 8.265625 
Q 6.59375 17.96875 6.59375 36.375 
Q 6.59375 54.828125 13.0625 64.515625 
Q 19.53125 74.21875 31.78125 74.21875 
z
" id="DejaVuSans-48"/>
      </defs>
      <g transform="translate(387.903083 652.750104)scale(0.1 -0.1)">
       <use xlink:href="#DejaVuSans-48"/>
      </g>
     </g>
    </g>
    <g id="xtick_2">
     <g id="line2d_2">
      <g>
       <use style="stroke:#000000;stroke-width:0.8;" x="564.770529" xlink:href="#me8b1a5289a" y="638.151667"/>
      </g>
     </g>
     <g id="text_2">
      <!-- 100000 -->
      <defs>
       <path d="M 12.40625 8.296875 
L 28.515625 8.296875 
L 28.515625 63.921875 
L 10.984375 60.40625 
L 10.984375 69.390625 
L 28.421875 72.90625 
L 38.28125 72.90625 
L 38.28125 8.296875 
L 54.390625 8.296875 
L 54.390625 0 
L 12.40625 0 
z
" id="DejaVuSans-49"/>
      </defs>
      <g transform="translate(545.683029 652.750104)scale(0.1 -0.1)">
       <use xlink:href="#DejaVuSans-49"/>
       <use x="63.623047" xlink:href="#DejaVuSans-48"/>
       <use x="127.246094" xlink:href="#DejaVuSans-48"/>
       <use x="190.869141" xlink:href="#DejaVuSans-48"/>
       <use x="254.492188" xlink:href="#DejaVuSans-48"/>
       <use x="318.115234" xlink:href="#DejaVuSans-48"/>
      </g>
     </g>
    </g>
    <g id="xtick_3">
     <g id="line2d_3">
      <g>
       <use style="stroke:#000000;stroke-width:0.8;" x="738.456724" xlink:href="#me8b1a5289a" y="638.151667"/>
      </g>
     </g>
     <g id="text_3">
      <!-- 200000 -->
      <defs>
       <path d="M 19.1875 8.296875 
L 53.609375 8.296875 
L 53.609375 0 
L 7.328125 0 
L 7.328125 8.296875 
Q 12.9375 14.109375 22.625 23.890625 
Q 32.328125 33.6875 34.8125 36.53125 
Q 39.546875 41.84375 41.421875 45.53125 
Q 43.3125 49.21875 43.3125 52.78125 
Q 43.3125 58.59375 39.234375 62.25 
Q 35.15625 65.921875 28.609375 65.921875 
Q 23.96875 65.921875 18.8125 64.3125 
Q 13.671875 62.703125 7.8125 59.421875 
L 7.8125 69.390625 
Q 13.765625 71.78125 18.9375 73 
Q 24.125 74.21875 28.421875 74.21875 
Q 39.75 74.21875 46.484375 68.546875 
Q 53.21875 62.890625 53.21875 53.421875 
Q 53.21875 48.921875 51.53125 44.890625 
Q 49.859375 40.875 45.40625 35.40625 
Q 44.1875 33.984375 37.640625 27.21875 
Q 31.109375 20.453125 19.1875 8.296875 
z
" id="DejaVuSans-50"/>
      </defs>
      <g transform="translate(719.369224 652.750104)scale(0.1 -0.1)">
       <use xlink:href="#DejaVuSans-50"/>
       <use x="63.623047" xlink:href="#DejaVuSans-48"/>
       <use x="127.246094" xlink:href="#DejaVuSans-48"/>
       <use x="190.869141" xlink:href="#DejaVuSans-48"/>
       <use x="254.492188" xlink:href="#DejaVuSans-48"/>
       <use x="318.115234" xlink:href="#DejaVuSans-48"/>
      </g>
     </g>
    </g>
    <g id="xtick_4">
     <g id="line2d_4">
      <g>
       <use style="stroke:#000000;stroke-width:0.8;" x="912.14292" xlink:href="#me8b1a5289a" y="638.151667"/>
      </g>
     </g>
     <g id="text_4">
      <!-- 300000 -->
      <defs>
       <path d="M 40.578125 39.3125 
Q 47.65625 37.796875 51.625 33 
Q 55.609375 28.21875 55.609375 21.1875 
Q 55.609375 10.40625 48.1875 4.484375 
Q 40.765625 -1.421875 27.09375 -1.421875 
Q 22.515625 -1.421875 17.65625 -0.515625 
Q 12.796875 0.390625 7.625 2.203125 
L 7.625 11.71875 
Q 11.71875 9.328125 16.59375 8.109375 
Q 21.484375 6.890625 26.8125 6.890625 
Q 36.078125 6.890625 40.9375 10.546875 
Q 45.796875 14.203125 45.796875 21.1875 
Q 45.796875 27.640625 41.28125 31.265625 
Q 36.765625 34.90625 28.71875 34.90625 
L 20.21875 34.90625 
L 20.21875 43.015625 
L 29.109375 43.015625 
Q 36.375 43.015625 40.234375 45.921875 
Q 44.09375 48.828125 44.09375 54.296875 
Q 44.09375 59.90625 40.109375 62.90625 
Q 36.140625 65.921875 28.71875 65.921875 
Q 24.65625 65.921875 20.015625 65.03125 
Q 15.375 64.15625 9.8125 62.3125 
L 9.8125 71.09375 
Q 15.4375 72.65625 20.34375 73.4375 
Q 25.25 74.21875 29.59375 74.21875 
Q 40.828125 74.21875 47.359375 69.109375 
Q 53.90625 64.015625 53.90625 55.328125 
Q 53.90625 49.265625 50.4375 45.09375 
Q 46.96875 40.921875 40.578125 39.3125 
z
" id="DejaVuSans-51"/>
      </defs>
      <g transform="translate(893.05542 652.750104)scale(0.1 -0.1)">
       <use xlink:href="#DejaVuSans-51"/>
       <use x="63.623047" xlink:href="#DejaVuSans-48"/>
       <use x="127.246094" xlink:href="#DejaVuSans-48"/>
       <use x="190.869141" xlink:href="#DejaVuSans-48"/>
       <use x="254.492188" xlink:href="#DejaVuSans-48"/>
       <use x="318.115234" xlink:href="#DejaVuSans-48"/>
      </g>
     </g>
    </g>
    <g id="xtick_5">
     <g id="line2d_5">
      <g>
       <use style="stroke:#000000;stroke-width:0.8;" x="1085.829115" xlink:href="#me8b1a5289a" y="638.151667"/>
      </g>
     </g>
     <g id="text_5">
      <!-- 400000 -->
      <defs>
       <path d="M 37.796875 64.3125 
L 12.890625 25.390625 
L 37.796875 25.390625 
z
M 35.203125 72.90625 
L 47.609375 72.90625 
L 47.609375 25.390625 
L 58.015625 25.390625 
L 58.015625 17.1875 
L 47.609375 17.1875 
L 47.609375 0 
L 37.796875 0 
L 37.796875 17.1875 
L 4.890625 17.1875 
L 4.890625 26.703125 
z
" id="DejaVuSans-52"/>
      </defs>
      <g transform="translate(1066.741615 652.750104)scale(0.1 -0.1)">
       <use xlink:href="#DejaVuSans-52"/>
       <use x="63.623047" xlink:href="#DejaVuSans-48"/>
       <use x="127.246094" xlink:href="#DejaVuSans-48"/>
       <use x="190.869141" xlink:href="#DejaVuSans-48"/>
       <use x="254.492188" xlink:href="#DejaVuSans-48"/>
       <use x="318.115234" xlink:href="#DejaVuSans-48"/>
      </g>
     </g>
    </g>
    <g id="xtick_6">
     <g id="line2d_6">
      <g>
       <use style="stroke:#000000;stroke-width:0.8;" x="1259.515311" xlink:href="#me8b1a5289a" y="638.151667"/>
      </g>
     </g>
     <g id="text_6">
      <!-- 500000 -->
      <defs>
       <path d="M 10.796875 72.90625 
L 49.515625 72.90625 
L 49.515625 64.59375 
L 19.828125 64.59375 
L 19.828125 46.734375 
Q 21.96875 47.46875 24.109375 47.828125 
Q 26.265625 48.1875 28.421875 48.1875 
Q 40.625 48.1875 47.75 41.5 
Q 54.890625 34.8125 54.890625 23.390625 
Q 54.890625 11.625 47.5625 5.09375 
Q 40.234375 -1.421875 26.90625 -1.421875 
Q 22.3125 -1.421875 17.546875 -0.640625 
Q 12.796875 0.140625 7.71875 1.703125 
L 7.71875 11.625 
Q 12.109375 9.234375 16.796875 8.0625 
Q 21.484375 6.890625 26.703125 6.890625 
Q 35.15625 6.890625 40.078125 11.328125 
Q 45.015625 15.765625 45.015625 23.390625 
Q 45.015625 31 40.078125 35.4375 
Q 35.15625 39.890625 26.703125 39.890625 
Q 22.75 39.890625 18.8125 39.015625 
Q 14.890625 38.140625 10.796875 36.28125 
z
" id="DejaVuSans-53"/>
      </defs>
      <g transform="translate(1240.427811 652.750104)scale(0.1 -0.1)">
       <use xlink:href="#DejaVuSans-53"/>
       <use x="63.623047" xlink:href="#DejaVuSans-48"/>
       <use x="127.246094" xlink:href="#DejaVuSans-48"/>
       <use x="190.869141" xlink:href="#DejaVuSans-48"/>
       <use x="254.492188" xlink:href="#DejaVuSans-48"/>
       <use x="318.115234" xlink:href="#DejaVuSans-48"/>
      </g>
     </g>
    </g>
    <g id="text_7">
     <!-- Głosy na poszczególnych kandydatów -->
     <defs>
      <path d="M 59.515625 10.40625 
L 59.515625 29.984375 
L 43.40625 29.984375 
L 43.40625 38.09375 
L 69.28125 38.09375 
L 69.28125 6.78125 
Q 63.578125 2.734375 56.6875 0.65625 
Q 49.8125 -1.421875 42 -1.421875 
Q 24.90625 -1.421875 15.25 8.5625 
Q 5.609375 18.5625 5.609375 36.375 
Q 5.609375 54.25 15.25 64.234375 
Q 24.90625 74.21875 42 74.21875 
Q 49.125 74.21875 55.546875 72.453125 
Q 61.96875 70.703125 67.390625 67.28125 
L 67.390625 56.78125 
Q 61.921875 61.421875 55.765625 63.765625 
Q 49.609375 66.109375 42.828125 66.109375 
Q 29.4375 66.109375 22.71875 58.640625 
Q 16.015625 51.171875 16.015625 36.375 
Q 16.015625 21.625 22.71875 14.15625 
Q 29.4375 6.6875 42.828125 6.6875 
Q 48.046875 6.6875 52.140625 7.59375 
Q 56.25 8.5 59.515625 10.40625 
z
" id="DejaVuSans-71"/>
      <path d="M 9.71875 75.984375 
L 18.703125 75.984375 
L 18.703125 46.578125 
L 24.8125 50.984375 
L 28.515625 45.796875 
L 18.703125 38.921875 
L 18.703125 0 
L 9.71875 0 
L 9.71875 32.515625 
L 3.71875 28.21875 
L 0.09375 33.40625 
L 9.71875 40.28125 
z
" id="DejaVuSans-322"/>
      <path d="M 30.609375 48.390625 
Q 23.390625 48.390625 19.1875 42.75 
Q 14.984375 37.109375 14.984375 27.296875 
Q 14.984375 17.484375 19.15625 11.84375 
Q 23.34375 6.203125 30.609375 6.203125 
Q 37.796875 6.203125 41.984375 11.859375 
Q 46.1875 17.53125 46.1875 27.296875 
Q 46.1875 37.015625 41.984375 42.703125 
Q 37.796875 48.390625 30.609375 48.390625 
z
M 30.609375 56 
Q 42.328125 56 49.015625 48.375 
Q 55.71875 40.765625 55.71875 27.296875 
Q 55.71875 13.875 49.015625 6.21875 
Q 42.328125 -1.421875 30.609375 -1.421875 
Q 18.84375 -1.421875 12.171875 6.21875 
Q 5.515625 13.875 5.515625 27.296875 
Q 5.515625 40.765625 12.171875 48.375 
Q 18.84375 56 30.609375 56 
z
" id="DejaVuSans-111"/>
      <path d="M 44.28125 53.078125 
L 44.28125 44.578125 
Q 40.484375 46.53125 36.375 47.5 
Q 32.28125 48.484375 27.875 48.484375 
Q 21.1875 48.484375 17.84375 46.4375 
Q 14.5 44.390625 14.5 40.28125 
Q 14.5 37.15625 16.890625 35.375 
Q 19.28125 33.59375 26.515625 31.984375 
L 29.59375 31.296875 
Q 39.15625 29.25 43.1875 25.515625 
Q 47.21875 21.78125 47.21875 15.09375 
Q 47.21875 7.46875 41.1875 3.015625 
Q 35.15625 -1.421875 24.609375 -1.421875 
Q 20.21875 -1.421875 15.453125 -0.5625 
Q 10.6875 0.296875 5.421875 2 
L 5.421875 11.28125 
Q 10.40625 8.6875 15.234375 7.390625 
Q 20.0625 6.109375 24.8125 6.109375 
Q 31.15625 6.109375 34.5625 8.28125 
Q 37.984375 10.453125 37.984375 14.40625 
Q 37.984375 18.0625 35.515625 20.015625 
Q 33.0625 21.96875 24.703125 23.78125 
L 21.578125 24.515625 
Q 13.234375 26.265625 9.515625 29.90625 
Q 5.8125 33.546875 5.8125 39.890625 
Q 5.8125 47.609375 11.28125 51.796875 
Q 16.75 56 26.8125 56 
Q 31.78125 56 36.171875 55.265625 
Q 40.578125 54.546875 44.28125 53.078125 
z
" id="DejaVuSans-115"/>
      <path d="M 32.171875 -5.078125 
Q 28.375 -14.84375 24.75 -17.8125 
Q 21.140625 -20.796875 15.09375 -20.796875 
L 7.90625 -20.796875 
L 7.90625 -13.28125 
L 13.1875 -13.28125 
Q 16.890625 -13.28125 18.9375 -11.515625 
Q 21 -9.765625 23.484375 -3.21875 
L 25.09375 0.875 
L 2.984375 54.6875 
L 12.5 54.6875 
L 29.59375 11.921875 
L 46.6875 54.6875 
L 56.203125 54.6875 
z
" id="DejaVuSans-121"/>
      <path id="DejaVuSans-32"/>
      <path d="M 54.890625 33.015625 
L 54.890625 0 
L 45.90625 0 
L 45.90625 32.71875 
Q 45.90625 40.484375 42.875 44.328125 
Q 39.84375 48.1875 33.796875 48.1875 
Q 26.515625 48.1875 22.3125 43.546875 
Q 18.109375 38.921875 18.109375 30.90625 
L 18.109375 0 
L 9.078125 0 
L 9.078125 54.6875 
L 18.109375 54.6875 
L 18.109375 46.1875 
Q 21.34375 51.125 25.703125 53.5625 
Q 30.078125 56 35.796875 56 
Q 45.21875 56 50.046875 50.171875 
Q 54.890625 44.34375 54.890625 33.015625 
z
" id="DejaVuSans-110"/>
      <path d="M 34.28125 27.484375 
Q 23.390625 27.484375 19.1875 25 
Q 14.984375 22.515625 14.984375 16.5 
Q 14.984375 11.71875 18.140625 8.90625 
Q 21.296875 6.109375 26.703125 6.109375 
Q 34.1875 6.109375 38.703125 11.40625 
Q 43.21875 16.703125 43.21875 25.484375 
L 43.21875 27.484375 
z
M 52.203125 31.203125 
L 52.203125 0 
L 43.21875 0 
L 43.21875 8.296875 
Q 40.140625 3.328125 35.546875 0.953125 
Q 30.953125 -1.421875 24.3125 -1.421875 
Q 15.921875 -1.421875 10.953125 3.296875 
Q 6 8.015625 6 15.921875 
Q 6 25.140625 12.171875 29.828125 
Q 18.359375 34.515625 30.609375 34.515625 
L 43.21875 34.515625 
L 43.21875 35.40625 
Q 43.21875 41.609375 39.140625 45 
Q 35.0625 48.390625 27.6875 48.390625 
Q 23 48.390625 18.546875 47.265625 
Q 14.109375 46.140625 10.015625 43.890625 
L 10.015625 52.203125 
Q 14.9375 54.109375 19.578125 55.046875 
Q 24.21875 56 28.609375 56 
Q 40.484375 56 46.34375 49.84375 
Q 52.203125 43.703125 52.203125 31.203125 
z
" id="DejaVuSans-97"/>
      <path d="M 18.109375 8.203125 
L 18.109375 -20.796875 
L 9.078125 -20.796875 
L 9.078125 54.6875 
L 18.109375 54.6875 
L 18.109375 46.390625 
Q 20.953125 51.265625 25.265625 53.625 
Q 29.59375 56 35.59375 56 
Q 45.5625 56 51.78125 48.09375 
Q 58.015625 40.1875 58.015625 27.296875 
Q 58.015625 14.40625 51.78125 6.484375 
Q 45.5625 -1.421875 35.59375 -1.421875 
Q 29.59375 -1.421875 25.265625 0.953125 
Q 20.953125 3.328125 18.109375 8.203125 
z
M 48.6875 27.296875 
Q 48.6875 37.203125 44.609375 42.84375 
Q 40.53125 48.484375 33.40625 48.484375 
Q 26.265625 48.484375 22.1875 42.84375 
Q 18.109375 37.203125 18.109375 27.296875 
Q 18.109375 17.390625 22.1875 11.75 
Q 26.265625 6.109375 33.40625 6.109375 
Q 40.53125 6.109375 44.609375 11.75 
Q 48.6875 17.390625 48.6875 27.296875 
z
" id="DejaVuSans-112"/>
      <path d="M 5.515625 54.6875 
L 48.1875 54.6875 
L 48.1875 46.484375 
L 14.40625 7.171875 
L 48.1875 7.171875 
L 48.1875 0 
L 4.296875 0 
L 4.296875 8.203125 
L 38.09375 47.515625 
L 5.515625 47.515625 
z
" id="DejaVuSans-122"/>
      <path d="M 48.78125 52.59375 
L 48.78125 44.1875 
Q 44.96875 46.296875 41.140625 47.34375 
Q 37.3125 48.390625 33.40625 48.390625 
Q 24.65625 48.390625 19.8125 42.84375 
Q 14.984375 37.3125 14.984375 27.296875 
Q 14.984375 17.28125 19.8125 11.734375 
Q 24.65625 6.203125 33.40625 6.203125 
Q 37.3125 6.203125 41.140625 7.25 
Q 44.96875 8.296875 48.78125 10.40625 
L 48.78125 2.09375 
Q 45.015625 0.34375 40.984375 -0.53125 
Q 36.96875 -1.421875 32.421875 -1.421875 
Q 20.0625 -1.421875 12.78125 6.34375 
Q 5.515625 14.109375 5.515625 27.296875 
Q 5.515625 40.671875 12.859375 48.328125 
Q 20.21875 56 33.015625 56 
Q 37.15625 56 41.109375 55.140625 
Q 45.0625 54.296875 48.78125 52.59375 
z
" id="DejaVuSans-99"/>
      <path d="M 56.203125 29.59375 
L 56.203125 25.203125 
L 14.890625 25.203125 
Q 15.484375 15.921875 20.484375 11.0625 
Q 25.484375 6.203125 34.421875 6.203125 
Q 39.59375 6.203125 44.453125 7.46875 
Q 49.3125 8.734375 54.109375 11.28125 
L 54.109375 2.78125 
Q 49.265625 0.734375 44.1875 -0.34375 
Q 39.109375 -1.421875 33.890625 -1.421875 
Q 20.796875 -1.421875 13.15625 6.1875 
Q 5.515625 13.8125 5.515625 26.8125 
Q 5.515625 40.234375 12.765625 48.109375 
Q 20.015625 56 32.328125 56 
Q 43.359375 56 49.78125 48.890625 
Q 56.203125 41.796875 56.203125 29.59375 
z
M 47.21875 32.234375 
Q 47.125 39.59375 43.09375 43.984375 
Q 39.0625 48.390625 32.421875 48.390625 
Q 24.90625 48.390625 20.390625 44.140625 
Q 15.875 39.890625 15.1875 32.171875 
z
" id="DejaVuSans-101"/>
      <path d="M 45.40625 27.984375 
Q 45.40625 37.75 41.375 43.109375 
Q 37.359375 48.484375 30.078125 48.484375 
Q 22.859375 48.484375 18.828125 43.109375 
Q 14.796875 37.75 14.796875 27.984375 
Q 14.796875 18.265625 18.828125 12.890625 
Q 22.859375 7.515625 30.078125 7.515625 
Q 37.359375 7.515625 41.375 12.890625 
Q 45.40625 18.265625 45.40625 27.984375 
z
M 54.390625 6.78125 
Q 54.390625 -7.171875 48.1875 -13.984375 
Q 42 -20.796875 29.203125 -20.796875 
Q 24.46875 -20.796875 20.265625 -20.09375 
Q 16.0625 -19.390625 12.109375 -17.921875 
L 12.109375 -9.1875 
Q 16.0625 -11.328125 19.921875 -12.34375 
Q 23.78125 -13.375 27.78125 -13.375 
Q 36.625 -13.375 41.015625 -8.765625 
Q 45.40625 -4.15625 45.40625 5.171875 
L 45.40625 9.625 
Q 42.625 4.78125 38.28125 2.390625 
Q 33.9375 0 27.875 0 
Q 17.828125 0 11.671875 7.65625 
Q 5.515625 15.328125 5.515625 27.984375 
Q 5.515625 40.671875 11.671875 48.328125 
Q 17.828125 56 27.875 56 
Q 33.9375 56 38.28125 53.609375 
Q 42.625 51.21875 45.40625 46.390625 
L 45.40625 54.6875 
L 54.390625 54.6875 
z
" id="DejaVuSans-103"/>
      <path d="M 30.609375 48.390625 
Q 23.390625 48.390625 19.1875 42.75 
Q 14.984375 37.109375 14.984375 27.296875 
Q 14.984375 17.484375 19.15625 11.84375 
Q 23.34375 6.203125 30.609375 6.203125 
Q 37.796875 6.203125 41.984375 11.859375 
Q 46.1875 17.53125 46.1875 27.296875 
Q 46.1875 37.015625 41.984375 42.703125 
Q 37.796875 48.390625 30.609375 48.390625 
z
M 30.609375 56 
Q 42.328125 56 49.015625 48.375 
Q 55.71875 40.765625 55.71875 27.296875 
Q 55.71875 13.875 49.015625 6.21875 
Q 42.328125 -1.421875 30.609375 -1.421875 
Q 18.84375 -1.421875 12.171875 6.21875 
Q 5.515625 13.875 5.515625 27.296875 
Q 5.515625 40.765625 12.171875 48.375 
Q 18.84375 56 30.609375 56 
z
M 37.40625 79.984375 
L 47.125 79.984375 
L 31.21875 61.625 
L 23.734375 61.625 
z
" id="DejaVuSans-243"/>
      <path d="M 9.421875 75.984375 
L 18.40625 75.984375 
L 18.40625 0 
L 9.421875 0 
z
" id="DejaVuSans-108"/>
      <path d="M 54.890625 33.015625 
L 54.890625 0 
L 45.90625 0 
L 45.90625 32.71875 
Q 45.90625 40.484375 42.875 44.328125 
Q 39.84375 48.1875 33.796875 48.1875 
Q 26.515625 48.1875 22.3125 43.546875 
Q 18.109375 38.921875 18.109375 30.90625 
L 18.109375 0 
L 9.078125 0 
L 9.078125 75.984375 
L 18.109375 75.984375 
L 18.109375 46.1875 
Q 21.34375 51.125 25.703125 53.5625 
Q 30.078125 56 35.796875 56 
Q 45.21875 56 50.046875 50.171875 
Q 54.890625 44.34375 54.890625 33.015625 
z
" id="DejaVuSans-104"/>
      <path d="M 9.078125 75.984375 
L 18.109375 75.984375 
L 18.109375 31.109375 
L 44.921875 54.6875 
L 56.390625 54.6875 
L 27.390625 29.109375 
L 57.625 0 
L 45.90625 0 
L 18.109375 26.703125 
L 18.109375 0 
L 9.078125 0 
z
" id="DejaVuSans-107"/>
      <path d="M 45.40625 46.390625 
L 45.40625 75.984375 
L 54.390625 75.984375 
L 54.390625 0 
L 45.40625 0 
L 45.40625 8.203125 
Q 42.578125 3.328125 38.25 0.953125 
Q 33.9375 -1.421875 27.875 -1.421875 
Q 17.96875 -1.421875 11.734375 6.484375 
Q 5.515625 14.40625 5.515625 27.296875 
Q 5.515625 40.1875 11.734375 48.09375 
Q 17.96875 56 27.875 56 
Q 33.9375 56 38.25 53.625 
Q 42.578125 51.265625 45.40625 46.390625 
z
M 14.796875 27.296875 
Q 14.796875 17.390625 18.875 11.75 
Q 22.953125 6.109375 30.078125 6.109375 
Q 37.203125 6.109375 41.296875 11.75 
Q 45.40625 17.390625 45.40625 27.296875 
Q 45.40625 37.203125 41.296875 42.84375 
Q 37.203125 48.484375 30.078125 48.484375 
Q 22.953125 48.484375 18.875 42.84375 
Q 14.796875 37.203125 14.796875 27.296875 
z
" id="DejaVuSans-100"/>
      <path d="M 18.3125 70.21875 
L 18.3125 54.6875 
L 36.8125 54.6875 
L 36.8125 47.703125 
L 18.3125 47.703125 
L 18.3125 18.015625 
Q 18.3125 11.328125 20.140625 9.421875 
Q 21.96875 7.515625 27.59375 7.515625 
L 36.8125 7.515625 
L 36.8125 0 
L 27.59375 0 
Q 17.1875 0 13.234375 3.875 
Q 9.28125 7.765625 9.28125 18.015625 
L 9.28125 47.703125 
L 2.6875 47.703125 
L 2.6875 54.6875 
L 9.28125 54.6875 
L 9.28125 70.21875 
z
" id="DejaVuSans-116"/>
      <path d="M 4.203125 54.6875 
L 13.1875 54.6875 
L 24.421875 12.015625 
L 35.59375 54.6875 
L 46.1875 54.6875 
L 57.421875 12.015625 
L 68.609375 54.6875 
L 77.59375 54.6875 
L 63.28125 0 
L 52.6875 0 
L 40.921875 44.828125 
L 29.109375 0 
L 18.5 0 
z
" id="DejaVuSans-119"/>
     </defs>
     <g transform="translate(752.692187 666.828229)scale(0.1 -0.1)">
      <use xlink:href="#DejaVuSans-71"/>
      <use x="77.490234" xlink:href="#DejaVuSans-322"/>
      <use x="105.908203" xlink:href="#DejaVuSans-111"/>
      <use x="167.089844" xlink:href="#DejaVuSans-115"/>
      <use x="219.189453" xlink:href="#DejaVuSans-121"/>
      <use x="278.369141" xlink:href="#DejaVuSans-32"/>
      <use x="310.15625" xlink:href="#DejaVuSans-110"/>
      <use x="373.535156" xlink:href="#DejaVuSans-97"/>
      <use x="434.814453" xlink:href="#DejaVuSans-32"/>
      <use x="466.601562" xlink:href="#DejaVuSans-112"/>
      <use x="530.078125" xlink:href="#DejaVuSans-111"/>
      <use x="591.259766" xlink:href="#DejaVuSans-115"/>
      <use x="643.359375" xlink:href="#DejaVuSans-122"/>
      <use x="695.849609" xlink:href="#DejaVuSans-99"/>
      <use x="750.830078" xlink:href="#DejaVuSans-122"/>
      <use x="803.320312" xlink:href="#DejaVuSans-101"/>
      <use x="864.84375" xlink:href="#DejaVuSans-103"/>
      <use x="928.320312" xlink:href="#DejaVuSans-243"/>
      <use x="989.501953" xlink:href="#DejaVuSans-108"/>
      <use x="1017.285156" xlink:href="#DejaVuSans-110"/>
      <use x="1080.664062" xlink:href="#DejaVuSans-121"/>
      <use x="1139.84375" xlink:href="#DejaVuSans-99"/>
      <use x="1194.824219" xlink:href="#DejaVuSans-104"/>
      <use x="1258.203125" xlink:href="#DejaVuSans-32"/>
      <use x="1289.990234" xlink:href="#DejaVuSans-107"/>
      <use x="1347.884766" xlink:href="#DejaVuSans-97"/>
      <use x="1409.164062" xlink:href="#DejaVuSans-110"/>
      <use x="1472.542969" xlink:href="#DejaVuSans-100"/>
      <use x="1536.019531" xlink:href="#DejaVuSans-121"/>
      <use x="1595.199219" xlink:href="#DejaVuSans-100"/>
      <use x="1658.675781" xlink:href="#DejaVuSans-97"/>
      <use x="1719.955078" xlink:href="#DejaVuSans-116"/>
      <use x="1759.164062" xlink:href="#DejaVuSans-243"/>
      <use x="1820.345703" xlink:href="#DejaVuSans-119"/>
     </g>
    </g>
   </g>
   <g id="matplotlib.axis_2">
    <g id="ytick_1">
     <g id="line2d_7">
      <defs>
       <path d="M 0 0 
L -3.5 0 
" id="ma45523d873" style="stroke:#000000;stroke-width:0.8;"/>
      </defs>
      <g>
       <use style="stroke:#000000;stroke-width:0.8;" x="345.6" xlink:href="#ma45523d873" y="57.3175"/>
      </g>
     </g>
    </g>
    <g id="ytick_2">
     <g id="line2d_8">
      <g>
       <use style="stroke:#000000;stroke-width:0.8;" x="345.6" xlink:href="#ma45523d873" y="118.457939"/>
      </g>
     </g>
     <g id="text_8">
      <!-- KOMITET WYBORCZY -->
      <defs>
       <path d="M 9.8125 72.90625 
L 19.671875 72.90625 
L 19.671875 42.09375 
L 52.390625 72.90625 
L 65.09375 72.90625 
L 28.90625 38.921875 
L 67.671875 0 
L 54.6875 0 
L 19.671875 35.109375 
L 19.671875 0 
L 9.8125 0 
z
" id="DejaVuSans-75"/>
       <path d="M 39.40625 66.21875 
Q 28.65625 66.21875 22.328125 58.203125 
Q 16.015625 50.203125 16.015625 36.375 
Q 16.015625 22.609375 22.328125 14.59375 
Q 28.65625 6.59375 39.40625 6.59375 
Q 50.140625 6.59375 56.421875 14.59375 
Q 62.703125 22.609375 62.703125 36.375 
Q 62.703125 50.203125 56.421875 58.203125 
Q 50.140625 66.21875 39.40625 66.21875 
z
M 39.40625 74.21875 
Q 54.734375 74.21875 63.90625 63.9375 
Q 73.09375 53.65625 73.09375 36.375 
Q 73.09375 19.140625 63.90625 8.859375 
Q 54.734375 -1.421875 39.40625 -1.421875 
Q 24.03125 -1.421875 14.8125 8.828125 
Q 5.609375 19.09375 5.609375 36.375 
Q 5.609375 53.65625 14.8125 63.9375 
Q 24.03125 74.21875 39.40625 74.21875 
z
" id="DejaVuSans-79"/>
       <path d="M 9.8125 72.90625 
L 24.515625 72.90625 
L 43.109375 23.296875 
L 61.8125 72.90625 
L 76.515625 72.90625 
L 76.515625 0 
L 66.890625 0 
L 66.890625 64.015625 
L 48.09375 14.015625 
L 38.1875 14.015625 
L 19.390625 64.015625 
L 19.390625 0 
L 9.8125 0 
z
" id="DejaVuSans-77"/>
       <path d="M 9.8125 72.90625 
L 19.671875 72.90625 
L 19.671875 0 
L 9.8125 0 
z
" id="DejaVuSans-73"/>
       <path d="M -0.296875 72.90625 
L 61.375 72.90625 
L 61.375 64.59375 
L 35.5 64.59375 
L 35.5 0 
L 25.59375 0 
L 25.59375 64.59375 
L -0.296875 64.59375 
z
" id="DejaVuSans-84"/>
       <path d="M 9.8125 72.90625 
L 55.90625 72.90625 
L 55.90625 64.59375 
L 19.671875 64.59375 
L 19.671875 43.015625 
L 54.390625 43.015625 
L 54.390625 34.71875 
L 19.671875 34.71875 
L 19.671875 8.296875 
L 56.78125 8.296875 
L 56.78125 0 
L 9.8125 0 
z
" id="DejaVuSans-69"/>
       <path d="M 3.328125 72.90625 
L 13.28125 72.90625 
L 28.609375 11.28125 
L 43.890625 72.90625 
L 54.984375 72.90625 
L 70.3125 11.28125 
L 85.59375 72.90625 
L 95.609375 72.90625 
L 77.296875 0 
L 64.890625 0 
L 49.515625 63.28125 
L 33.984375 0 
L 21.578125 0 
z
" id="DejaVuSans-87"/>
       <path d="M -0.203125 72.90625 
L 10.40625 72.90625 
L 30.609375 42.921875 
L 50.6875 72.90625 
L 61.28125 72.90625 
L 35.5 34.71875 
L 35.5 0 
L 25.59375 0 
L 25.59375 34.71875 
z
" id="DejaVuSans-89"/>
       <path d="M 19.671875 34.8125 
L 19.671875 8.109375 
L 35.5 8.109375 
Q 43.453125 8.109375 47.28125 11.40625 
Q 51.125 14.703125 51.125 21.484375 
Q 51.125 28.328125 47.28125 31.5625 
Q 43.453125 34.8125 35.5 34.8125 
z
M 19.671875 64.796875 
L 19.671875 42.828125 
L 34.28125 42.828125 
Q 41.5 42.828125 45.03125 45.53125 
Q 48.578125 48.25 48.578125 53.8125 
Q 48.578125 59.328125 45.03125 62.0625 
Q 41.5 64.796875 34.28125 64.796875 
z
M 9.8125 72.90625 
L 35.015625 72.90625 
Q 46.296875 72.90625 52.390625 68.21875 
Q 58.5 63.53125 58.5 54.890625 
Q 58.5 48.1875 55.375 44.234375 
Q 52.25 40.28125 46.1875 39.3125 
Q 53.46875 37.75 57.5 32.78125 
Q 61.53125 27.828125 61.53125 20.40625 
Q 61.53125 10.640625 54.890625 5.3125 
Q 48.25 0 35.984375 0 
L 9.8125 0 
z
" id="DejaVuSans-66"/>
       <path d="M 44.390625 34.1875 
Q 47.5625 33.109375 50.5625 29.59375 
Q 53.5625 26.078125 56.59375 19.921875 
L 66.609375 0 
L 56 0 
L 46.6875 18.703125 
Q 43.0625 26.03125 39.671875 28.421875 
Q 36.28125 30.8125 30.421875 30.8125 
L 19.671875 30.8125 
L 19.671875 0 
L 9.8125 0 
L 9.8125 72.90625 
L 32.078125 72.90625 
Q 44.578125 72.90625 50.734375 67.671875 
Q 56.890625 62.453125 56.890625 51.90625 
Q 56.890625 45.015625 53.6875 40.46875 
Q 50.484375 35.9375 44.390625 34.1875 
z
M 19.671875 64.796875 
L 19.671875 38.921875 
L 32.078125 38.921875 
Q 39.203125 38.921875 42.84375 42.21875 
Q 46.484375 45.515625 46.484375 51.90625 
Q 46.484375 58.296875 42.84375 61.546875 
Q 39.203125 64.796875 32.078125 64.796875 
z
" id="DejaVuSans-82"/>
       <path d="M 64.40625 67.28125 
L 64.40625 56.890625 
Q 59.421875 61.53125 53.78125 63.8125 
Q 48.140625 66.109375 41.796875 66.109375 
Q 29.296875 66.109375 22.65625 58.46875 
Q 16.015625 50.828125 16.015625 36.375 
Q 16.015625 21.96875 22.65625 14.328125 
Q 29.296875 6.6875 41.796875 6.6875 
Q 48.140625 6.6875 53.78125 8.984375 
Q 59.421875 11.28125 64.40625 15.921875 
L 64.40625 5.609375 
Q 59.234375 2.09375 53.4375 0.328125 
Q 47.65625 -1.421875 41.21875 -1.421875 
Q 24.65625 -1.421875 15.125 8.703125 
Q 5.609375 18.84375 5.609375 36.375 
Q 5.609375 53.953125 15.125 64.078125 
Q 24.65625 74.21875 41.21875 74.21875 
Q 47.75 74.21875 53.53125 72.484375 
Q 59.328125 70.75 64.40625 67.28125 
z
" id="DejaVuSans-67"/>
       <path d="M 5.609375 72.90625 
L 62.890625 72.90625 
L 62.890625 65.375 
L 16.796875 8.296875 
L 64.015625 8.296875 
L 64.015625 0 
L 4.5 0 
L 4.5 7.515625 
L 50.59375 64.59375 
L 5.609375 64.59375 
z
" id="DejaVuSans-90"/>
      </defs>
      <g transform="translate(233.279687 116.630595)scale(0.1 -0.1)">
       <use xlink:href="#DejaVuSans-75"/>
       <use x="65.498047" xlink:href="#DejaVuSans-79"/>
       <use x="144.208984" xlink:href="#DejaVuSans-77"/>
       <use x="230.488281" xlink:href="#DejaVuSans-73"/>
       <use x="259.980469" xlink:href="#DejaVuSans-84"/>
       <use x="321.064453" xlink:href="#DejaVuSans-69"/>
       <use x="384.248047" xlink:href="#DejaVuSans-84"/>
       <use x="445.332031" xlink:href="#DejaVuSans-32"/>
       <use x="477.119141" xlink:href="#DejaVuSans-87"/>
       <use x="575.996094" xlink:href="#DejaVuSans-89"/>
       <use x="637.080078" xlink:href="#DejaVuSans-66"/>
       <use x="705.667969" xlink:href="#DejaVuSans-79"/>
       <use x="784.378906" xlink:href="#DejaVuSans-82"/>
       <use x="853.783203" xlink:href="#DejaVuSans-67"/>
       <use x="923.607422" xlink:href="#DejaVuSans-90"/>
       <use x="992.113281" xlink:href="#DejaVuSans-89"/>
      </g>
      <!-- WYBORCÓW KONFEDERACJA KORWIN BRAUN LIROY NARODOWCY -->
      <defs>
       <path d="M 39.40625 66.21875 
Q 28.65625 66.21875 22.328125 58.203125 
Q 16.015625 50.203125 16.015625 36.375 
Q 16.015625 22.609375 22.328125 14.59375 
Q 28.65625 6.59375 39.40625 6.59375 
Q 50.140625 6.59375 56.421875 14.59375 
Q 62.703125 22.609375 62.703125 36.375 
Q 62.703125 50.203125 56.421875 58.203125 
Q 50.140625 66.21875 39.40625 66.21875 
z
M 39.40625 74.21875 
Q 54.734375 74.21875 63.90625 63.9375 
Q 73.09375 53.65625 73.09375 36.375 
Q 73.09375 19.140625 63.90625 8.859375 
Q 54.734375 -1.421875 39.40625 -1.421875 
Q 24.03125 -1.421875 14.8125 8.828125 
Q 5.609375 19.09375 5.609375 36.375 
Q 5.609375 53.65625 14.8125 63.9375 
Q 24.03125 74.21875 39.40625 74.21875 
z
M 42.0625 92.515625 
L 51.09375 92.515625 
L 39.96875 79.625 
L 32.484375 79.625 
z
" id="DejaVuSans-211"/>
       <path d="M 9.8125 72.90625 
L 23.09375 72.90625 
L 55.421875 11.921875 
L 55.421875 72.90625 
L 64.984375 72.90625 
L 64.984375 0 
L 51.703125 0 
L 19.390625 60.984375 
L 19.390625 0 
L 9.8125 0 
z
" id="DejaVuSans-78"/>
       <path d="M 9.8125 72.90625 
L 51.703125 72.90625 
L 51.703125 64.59375 
L 19.671875 64.59375 
L 19.671875 43.109375 
L 48.578125 43.109375 
L 48.578125 34.8125 
L 19.671875 34.8125 
L 19.671875 0 
L 9.8125 0 
z
" id="DejaVuSans-70"/>
       <path d="M 19.671875 64.796875 
L 19.671875 8.109375 
L 31.59375 8.109375 
Q 46.6875 8.109375 53.6875 14.9375 
Q 60.6875 21.78125 60.6875 36.53125 
Q 60.6875 51.171875 53.6875 57.984375 
Q 46.6875 64.796875 31.59375 64.796875 
z
M 9.8125 72.90625 
L 30.078125 72.90625 
Q 51.265625 72.90625 61.171875 64.09375 
Q 71.09375 55.28125 71.09375 36.53125 
Q 71.09375 17.671875 61.125 8.828125 
Q 51.171875 0 30.078125 0 
L 9.8125 0 
z
" id="DejaVuSans-68"/>
       <path d="M 34.1875 63.1875 
L 20.796875 26.90625 
L 47.609375 26.90625 
z
M 28.609375 72.90625 
L 39.796875 72.90625 
L 67.578125 0 
L 57.328125 0 
L 50.6875 18.703125 
L 17.828125 18.703125 
L 11.1875 0 
L 0.78125 0 
z
" id="DejaVuSans-65"/>
       <path d="M 9.8125 72.90625 
L 19.671875 72.90625 
L 19.671875 5.078125 
Q 19.671875 -8.109375 14.671875 -14.0625 
Q 9.671875 -20.015625 -1.421875 -20.015625 
L -5.171875 -20.015625 
L -5.171875 -11.71875 
L -2.09375 -11.71875 
Q 4.4375 -11.71875 7.125 -8.046875 
Q 9.8125 -4.390625 9.8125 5.078125 
z
" id="DejaVuSans-74"/>
       <path d="M 8.6875 72.90625 
L 18.609375 72.90625 
L 18.609375 28.609375 
Q 18.609375 16.890625 22.84375 11.734375 
Q 27.09375 6.59375 36.625 6.59375 
Q 46.09375 6.59375 50.34375 11.734375 
Q 54.59375 16.890625 54.59375 28.609375 
L 54.59375 72.90625 
L 64.5 72.90625 
L 64.5 27.390625 
Q 64.5 13.140625 57.4375 5.859375 
Q 50.390625 -1.421875 36.625 -1.421875 
Q 22.796875 -1.421875 15.734375 5.859375 
Q 8.6875 13.140625 8.6875 27.390625 
z
" id="DejaVuSans-85"/>
       <path d="M 9.8125 72.90625 
L 19.671875 72.90625 
L 19.671875 8.296875 
L 55.171875 8.296875 
L 55.171875 0 
L 9.8125 0 
z
" id="DejaVuSans-76"/>
      </defs>
      <g transform="translate(7.495312 129.718407)scale(0.1 -0.1)">
       <use xlink:href="#DejaVuSans-87"/>
       <use x="98.876953" xlink:href="#DejaVuSans-89"/>
       <use x="159.960938" xlink:href="#DejaVuSans-66"/>
       <use x="228.548828" xlink:href="#DejaVuSans-79"/>
       <use x="307.259766" xlink:href="#DejaVuSans-82"/>
       <use x="376.664062" xlink:href="#DejaVuSans-67"/>
       <use x="446.488281" xlink:href="#DejaVuSans-211"/>
       <use x="525.199219" xlink:href="#DejaVuSans-87"/>
       <use x="624.076172" xlink:href="#DejaVuSans-32"/>
       <use x="655.863281" xlink:href="#DejaVuSans-75"/>
       <use x="721.361328" xlink:href="#DejaVuSans-79"/>
       <use x="800.072266" xlink:href="#DejaVuSans-78"/>
       <use x="874.876953" xlink:href="#DejaVuSans-70"/>
       <use x="932.396484" xlink:href="#DejaVuSans-69"/>
       <use x="995.580078" xlink:href="#DejaVuSans-68"/>
       <use x="1072.582031" xlink:href="#DejaVuSans-69"/>
       <use x="1135.765625" xlink:href="#DejaVuSans-82"/>
       <use x="1205.185547" xlink:href="#DejaVuSans-65"/>
       <use x="1273.578125" xlink:href="#DejaVuSans-67"/>
       <use x="1343.402344" xlink:href="#DejaVuSans-74"/>
       <use x="1372.878906" xlink:href="#DejaVuSans-65"/>
       <use x="1441.287109" xlink:href="#DejaVuSans-32"/>
       <use x="1473.074219" xlink:href="#DejaVuSans-75"/>
       <use x="1538.572266" xlink:href="#DejaVuSans-79"/>
       <use x="1617.283203" xlink:href="#DejaVuSans-82"/>
       <use x="1686.703125" xlink:href="#DejaVuSans-87"/>
       <use x="1785.580078" xlink:href="#DejaVuSans-73"/>
       <use x="1815.072266" xlink:href="#DejaVuSans-78"/>
       <use x="1889.876953" xlink:href="#DejaVuSans-32"/>
       <use x="1921.664062" xlink:href="#DejaVuSans-66"/>
       <use x="1990.267578" xlink:href="#DejaVuSans-82"/>
       <use x="2059.6875" xlink:href="#DejaVuSans-65"/>
       <use x="2128.095703" xlink:href="#DejaVuSans-85"/>
       <use x="2201.289062" xlink:href="#DejaVuSans-78"/>
       <use x="2276.09375" xlink:href="#DejaVuSans-32"/>
       <use x="2307.880859" xlink:href="#DejaVuSans-76"/>
       <use x="2363.59375" xlink:href="#DejaVuSans-73"/>
       <use x="2393.085938" xlink:href="#DejaVuSans-82"/>
       <use x="2462.568359" xlink:href="#DejaVuSans-79"/>
       <use x="2541.201172" xlink:href="#DejaVuSans-89"/>
       <use x="2602.285156" xlink:href="#DejaVuSans-32"/>
       <use x="2634.072266" xlink:href="#DejaVuSans-78"/>
       <use x="2708.876953" xlink:href="#DejaVuSans-65"/>
       <use x="2777.285156" xlink:href="#DejaVuSans-82"/>
       <use x="2846.767578" xlink:href="#DejaVuSans-79"/>
       <use x="2925.478516" xlink:href="#DejaVuSans-68"/>
       <use x="3002.480469" xlink:href="#DejaVuSans-79"/>
       <use x="3081.191406" xlink:href="#DejaVuSans-87"/>
       <use x="3180.068359" xlink:href="#DejaVuSans-67"/>
       <use x="3249.876953" xlink:href="#DejaVuSans-89"/>
      </g>
     </g>
    </g>
    <g id="ytick_3">
     <g id="line2d_9">
      <g>
       <use style="stroke:#000000;stroke-width:0.8;" x="345.6" xlink:href="#ma45523d873" y="179.598377"/>
      </g>
     </g>
     <g id="text_9">
      <!-- KOMITET WYBORCZY WIOSNA -->
      <defs>
       <path d="M 53.515625 70.515625 
L 53.515625 60.890625 
Q 47.90625 63.578125 42.921875 64.890625 
Q 37.9375 66.21875 33.296875 66.21875 
Q 25.25 66.21875 20.875 63.09375 
Q 16.5 59.96875 16.5 54.203125 
Q 16.5 49.359375 19.40625 46.890625 
Q 22.3125 44.4375 30.421875 42.921875 
L 36.375 41.703125 
Q 47.40625 39.59375 52.65625 34.296875 
Q 57.90625 29 57.90625 20.125 
Q 57.90625 9.515625 50.796875 4.046875 
Q 43.703125 -1.421875 29.984375 -1.421875 
Q 24.8125 -1.421875 18.96875 -0.25 
Q 13.140625 0.921875 6.890625 3.21875 
L 6.890625 13.375 
Q 12.890625 10.015625 18.65625 8.296875 
Q 24.421875 6.59375 29.984375 6.59375 
Q 38.421875 6.59375 43.015625 9.90625 
Q 47.609375 13.234375 47.609375 19.390625 
Q 47.609375 24.75 44.3125 27.78125 
Q 41.015625 30.8125 33.5 32.328125 
L 27.484375 33.5 
Q 16.453125 35.6875 11.515625 40.375 
Q 6.59375 45.0625 6.59375 53.421875 
Q 6.59375 63.09375 13.40625 68.65625 
Q 20.21875 74.21875 32.171875 74.21875 
Q 37.3125 74.21875 42.625 73.28125 
Q 47.953125 72.359375 53.515625 70.515625 
z
" id="DejaVuSans-83"/>
      </defs>
      <g transform="translate(188.721875 178.558533)scale(0.1 -0.1)">
       <use xlink:href="#DejaVuSans-75"/>
       <use x="65.498047" xlink:href="#DejaVuSans-79"/>
       <use x="144.208984" xlink:href="#DejaVuSans-77"/>
       <use x="230.488281" xlink:href="#DejaVuSans-73"/>
       <use x="259.980469" xlink:href="#DejaVuSans-84"/>
       <use x="321.064453" xlink:href="#DejaVuSans-69"/>
       <use x="384.248047" xlink:href="#DejaVuSans-84"/>
       <use x="445.332031" xlink:href="#DejaVuSans-32"/>
       <use x="477.119141" xlink:href="#DejaVuSans-87"/>
       <use x="575.996094" xlink:href="#DejaVuSans-89"/>
       <use x="637.080078" xlink:href="#DejaVuSans-66"/>
       <use x="705.667969" xlink:href="#DejaVuSans-79"/>
       <use x="784.378906" xlink:href="#DejaVuSans-82"/>
       <use x="853.783203" xlink:href="#DejaVuSans-67"/>
       <use x="923.607422" xlink:href="#DejaVuSans-90"/>
       <use x="992.113281" xlink:href="#DejaVuSans-89"/>
       <use x="1053.197266" xlink:href="#DejaVuSans-32"/>
       <use x="1084.984375" xlink:href="#DejaVuSans-87"/>
       <use x="1183.861328" xlink:href="#DejaVuSans-73"/>
       <use x="1213.353516" xlink:href="#DejaVuSans-79"/>
       <use x="1292.064453" xlink:href="#DejaVuSans-83"/>
       <use x="1355.541016" xlink:href="#DejaVuSans-78"/>
       <use x="1430.345703" xlink:href="#DejaVuSans-65"/>
      </g>
      <!-- ROBERTA BIEDRONIA -->
      <g transform="translate(231.625 189.756346)scale(0.1 -0.1)">
       <use xlink:href="#DejaVuSans-82"/>
       <use x="69.482422" xlink:href="#DejaVuSans-79"/>
       <use x="148.193359" xlink:href="#DejaVuSans-66"/>
       <use x="216.796875" xlink:href="#DejaVuSans-69"/>
       <use x="279.980469" xlink:href="#DejaVuSans-82"/>
       <use x="349.353516" xlink:href="#DejaVuSans-84"/>
       <use x="410.328125" xlink:href="#DejaVuSans-65"/>
       <use x="478.736328" xlink:href="#DejaVuSans-32"/>
       <use x="510.523438" xlink:href="#DejaVuSans-66"/>
       <use x="579.126953" xlink:href="#DejaVuSans-73"/>
       <use x="608.619141" xlink:href="#DejaVuSans-69"/>
       <use x="671.802734" xlink:href="#DejaVuSans-68"/>
       <use x="748.804688" xlink:href="#DejaVuSans-82"/>
       <use x="818.287109" xlink:href="#DejaVuSans-79"/>
       <use x="896.998047" xlink:href="#DejaVuSans-78"/>
       <use x="971.802734" xlink:href="#DejaVuSans-73"/>
       <use x="1001.294922" xlink:href="#DejaVuSans-65"/>
      </g>
     </g>
    </g>
    <g id="ytick_4">
     <g id="line2d_10">
      <g>
       <use style="stroke:#000000;stroke-width:0.8;" x="345.6" xlink:href="#ma45523d873" y="240.738816"/>
      </g>
     </g>
     <g id="text_10">
      <!-- KOALICYJNY KOMITET -->
      <g transform="translate(231.476562 239.698972)scale(0.1 -0.1)">
       <use xlink:href="#DejaVuSans-75"/>
       <use x="65.498047" xlink:href="#DejaVuSans-79"/>
       <use x="144.193359" xlink:href="#DejaVuSans-65"/>
       <use x="212.601562" xlink:href="#DejaVuSans-76"/>
       <use x="268.314453" xlink:href="#DejaVuSans-73"/>
       <use x="297.806641" xlink:href="#DejaVuSans-67"/>
       <use x="367.615234" xlink:href="#DejaVuSans-89"/>
       <use x="428.699219" xlink:href="#DejaVuSans-74"/>
       <use x="458.191406" xlink:href="#DejaVuSans-78"/>
       <use x="532.996094" xlink:href="#DejaVuSans-89"/>
       <use x="594.080078" xlink:href="#DejaVuSans-32"/>
       <use x="625.867188" xlink:href="#DejaVuSans-75"/>
       <use x="691.365234" xlink:href="#DejaVuSans-79"/>
       <use x="770.076172" xlink:href="#DejaVuSans-77"/>
       <use x="856.355469" xlink:href="#DejaVuSans-73"/>
       <use x="885.847656" xlink:href="#DejaVuSans-84"/>
       <use x="946.931641" xlink:href="#DejaVuSans-69"/>
       <use x="1010.115234" xlink:href="#DejaVuSans-84"/>
      </g>
      <!-- WYBORCZY KOALICJA EUROPEJSKA PO PSL SLD .N ZIELONI -->
      <defs>
       <path d="M 19.671875 64.796875 
L 19.671875 37.40625 
L 32.078125 37.40625 
Q 38.96875 37.40625 42.71875 40.96875 
Q 46.484375 44.53125 46.484375 51.125 
Q 46.484375 57.671875 42.71875 61.234375 
Q 38.96875 64.796875 32.078125 64.796875 
z
M 9.8125 72.90625 
L 32.078125 72.90625 
Q 44.34375 72.90625 50.609375 67.359375 
Q 56.890625 61.8125 56.890625 51.125 
Q 56.890625 40.328125 50.609375 34.8125 
Q 44.34375 29.296875 32.078125 29.296875 
L 19.671875 29.296875 
L 19.671875 0 
L 9.8125 0 
z
" id="DejaVuSans-80"/>
       <path d="M 10.6875 12.40625 
L 21 12.40625 
L 21 0 
L 10.6875 0 
z
" id="DejaVuSans-46"/>
      </defs>
      <g transform="translate(46.56875 250.896785)scale(0.1 -0.1)">
       <use xlink:href="#DejaVuSans-87"/>
       <use x="98.876953" xlink:href="#DejaVuSans-89"/>
       <use x="159.960938" xlink:href="#DejaVuSans-66"/>
       <use x="228.548828" xlink:href="#DejaVuSans-79"/>
       <use x="307.259766" xlink:href="#DejaVuSans-82"/>
       <use x="376.664062" xlink:href="#DejaVuSans-67"/>
       <use x="446.488281" xlink:href="#DejaVuSans-90"/>
       <use x="514.994141" xlink:href="#DejaVuSans-89"/>
       <use x="576.078125" xlink:href="#DejaVuSans-32"/>
       <use x="607.865234" xlink:href="#DejaVuSans-75"/>
       <use x="673.363281" xlink:href="#DejaVuSans-79"/>
       <use x="752.058594" xlink:href="#DejaVuSans-65"/>
       <use x="820.466797" xlink:href="#DejaVuSans-76"/>
       <use x="876.179688" xlink:href="#DejaVuSans-73"/>
       <use x="905.671875" xlink:href="#DejaVuSans-67"/>
       <use x="975.496094" xlink:href="#DejaVuSans-74"/>
       <use x="1004.972656" xlink:href="#DejaVuSans-65"/>
       <use x="1073.380859" xlink:href="#DejaVuSans-32"/>
       <use x="1105.167969" xlink:href="#DejaVuSans-69"/>
       <use x="1168.351562" xlink:href="#DejaVuSans-85"/>
       <use x="1241.544922" xlink:href="#DejaVuSans-82"/>
       <use x="1311.027344" xlink:href="#DejaVuSans-79"/>
       <use x="1389.738281" xlink:href="#DejaVuSans-80"/>
       <use x="1450.041016" xlink:href="#DejaVuSans-69"/>
       <use x="1513.224609" xlink:href="#DejaVuSans-74"/>
       <use x="1542.716797" xlink:href="#DejaVuSans-83"/>
       <use x="1606.193359" xlink:href="#DejaVuSans-75"/>
       <use x="1671.753906" xlink:href="#DejaVuSans-65"/>
       <use x="1740.162109" xlink:href="#DejaVuSans-32"/>
       <use x="1771.949219" xlink:href="#DejaVuSans-80"/>
       <use x="1832.251953" xlink:href="#DejaVuSans-79"/>
       <use x="1910.962891" xlink:href="#DejaVuSans-32"/>
       <use x="1942.75" xlink:href="#DejaVuSans-80"/>
       <use x="2003.052734" xlink:href="#DejaVuSans-83"/>
       <use x="2066.529297" xlink:href="#DejaVuSans-76"/>
       <use x="2122.242188" xlink:href="#DejaVuSans-32"/>
       <use x="2154.029297" xlink:href="#DejaVuSans-83"/>
       <use x="2217.505859" xlink:href="#DejaVuSans-76"/>
       <use x="2273.21875" xlink:href="#DejaVuSans-68"/>
       <use x="2350.220703" xlink:href="#DejaVuSans-32"/>
       <use x="2382.007812" xlink:href="#DejaVuSans-46"/>
       <use x="2413.794922" xlink:href="#DejaVuSans-78"/>
       <use x="2488.599609" xlink:href="#DejaVuSans-32"/>
       <use x="2520.386719" xlink:href="#DejaVuSans-90"/>
       <use x="2588.892578" xlink:href="#DejaVuSans-73"/>
       <use x="2618.384766" xlink:href="#DejaVuSans-69"/>
       <use x="2681.568359" xlink:href="#DejaVuSans-76"/>
       <use x="2737.234375" xlink:href="#DejaVuSans-79"/>
       <use x="2815.945312" xlink:href="#DejaVuSans-78"/>
       <use x="2890.75" xlink:href="#DejaVuSans-73"/>
      </g>
     </g>
    </g>
    <g id="ytick_5">
     <g id="line2d_11">
      <g>
       <use style="stroke:#000000;stroke-width:0.8;" x="345.6" xlink:href="#ma45523d873" y="301.879254"/>
      </g>
     </g>
     <g id="text_11">
      <!-- KOMITET WYBORCZY PRAWO I -->
      <g transform="translate(186.409375 300.839411)scale(0.1 -0.1)">
       <use xlink:href="#DejaVuSans-75"/>
       <use x="65.498047" xlink:href="#DejaVuSans-79"/>
       <use x="144.208984" xlink:href="#DejaVuSans-77"/>
       <use x="230.488281" xlink:href="#DejaVuSans-73"/>
       <use x="259.980469" xlink:href="#DejaVuSans-84"/>
       <use x="321.064453" xlink:href="#DejaVuSans-69"/>
       <use x="384.248047" xlink:href="#DejaVuSans-84"/>
       <use x="445.332031" xlink:href="#DejaVuSans-32"/>
       <use x="477.119141" xlink:href="#DejaVuSans-87"/>
       <use x="575.996094" xlink:href="#DejaVuSans-89"/>
       <use x="637.080078" xlink:href="#DejaVuSans-66"/>
       <use x="705.667969" xlink:href="#DejaVuSans-79"/>
       <use x="784.378906" xlink:href="#DejaVuSans-82"/>
       <use x="853.783203" xlink:href="#DejaVuSans-67"/>
       <use x="923.607422" xlink:href="#DejaVuSans-90"/>
       <use x="992.113281" xlink:href="#DejaVuSans-89"/>
       <use x="1053.197266" xlink:href="#DejaVuSans-32"/>
       <use x="1084.984375" xlink:href="#DejaVuSans-80"/>
       <use x="1145.287109" xlink:href="#DejaVuSans-82"/>
       <use x="1214.707031" xlink:href="#DejaVuSans-65"/>
       <use x="1283.037109" xlink:href="#DejaVuSans-87"/>
       <use x="1381.914062" xlink:href="#DejaVuSans-79"/>
       <use x="1460.625" xlink:href="#DejaVuSans-32"/>
       <use x="1492.412109" xlink:href="#DejaVuSans-73"/>
      </g>
      <!-- SPRAWIEDLIWOŚĆ -->
      <defs>
       <path d="M 34.9375 92.515625 
L 43.96875 92.515625 
L 32.84375 79.625 
L 25.359375 79.625 
z
M 53.515625 70.515625 
L 53.515625 60.890625 
Q 47.90625 63.578125 42.921875 64.890625 
Q 37.9375 66.21875 33.296875 66.21875 
Q 25.25 66.21875 20.875 63.09375 
Q 16.5 59.96875 16.5 54.203125 
Q 16.5 49.359375 19.40625 46.890625 
Q 22.3125 44.4375 30.421875 42.921875 
L 36.375 41.703125 
Q 47.40625 39.59375 52.65625 34.296875 
Q 57.90625 29 57.90625 20.125 
Q 57.90625 9.515625 50.796875 4.046875 
Q 43.703125 -1.421875 29.984375 -1.421875 
Q 24.8125 -1.421875 18.96875 -0.25 
Q 13.140625 0.921875 6.890625 3.21875 
L 6.890625 13.375 
Q 12.890625 10.015625 18.65625 8.296875 
Q 24.421875 6.59375 29.984375 6.59375 
Q 38.421875 6.59375 43.015625 9.90625 
Q 47.609375 13.234375 47.609375 19.390625 
Q 47.609375 24.75 44.3125 27.78125 
Q 41.015625 30.8125 33.5 32.328125 
L 27.484375 33.5 
Q 16.453125 35.6875 11.515625 40.375 
Q 6.59375 45.0625 6.59375 53.421875 
Q 6.59375 63.09375 13.40625 68.65625 
Q 20.21875 74.21875 32.171875 74.21875 
Q 37.3125 74.21875 42.625 73.28125 
Q 47.953125 72.359375 53.515625 70.515625 
z
" id="DejaVuSans-346"/>
       <path d="M 64.40625 67.28125 
L 64.40625 56.890625 
Q 59.421875 61.53125 53.78125 63.8125 
Q 48.140625 66.109375 41.796875 66.109375 
Q 29.296875 66.109375 22.65625 58.46875 
Q 16.015625 50.828125 16.015625 36.375 
Q 16.015625 21.96875 22.65625 14.328125 
Q 29.296875 6.6875 41.796875 6.6875 
Q 48.140625 6.6875 53.78125 8.984375 
Q 59.421875 11.28125 64.40625 15.921875 
L 64.40625 5.609375 
Q 59.234375 2.09375 53.4375 0.328125 
Q 47.65625 -1.421875 41.21875 -1.421875 
Q 24.65625 -1.421875 15.125 8.703125 
Q 5.609375 18.84375 5.609375 36.375 
Q 5.609375 53.953125 15.125 64.078125 
Q 24.65625 74.21875 41.21875 74.21875 
Q 47.75 74.21875 53.53125 72.484375 
Q 59.328125 70.75 64.40625 67.28125 
z
M 42.4375 92.515625 
L 51.46875 92.515625 
L 40.34375 79.625 
L 32.859375 79.625 
z
" id="DejaVuSans-262"/>
      </defs>
      <g transform="translate(245.978125 312.037223)scale(0.1 -0.1)">
       <use xlink:href="#DejaVuSans-83"/>
       <use x="63.476562" xlink:href="#DejaVuSans-80"/>
       <use x="123.779297" xlink:href="#DejaVuSans-82"/>
       <use x="193.199219" xlink:href="#DejaVuSans-65"/>
       <use x="261.529297" xlink:href="#DejaVuSans-87"/>
       <use x="360.40625" xlink:href="#DejaVuSans-73"/>
       <use x="389.898438" xlink:href="#DejaVuSans-69"/>
       <use x="453.082031" xlink:href="#DejaVuSans-68"/>
       <use x="530.083984" xlink:href="#DejaVuSans-76"/>
       <use x="585.796875" xlink:href="#DejaVuSans-73"/>
       <use x="615.289062" xlink:href="#DejaVuSans-87"/>
       <use x="714.166016" xlink:href="#DejaVuSans-79"/>
       <use x="792.876953" xlink:href="#DejaVuSans-346"/>
       <use x="856.353516" xlink:href="#DejaVuSans-262"/>
      </g>
     </g>
    </g>
    <g id="ytick_6">
     <g id="line2d_12">
      <g>
       <use style="stroke:#000000;stroke-width:0.8;" x="345.6" xlink:href="#ma45523d873" y="363.019693"/>
      </g>
     </g>
     <g id="text_12">
      <!-- KOALICYJNY KOMITET -->
      <g transform="translate(231.476562 361.979849)scale(0.1 -0.1)">
       <use xlink:href="#DejaVuSans-75"/>
       <use x="65.498047" xlink:href="#DejaVuSans-79"/>
       <use x="144.193359" xlink:href="#DejaVuSans-65"/>
       <use x="212.601562" xlink:href="#DejaVuSans-76"/>
       <use x="268.314453" xlink:href="#DejaVuSans-73"/>
       <use x="297.806641" xlink:href="#DejaVuSans-67"/>
       <use x="367.615234" xlink:href="#DejaVuSans-89"/>
       <use x="428.699219" xlink:href="#DejaVuSans-74"/>
       <use x="458.191406" xlink:href="#DejaVuSans-78"/>
       <use x="532.996094" xlink:href="#DejaVuSans-89"/>
       <use x="594.080078" xlink:href="#DejaVuSans-32"/>
       <use x="625.867188" xlink:href="#DejaVuSans-75"/>
       <use x="691.365234" xlink:href="#DejaVuSans-79"/>
       <use x="770.076172" xlink:href="#DejaVuSans-77"/>
       <use x="856.355469" xlink:href="#DejaVuSans-73"/>
       <use x="885.847656" xlink:href="#DejaVuSans-84"/>
       <use x="946.931641" xlink:href="#DejaVuSans-69"/>
       <use x="1010.115234" xlink:href="#DejaVuSans-84"/>
      </g>
      <!-- WYBORCZY LEWICA RAZEM - PARTIA RAZEM, UNIA PRACY, RSS -->
      <defs>
       <path d="M 4.890625 31.390625 
L 31.203125 31.390625 
L 31.203125 23.390625 
L 4.890625 23.390625 
z
" id="DejaVuSans-45"/>
       <path d="M 11.71875 12.40625 
L 22.015625 12.40625 
L 22.015625 4 
L 14.015625 -11.625 
L 7.71875 -11.625 
L 11.71875 4 
z
" id="DejaVuSans-44"/>
      </defs>
      <g transform="translate(23.059375 373.177662)scale(0.1 -0.1)">
       <use xlink:href="#DejaVuSans-87"/>
       <use x="98.876953" xlink:href="#DejaVuSans-89"/>
       <use x="159.960938" xlink:href="#DejaVuSans-66"/>
       <use x="228.548828" xlink:href="#DejaVuSans-79"/>
       <use x="307.259766" xlink:href="#DejaVuSans-82"/>
       <use x="376.664062" xlink:href="#DejaVuSans-67"/>
       <use x="446.488281" xlink:href="#DejaVuSans-90"/>
       <use x="514.994141" xlink:href="#DejaVuSans-89"/>
       <use x="576.078125" xlink:href="#DejaVuSans-32"/>
       <use x="607.865234" xlink:href="#DejaVuSans-76"/>
       <use x="663.578125" xlink:href="#DejaVuSans-69"/>
       <use x="726.761719" xlink:href="#DejaVuSans-87"/>
       <use x="825.638672" xlink:href="#DejaVuSans-73"/>
       <use x="855.130859" xlink:href="#DejaVuSans-67"/>
       <use x="924.955078" xlink:href="#DejaVuSans-65"/>
       <use x="993.363281" xlink:href="#DejaVuSans-32"/>
       <use x="1025.150391" xlink:href="#DejaVuSans-82"/>
       <use x="1094.570312" xlink:href="#DejaVuSans-65"/>
       <use x="1162.978516" xlink:href="#DejaVuSans-90"/>
       <use x="1231.484375" xlink:href="#DejaVuSans-69"/>
       <use x="1294.667969" xlink:href="#DejaVuSans-77"/>
       <use x="1380.947266" xlink:href="#DejaVuSans-32"/>
       <use x="1412.734375" xlink:href="#DejaVuSans-45"/>
       <use x="1448.818359" xlink:href="#DejaVuSans-32"/>
       <use x="1480.605469" xlink:href="#DejaVuSans-80"/>
       <use x="1540.814453" xlink:href="#DejaVuSans-65"/>
       <use x="1609.222656" xlink:href="#DejaVuSans-82"/>
       <use x="1678.595703" xlink:href="#DejaVuSans-84"/>
       <use x="1739.679688" xlink:href="#DejaVuSans-73"/>
       <use x="1769.171875" xlink:href="#DejaVuSans-65"/>
       <use x="1837.580078" xlink:href="#DejaVuSans-32"/>
       <use x="1869.367188" xlink:href="#DejaVuSans-82"/>
       <use x="1938.787109" xlink:href="#DejaVuSans-65"/>
       <use x="2007.195312" xlink:href="#DejaVuSans-90"/>
       <use x="2075.701172" xlink:href="#DejaVuSans-69"/>
       <use x="2138.884766" xlink:href="#DejaVuSans-77"/>
       <use x="2225.164062" xlink:href="#DejaVuSans-44"/>
       <use x="2256.951172" xlink:href="#DejaVuSans-32"/>
       <use x="2288.738281" xlink:href="#DejaVuSans-85"/>
       <use x="2361.931641" xlink:href="#DejaVuSans-78"/>
       <use x="2436.736328" xlink:href="#DejaVuSans-73"/>
       <use x="2466.228516" xlink:href="#DejaVuSans-65"/>
       <use x="2534.636719" xlink:href="#DejaVuSans-32"/>
       <use x="2566.423828" xlink:href="#DejaVuSans-80"/>
       <use x="2626.726562" xlink:href="#DejaVuSans-82"/>
       <use x="2696.146484" xlink:href="#DejaVuSans-65"/>
       <use x="2764.539062" xlink:href="#DejaVuSans-67"/>
       <use x="2834.347656" xlink:href="#DejaVuSans-89"/>
       <use x="2895.431641" xlink:href="#DejaVuSans-44"/>
       <use x="2927.21875" xlink:href="#DejaVuSans-32"/>
       <use x="2959.005859" xlink:href="#DejaVuSans-82"/>
       <use x="3028.488281" xlink:href="#DejaVuSans-83"/>
       <use x="3091.964844" xlink:href="#DejaVuSans-83"/>
      </g>
     </g>
    </g>
    <g id="ytick_7">
     <g id="line2d_13">
      <g>
       <use style="stroke:#000000;stroke-width:0.8;" x="345.6" xlink:href="#ma45523d873" y="424.160132"/>
      </g>
     </g>
     <g id="text_13">
      <!-- KOMITET WYBORCZY -->
      <g transform="translate(233.279687 423.120288)scale(0.1 -0.1)">
       <use xlink:href="#DejaVuSans-75"/>
       <use x="65.498047" xlink:href="#DejaVuSans-79"/>
       <use x="144.208984" xlink:href="#DejaVuSans-77"/>
       <use x="230.488281" xlink:href="#DejaVuSans-73"/>
       <use x="259.980469" xlink:href="#DejaVuSans-84"/>
       <use x="321.064453" xlink:href="#DejaVuSans-69"/>
       <use x="384.248047" xlink:href="#DejaVuSans-84"/>
       <use x="445.332031" xlink:href="#DejaVuSans-32"/>
       <use x="477.119141" xlink:href="#DejaVuSans-87"/>
       <use x="575.996094" xlink:href="#DejaVuSans-89"/>
       <use x="637.080078" xlink:href="#DejaVuSans-66"/>
       <use x="705.667969" xlink:href="#DejaVuSans-79"/>
       <use x="784.378906" xlink:href="#DejaVuSans-82"/>
       <use x="853.783203" xlink:href="#DejaVuSans-67"/>
       <use x="923.607422" xlink:href="#DejaVuSans-90"/>
       <use x="992.113281" xlink:href="#DejaVuSans-89"/>
      </g>
      <!-- WYBORCÓW KUKIZ'15 -->
      <defs>
       <path d="M 17.921875 72.90625 
L 17.921875 45.796875 
L 9.625 45.796875 
L 9.625 72.90625 
z
" id="DejaVuSans-39"/>
      </defs>
      <g transform="translate(227.307812 434.3181)scale(0.1 -0.1)">
       <use xlink:href="#DejaVuSans-87"/>
       <use x="98.876953" xlink:href="#DejaVuSans-89"/>
       <use x="159.960938" xlink:href="#DejaVuSans-66"/>
       <use x="228.548828" xlink:href="#DejaVuSans-79"/>
       <use x="307.259766" xlink:href="#DejaVuSans-82"/>
       <use x="376.664062" xlink:href="#DejaVuSans-67"/>
       <use x="446.488281" xlink:href="#DejaVuSans-211"/>
       <use x="525.199219" xlink:href="#DejaVuSans-87"/>
       <use x="624.076172" xlink:href="#DejaVuSans-32"/>
       <use x="655.863281" xlink:href="#DejaVuSans-75"/>
       <use x="721.408203" xlink:href="#DejaVuSans-85"/>
       <use x="794.601562" xlink:href="#DejaVuSans-75"/>
       <use x="860.177734" xlink:href="#DejaVuSans-73"/>
       <use x="889.669922" xlink:href="#DejaVuSans-90"/>
       <use x="958.175781" xlink:href="#DejaVuSans-39"/>
       <use x="985.666016" xlink:href="#DejaVuSans-49"/>
       <use x="1049.289062" xlink:href="#DejaVuSans-53"/>
      </g>
     </g>
    </g>
    <g id="ytick_8">
     <g id="line2d_14">
      <g>
       <use style="stroke:#000000;stroke-width:0.8;" x="345.6" xlink:href="#ma45523d873" y="485.30057"/>
      </g>
     </g>
     <g id="text_14">
      <!-- KOMITET WYBORCZY -->
      <g transform="translate(233.279687 483.473226)scale(0.1 -0.1)">
       <use xlink:href="#DejaVuSans-75"/>
       <use x="65.498047" xlink:href="#DejaVuSans-79"/>
       <use x="144.208984" xlink:href="#DejaVuSans-77"/>
       <use x="230.488281" xlink:href="#DejaVuSans-73"/>
       <use x="259.980469" xlink:href="#DejaVuSans-84"/>
       <use x="321.064453" xlink:href="#DejaVuSans-69"/>
       <use x="384.248047" xlink:href="#DejaVuSans-84"/>
       <use x="445.332031" xlink:href="#DejaVuSans-32"/>
       <use x="477.119141" xlink:href="#DejaVuSans-87"/>
       <use x="575.996094" xlink:href="#DejaVuSans-89"/>
       <use x="637.080078" xlink:href="#DejaVuSans-66"/>
       <use x="705.667969" xlink:href="#DejaVuSans-79"/>
       <use x="784.378906" xlink:href="#DejaVuSans-82"/>
       <use x="853.783203" xlink:href="#DejaVuSans-67"/>
       <use x="923.607422" xlink:href="#DejaVuSans-90"/>
       <use x="992.113281" xlink:href="#DejaVuSans-89"/>
      </g>
      <!-- WYBORCÓW POLSKA FAIR PLAY BEZPARTYJNI GWIAZDOWSKI -->
      <g transform="translate(33.045312 496.561039)scale(0.1 -0.1)">
       <use xlink:href="#DejaVuSans-87"/>
       <use x="98.876953" xlink:href="#DejaVuSans-89"/>
       <use x="159.960938" xlink:href="#DejaVuSans-66"/>
       <use x="228.548828" xlink:href="#DejaVuSans-79"/>
       <use x="307.259766" xlink:href="#DejaVuSans-82"/>
       <use x="376.664062" xlink:href="#DejaVuSans-67"/>
       <use x="446.488281" xlink:href="#DejaVuSans-211"/>
       <use x="525.199219" xlink:href="#DejaVuSans-87"/>
       <use x="624.076172" xlink:href="#DejaVuSans-32"/>
       <use x="655.863281" xlink:href="#DejaVuSans-80"/>
       <use x="716.166016" xlink:href="#DejaVuSans-79"/>
       <use x="794.876953" xlink:href="#DejaVuSans-76"/>
       <use x="850.589844" xlink:href="#DejaVuSans-83"/>
       <use x="914.066406" xlink:href="#DejaVuSans-75"/>
       <use x="979.626953" xlink:href="#DejaVuSans-65"/>
       <use x="1048.035156" xlink:href="#DejaVuSans-32"/>
       <use x="1079.822266" xlink:href="#DejaVuSans-70"/>
       <use x="1137.201172" xlink:href="#DejaVuSans-65"/>
       <use x="1205.609375" xlink:href="#DejaVuSans-73"/>
       <use x="1235.101562" xlink:href="#DejaVuSans-82"/>
       <use x="1304.583984" xlink:href="#DejaVuSans-32"/>
       <use x="1336.371094" xlink:href="#DejaVuSans-80"/>
       <use x="1396.673828" xlink:href="#DejaVuSans-76"/>
       <use x="1452.417969" xlink:href="#DejaVuSans-65"/>
       <use x="1520.716797" xlink:href="#DejaVuSans-89"/>
       <use x="1581.800781" xlink:href="#DejaVuSans-32"/>
       <use x="1613.587891" xlink:href="#DejaVuSans-66"/>
       <use x="1682.191406" xlink:href="#DejaVuSans-69"/>
       <use x="1745.375" xlink:href="#DejaVuSans-90"/>
       <use x="1813.880859" xlink:href="#DejaVuSans-80"/>
       <use x="1874.089844" xlink:href="#DejaVuSans-65"/>
       <use x="1942.498047" xlink:href="#DejaVuSans-82"/>
       <use x="2011.871094" xlink:href="#DejaVuSans-84"/>
       <use x="2072.955078" xlink:href="#DejaVuSans-89"/>
       <use x="2134.039062" xlink:href="#DejaVuSans-74"/>
       <use x="2163.53125" xlink:href="#DejaVuSans-78"/>
       <use x="2238.335938" xlink:href="#DejaVuSans-73"/>
       <use x="2267.828125" xlink:href="#DejaVuSans-32"/>
       <use x="2299.615234" xlink:href="#DejaVuSans-71"/>
       <use x="2377.105469" xlink:href="#DejaVuSans-87"/>
       <use x="2475.982422" xlink:href="#DejaVuSans-73"/>
       <use x="2505.474609" xlink:href="#DejaVuSans-65"/>
       <use x="2573.882812" xlink:href="#DejaVuSans-90"/>
       <use x="2642.388672" xlink:href="#DejaVuSans-68"/>
       <use x="2719.390625" xlink:href="#DejaVuSans-79"/>
       <use x="2798.101562" xlink:href="#DejaVuSans-87"/>
       <use x="2896.978516" xlink:href="#DejaVuSans-83"/>
       <use x="2960.455078" xlink:href="#DejaVuSans-75"/>
       <use x="3026.03125" xlink:href="#DejaVuSans-73"/>
      </g>
     </g>
    </g>
    <g id="ytick_9">
     <g id="line2d_15">
      <g>
       <use style="stroke:#000000;stroke-width:0.8;" x="345.6" xlink:href="#ma45523d873" y="546.441009"/>
      </g>
     </g>
     <g id="text_15">
      <!-- KOMITET WYBORCZY JEDNOŚĆ -->
      <g transform="translate(184.448437 546.188665)scale(0.1 -0.1)">
       <use xlink:href="#DejaVuSans-75"/>
       <use x="65.498047" xlink:href="#DejaVuSans-79"/>
       <use x="144.208984" xlink:href="#DejaVuSans-77"/>
       <use x="230.488281" xlink:href="#DejaVuSans-73"/>
       <use x="259.980469" xlink:href="#DejaVuSans-84"/>
       <use x="321.064453" xlink:href="#DejaVuSans-69"/>
       <use x="384.248047" xlink:href="#DejaVuSans-84"/>
       <use x="445.332031" xlink:href="#DejaVuSans-32"/>
       <use x="477.119141" xlink:href="#DejaVuSans-87"/>
       <use x="575.996094" xlink:href="#DejaVuSans-89"/>
       <use x="637.080078" xlink:href="#DejaVuSans-66"/>
       <use x="705.667969" xlink:href="#DejaVuSans-79"/>
       <use x="784.378906" xlink:href="#DejaVuSans-82"/>
       <use x="853.783203" xlink:href="#DejaVuSans-67"/>
       <use x="923.607422" xlink:href="#DejaVuSans-90"/>
       <use x="992.113281" xlink:href="#DejaVuSans-89"/>
       <use x="1053.197266" xlink:href="#DejaVuSans-32"/>
       <use x="1084.984375" xlink:href="#DejaVuSans-74"/>
       <use x="1114.476562" xlink:href="#DejaVuSans-69"/>
       <use x="1177.660156" xlink:href="#DejaVuSans-68"/>
       <use x="1254.662109" xlink:href="#DejaVuSans-78"/>
       <use x="1329.466797" xlink:href="#DejaVuSans-79"/>
       <use x="1408.177734" xlink:href="#DejaVuSans-346"/>
       <use x="1471.654297" xlink:href="#DejaVuSans-262"/>
      </g>
      <!-- NARODU -->
      <g transform="translate(294.439062 557.386478)scale(0.1 -0.1)">
       <use xlink:href="#DejaVuSans-78"/>
       <use x="74.804688" xlink:href="#DejaVuSans-65"/>
       <use x="143.212891" xlink:href="#DejaVuSans-82"/>
       <use x="212.695312" xlink:href="#DejaVuSans-79"/>
       <use x="291.40625" xlink:href="#DejaVuSans-68"/>
       <use x="368.408203" xlink:href="#DejaVuSans-85"/>
      </g>
     </g>
    </g>
    <g id="ytick_10">
     <g id="line2d_16">
      <g>
       <use style="stroke:#000000;stroke-width:0.8;" x="345.6" xlink:href="#ma45523d873" y="607.581447"/>
      </g>
     </g>
     <g id="text_16">
      <!-- KOALICYJNY KOMITET -->
      <g transform="translate(231.476562 606.541604)scale(0.1 -0.1)">
       <use xlink:href="#DejaVuSans-75"/>
       <use x="65.498047" xlink:href="#DejaVuSans-79"/>
       <use x="144.193359" xlink:href="#DejaVuSans-65"/>
       <use x="212.601562" xlink:href="#DejaVuSans-76"/>
       <use x="268.314453" xlink:href="#DejaVuSans-73"/>
       <use x="297.806641" xlink:href="#DejaVuSans-67"/>
       <use x="367.615234" xlink:href="#DejaVuSans-89"/>
       <use x="428.699219" xlink:href="#DejaVuSans-74"/>
       <use x="458.191406" xlink:href="#DejaVuSans-78"/>
       <use x="532.996094" xlink:href="#DejaVuSans-89"/>
       <use x="594.080078" xlink:href="#DejaVuSans-32"/>
       <use x="625.867188" xlink:href="#DejaVuSans-75"/>
       <use x="691.365234" xlink:href="#DejaVuSans-79"/>
       <use x="770.076172" xlink:href="#DejaVuSans-77"/>
       <use x="856.355469" xlink:href="#DejaVuSans-73"/>
       <use x="885.847656" xlink:href="#DejaVuSans-84"/>
       <use x="946.931641" xlink:href="#DejaVuSans-69"/>
       <use x="1010.115234" xlink:href="#DejaVuSans-84"/>
      </g>
      <!-- WYBORCZY POLEXIT - KOALICJA -->
      <defs>
       <path d="M 6.296875 72.90625 
L 16.890625 72.90625 
L 35.015625 45.796875 
L 53.21875 72.90625 
L 63.8125 72.90625 
L 40.375 37.890625 
L 65.375 0 
L 54.78125 0 
L 34.28125 31 
L 13.625 0 
L 2.984375 0 
L 29 38.921875 
z
" id="DejaVuSans-88"/>
      </defs>
      <g transform="translate(179.595312 617.739416)scale(0.1 -0.1)">
       <use xlink:href="#DejaVuSans-87"/>
       <use x="98.876953" xlink:href="#DejaVuSans-89"/>
       <use x="159.960938" xlink:href="#DejaVuSans-66"/>
       <use x="228.548828" xlink:href="#DejaVuSans-79"/>
       <use x="307.259766" xlink:href="#DejaVuSans-82"/>
       <use x="376.664062" xlink:href="#DejaVuSans-67"/>
       <use x="446.488281" xlink:href="#DejaVuSans-90"/>
       <use x="514.994141" xlink:href="#DejaVuSans-89"/>
       <use x="576.078125" xlink:href="#DejaVuSans-32"/>
       <use x="607.865234" xlink:href="#DejaVuSans-80"/>
       <use x="668.167969" xlink:href="#DejaVuSans-79"/>
       <use x="746.878906" xlink:href="#DejaVuSans-76"/>
       <use x="802.591797" xlink:href="#DejaVuSans-69"/>
       <use x="865.775391" xlink:href="#DejaVuSans-88"/>
       <use x="934.28125" xlink:href="#DejaVuSans-73"/>
       <use x="963.773438" xlink:href="#DejaVuSans-84"/>
       <use x="1024.857422" xlink:href="#DejaVuSans-32"/>
       <use x="1056.644531" xlink:href="#DejaVuSans-45"/>
       <use x="1092.728516" xlink:href="#DejaVuSans-32"/>
       <use x="1124.515625" xlink:href="#DejaVuSans-75"/>
       <use x="1190.013672" xlink:href="#DejaVuSans-79"/>
       <use x="1268.708984" xlink:href="#DejaVuSans-65"/>
       <use x="1337.117188" xlink:href="#DejaVuSans-76"/>
       <use x="1392.830078" xlink:href="#DejaVuSans-73"/>
       <use x="1422.322266" xlink:href="#DejaVuSans-67"/>
       <use x="1492.146484" xlink:href="#DejaVuSans-74"/>
       <use x="1521.623047" xlink:href="#DejaVuSans-65"/>
      </g>
     </g>
    </g>
    <g id="text_17">
     <!-- Partia -->
     <defs>
      <path d="M 41.109375 46.296875 
Q 39.59375 47.171875 37.8125 47.578125 
Q 36.03125 48 33.890625 48 
Q 26.265625 48 22.1875 43.046875 
Q 18.109375 38.09375 18.109375 28.8125 
L 18.109375 0 
L 9.078125 0 
L 9.078125 54.6875 
L 18.109375 54.6875 
L 18.109375 46.1875 
Q 20.953125 51.171875 25.484375 53.578125 
Q 30.03125 56 36.53125 56 
Q 37.453125 56 38.578125 55.875 
Q 39.703125 55.765625 41.0625 55.515625 
z
" id="DejaVuSans-114"/>
      <path d="M 9.421875 54.6875 
L 18.40625 54.6875 
L 18.40625 0 
L 9.421875 0 
z
M 9.421875 75.984375 
L 18.40625 75.984375 
L 18.40625 64.59375 
L 9.421875 64.59375 
z
" id="DejaVuSans-105"/>
     </defs>
     <g transform="translate(1.415625 362.279115)rotate(-90)scale(0.1 -0.1)">
      <use xlink:href="#DejaVuSans-80"/>
      <use x="60.240234" xlink:href="#DejaVuSans-97"/>
      <use x="121.519531" xlink:href="#DejaVuSans-114"/>
      <use x="162.632812" xlink:href="#DejaVuSans-116"/>
      <use x="201.841797" xlink:href="#DejaVuSans-105"/>
      <use x="229.625" xlink:href="#DejaVuSans-97"/>
     </g>
    </g>
   </g>
   <g id="line2d_17">
    <path clip-path="url(#p6223931c50)" d="M 392.713944 103.172829 
L 392.713944 133.743048 
L 397.009203 133.743048 
L 397.009203 103.172829 
L 392.713944 103.172829 
" style="fill:none;stroke:#000000;stroke-linecap:square;"/>
   </g>
   <g id="line2d_18">
    <path clip-path="url(#p6223931c50)" d="M 392.713944 118.457939 
L 391.487285 118.457939 
" style="fill:none;stroke:#000000;stroke-linecap:square;"/>
   </g>
   <g id="line2d_19">
    <path clip-path="url(#p6223931c50)" d="M 397.009203 118.457939 
L 401.151185 118.457939 
" style="fill:none;stroke:#000000;stroke-linecap:square;"/>
   </g>
   <g id="line2d_20">
    <path clip-path="url(#p6223931c50)" d="M 391.487285 110.815384 
L 391.487285 126.100493 
" style="fill:none;stroke:#000000;stroke-linecap:square;"/>
   </g>
   <g id="line2d_21">
    <path clip-path="url(#p6223931c50)" d="M 401.151185 110.815384 
L 401.151185 126.100493 
" style="fill:none;stroke:#000000;stroke-linecap:square;"/>
   </g>
   <g id="line2d_22">
    <defs>
     <path d="M 0 3 
C 0.795609 3 1.55874 2.683901 2.12132 2.12132 
C 2.683901 1.55874 3 0.795609 3 0 
C 3 -0.795609 2.683901 -1.55874 2.12132 -2.12132 
C 1.55874 -2.683901 0.795609 -3 0 -3 
C -0.795609 -3 -1.55874 -2.683901 -2.12132 -2.12132 
C -2.683901 -1.55874 -3 -0.795609 -3 0 
C -3 0.795609 -2.683901 1.55874 -2.12132 2.12132 
C -1.55874 2.683901 -0.795609 3 0 3 
z
" id="maf6b7bd4ea" style="stroke:#000000;"/>
    </defs>
    <g clip-path="url(#p6223931c50)">
     <use style="fill-opacity:0;stroke:#000000;" x="420.121191" xlink:href="#maf6b7bd4ea" y="118.457939"/>
     <use style="fill-opacity:0;stroke:#000000;" x="406.559773" xlink:href="#maf6b7bd4ea" y="118.457939"/>
     <use style="fill-opacity:0;stroke:#000000;" x="436.673486" xlink:href="#maf6b7bd4ea" y="118.457939"/>
     <use style="fill-opacity:0;stroke:#000000;" x="460.551864" xlink:href="#maf6b7bd4ea" y="118.457939"/>
     <use style="fill-opacity:0;stroke:#000000;" x="418.705649" xlink:href="#maf6b7bd4ea" y="118.457939"/>
     <use style="fill-opacity:0;stroke:#000000;" x="420.303562" xlink:href="#maf6b7bd4ea" y="118.457939"/>
     <use style="fill-opacity:0;stroke:#000000;" x="404.57975" xlink:href="#maf6b7bd4ea" y="118.457939"/>
     <use style="fill-opacity:0;stroke:#000000;" x="409.543702" xlink:href="#maf6b7bd4ea" y="118.457939"/>
     <use style="fill-opacity:0;stroke:#000000;" x="460.643917" xlink:href="#maf6b7bd4ea" y="118.457939"/>
     <use style="fill-opacity:0;stroke:#000000;" x="417.601004" xlink:href="#maf6b7bd4ea" y="118.457939"/>
     <use style="fill-opacity:0;stroke:#000000;" x="403.494212" xlink:href="#maf6b7bd4ea" y="118.457939"/>
     <use style="fill-opacity:0;stroke:#000000;" x="448.525832" xlink:href="#maf6b7bd4ea" y="118.457939"/>
     <use style="fill-opacity:0;stroke:#000000;" x="478.667334" xlink:href="#maf6b7bd4ea" y="118.457939"/>
     <use style="fill-opacity:0;stroke:#000000;" x="451.040808" xlink:href="#maf6b7bd4ea" y="118.457939"/>
     <use style="fill-opacity:0;stroke:#000000;" x="434.137667" xlink:href="#maf6b7bd4ea" y="118.457939"/>
     <use style="fill-opacity:0;stroke:#000000;" x="418.844598" xlink:href="#maf6b7bd4ea" y="118.457939"/>
     <use style="fill-opacity:0;stroke:#000000;" x="414.634444" xlink:href="#maf6b7bd4ea" y="118.457939"/>
     <use style="fill-opacity:0;stroke:#000000;" x="436.98091" xlink:href="#maf6b7bd4ea" y="118.457939"/>
     <use style="fill-opacity:0;stroke:#000000;" x="419.098179" xlink:href="#maf6b7bd4ea" y="118.457939"/>
    </g>
   </g>
   <g id="line2d_23">
    <path clip-path="url(#p6223931c50)" d="M 393.506387 164.313268 
L 393.506387 194.883487 
L 399.340941 194.883487 
L 399.340941 164.313268 
L 393.506387 164.313268 
" style="fill:none;stroke:#000000;stroke-linecap:square;"/>
   </g>
   <g id="line2d_24">
    <path clip-path="url(#p6223931c50)" d="M 393.506387 179.598377 
L 391.720024 179.598377 
" style="fill:none;stroke:#000000;stroke-linecap:square;"/>
   </g>
   <g id="line2d_25">
    <path clip-path="url(#p6223931c50)" d="M 399.340941 179.598377 
L 407.268413 179.598377 
" style="fill:none;stroke:#000000;stroke-linecap:square;"/>
   </g>
   <g id="line2d_26">
    <path clip-path="url(#p6223931c50)" d="M 391.720024 171.955822 
L 391.720024 187.240932 
" style="fill:none;stroke:#000000;stroke-linecap:square;"/>
   </g>
   <g id="line2d_27">
    <path clip-path="url(#p6223931c50)" d="M 407.268413 171.955822 
L 407.268413 187.240932 
" style="fill:none;stroke:#000000;stroke-linecap:square;"/>
   </g>
   <g id="line2d_28">
    <g clip-path="url(#p6223931c50)">
     <use style="fill-opacity:0;stroke:#000000;" x="432.767283" xlink:href="#maf6b7bd4ea" y="179.598377"/>
     <use style="fill-opacity:0;stroke:#000000;" x="414.212387" xlink:href="#maf6b7bd4ea" y="179.598377"/>
     <use style="fill-opacity:0;stroke:#000000;" x="429.283138" xlink:href="#maf6b7bd4ea" y="179.598377"/>
     <use style="fill-opacity:0;stroke:#000000;" x="432.543228" xlink:href="#maf6b7bd4ea" y="179.598377"/>
     <use style="fill-opacity:0;stroke:#000000;" x="558.496983" xlink:href="#maf6b7bd4ea" y="179.598377"/>
     <use style="fill-opacity:0;stroke:#000000;" x="419.978768" xlink:href="#maf6b7bd4ea" y="179.598377"/>
     <use style="fill-opacity:0;stroke:#000000;" x="425.993521" xlink:href="#maf6b7bd4ea" y="179.598377"/>
     <use style="fill-opacity:0;stroke:#000000;" x="420.668303" xlink:href="#maf6b7bd4ea" y="179.598377"/>
     <use style="fill-opacity:0;stroke:#000000;" x="437.104227" xlink:href="#maf6b7bd4ea" y="179.598377"/>
     <use style="fill-opacity:0;stroke:#000000;" x="487.14322" xlink:href="#maf6b7bd4ea" y="179.598377"/>
     <use style="fill-opacity:0;stroke:#000000;" x="411.301406" xlink:href="#maf6b7bd4ea" y="179.598377"/>
     <use style="fill-opacity:0;stroke:#000000;" x="413.548906" xlink:href="#maf6b7bd4ea" y="179.598377"/>
     <use style="fill-opacity:0;stroke:#000000;" x="458.012572" xlink:href="#maf6b7bd4ea" y="179.598377"/>
     <use style="fill-opacity:0;stroke:#000000;" x="410.028286" xlink:href="#maf6b7bd4ea" y="179.598377"/>
     <use style="fill-opacity:0;stroke:#000000;" x="475.81367" xlink:href="#maf6b7bd4ea" y="179.598377"/>
     <use style="fill-opacity:0;stroke:#000000;" x="472.192313" xlink:href="#maf6b7bd4ea" y="179.598377"/>
     <use style="fill-opacity:0;stroke:#000000;" x="411.84157" xlink:href="#maf6b7bd4ea" y="179.598377"/>
     <use style="fill-opacity:0;stroke:#000000;" x="452.374718" xlink:href="#maf6b7bd4ea" y="179.598377"/>
    </g>
   </g>
   <g id="line2d_29">
    <path clip-path="url(#p6223931c50)" d="M 397.74433 225.453706 
L 397.74433 256.023925 
L 477.365556 256.023925 
L 477.365556 225.453706 
L 397.74433 225.453706 
" style="fill:none;stroke:#000000;stroke-linecap:square;"/>
   </g>
   <g id="line2d_30">
    <path clip-path="url(#p6223931c50)" d="M 397.74433 240.738816 
L 392.545034 240.738816 
" style="fill:none;stroke:#000000;stroke-linecap:square;"/>
   </g>
   <g id="line2d_31">
    <path clip-path="url(#p6223931c50)" d="M 477.365556 240.738816 
L 575.031909 240.738816 
" style="fill:none;stroke:#000000;stroke-linecap:square;"/>
   </g>
   <g id="line2d_32">
    <path clip-path="url(#p6223931c50)" d="M 392.545034 233.096261 
L 392.545034 248.381371 
" style="fill:none;stroke:#000000;stroke-linecap:square;"/>
   </g>
   <g id="line2d_33">
    <path clip-path="url(#p6223931c50)" d="M 575.031909 233.096261 
L 575.031909 248.381371 
" style="fill:none;stroke:#000000;stroke-linecap:square;"/>
   </g>
   <g id="line2d_34">
    <g clip-path="url(#p6223931c50)">
     <use style="fill-opacity:0;stroke:#000000;" x="601.227261" xlink:href="#maf6b7bd4ea" y="240.738816"/>
     <use style="fill-opacity:0;stroke:#000000;" x="737.746347" xlink:href="#maf6b7bd4ea" y="240.738816"/>
     <use style="fill-opacity:0;stroke:#000000;" x="615.728321" xlink:href="#maf6b7bd4ea" y="240.738816"/>
     <use style="fill-opacity:0;stroke:#000000;" x="609.659726" xlink:href="#maf6b7bd4ea" y="240.738816"/>
     <use style="fill-opacity:0;stroke:#000000;" x="772.632957" xlink:href="#maf6b7bd4ea" y="240.738816"/>
     <use style="fill-opacity:0;stroke:#000000;" x="645.961877" xlink:href="#maf6b7bd4ea" y="240.738816"/>
     <use style="fill-opacity:0;stroke:#000000;" x="708.091166" xlink:href="#maf6b7bd4ea" y="240.738816"/>
     <use style="fill-opacity:0;stroke:#000000;" x="828.829125" xlink:href="#maf6b7bd4ea" y="240.738816"/>
     <use style="fill-opacity:0;stroke:#000000;" x="775.41541" xlink:href="#maf6b7bd4ea" y="240.738816"/>
     <use style="fill-opacity:0;stroke:#000000;" x="632.254563" xlink:href="#maf6b7bd4ea" y="240.738816"/>
     <use style="fill-opacity:0;stroke:#000000;" x="1124.812982" xlink:href="#maf6b7bd4ea" y="240.738816"/>
     <use style="fill-opacity:0;stroke:#000000;" x="924.695221" xlink:href="#maf6b7bd4ea" y="240.738816"/>
     <use style="fill-opacity:0;stroke:#000000;" x="807.745358" xlink:href="#maf6b7bd4ea" y="240.738816"/>
    </g>
   </g>
   <g id="line2d_35">
    <path clip-path="url(#p6223931c50)" d="M 403.47858 286.594145 
L 403.47858 317.164364 
L 456.311315 317.164364 
L 456.311315 286.594145 
L 403.47858 286.594145 
" style="fill:none;stroke:#000000;stroke-linecap:square;"/>
   </g>
   <g id="line2d_36">
    <path clip-path="url(#p6223931c50)" d="M 403.47858 301.879254 
L 392.638824 301.879254 
" style="fill:none;stroke:#000000;stroke-linecap:square;"/>
   </g>
   <g id="line2d_37">
    <path clip-path="url(#p6223931c50)" d="M 456.311315 301.879254 
L 527.170941 301.879254 
" style="fill:none;stroke:#000000;stroke-linecap:square;"/>
   </g>
   <g id="line2d_38">
    <path clip-path="url(#p6223931c50)" d="M 392.638824 294.2367 
L 392.638824 309.521809 
" style="fill:none;stroke:#000000;stroke-linecap:square;"/>
   </g>
   <g id="line2d_39">
    <path clip-path="url(#p6223931c50)" d="M 527.170941 294.2367 
L 527.170941 309.521809 
" style="fill:none;stroke:#000000;stroke-linecap:square;"/>
   </g>
   <g id="line2d_40">
    <g clip-path="url(#p6223931c50)">
     <use style="fill-opacity:0;stroke:#000000;" x="669.880203" xlink:href="#maf6b7bd4ea" y="301.879254"/>
     <use style="fill-opacity:0;stroke:#000000;" x="577.124828" xlink:href="#maf6b7bd4ea" y="301.879254"/>
     <use style="fill-opacity:0;stroke:#000000;" x="710.760723" xlink:href="#maf6b7bd4ea" y="301.879254"/>
     <use style="fill-opacity:0;stroke:#000000;" x="572.746199" xlink:href="#maf6b7bd4ea" y="301.879254"/>
     <use style="fill-opacity:0;stroke:#000000;" x="715.618726" xlink:href="#maf6b7bd4ea" y="301.879254"/>
     <use style="fill-opacity:0;stroke:#000000;" x="624.916321" xlink:href="#maf6b7bd4ea" y="301.879254"/>
     <use style="fill-opacity:0;stroke:#000000;" x="752.082406" xlink:href="#maf6b7bd4ea" y="301.879254"/>
     <use style="fill-opacity:0;stroke:#000000;" x="624.527264" xlink:href="#maf6b7bd4ea" y="301.879254"/>
     <use style="fill-opacity:0;stroke:#000000;" x="682.913616" xlink:href="#maf6b7bd4ea" y="301.879254"/>
     <use style="fill-opacity:0;stroke:#000000;" x="617.498184" xlink:href="#maf6b7bd4ea" y="301.879254"/>
     <use style="fill-opacity:0;stroke:#000000;" x="675.988747" xlink:href="#maf6b7bd4ea" y="301.879254"/>
     <use style="fill-opacity:0;stroke:#000000;" x="676.117275" xlink:href="#maf6b7bd4ea" y="301.879254"/>
     <use style="fill-opacity:0;stroke:#000000;" x="746.607817" xlink:href="#maf6b7bd4ea" y="301.879254"/>
     <use style="fill-opacity:0;stroke:#000000;" x="870.482549" xlink:href="#maf6b7bd4ea" y="301.879254"/>
     <use style="fill-opacity:0;stroke:#000000;" x="1304.345455" xlink:href="#maf6b7bd4ea" y="301.879254"/>
     <use style="fill-opacity:0;stroke:#000000;" x="839.830409" xlink:href="#maf6b7bd4ea" y="301.879254"/>
     <use style="fill-opacity:0;stroke:#000000;" x="1102.108722" xlink:href="#maf6b7bd4ea" y="301.879254"/>
     <use style="fill-opacity:0;stroke:#000000;" x="683.462464" xlink:href="#maf6b7bd4ea" y="301.879254"/>
     <use style="fill-opacity:0;stroke:#000000;" x="754.618225" xlink:href="#maf6b7bd4ea" y="301.879254"/>
     <use style="fill-opacity:0;stroke:#000000;" x="712.695588" xlink:href="#maf6b7bd4ea" y="301.879254"/>
    </g>
   </g>
   <g id="line2d_41">
    <path clip-path="url(#p6223931c50)" d="M 391.673129 347.734583 
L 391.673129 378.304803 
L 393.109514 378.304803 
L 393.109514 347.734583 
L 391.673129 347.734583 
" style="fill:none;stroke:#000000;stroke-linecap:square;"/>
   </g>
   <g id="line2d_42">
    <path clip-path="url(#p6223931c50)" d="M 391.673129 363.019693 
L 391.315336 363.019693 
" style="fill:none;stroke:#000000;stroke-linecap:square;"/>
   </g>
   <g id="line2d_43">
    <path clip-path="url(#p6223931c50)" d="M 393.109514 363.019693 
L 394.85506 363.019693 
" style="fill:none;stroke:#000000;stroke-linecap:square;"/>
   </g>
   <g id="line2d_44">
    <path clip-path="url(#p6223931c50)" d="M 391.315336 355.377138 
L 391.315336 370.662248 
" style="fill:none;stroke:#000000;stroke-linecap:square;"/>
   </g>
   <g id="line2d_45">
    <path clip-path="url(#p6223931c50)" d="M 394.85506 355.377138 
L 394.85506 370.662248 
" style="fill:none;stroke:#000000;stroke-linecap:square;"/>
   </g>
   <g id="line2d_46">
    <g clip-path="url(#p6223931c50)">
     <use style="fill-opacity:0;stroke:#000000;" x="398.309679" xlink:href="#maf6b7bd4ea" y="363.019693"/>
     <use style="fill-opacity:0;stroke:#000000;" x="397.026138" xlink:href="#maf6b7bd4ea" y="363.019693"/>
     <use style="fill-opacity:0;stroke:#000000;" x="398.450365" xlink:href="#maf6b7bd4ea" y="363.019693"/>
     <use style="fill-opacity:0;stroke:#000000;" x="395.657491" xlink:href="#maf6b7bd4ea" y="363.019693"/>
     <use style="fill-opacity:0;stroke:#000000;" x="420.798567" xlink:href="#maf6b7bd4ea" y="363.019693"/>
     <use style="fill-opacity:0;stroke:#000000;" x="396.234129" xlink:href="#maf6b7bd4ea" y="363.019693"/>
     <use style="fill-opacity:0;stroke:#000000;" x="409.456859" xlink:href="#maf6b7bd4ea" y="363.019693"/>
     <use style="fill-opacity:0;stroke:#000000;" x="395.462962" xlink:href="#maf6b7bd4ea" y="363.019693"/>
     <use style="fill-opacity:0;stroke:#000000;" x="403.436895" xlink:href="#maf6b7bd4ea" y="363.019693"/>
     <use style="fill-opacity:0;stroke:#000000;" x="396.12818" xlink:href="#maf6b7bd4ea" y="363.019693"/>
     <use style="fill-opacity:0;stroke:#000000;" x="395.700912" xlink:href="#maf6b7bd4ea" y="363.019693"/>
     <use style="fill-opacity:0;stroke:#000000;" x="395.728702" xlink:href="#maf6b7bd4ea" y="363.019693"/>
     <use style="fill-opacity:0;stroke:#000000;" x="403.624476" xlink:href="#maf6b7bd4ea" y="363.019693"/>
     <use style="fill-opacity:0;stroke:#000000;" x="408.241055" xlink:href="#maf6b7bd4ea" y="363.019693"/>
     <use style="fill-opacity:0;stroke:#000000;" x="395.990968" xlink:href="#maf6b7bd4ea" y="363.019693"/>
     <use style="fill-opacity:0;stroke:#000000;" x="407.086042" xlink:href="#maf6b7bd4ea" y="363.019693"/>
     <use style="fill-opacity:0;stroke:#000000;" x="398.174203" xlink:href="#maf6b7bd4ea" y="363.019693"/>
    </g>
   </g>
   <g id="line2d_47">
    <path clip-path="url(#p6223931c50)" d="M 393.130356 408.875022 
L 393.130356 439.445241 
L 396.270603 439.445241 
L 396.270603 408.875022 
L 393.130356 408.875022 
" style="fill:none;stroke:#000000;stroke-linecap:square;"/>
   </g>
   <g id="line2d_48">
    <path clip-path="url(#p6223931c50)" d="M 393.130356 424.160132 
L 391.551549 424.160132 
" style="fill:none;stroke:#000000;stroke-linecap:square;"/>
   </g>
   <g id="line2d_49">
    <path clip-path="url(#p6223931c50)" d="M 396.270603 424.160132 
L 400.626653 424.160132 
" style="fill:none;stroke:#000000;stroke-linecap:square;"/>
   </g>
   <g id="line2d_50">
    <path clip-path="url(#p6223931c50)" d="M 391.551549 416.517577 
L 391.551549 431.802686 
" style="fill:none;stroke:#000000;stroke-linecap:square;"/>
   </g>
   <g id="line2d_51">
    <path clip-path="url(#p6223931c50)" d="M 400.626653 416.517577 
L 400.626653 431.802686 
" style="fill:none;stroke:#000000;stroke-linecap:square;"/>
   </g>
   <g id="line2d_52">
    <g clip-path="url(#p6223931c50)">
     <use style="fill-opacity:0;stroke:#000000;" x="405.474234" xlink:href="#maf6b7bd4ea" y="424.160132"/>
     <use style="fill-opacity:0;stroke:#000000;" x="417.40995" xlink:href="#maf6b7bd4ea" y="424.160132"/>
     <use style="fill-opacity:0;stroke:#000000;" x="416.78989" xlink:href="#maf6b7bd4ea" y="424.160132"/>
     <use style="fill-opacity:0;stroke:#000000;" x="444.562313" xlink:href="#maf6b7bd4ea" y="424.160132"/>
     <use style="fill-opacity:0;stroke:#000000;" x="407.155517" xlink:href="#maf6b7bd4ea" y="424.160132"/>
     <use style="fill-opacity:0;stroke:#000000;" x="416.105566" xlink:href="#maf6b7bd4ea" y="424.160132"/>
     <use style="fill-opacity:0;stroke:#000000;" x="443.000874" xlink:href="#maf6b7bd4ea" y="424.160132"/>
     <use style="fill-opacity:0;stroke:#000000;" x="421.00178" xlink:href="#maf6b7bd4ea" y="424.160132"/>
     <use style="fill-opacity:0;stroke:#000000;" x="411.000929" xlink:href="#maf6b7bd4ea" y="424.160132"/>
     <use style="fill-opacity:0;stroke:#000000;" x="463.619162" xlink:href="#maf6b7bd4ea" y="424.160132"/>
     <use style="fill-opacity:0;stroke:#000000;" x="403.464685" xlink:href="#maf6b7bd4ea" y="424.160132"/>
     <use style="fill-opacity:0;stroke:#000000;" x="438.283557" xlink:href="#maf6b7bd4ea" y="424.160132"/>
     <use style="fill-opacity:0;stroke:#000000;" x="401.045236" xlink:href="#maf6b7bd4ea" y="424.160132"/>
     <use style="fill-opacity:0;stroke:#000000;" x="437.514127" xlink:href="#maf6b7bd4ea" y="424.160132"/>
     <use style="fill-opacity:0;stroke:#000000;" x="410.495502" xlink:href="#maf6b7bd4ea" y="424.160132"/>
     <use style="fill-opacity:0;stroke:#000000;" x="412.329628" xlink:href="#maf6b7bd4ea" y="424.160132"/>
    </g>
   </g>
   <g id="line2d_53">
    <path clip-path="url(#p6223931c50)" d="M 391.752156 470.015461 
L 391.752156 500.58568 
L 392.832485 500.58568 
L 392.832485 470.015461 
L 391.752156 470.015461 
" style="fill:none;stroke:#000000;stroke-linecap:square;"/>
   </g>
   <g id="line2d_54">
    <path clip-path="url(#p6223931c50)" d="M 391.752156 485.30057 
L 391.329231 485.30057 
" style="fill:none;stroke:#000000;stroke-linecap:square;"/>
   </g>
   <g id="line2d_55">
    <path clip-path="url(#p6223931c50)" d="M 392.832485 485.30057 
L 394.389581 485.30057 
" style="fill:none;stroke:#000000;stroke-linecap:square;"/>
   </g>
   <g id="line2d_56">
    <path clip-path="url(#p6223931c50)" d="M 391.329231 477.658015 
L 391.329231 492.943125 
" style="fill:none;stroke:#000000;stroke-linecap:square;"/>
   </g>
   <g id="line2d_57">
    <path clip-path="url(#p6223931c50)" d="M 394.389581 477.658015 
L 394.389581 492.943125 
" style="fill:none;stroke:#000000;stroke-linecap:square;"/>
   </g>
   <g id="line2d_58">
    <g clip-path="url(#p6223931c50)">
     <use style="fill-opacity:0;stroke:#000000;" x="397.326615" xlink:href="#maf6b7bd4ea" y="485.30057"/>
     <use style="fill-opacity:0;stroke:#000000;" x="417.988325" xlink:href="#maf6b7bd4ea" y="485.30057"/>
     <use style="fill-opacity:0;stroke:#000000;" x="394.832481" xlink:href="#maf6b7bd4ea" y="485.30057"/>
     <use style="fill-opacity:0;stroke:#000000;" x="394.926272" xlink:href="#maf6b7bd4ea" y="485.30057"/>
     <use style="fill-opacity:0;stroke:#000000;" x="394.627531" xlink:href="#maf6b7bd4ea" y="485.30057"/>
     <use style="fill-opacity:0;stroke:#000000;" x="402.662255" xlink:href="#maf6b7bd4ea" y="485.30057"/>
     <use style="fill-opacity:0;stroke:#000000;" x="400.935814" xlink:href="#maf6b7bd4ea" y="485.30057"/>
     <use style="fill-opacity:0;stroke:#000000;" x="395.544594" xlink:href="#maf6b7bd4ea" y="485.30057"/>
    </g>
   </g>
   <g id="line2d_59">
    <path clip-path="url(#p6223931c50)" d="M 391.37352 531.155899 
L 391.37352 561.726118 
L 391.515509 561.726118 
L 391.515509 531.155899 
L 391.37352 531.155899 
" style="fill:none;stroke:#000000;stroke-linecap:square;"/>
   </g>
   <g id="line2d_60">
    <path clip-path="url(#p6223931c50)" d="M 391.37352 546.441009 
L 391.254545 546.441009 
" style="fill:none;stroke:#000000;stroke-linecap:square;"/>
   </g>
   <g id="line2d_61">
    <path clip-path="url(#p6223931c50)" d="M 391.515509 546.441009 
L 391.516812 546.441009 
" style="fill:none;stroke:#000000;stroke-linecap:square;"/>
   </g>
   <g id="line2d_62">
    <path clip-path="url(#p6223931c50)" d="M 391.254545 538.798454 
L 391.254545 554.083564 
" style="fill:none;stroke:#000000;stroke-linecap:square;"/>
   </g>
   <g id="line2d_63">
    <path clip-path="url(#p6223931c50)" d="M 391.516812 538.798454 
L 391.516812 554.083564 
" style="fill:none;stroke:#000000;stroke-linecap:square;"/>
   </g>
   <g id="line2d_64">
    <g clip-path="url(#p6223931c50)">
     <use style="fill-opacity:0;stroke:#000000;" x="391.784288" xlink:href="#maf6b7bd4ea" y="546.441009"/>
     <use style="fill-opacity:0;stroke:#000000;" x="391.758235" xlink:href="#maf6b7bd4ea" y="546.441009"/>
    </g>
   </g>
   <g id="line2d_65">
    <path clip-path="url(#p6223931c50)" d="M 391.4456 592.296338 
L 391.4456 622.866557 
L 391.922369 622.866557 
L 391.922369 592.296338 
L 391.4456 592.296338 
" style="fill:none;stroke:#000000;stroke-linecap:square;"/>
   </g>
   <g id="line2d_66">
    <path clip-path="url(#p6223931c50)" d="M 391.4456 607.581447 
L 391.273651 607.581447 
" style="fill:none;stroke:#000000;stroke-linecap:square;"/>
   </g>
   <g id="line2d_67">
    <path clip-path="url(#p6223931c50)" d="M 391.922369 607.581447 
L 392.465138 607.581447 
" style="fill:none;stroke:#000000;stroke-linecap:square;"/>
   </g>
   <g id="line2d_68">
    <path clip-path="url(#p6223931c50)" d="M 391.273651 599.938893 
L 391.273651 615.224002 
" style="fill:none;stroke:#000000;stroke-linecap:square;"/>
   </g>
   <g id="line2d_69">
    <path clip-path="url(#p6223931c50)" d="M 392.465138 599.938893 
L 392.465138 615.224002 
" style="fill:none;stroke:#000000;stroke-linecap:square;"/>
   </g>
   <g id="line2d_70">
    <g clip-path="url(#p6223931c50)">
     <use style="fill-opacity:0;stroke:#000000;" x="394.054367" xlink:href="#maf6b7bd4ea" y="607.581447"/>
    </g>
   </g>
   <g id="line2d_71">
    <path clip-path="url(#p6223931c50)" d="M 393.974471 103.172829 
L 393.974471 133.743048 
" style="fill:none;stroke:#ff7f0e;stroke-linecap:square;"/>
   </g>
   <g id="line2d_72">
    <path clip-path="url(#p6223931c50)" d="M 395.599306 164.313268 
L 395.599306 194.883487 
" style="fill:none;stroke:#ff7f0e;stroke-linecap:square;"/>
   </g>
   <g id="line2d_73">
    <path clip-path="url(#p6223931c50)" d="M 408.294898 225.453706 
L 408.294898 256.023925 
" style="fill:none;stroke:#ff7f0e;stroke-linecap:square;"/>
   </g>
   <g id="line2d_74">
    <path clip-path="url(#p6223931c50)" d="M 417.159842 286.594145 
L 417.159842 317.164364 
" style="fill:none;stroke:#ff7f0e;stroke-linecap:square;"/>
   </g>
   <g id="line2d_75">
    <path clip-path="url(#p6223931c50)" d="M 392.09866 347.734583 
L 392.09866 378.304803 
" style="fill:none;stroke:#ff7f0e;stroke-linecap:square;"/>
   </g>
   <g id="line2d_76">
    <path clip-path="url(#p6223931c50)" d="M 394.226316 408.875022 
L 394.226316 439.445241 
" style="fill:none;stroke:#ff7f0e;stroke-linecap:square;"/>
   </g>
   <g id="line2d_77">
    <path clip-path="url(#p6223931c50)" d="M 392.195925 470.015461 
L 392.195925 500.58568 
" style="fill:none;stroke:#ff7f0e;stroke-linecap:square;"/>
   </g>
   <g id="line2d_78">
    <path clip-path="url(#p6223931c50)" d="M 391.398705 531.155899 
L 391.398705 561.726118 
" style="fill:none;stroke:#ff7f0e;stroke-linecap:square;"/>
   </g>
   <g id="line2d_79">
    <path clip-path="url(#p6223931c50)" d="M 391.670524 592.296338 
L 391.670524 622.866557 
" style="fill:none;stroke:#ff7f0e;stroke-linecap:square;"/>
   </g>
   <g id="patch_3">
    <path d="M 345.6 638.151667 
L 345.6 57.3175 
" style="fill:none;stroke:#000000;stroke-linecap:square;stroke-linejoin:miter;stroke-width:0.8;"/>
   </g>
   <g id="patch_4">
    <path d="M 1350 638.151667 
L 1350 57.3175 
" style="fill:none;stroke:#000000;stroke-linecap:square;stroke-linejoin:miter;stroke-width:0.8;"/>
   </g>
   <g id="patch_5">
    <path d="M 345.6 638.151667 
L 1350 638.151667 
" style="fill:none;stroke:#000000;stroke-linecap:square;stroke-linejoin:miter;stroke-width:0.8;"/>
   </g>
   <g id="patch_6">
    <path d="M 345.6 57.3175 
L 1350 57.3175 
" style="fill:none;stroke:#000000;stroke-linecap:square;stroke-linejoin:miter;stroke-width:0.8;"/>
   </g>
   <g id="text_18">
    <!-- Głosy na kandydatów partii -->
    <g transform="translate(765.529687 51.3175)scale(0.12 -0.12)">
     <use xlink:href="#DejaVuSans-71"/>
     <use x="77.490234" xlink:href="#DejaVuSans-322"/>
     <use x="105.908203" xlink:href="#DejaVuSans-111"/>
     <use x="167.089844" xlink:href="#DejaVuSans-115"/>
     <use x="219.189453" xlink:href="#DejaVuSans-121"/>
     <use x="278.369141" xlink:href="#DejaVuSans-32"/>
     <use x="310.15625" xlink:href="#DejaVuSans-110"/>
     <use x="373.535156" xlink:href="#DejaVuSans-97"/>
     <use x="434.814453" xlink:href="#DejaVuSans-32"/>
     <use x="466.601562" xlink:href="#DejaVuSans-107"/>
     <use x="524.496094" xlink:href="#DejaVuSans-97"/>
     <use x="585.775391" xlink:href="#DejaVuSans-110"/>
     <use x="649.154297" xlink:href="#DejaVuSans-100"/>
     <use x="712.630859" xlink:href="#DejaVuSans-121"/>
     <use x="771.810547" xlink:href="#DejaVuSans-100"/>
     <use x="835.287109" xlink:href="#DejaVuSans-97"/>
     <use x="896.566406" xlink:href="#DejaVuSans-116"/>
     <use x="935.775391" xlink:href="#DejaVuSans-243"/>
     <use x="996.957031" xlink:href="#DejaVuSans-119"/>
     <use x="1078.744141" xlink:href="#DejaVuSans-32"/>
     <use x="1110.53125" xlink:href="#DejaVuSans-112"/>
     <use x="1174.007812" xlink:href="#DejaVuSans-97"/>
     <use x="1235.287109" xlink:href="#DejaVuSans-114"/>
     <use x="1276.400391" xlink:href="#DejaVuSans-116"/>
     <use x="1315.609375" xlink:href="#DejaVuSans-105"/>
     <use x="1343.392578" xlink:href="#DejaVuSans-105"/>
    </g>
   </g>
  </g>
 </g>
 <defs>
  <clipPath id="p6223931c50">
   <rect height="580.834167" width="1004.4" x="345.6" y="57.3175"/>
  </clipPath>
 </defs>
</svg>
