<?xml version="1.0" encoding="utf-8" standalone="no"?>
<!DOCTYPE svg PUBLIC "-//W3C//DTD SVG 1.1//EN"
  "http://www.w3.org/Graphics/SVG/1.1/DTD/svg11.dtd">
<!-- Created with matplotlib (https://matplotlib.org/) -->
<svg height="727.2pt" version="1.1" viewBox="0 0 1382.4 727.2" width="1382.4pt" xmlns="http://www.w3.org/2000/svg" xmlns:xlink="http://www.w3.org/1999/xlink">
 <defs>
  <style type="text/css">
*{stroke-linecap:butt;stroke-linejoin:round;white-space:pre;}
  </style>
 </defs>
 <g id="figure_1">
  <g id="patch_1">
   <path d="M 0 727.2 
L 1382.4 727.2 
L 1382.4 0 
L 0 0 
z
" style="fill:#ffffff;"/>
  </g>
  <g id="axes_1">
   <g id="patch_2">
    <path d="M 172.8 647.208 
L 1244.16 647.208 
L 1244.16 87.264 
L 172.8 87.264 
z
" style="fill:#ffffff;"/>
   </g>
   <g id="patch_3">
    <path clip-path="url(#pa96a73a34e)" d="M 172.8 112.716 
L 1193.142857 112.716 
L 1193.142857 133.283273 
L 172.8 133.283273 
z
" style="fill:#1f77b4;"/>
   </g>
   <g id="patch_4">
    <path clip-path="url(#pa96a73a34e)" d="M 172.8 138.425091 
L 969.51744 138.425091 
L 969.51744 158.992364 
L 172.8 158.992364 
z
" style="fill:#1f77b4;"/>
   </g>
   <g id="patch_5">
    <path clip-path="url(#pa96a73a34e)" d="M 172.8 164.134182 
L 735.10165 164.134182 
L 735.10165 184.701455 
L 172.8 184.701455 
z
" style="fill:#1f77b4;"/>
   </g>
   <g id="patch_6">
    <path clip-path="url(#pa96a73a34e)" d="M 172.8 189.843273 
L 475.64449 189.843273 
L 475.64449 210.410545 
L 172.8 210.410545 
z
" style="fill:#1f77b4;"/>
   </g>
   <g id="patch_7">
    <path clip-path="url(#pa96a73a34e)" d="M 172.8 215.552364 
L 439.869206 215.552364 
L 439.869206 236.119636 
L 172.8 236.119636 
z
" style="fill:#1f77b4;"/>
   </g>
   <g id="patch_8">
    <path clip-path="url(#pa96a73a34e)" d="M 172.8 241.261455 
L 433.017701 241.261455 
L 433.017701 261.828727 
L 172.8 261.828727 
z
" style="fill:#1f77b4;"/>
   </g>
   <g id="patch_9">
    <path clip-path="url(#pa96a73a34e)" d="M 172.8 266.970545 
L 430.556738 266.970545 
L 430.556738 287.537818 
L 172.8 287.537818 
z
" style="fill:#1f77b4;"/>
   </g>
   <g id="patch_10">
    <path clip-path="url(#pa96a73a34e)" d="M 172.8 292.679636 
L 425.018743 292.679636 
L 425.018743 313.246909 
L 172.8 313.246909 
z
" style="fill:#1f77b4;"/>
   </g>
   <g id="patch_11">
    <path clip-path="url(#pa96a73a34e)" d="M 172.8 318.388727 
L 365.146952 318.388727 
L 365.146952 338.956 
L 172.8 338.956 
z
" style="fill:#1f77b4;"/>
   </g>
   <g id="patch_12">
    <path clip-path="url(#pa96a73a34e)" d="M 172.8 344.097818 
L 356.478785 344.097818 
L 356.478785 364.665091 
L 172.8 364.665091 
z
" style="fill:#1f77b4;"/>
   </g>
   <g id="patch_13">
    <path clip-path="url(#pa96a73a34e)" d="M 172.8 369.806909 
L 352.113151 369.806909 
L 352.113151 390.374182 
L 172.8 390.374182 
z
" style="fill:#1f77b4;"/>
   </g>
   <g id="patch_14">
    <path clip-path="url(#pa96a73a34e)" d="M 172.8 395.516 
L 346.973692 395.516 
L 346.973692 416.083273 
L 172.8 416.083273 
z
" style="fill:#1f77b4;"/>
   </g>
   <g id="patch_15">
    <path clip-path="url(#pa96a73a34e)" d="M 172.8 421.225091 
L 308.773978 421.225091 
L 308.773978 441.792364 
L 172.8 441.792364 
z
" style="fill:#1f77b4;"/>
   </g>
   <g id="patch_16">
    <path clip-path="url(#pa96a73a34e)" d="M 172.8 446.934182 
L 305.808203 446.934182 
L 305.808203 467.501455 
L 172.8 467.501455 
z
" style="fill:#1f77b4;"/>
   </g>
   <g id="patch_17">
    <path clip-path="url(#pa96a73a34e)" d="M 172.8 472.643273 
L 303.280818 472.643273 
L 303.280818 493.210545 
L 172.8 493.210545 
z
" style="fill:#1f77b4;"/>
   </g>
   <g id="patch_18">
    <path clip-path="url(#pa96a73a34e)" d="M 172.8 498.352364 
L 302.879846 498.352364 
L 302.879846 518.919636 
L 172.8 518.919636 
z
" style="fill:#1f77b4;"/>
   </g>
   <g id="patch_19">
    <path clip-path="url(#pa96a73a34e)" d="M 172.8 524.061455 
L 301.009046 524.061455 
L 301.009046 544.628727 
L 172.8 544.628727 
z
" style="fill:#1f77b4;"/>
   </g>
   <g id="patch_20">
    <path clip-path="url(#pa96a73a34e)" d="M 172.8 549.770545 
L 293.582588 549.770545 
L 293.582588 570.337818 
L 172.8 570.337818 
z
" style="fill:#1f77b4;"/>
   </g>
   <g id="patch_21">
    <path clip-path="url(#pa96a73a34e)" d="M 172.8 575.479636 
L 290.595499 575.479636 
L 290.595499 596.046909 
L 172.8 596.046909 
z
" style="fill:#1f77b4;"/>
   </g>
   <g id="patch_22">
    <path clip-path="url(#pa96a73a34e)" d="M 172.8 601.188727 
L 289.941472 601.188727 
L 289.941472 621.756 
L 172.8 621.756 
z
" style="fill:#1f77b4;"/>
   </g>
   <g id="matplotlib.axis_1">
    <g id="xtick_1">
     <g id="line2d_1">
      <defs>
       <path d="M 0 0 
L 0 3.5 
" id="m922b322892" style="stroke:#000000;stroke-width:0.8;"/>
      </defs>
      <g>
       <use style="stroke:#000000;stroke-width:0.8;" x="172.8" xlink:href="#m922b322892" y="647.208"/>
      </g>
     </g>
     <g id="text_1">
      <!-- 0 -->
      <defs>
       <path d="M 31.78125 66.40625 
Q 24.171875 66.40625 20.328125 58.90625 
Q 16.5 51.421875 16.5 36.375 
Q 16.5 21.390625 20.328125 13.890625 
Q 24.171875 6.390625 31.78125 6.390625 
Q 39.453125 6.390625 43.28125 13.890625 
Q 47.125 21.390625 47.125 36.375 
Q 47.125 51.421875 43.28125 58.90625 
Q 39.453125 66.40625 31.78125 66.40625 
z
M 31.78125 74.21875 
Q 44.046875 74.21875 50.515625 64.515625 
Q 56.984375 54.828125 56.984375 36.375 
Q 56.984375 17.96875 50.515625 8.265625 
Q 44.046875 -1.421875 31.78125 -1.421875 
Q 19.53125 -1.421875 13.0625 8.265625 
Q 6.59375 17.96875 6.59375 36.375 
Q 6.59375 54.828125 13.0625 64.515625 
Q 19.53125 74.21875 31.78125 74.21875 
z
" id="DejaVuSans-48"/>
      </defs>
      <g transform="translate(169.61875 661.806437)scale(0.1 -0.1)">
       <use xlink:href="#DejaVuSans-48"/>
      </g>
     </g>
    </g>
    <g id="xtick_2">
     <g id="line2d_2">
      <g>
       <use style="stroke:#000000;stroke-width:0.8;" x="338.856834" xlink:href="#m922b322892" y="647.208"/>
      </g>
     </g>
     <g id="text_2">
      <!-- 50000 -->
      <defs>
       <path d="M 10.796875 72.90625 
L 49.515625 72.90625 
L 49.515625 64.59375 
L 19.828125 64.59375 
L 19.828125 46.734375 
Q 21.96875 47.46875 24.109375 47.828125 
Q 26.265625 48.1875 28.421875 48.1875 
Q 40.625 48.1875 47.75 41.5 
Q 54.890625 34.8125 54.890625 23.390625 
Q 54.890625 11.625 47.5625 5.09375 
Q 40.234375 -1.421875 26.90625 -1.421875 
Q 22.3125 -1.421875 17.546875 -0.640625 
Q 12.796875 0.140625 7.71875 1.703125 
L 7.71875 11.625 
Q 12.109375 9.234375 16.796875 8.0625 
Q 21.484375 6.890625 26.703125 6.890625 
Q 35.15625 6.890625 40.078125 11.328125 
Q 45.015625 15.765625 45.015625 23.390625 
Q 45.015625 31 40.078125 35.4375 
Q 35.15625 39.890625 26.703125 39.890625 
Q 22.75 39.890625 18.8125 39.015625 
Q 14.890625 38.140625 10.796875 36.28125 
z
" id="DejaVuSans-53"/>
      </defs>
      <g transform="translate(322.950584 661.806437)scale(0.1 -0.1)">
       <use xlink:href="#DejaVuSans-53"/>
       <use x="63.623047" xlink:href="#DejaVuSans-48"/>
       <use x="127.246094" xlink:href="#DejaVuSans-48"/>
       <use x="190.869141" xlink:href="#DejaVuSans-48"/>
       <use x="254.492188" xlink:href="#DejaVuSans-48"/>
      </g>
     </g>
    </g>
    <g id="xtick_3">
     <g id="line2d_3">
      <g>
       <use style="stroke:#000000;stroke-width:0.8;" x="504.913667" xlink:href="#m922b322892" y="647.208"/>
      </g>
     </g>
     <g id="text_3">
      <!-- 100000 -->
      <defs>
       <path d="M 12.40625 8.296875 
L 28.515625 8.296875 
L 28.515625 63.921875 
L 10.984375 60.40625 
L 10.984375 69.390625 
L 28.421875 72.90625 
L 38.28125 72.90625 
L 38.28125 8.296875 
L 54.390625 8.296875 
L 54.390625 0 
L 12.40625 0 
z
" id="DejaVuSans-49"/>
      </defs>
      <g transform="translate(485.826167 661.806437)scale(0.1 -0.1)">
       <use xlink:href="#DejaVuSans-49"/>
       <use x="63.623047" xlink:href="#DejaVuSans-48"/>
       <use x="127.246094" xlink:href="#DejaVuSans-48"/>
       <use x="190.869141" xlink:href="#DejaVuSans-48"/>
       <use x="254.492188" xlink:href="#DejaVuSans-48"/>
       <use x="318.115234" xlink:href="#DejaVuSans-48"/>
      </g>
     </g>
    </g>
    <g id="xtick_4">
     <g id="line2d_4">
      <g>
       <use style="stroke:#000000;stroke-width:0.8;" x="670.970501" xlink:href="#m922b322892" y="647.208"/>
      </g>
     </g>
     <g id="text_4">
      <!-- 150000 -->
      <g transform="translate(651.883001 661.806437)scale(0.1 -0.1)">
       <use xlink:href="#DejaVuSans-49"/>
       <use x="63.623047" xlink:href="#DejaVuSans-53"/>
       <use x="127.246094" xlink:href="#DejaVuSans-48"/>
       <use x="190.869141" xlink:href="#DejaVuSans-48"/>
       <use x="254.492188" xlink:href="#DejaVuSans-48"/>
       <use x="318.115234" xlink:href="#DejaVuSans-48"/>
      </g>
     </g>
    </g>
    <g id="xtick_5">
     <g id="line2d_5">
      <g>
       <use style="stroke:#000000;stroke-width:0.8;" x="837.027335" xlink:href="#m922b322892" y="647.208"/>
      </g>
     </g>
     <g id="text_5">
      <!-- 200000 -->
      <defs>
       <path d="M 19.1875 8.296875 
L 53.609375 8.296875 
L 53.609375 0 
L 7.328125 0 
L 7.328125 8.296875 
Q 12.9375 14.109375 22.625 23.890625 
Q 32.328125 33.6875 34.8125 36.53125 
Q 39.546875 41.84375 41.421875 45.53125 
Q 43.3125 49.21875 43.3125 52.78125 
Q 43.3125 58.59375 39.234375 62.25 
Q 35.15625 65.921875 28.609375 65.921875 
Q 23.96875 65.921875 18.8125 64.3125 
Q 13.671875 62.703125 7.8125 59.421875 
L 7.8125 69.390625 
Q 13.765625 71.78125 18.9375 73 
Q 24.125 74.21875 28.421875 74.21875 
Q 39.75 74.21875 46.484375 68.546875 
Q 53.21875 62.890625 53.21875 53.421875 
Q 53.21875 48.921875 51.53125 44.890625 
Q 49.859375 40.875 45.40625 35.40625 
Q 44.1875 33.984375 37.640625 27.21875 
Q 31.109375 20.453125 19.1875 8.296875 
z
" id="DejaVuSans-50"/>
      </defs>
      <g transform="translate(817.939835 661.806437)scale(0.1 -0.1)">
       <use xlink:href="#DejaVuSans-50"/>
       <use x="63.623047" xlink:href="#DejaVuSans-48"/>
       <use x="127.246094" xlink:href="#DejaVuSans-48"/>
       <use x="190.869141" xlink:href="#DejaVuSans-48"/>
       <use x="254.492188" xlink:href="#DejaVuSans-48"/>
       <use x="318.115234" xlink:href="#DejaVuSans-48"/>
      </g>
     </g>
    </g>
    <g id="xtick_6">
     <g id="line2d_6">
      <g>
       <use style="stroke:#000000;stroke-width:0.8;" x="1003.084169" xlink:href="#m922b322892" y="647.208"/>
      </g>
     </g>
     <g id="text_6">
      <!-- 250000 -->
      <g transform="translate(983.996669 661.806437)scale(0.1 -0.1)">
       <use xlink:href="#DejaVuSans-50"/>
       <use x="63.623047" xlink:href="#DejaVuSans-53"/>
       <use x="127.246094" xlink:href="#DejaVuSans-48"/>
       <use x="190.869141" xlink:href="#DejaVuSans-48"/>
       <use x="254.492188" xlink:href="#DejaVuSans-48"/>
       <use x="318.115234" xlink:href="#DejaVuSans-48"/>
      </g>
     </g>
    </g>
    <g id="xtick_7">
     <g id="line2d_7">
      <g>
       <use style="stroke:#000000;stroke-width:0.8;" x="1169.141002" xlink:href="#m922b322892" y="647.208"/>
      </g>
     </g>
     <g id="text_7">
      <!-- 300000 -->
      <defs>
       <path d="M 40.578125 39.3125 
Q 47.65625 37.796875 51.625 33 
Q 55.609375 28.21875 55.609375 21.1875 
Q 55.609375 10.40625 48.1875 4.484375 
Q 40.765625 -1.421875 27.09375 -1.421875 
Q 22.515625 -1.421875 17.65625 -0.515625 
Q 12.796875 0.390625 7.625 2.203125 
L 7.625 11.71875 
Q 11.71875 9.328125 16.59375 8.109375 
Q 21.484375 6.890625 26.8125 6.890625 
Q 36.078125 6.890625 40.9375 10.546875 
Q 45.796875 14.203125 45.796875 21.1875 
Q 45.796875 27.640625 41.28125 31.265625 
Q 36.765625 34.90625 28.71875 34.90625 
L 20.21875 34.90625 
L 20.21875 43.015625 
L 29.109375 43.015625 
Q 36.375 43.015625 40.234375 45.921875 
Q 44.09375 48.828125 44.09375 54.296875 
Q 44.09375 59.90625 40.109375 62.90625 
Q 36.140625 65.921875 28.71875 65.921875 
Q 24.65625 65.921875 20.015625 65.03125 
Q 15.375 64.15625 9.8125 62.3125 
L 9.8125 71.09375 
Q 15.4375 72.65625 20.34375 73.4375 
Q 25.25 74.21875 29.59375 74.21875 
Q 40.828125 74.21875 47.359375 69.109375 
Q 53.90625 64.015625 53.90625 55.328125 
Q 53.90625 49.265625 50.4375 45.09375 
Q 46.96875 40.921875 40.578125 39.3125 
z
" id="DejaVuSans-51"/>
      </defs>
      <g transform="translate(1150.053502 661.806437)scale(0.1 -0.1)">
       <use xlink:href="#DejaVuSans-51"/>
       <use x="63.623047" xlink:href="#DejaVuSans-48"/>
       <use x="127.246094" xlink:href="#DejaVuSans-48"/>
       <use x="190.869141" xlink:href="#DejaVuSans-48"/>
       <use x="254.492188" xlink:href="#DejaVuSans-48"/>
       <use x="318.115234" xlink:href="#DejaVuSans-48"/>
      </g>
     </g>
    </g>
    <g id="text_8">
     <!-- Średnia liczba głosów -->
     <defs>
      <path d="M 34.9375 92.515625 
L 43.96875 92.515625 
L 32.84375 79.625 
L 25.359375 79.625 
z
M 53.515625 70.515625 
L 53.515625 60.890625 
Q 47.90625 63.578125 42.921875 64.890625 
Q 37.9375 66.21875 33.296875 66.21875 
Q 25.25 66.21875 20.875 63.09375 
Q 16.5 59.96875 16.5 54.203125 
Q 16.5 49.359375 19.40625 46.890625 
Q 22.3125 44.4375 30.421875 42.921875 
L 36.375 41.703125 
Q 47.40625 39.59375 52.65625 34.296875 
Q 57.90625 29 57.90625 20.125 
Q 57.90625 9.515625 50.796875 4.046875 
Q 43.703125 -1.421875 29.984375 -1.421875 
Q 24.8125 -1.421875 18.96875 -0.25 
Q 13.140625 0.921875 6.890625 3.21875 
L 6.890625 13.375 
Q 12.890625 10.015625 18.65625 8.296875 
Q 24.421875 6.59375 29.984375 6.59375 
Q 38.421875 6.59375 43.015625 9.90625 
Q 47.609375 13.234375 47.609375 19.390625 
Q 47.609375 24.75 44.3125 27.78125 
Q 41.015625 30.8125 33.5 32.328125 
L 27.484375 33.5 
Q 16.453125 35.6875 11.515625 40.375 
Q 6.59375 45.0625 6.59375 53.421875 
Q 6.59375 63.09375 13.40625 68.65625 
Q 20.21875 74.21875 32.171875 74.21875 
Q 37.3125 74.21875 42.625 73.28125 
Q 47.953125 72.359375 53.515625 70.515625 
z
" id="DejaVuSans-346"/>
      <path d="M 41.109375 46.296875 
Q 39.59375 47.171875 37.8125 47.578125 
Q 36.03125 48 33.890625 48 
Q 26.265625 48 22.1875 43.046875 
Q 18.109375 38.09375 18.109375 28.8125 
L 18.109375 0 
L 9.078125 0 
L 9.078125 54.6875 
L 18.109375 54.6875 
L 18.109375 46.1875 
Q 20.953125 51.171875 25.484375 53.578125 
Q 30.03125 56 36.53125 56 
Q 37.453125 56 38.578125 55.875 
Q 39.703125 55.765625 41.0625 55.515625 
z
" id="DejaVuSans-114"/>
      <path d="M 56.203125 29.59375 
L 56.203125 25.203125 
L 14.890625 25.203125 
Q 15.484375 15.921875 20.484375 11.0625 
Q 25.484375 6.203125 34.421875 6.203125 
Q 39.59375 6.203125 44.453125 7.46875 
Q 49.3125 8.734375 54.109375 11.28125 
L 54.109375 2.78125 
Q 49.265625 0.734375 44.1875 -0.34375 
Q 39.109375 -1.421875 33.890625 -1.421875 
Q 20.796875 -1.421875 13.15625 6.1875 
Q 5.515625 13.8125 5.515625 26.8125 
Q 5.515625 40.234375 12.765625 48.109375 
Q 20.015625 56 32.328125 56 
Q 43.359375 56 49.78125 48.890625 
Q 56.203125 41.796875 56.203125 29.59375 
z
M 47.21875 32.234375 
Q 47.125 39.59375 43.09375 43.984375 
Q 39.0625 48.390625 32.421875 48.390625 
Q 24.90625 48.390625 20.390625 44.140625 
Q 15.875 39.890625 15.1875 32.171875 
z
" id="DejaVuSans-101"/>
      <path d="M 45.40625 46.390625 
L 45.40625 75.984375 
L 54.390625 75.984375 
L 54.390625 0 
L 45.40625 0 
L 45.40625 8.203125 
Q 42.578125 3.328125 38.25 0.953125 
Q 33.9375 -1.421875 27.875 -1.421875 
Q 17.96875 -1.421875 11.734375 6.484375 
Q 5.515625 14.40625 5.515625 27.296875 
Q 5.515625 40.1875 11.734375 48.09375 
Q 17.96875 56 27.875 56 
Q 33.9375 56 38.25 53.625 
Q 42.578125 51.265625 45.40625 46.390625 
z
M 14.796875 27.296875 
Q 14.796875 17.390625 18.875 11.75 
Q 22.953125 6.109375 30.078125 6.109375 
Q 37.203125 6.109375 41.296875 11.75 
Q 45.40625 17.390625 45.40625 27.296875 
Q 45.40625 37.203125 41.296875 42.84375 
Q 37.203125 48.484375 30.078125 48.484375 
Q 22.953125 48.484375 18.875 42.84375 
Q 14.796875 37.203125 14.796875 27.296875 
z
" id="DejaVuSans-100"/>
      <path d="M 54.890625 33.015625 
L 54.890625 0 
L 45.90625 0 
L 45.90625 32.71875 
Q 45.90625 40.484375 42.875 44.328125 
Q 39.84375 48.1875 33.796875 48.1875 
Q 26.515625 48.1875 22.3125 43.546875 
Q 18.109375 38.921875 18.109375 30.90625 
L 18.109375 0 
L 9.078125 0 
L 9.078125 54.6875 
L 18.109375 54.6875 
L 18.109375 46.1875 
Q 21.34375 51.125 25.703125 53.5625 
Q 30.078125 56 35.796875 56 
Q 45.21875 56 50.046875 50.171875 
Q 54.890625 44.34375 54.890625 33.015625 
z
" id="DejaVuSans-110"/>
      <path d="M 9.421875 54.6875 
L 18.40625 54.6875 
L 18.40625 0 
L 9.421875 0 
z
M 9.421875 75.984375 
L 18.40625 75.984375 
L 18.40625 64.59375 
L 9.421875 64.59375 
z
" id="DejaVuSans-105"/>
      <path d="M 34.28125 27.484375 
Q 23.390625 27.484375 19.1875 25 
Q 14.984375 22.515625 14.984375 16.5 
Q 14.984375 11.71875 18.140625 8.90625 
Q 21.296875 6.109375 26.703125 6.109375 
Q 34.1875 6.109375 38.703125 11.40625 
Q 43.21875 16.703125 43.21875 25.484375 
L 43.21875 27.484375 
z
M 52.203125 31.203125 
L 52.203125 0 
L 43.21875 0 
L 43.21875 8.296875 
Q 40.140625 3.328125 35.546875 0.953125 
Q 30.953125 -1.421875 24.3125 -1.421875 
Q 15.921875 -1.421875 10.953125 3.296875 
Q 6 8.015625 6 15.921875 
Q 6 25.140625 12.171875 29.828125 
Q 18.359375 34.515625 30.609375 34.515625 
L 43.21875 34.515625 
L 43.21875 35.40625 
Q 43.21875 41.609375 39.140625 45 
Q 35.0625 48.390625 27.6875 48.390625 
Q 23 48.390625 18.546875 47.265625 
Q 14.109375 46.140625 10.015625 43.890625 
L 10.015625 52.203125 
Q 14.9375 54.109375 19.578125 55.046875 
Q 24.21875 56 28.609375 56 
Q 40.484375 56 46.34375 49.84375 
Q 52.203125 43.703125 52.203125 31.203125 
z
" id="DejaVuSans-97"/>
      <path id="DejaVuSans-32"/>
      <path d="M 9.421875 75.984375 
L 18.40625 75.984375 
L 18.40625 0 
L 9.421875 0 
z
" id="DejaVuSans-108"/>
      <path d="M 48.78125 52.59375 
L 48.78125 44.1875 
Q 44.96875 46.296875 41.140625 47.34375 
Q 37.3125 48.390625 33.40625 48.390625 
Q 24.65625 48.390625 19.8125 42.84375 
Q 14.984375 37.3125 14.984375 27.296875 
Q 14.984375 17.28125 19.8125 11.734375 
Q 24.65625 6.203125 33.40625 6.203125 
Q 37.3125 6.203125 41.140625 7.25 
Q 44.96875 8.296875 48.78125 10.40625 
L 48.78125 2.09375 
Q 45.015625 0.34375 40.984375 -0.53125 
Q 36.96875 -1.421875 32.421875 -1.421875 
Q 20.0625 -1.421875 12.78125 6.34375 
Q 5.515625 14.109375 5.515625 27.296875 
Q 5.515625 40.671875 12.859375 48.328125 
Q 20.21875 56 33.015625 56 
Q 37.15625 56 41.109375 55.140625 
Q 45.0625 54.296875 48.78125 52.59375 
z
" id="DejaVuSans-99"/>
      <path d="M 5.515625 54.6875 
L 48.1875 54.6875 
L 48.1875 46.484375 
L 14.40625 7.171875 
L 48.1875 7.171875 
L 48.1875 0 
L 4.296875 0 
L 4.296875 8.203125 
L 38.09375 47.515625 
L 5.515625 47.515625 
z
" id="DejaVuSans-122"/>
      <path d="M 48.6875 27.296875 
Q 48.6875 37.203125 44.609375 42.84375 
Q 40.53125 48.484375 33.40625 48.484375 
Q 26.265625 48.484375 22.1875 42.84375 
Q 18.109375 37.203125 18.109375 27.296875 
Q 18.109375 17.390625 22.1875 11.75 
Q 26.265625 6.109375 33.40625 6.109375 
Q 40.53125 6.109375 44.609375 11.75 
Q 48.6875 17.390625 48.6875 27.296875 
z
M 18.109375 46.390625 
Q 20.953125 51.265625 25.265625 53.625 
Q 29.59375 56 35.59375 56 
Q 45.5625 56 51.78125 48.09375 
Q 58.015625 40.1875 58.015625 27.296875 
Q 58.015625 14.40625 51.78125 6.484375 
Q 45.5625 -1.421875 35.59375 -1.421875 
Q 29.59375 -1.421875 25.265625 0.953125 
Q 20.953125 3.328125 18.109375 8.203125 
L 18.109375 0 
L 9.078125 0 
L 9.078125 75.984375 
L 18.109375 75.984375 
z
" id="DejaVuSans-98"/>
      <path d="M 45.40625 27.984375 
Q 45.40625 37.75 41.375 43.109375 
Q 37.359375 48.484375 30.078125 48.484375 
Q 22.859375 48.484375 18.828125 43.109375 
Q 14.796875 37.75 14.796875 27.984375 
Q 14.796875 18.265625 18.828125 12.890625 
Q 22.859375 7.515625 30.078125 7.515625 
Q 37.359375 7.515625 41.375 12.890625 
Q 45.40625 18.265625 45.40625 27.984375 
z
M 54.390625 6.78125 
Q 54.390625 -7.171875 48.1875 -13.984375 
Q 42 -20.796875 29.203125 -20.796875 
Q 24.46875 -20.796875 20.265625 -20.09375 
Q 16.0625 -19.390625 12.109375 -17.921875 
L 12.109375 -9.1875 
Q 16.0625 -11.328125 19.921875 -12.34375 
Q 23.78125 -13.375 27.78125 -13.375 
Q 36.625 -13.375 41.015625 -8.765625 
Q 45.40625 -4.15625 45.40625 5.171875 
L 45.40625 9.625 
Q 42.625 4.78125 38.28125 2.390625 
Q 33.9375 0 27.875 0 
Q 17.828125 0 11.671875 7.65625 
Q 5.515625 15.328125 5.515625 27.984375 
Q 5.515625 40.671875 11.671875 48.328125 
Q 17.828125 56 27.875 56 
Q 33.9375 56 38.28125 53.609375 
Q 42.625 51.21875 45.40625 46.390625 
L 45.40625 54.6875 
L 54.390625 54.6875 
z
" id="DejaVuSans-103"/>
      <path d="M 9.71875 75.984375 
L 18.703125 75.984375 
L 18.703125 46.578125 
L 24.8125 50.984375 
L 28.515625 45.796875 
L 18.703125 38.921875 
L 18.703125 0 
L 9.71875 0 
L 9.71875 32.515625 
L 3.71875 28.21875 
L 0.09375 33.40625 
L 9.71875 40.28125 
z
" id="DejaVuSans-322"/>
      <path d="M 30.609375 48.390625 
Q 23.390625 48.390625 19.1875 42.75 
Q 14.984375 37.109375 14.984375 27.296875 
Q 14.984375 17.484375 19.15625 11.84375 
Q 23.34375 6.203125 30.609375 6.203125 
Q 37.796875 6.203125 41.984375 11.859375 
Q 46.1875 17.53125 46.1875 27.296875 
Q 46.1875 37.015625 41.984375 42.703125 
Q 37.796875 48.390625 30.609375 48.390625 
z
M 30.609375 56 
Q 42.328125 56 49.015625 48.375 
Q 55.71875 40.765625 55.71875 27.296875 
Q 55.71875 13.875 49.015625 6.21875 
Q 42.328125 -1.421875 30.609375 -1.421875 
Q 18.84375 -1.421875 12.171875 6.21875 
Q 5.515625 13.875 5.515625 27.296875 
Q 5.515625 40.765625 12.171875 48.375 
Q 18.84375 56 30.609375 56 
z
" id="DejaVuSans-111"/>
      <path d="M 44.28125 53.078125 
L 44.28125 44.578125 
Q 40.484375 46.53125 36.375 47.5 
Q 32.28125 48.484375 27.875 48.484375 
Q 21.1875 48.484375 17.84375 46.4375 
Q 14.5 44.390625 14.5 40.28125 
Q 14.5 37.15625 16.890625 35.375 
Q 19.28125 33.59375 26.515625 31.984375 
L 29.59375 31.296875 
Q 39.15625 29.25 43.1875 25.515625 
Q 47.21875 21.78125 47.21875 15.09375 
Q 47.21875 7.46875 41.1875 3.015625 
Q 35.15625 -1.421875 24.609375 -1.421875 
Q 20.21875 -1.421875 15.453125 -0.5625 
Q 10.6875 0.296875 5.421875 2 
L 5.421875 11.28125 
Q 10.40625 8.6875 15.234375 7.390625 
Q 20.0625 6.109375 24.8125 6.109375 
Q 31.15625 6.109375 34.5625 8.28125 
Q 37.984375 10.453125 37.984375 14.40625 
Q 37.984375 18.0625 35.515625 20.015625 
Q 33.0625 21.96875 24.703125 23.78125 
L 21.578125 24.515625 
Q 13.234375 26.265625 9.515625 29.90625 
Q 5.8125 33.546875 5.8125 39.890625 
Q 5.8125 47.609375 11.28125 51.796875 
Q 16.75 56 26.8125 56 
Q 31.78125 56 36.171875 55.265625 
Q 40.578125 54.546875 44.28125 53.078125 
z
" id="DejaVuSans-115"/>
      <path d="M 30.609375 48.390625 
Q 23.390625 48.390625 19.1875 42.75 
Q 14.984375 37.109375 14.984375 27.296875 
Q 14.984375 17.484375 19.15625 11.84375 
Q 23.34375 6.203125 30.609375 6.203125 
Q 37.796875 6.203125 41.984375 11.859375 
Q 46.1875 17.53125 46.1875 27.296875 
Q 46.1875 37.015625 41.984375 42.703125 
Q 37.796875 48.390625 30.609375 48.390625 
z
M 30.609375 56 
Q 42.328125 56 49.015625 48.375 
Q 55.71875 40.765625 55.71875 27.296875 
Q 55.71875 13.875 49.015625 6.21875 
Q 42.328125 -1.421875 30.609375 -1.421875 
Q 18.84375 -1.421875 12.171875 6.21875 
Q 5.515625 13.875 5.515625 27.296875 
Q 5.515625 40.765625 12.171875 48.375 
Q 18.84375 56 30.609375 56 
z
M 37.40625 79.984375 
L 47.125 79.984375 
L 31.21875 61.625 
L 23.734375 61.625 
z
" id="DejaVuSans-243"/>
      <path d="M 4.203125 54.6875 
L 13.1875 54.6875 
L 24.421875 12.015625 
L 35.59375 54.6875 
L 46.1875 54.6875 
L 57.421875 12.015625 
L 68.609375 54.6875 
L 77.59375 54.6875 
L 63.28125 0 
L 52.6875 0 
L 40.921875 44.828125 
L 29.109375 0 
L 18.5 0 
z
" id="DejaVuSans-119"/>
     </defs>
     <g transform="translate(654.403437 677.137687)scale(0.1 -0.1)">
      <use xlink:href="#DejaVuSans-346"/>
      <use x="63.476562" xlink:href="#DejaVuSans-114"/>
      <use x="104.558594" xlink:href="#DejaVuSans-101"/>
      <use x="166.082031" xlink:href="#DejaVuSans-100"/>
      <use x="229.558594" xlink:href="#DejaVuSans-110"/>
      <use x="292.9375" xlink:href="#DejaVuSans-105"/>
      <use x="320.720703" xlink:href="#DejaVuSans-97"/>
      <use x="382" xlink:href="#DejaVuSans-32"/>
      <use x="413.787109" xlink:href="#DejaVuSans-108"/>
      <use x="441.570312" xlink:href="#DejaVuSans-105"/>
      <use x="469.353516" xlink:href="#DejaVuSans-99"/>
      <use x="524.333984" xlink:href="#DejaVuSans-122"/>
      <use x="576.824219" xlink:href="#DejaVuSans-98"/>
      <use x="640.300781" xlink:href="#DejaVuSans-97"/>
      <use x="701.580078" xlink:href="#DejaVuSans-32"/>
      <use x="733.367188" xlink:href="#DejaVuSans-103"/>
      <use x="796.84375" xlink:href="#DejaVuSans-322"/>
      <use x="825.261719" xlink:href="#DejaVuSans-111"/>
      <use x="886.443359" xlink:href="#DejaVuSans-115"/>
      <use x="938.542969" xlink:href="#DejaVuSans-243"/>
      <use x="999.724609" xlink:href="#DejaVuSans-119"/>
     </g>
    </g>
   </g>
   <g id="matplotlib.axis_2">
    <g id="ytick_1">
     <g id="line2d_8">
      <defs>
       <path d="M 0 0 
L -3.5 0 
" id="md54dfe5843" style="stroke:#000000;stroke-width:0.8;"/>
      </defs>
      <g>
       <use style="stroke:#000000;stroke-width:0.8;" x="172.8" xlink:href="#md54dfe5843" y="122.999636"/>
      </g>
     </g>
     <g id="text_9">
      <!-- pracownik humanitarny -->
      <defs>
       <path d="M 18.109375 8.203125 
L 18.109375 -20.796875 
L 9.078125 -20.796875 
L 9.078125 54.6875 
L 18.109375 54.6875 
L 18.109375 46.390625 
Q 20.953125 51.265625 25.265625 53.625 
Q 29.59375 56 35.59375 56 
Q 45.5625 56 51.78125 48.09375 
Q 58.015625 40.1875 58.015625 27.296875 
Q 58.015625 14.40625 51.78125 6.484375 
Q 45.5625 -1.421875 35.59375 -1.421875 
Q 29.59375 -1.421875 25.265625 0.953125 
Q 20.953125 3.328125 18.109375 8.203125 
z
M 48.6875 27.296875 
Q 48.6875 37.203125 44.609375 42.84375 
Q 40.53125 48.484375 33.40625 48.484375 
Q 26.265625 48.484375 22.1875 42.84375 
Q 18.109375 37.203125 18.109375 27.296875 
Q 18.109375 17.390625 22.1875 11.75 
Q 26.265625 6.109375 33.40625 6.109375 
Q 40.53125 6.109375 44.609375 11.75 
Q 48.6875 17.390625 48.6875 27.296875 
z
" id="DejaVuSans-112"/>
       <path d="M 9.078125 75.984375 
L 18.109375 75.984375 
L 18.109375 31.109375 
L 44.921875 54.6875 
L 56.390625 54.6875 
L 27.390625 29.109375 
L 57.625 0 
L 45.90625 0 
L 18.109375 26.703125 
L 18.109375 0 
L 9.078125 0 
z
" id="DejaVuSans-107"/>
       <path d="M 54.890625 33.015625 
L 54.890625 0 
L 45.90625 0 
L 45.90625 32.71875 
Q 45.90625 40.484375 42.875 44.328125 
Q 39.84375 48.1875 33.796875 48.1875 
Q 26.515625 48.1875 22.3125 43.546875 
Q 18.109375 38.921875 18.109375 30.90625 
L 18.109375 0 
L 9.078125 0 
L 9.078125 75.984375 
L 18.109375 75.984375 
L 18.109375 46.1875 
Q 21.34375 51.125 25.703125 53.5625 
Q 30.078125 56 35.796875 56 
Q 45.21875 56 50.046875 50.171875 
Q 54.890625 44.34375 54.890625 33.015625 
z
" id="DejaVuSans-104"/>
       <path d="M 8.5 21.578125 
L 8.5 54.6875 
L 17.484375 54.6875 
L 17.484375 21.921875 
Q 17.484375 14.15625 20.5 10.265625 
Q 23.53125 6.390625 29.59375 6.390625 
Q 36.859375 6.390625 41.078125 11.03125 
Q 45.3125 15.671875 45.3125 23.6875 
L 45.3125 54.6875 
L 54.296875 54.6875 
L 54.296875 0 
L 45.3125 0 
L 45.3125 8.40625 
Q 42.046875 3.421875 37.71875 1 
Q 33.40625 -1.421875 27.6875 -1.421875 
Q 18.265625 -1.421875 13.375 4.4375 
Q 8.5 10.296875 8.5 21.578125 
z
M 31.109375 56 
z
" id="DejaVuSans-117"/>
       <path d="M 52 44.1875 
Q 55.375 50.25 60.0625 53.125 
Q 64.75 56 71.09375 56 
Q 79.640625 56 84.28125 50.015625 
Q 88.921875 44.046875 88.921875 33.015625 
L 88.921875 0 
L 79.890625 0 
L 79.890625 32.71875 
Q 79.890625 40.578125 77.09375 44.375 
Q 74.3125 48.1875 68.609375 48.1875 
Q 61.625 48.1875 57.5625 43.546875 
Q 53.515625 38.921875 53.515625 30.90625 
L 53.515625 0 
L 44.484375 0 
L 44.484375 32.71875 
Q 44.484375 40.625 41.703125 44.40625 
Q 38.921875 48.1875 33.109375 48.1875 
Q 26.21875 48.1875 22.15625 43.53125 
Q 18.109375 38.875 18.109375 30.90625 
L 18.109375 0 
L 9.078125 0 
L 9.078125 54.6875 
L 18.109375 54.6875 
L 18.109375 46.1875 
Q 21.1875 51.21875 25.484375 53.609375 
Q 29.78125 56 35.6875 56 
Q 41.65625 56 45.828125 52.96875 
Q 50 49.953125 52 44.1875 
z
" id="DejaVuSans-109"/>
       <path d="M 18.3125 70.21875 
L 18.3125 54.6875 
L 36.8125 54.6875 
L 36.8125 47.703125 
L 18.3125 47.703125 
L 18.3125 18.015625 
Q 18.3125 11.328125 20.140625 9.421875 
Q 21.96875 7.515625 27.59375 7.515625 
L 36.8125 7.515625 
L 36.8125 0 
L 27.59375 0 
Q 17.1875 0 13.234375 3.875 
Q 9.28125 7.765625 9.28125 18.015625 
L 9.28125 47.703125 
L 2.6875 47.703125 
L 2.6875 54.6875 
L 9.28125 54.6875 
L 9.28125 70.21875 
z
" id="DejaVuSans-116"/>
       <path d="M 32.171875 -5.078125 
Q 28.375 -14.84375 24.75 -17.8125 
Q 21.140625 -20.796875 15.09375 -20.796875 
L 7.90625 -20.796875 
L 7.90625 -13.28125 
L 13.1875 -13.28125 
Q 16.890625 -13.28125 18.9375 -11.515625 
Q 21 -9.765625 23.484375 -3.21875 
L 25.09375 0.875 
L 2.984375 54.6875 
L 12.5 54.6875 
L 29.59375 11.921875 
L 46.6875 54.6875 
L 56.203125 54.6875 
z
" id="DejaVuSans-121"/>
      </defs>
      <g transform="translate(47.259375 126.798855)scale(0.1 -0.1)">
       <use xlink:href="#DejaVuSans-112"/>
       <use x="63.476562" xlink:href="#DejaVuSans-114"/>
       <use x="104.589844" xlink:href="#DejaVuSans-97"/>
       <use x="165.869141" xlink:href="#DejaVuSans-99"/>
       <use x="220.849609" xlink:href="#DejaVuSans-111"/>
       <use x="282.03125" xlink:href="#DejaVuSans-119"/>
       <use x="363.818359" xlink:href="#DejaVuSans-110"/>
       <use x="427.197266" xlink:href="#DejaVuSans-105"/>
       <use x="454.980469" xlink:href="#DejaVuSans-107"/>
       <use x="512.890625" xlink:href="#DejaVuSans-32"/>
       <use x="544.677734" xlink:href="#DejaVuSans-104"/>
       <use x="608.056641" xlink:href="#DejaVuSans-117"/>
       <use x="671.435547" xlink:href="#DejaVuSans-109"/>
       <use x="768.847656" xlink:href="#DejaVuSans-97"/>
       <use x="830.126953" xlink:href="#DejaVuSans-110"/>
       <use x="893.505859" xlink:href="#DejaVuSans-105"/>
       <use x="921.289062" xlink:href="#DejaVuSans-116"/>
       <use x="960.498047" xlink:href="#DejaVuSans-97"/>
       <use x="1021.777344" xlink:href="#DejaVuSans-114"/>
       <use x="1062.875" xlink:href="#DejaVuSans-110"/>
       <use x="1126.253906" xlink:href="#DejaVuSans-121"/>
      </g>
     </g>
    </g>
    <g id="ytick_2">
     <g id="line2d_9">
      <g>
       <use style="stroke:#000000;stroke-width:0.8;" x="172.8" xlink:href="#md54dfe5843" y="148.708727"/>
      </g>
     </g>
     <g id="text_10">
      <!-- lekarz - specjalista -->
      <defs>
       <path d="M 4.890625 31.390625 
L 31.203125 31.390625 
L 31.203125 23.390625 
L 4.890625 23.390625 
z
" id="DejaVuSans-45"/>
       <path d="M 9.421875 54.6875 
L 18.40625 54.6875 
L 18.40625 -0.984375 
Q 18.40625 -11.421875 14.421875 -16.109375 
Q 10.453125 -20.796875 1.609375 -20.796875 
L -1.8125 -20.796875 
L -1.8125 -13.1875 
L 0.59375 -13.1875 
Q 5.71875 -13.1875 7.5625 -10.8125 
Q 9.421875 -8.453125 9.421875 -0.984375 
z
M 9.421875 75.984375 
L 18.40625 75.984375 
L 18.40625 64.59375 
L 9.421875 64.59375 
z
" id="DejaVuSans-106"/>
      </defs>
      <g transform="translate(72.698437 147.668884)scale(0.1 -0.1)">
       <use xlink:href="#DejaVuSans-108"/>
       <use x="27.783203" xlink:href="#DejaVuSans-101"/>
       <use x="89.306641" xlink:href="#DejaVuSans-107"/>
       <use x="147.201172" xlink:href="#DejaVuSans-97"/>
       <use x="208.480469" xlink:href="#DejaVuSans-114"/>
       <use x="249.59375" xlink:href="#DejaVuSans-122"/>
       <use x="302.083984" xlink:href="#DejaVuSans-32"/>
       <use x="333.871094" xlink:href="#DejaVuSans-45"/>
       <use x="369.955078" xlink:href="#DejaVuSans-32"/>
       <use x="401.742188" xlink:href="#DejaVuSans-115"/>
       <use x="453.841797" xlink:href="#DejaVuSans-112"/>
       <use x="517.318359" xlink:href="#DejaVuSans-101"/>
       <use x="578.841797" xlink:href="#DejaVuSans-99"/>
       <use x="633.822266" xlink:href="#DejaVuSans-106"/>
       <use x="661.605469" xlink:href="#DejaVuSans-97"/>
       <use x="722.884766" xlink:href="#DejaVuSans-108"/>
       <use x="750.667969" xlink:href="#DejaVuSans-105"/>
       <use x="778.451172" xlink:href="#DejaVuSans-115"/>
       <use x="830.550781" xlink:href="#DejaVuSans-116"/>
       <use x="869.759766" xlink:href="#DejaVuSans-97"/>
      </g>
      <!-- pediatrii -->
      <g transform="translate(124.45625 158.866696)scale(0.1 -0.1)">
       <use xlink:href="#DejaVuSans-112"/>
       <use x="63.476562" xlink:href="#DejaVuSans-101"/>
       <use x="125" xlink:href="#DejaVuSans-100"/>
       <use x="188.476562" xlink:href="#DejaVuSans-105"/>
       <use x="216.259766" xlink:href="#DejaVuSans-97"/>
       <use x="277.539062" xlink:href="#DejaVuSans-116"/>
       <use x="316.748047" xlink:href="#DejaVuSans-114"/>
       <use x="357.861328" xlink:href="#DejaVuSans-105"/>
       <use x="385.644531" xlink:href="#DejaVuSans-105"/>
      </g>
     </g>
    </g>
    <g id="ytick_3">
     <g id="line2d_10">
      <g>
       <use style="stroke:#000000;stroke-width:0.8;" x="172.8" xlink:href="#md54dfe5843" y="174.417818"/>
      </g>
     </g>
     <g id="text_11">
      <!-- poseł do Parlamentu -->
      <defs>
       <path d="M 19.671875 64.796875 
L 19.671875 37.40625 
L 32.078125 37.40625 
Q 38.96875 37.40625 42.71875 40.96875 
Q 46.484375 44.53125 46.484375 51.125 
Q 46.484375 57.671875 42.71875 61.234375 
Q 38.96875 64.796875 32.078125 64.796875 
z
M 9.8125 72.90625 
L 32.078125 72.90625 
Q 44.34375 72.90625 50.609375 67.359375 
Q 56.890625 61.8125 56.890625 51.125 
Q 56.890625 40.328125 50.609375 34.8125 
Q 44.34375 29.296875 32.078125 29.296875 
L 19.671875 29.296875 
L 19.671875 0 
L 9.8125 0 
z
" id="DejaVuSans-80"/>
      </defs>
      <g transform="translate(62.646875 173.377974)scale(0.1 -0.1)">
       <use xlink:href="#DejaVuSans-112"/>
       <use x="63.476562" xlink:href="#DejaVuSans-111"/>
       <use x="124.658203" xlink:href="#DejaVuSans-115"/>
       <use x="176.757812" xlink:href="#DejaVuSans-101"/>
       <use x="238.28125" xlink:href="#DejaVuSans-322"/>
       <use x="266.699219" xlink:href="#DejaVuSans-32"/>
       <use x="298.486328" xlink:href="#DejaVuSans-100"/>
       <use x="361.962891" xlink:href="#DejaVuSans-111"/>
       <use x="423.144531" xlink:href="#DejaVuSans-32"/>
       <use x="454.931641" xlink:href="#DejaVuSans-80"/>
       <use x="515.171875" xlink:href="#DejaVuSans-97"/>
       <use x="576.451172" xlink:href="#DejaVuSans-114"/>
       <use x="617.564453" xlink:href="#DejaVuSans-108"/>
       <use x="645.347656" xlink:href="#DejaVuSans-97"/>
       <use x="706.626953" xlink:href="#DejaVuSans-109"/>
       <use x="804.039062" xlink:href="#DejaVuSans-101"/>
       <use x="865.5625" xlink:href="#DejaVuSans-110"/>
       <use x="928.941406" xlink:href="#DejaVuSans-116"/>
       <use x="968.150391" xlink:href="#DejaVuSans-117"/>
      </g>
      <!-- Europejskiego -->
      <defs>
       <path d="M 9.8125 72.90625 
L 55.90625 72.90625 
L 55.90625 64.59375 
L 19.671875 64.59375 
L 19.671875 43.015625 
L 54.390625 43.015625 
L 54.390625 34.71875 
L 19.671875 34.71875 
L 19.671875 8.296875 
L 56.78125 8.296875 
L 56.78125 0 
L 9.8125 0 
z
" id="DejaVuSans-69"/>
      </defs>
      <g transform="translate(95.239062 184.575787)scale(0.1 -0.1)">
       <use xlink:href="#DejaVuSans-69"/>
       <use x="63.183594" xlink:href="#DejaVuSans-117"/>
       <use x="126.5625" xlink:href="#DejaVuSans-114"/>
       <use x="167.644531" xlink:href="#DejaVuSans-111"/>
       <use x="228.826172" xlink:href="#DejaVuSans-112"/>
       <use x="292.302734" xlink:href="#DejaVuSans-101"/>
       <use x="353.826172" xlink:href="#DejaVuSans-106"/>
       <use x="381.609375" xlink:href="#DejaVuSans-115"/>
       <use x="433.708984" xlink:href="#DejaVuSans-107"/>
       <use x="491.619141" xlink:href="#DejaVuSans-105"/>
       <use x="519.402344" xlink:href="#DejaVuSans-101"/>
       <use x="580.925781" xlink:href="#DejaVuSans-103"/>
       <use x="644.402344" xlink:href="#DejaVuSans-111"/>
      </g>
     </g>
    </g>
    <g id="ytick_4">
     <g id="line2d_11">
      <g>
       <use style="stroke:#000000;stroke-width:0.8;" x="172.8" xlink:href="#md54dfe5843" y="200.126909"/>
      </g>
     </g>
     <g id="text_12">
      <!-- polityk -->
      <g transform="translate(132.146875 203.926128)scale(0.1 -0.1)">
       <use xlink:href="#DejaVuSans-112"/>
       <use x="63.476562" xlink:href="#DejaVuSans-111"/>
       <use x="124.658203" xlink:href="#DejaVuSans-108"/>
       <use x="152.441406" xlink:href="#DejaVuSans-105"/>
       <use x="180.224609" xlink:href="#DejaVuSans-116"/>
       <use x="219.433594" xlink:href="#DejaVuSans-121"/>
       <use x="278.613281" xlink:href="#DejaVuSans-107"/>
      </g>
     </g>
    </g>
    <g id="ytick_5">
     <g id="line2d_12">
      <g>
       <use style="stroke:#000000;stroke-width:0.8;" x="172.8" xlink:href="#md54dfe5843" y="225.836"/>
      </g>
     </g>
     <g id="text_13">
      <!-- filolog angielski -->
      <defs>
       <path d="M 37.109375 75.984375 
L 37.109375 68.5 
L 28.515625 68.5 
Q 23.6875 68.5 21.796875 66.546875 
Q 19.921875 64.59375 19.921875 59.515625 
L 19.921875 54.6875 
L 34.71875 54.6875 
L 34.71875 47.703125 
L 19.921875 47.703125 
L 19.921875 0 
L 10.890625 0 
L 10.890625 47.703125 
L 2.296875 47.703125 
L 2.296875 54.6875 
L 10.890625 54.6875 
L 10.890625 58.5 
Q 10.890625 67.625 15.140625 71.796875 
Q 19.390625 75.984375 28.609375 75.984375 
z
" id="DejaVuSans-102"/>
      </defs>
      <g transform="translate(87.879687 229.635219)scale(0.1 -0.1)">
       <use xlink:href="#DejaVuSans-102"/>
       <use x="35.205078" xlink:href="#DejaVuSans-105"/>
       <use x="62.988281" xlink:href="#DejaVuSans-108"/>
       <use x="90.771484" xlink:href="#DejaVuSans-111"/>
       <use x="151.953125" xlink:href="#DejaVuSans-108"/>
       <use x="179.736328" xlink:href="#DejaVuSans-111"/>
       <use x="240.917969" xlink:href="#DejaVuSans-103"/>
       <use x="304.394531" xlink:href="#DejaVuSans-32"/>
       <use x="336.181641" xlink:href="#DejaVuSans-97"/>
       <use x="397.460938" xlink:href="#DejaVuSans-110"/>
       <use x="460.839844" xlink:href="#DejaVuSans-103"/>
       <use x="524.316406" xlink:href="#DejaVuSans-105"/>
       <use x="552.099609" xlink:href="#DejaVuSans-101"/>
       <use x="613.623047" xlink:href="#DejaVuSans-108"/>
       <use x="641.40625" xlink:href="#DejaVuSans-115"/>
       <use x="693.505859" xlink:href="#DejaVuSans-107"/>
       <use x="751.416016" xlink:href="#DejaVuSans-105"/>
      </g>
     </g>
    </g>
    <g id="ytick_6">
     <g id="line2d_13">
      <g>
       <use style="stroke:#000000;stroke-width:0.8;" x="172.8" xlink:href="#md54dfe5843" y="251.545091"/>
      </g>
     </g>
     <g id="text_14">
      <!-- ekspert ds. funduszy -->
      <defs>
       <path d="M 10.6875 12.40625 
L 21 12.40625 
L 21 0 
L 10.6875 0 
z
" id="DejaVuSans-46"/>
      </defs>
      <g transform="translate(61.764062 250.505247)scale(0.1 -0.1)">
       <use xlink:href="#DejaVuSans-101"/>
       <use x="61.523438" xlink:href="#DejaVuSans-107"/>
       <use x="119.433594" xlink:href="#DejaVuSans-115"/>
       <use x="171.533203" xlink:href="#DejaVuSans-112"/>
       <use x="235.009766" xlink:href="#DejaVuSans-101"/>
       <use x="296.533203" xlink:href="#DejaVuSans-114"/>
       <use x="337.646484" xlink:href="#DejaVuSans-116"/>
       <use x="376.855469" xlink:href="#DejaVuSans-32"/>
       <use x="408.642578" xlink:href="#DejaVuSans-100"/>
       <use x="472.119141" xlink:href="#DejaVuSans-115"/>
       <use x="524.21875" xlink:href="#DejaVuSans-46"/>
       <use x="556.005859" xlink:href="#DejaVuSans-32"/>
       <use x="587.792969" xlink:href="#DejaVuSans-102"/>
       <use x="622.998047" xlink:href="#DejaVuSans-117"/>
       <use x="686.376953" xlink:href="#DejaVuSans-110"/>
       <use x="749.755859" xlink:href="#DejaVuSans-100"/>
       <use x="813.232422" xlink:href="#DejaVuSans-117"/>
       <use x="876.611328" xlink:href="#DejaVuSans-115"/>
       <use x="928.710938" xlink:href="#DejaVuSans-122"/>
       <use x="981.201172" xlink:href="#DejaVuSans-121"/>
      </g>
      <!-- europejskich -->
      <g transform="translate(102.189062 261.70306)scale(0.1 -0.1)">
       <use xlink:href="#DejaVuSans-101"/>
       <use x="61.523438" xlink:href="#DejaVuSans-117"/>
       <use x="124.902344" xlink:href="#DejaVuSans-114"/>
       <use x="165.984375" xlink:href="#DejaVuSans-111"/>
       <use x="227.166016" xlink:href="#DejaVuSans-112"/>
       <use x="290.642578" xlink:href="#DejaVuSans-101"/>
       <use x="352.166016" xlink:href="#DejaVuSans-106"/>
       <use x="379.949219" xlink:href="#DejaVuSans-115"/>
       <use x="432.048828" xlink:href="#DejaVuSans-107"/>
       <use x="489.958984" xlink:href="#DejaVuSans-105"/>
       <use x="517.742188" xlink:href="#DejaVuSans-99"/>
       <use x="572.722656" xlink:href="#DejaVuSans-104"/>
      </g>
     </g>
    </g>
    <g id="ytick_7">
     <g id="line2d_14">
      <g>
       <use style="stroke:#000000;stroke-width:0.8;" x="172.8" xlink:href="#md54dfe5843" y="277.254182"/>
      </g>
     </g>
     <g id="text_15">
      <!-- senator -->
      <g transform="translate(127.821875 281.053401)scale(0.1 -0.1)">
       <use xlink:href="#DejaVuSans-115"/>
       <use x="52.099609" xlink:href="#DejaVuSans-101"/>
       <use x="113.623047" xlink:href="#DejaVuSans-110"/>
       <use x="177.001953" xlink:href="#DejaVuSans-97"/>
       <use x="238.28125" xlink:href="#DejaVuSans-116"/>
       <use x="277.490234" xlink:href="#DejaVuSans-111"/>
       <use x="338.671875" xlink:href="#DejaVuSans-114"/>
      </g>
     </g>
    </g>
    <g id="ytick_8">
     <g id="line2d_15">
      <g>
       <use style="stroke:#000000;stroke-width:0.8;" x="172.8" xlink:href="#md54dfe5843" y="302.963273"/>
      </g>
     </g>
     <g id="text_16">
      <!-- parlamentarzysta -->
      <g transform="translate(77.490625 306.762491)scale(0.1 -0.1)">
       <use xlink:href="#DejaVuSans-112"/>
       <use x="63.476562" xlink:href="#DejaVuSans-97"/>
       <use x="124.755859" xlink:href="#DejaVuSans-114"/>
       <use x="165.869141" xlink:href="#DejaVuSans-108"/>
       <use x="193.652344" xlink:href="#DejaVuSans-97"/>
       <use x="254.931641" xlink:href="#DejaVuSans-109"/>
       <use x="352.34375" xlink:href="#DejaVuSans-101"/>
       <use x="413.867188" xlink:href="#DejaVuSans-110"/>
       <use x="477.246094" xlink:href="#DejaVuSans-116"/>
       <use x="516.455078" xlink:href="#DejaVuSans-97"/>
       <use x="577.734375" xlink:href="#DejaVuSans-114"/>
       <use x="618.847656" xlink:href="#DejaVuSans-122"/>
       <use x="671.337891" xlink:href="#DejaVuSans-121"/>
       <use x="730.517578" xlink:href="#DejaVuSans-115"/>
       <use x="782.617188" xlink:href="#DejaVuSans-116"/>
       <use x="821.826172" xlink:href="#DejaVuSans-97"/>
      </g>
     </g>
    </g>
    <g id="ytick_9">
     <g id="line2d_16">
      <g>
       <use style="stroke:#000000;stroke-width:0.8;" x="172.8" xlink:href="#md54dfe5843" y="328.672364"/>
      </g>
     </g>
     <g id="text_17">
      <!-- historyk -->
      <g transform="translate(125.615625 332.471582)scale(0.1 -0.1)">
       <use xlink:href="#DejaVuSans-104"/>
       <use x="63.378906" xlink:href="#DejaVuSans-105"/>
       <use x="91.162109" xlink:href="#DejaVuSans-115"/>
       <use x="143.261719" xlink:href="#DejaVuSans-116"/>
       <use x="182.470703" xlink:href="#DejaVuSans-111"/>
       <use x="243.652344" xlink:href="#DejaVuSans-114"/>
       <use x="284.765625" xlink:href="#DejaVuSans-121"/>
       <use x="343.945312" xlink:href="#DejaVuSans-107"/>
      </g>
     </g>
    </g>
    <g id="ytick_10">
     <g id="line2d_17">
      <g>
       <use style="stroke:#000000;stroke-width:0.8;" x="172.8" xlink:href="#md54dfe5843" y="354.381455"/>
      </g>
     </g>
     <g id="text_18">
      <!-- radczyni prawna -->
      <g transform="translate(83.021875 358.180673)scale(0.1 -0.1)">
       <use xlink:href="#DejaVuSans-114"/>
       <use x="41.113281" xlink:href="#DejaVuSans-97"/>
       <use x="102.392578" xlink:href="#DejaVuSans-100"/>
       <use x="165.869141" xlink:href="#DejaVuSans-99"/>
       <use x="220.849609" xlink:href="#DejaVuSans-122"/>
       <use x="273.339844" xlink:href="#DejaVuSans-121"/>
       <use x="332.519531" xlink:href="#DejaVuSans-110"/>
       <use x="395.898438" xlink:href="#DejaVuSans-105"/>
       <use x="423.681641" xlink:href="#DejaVuSans-32"/>
       <use x="455.46875" xlink:href="#DejaVuSans-112"/>
       <use x="518.945312" xlink:href="#DejaVuSans-114"/>
       <use x="560.058594" xlink:href="#DejaVuSans-97"/>
       <use x="621.337891" xlink:href="#DejaVuSans-119"/>
       <use x="703.125" xlink:href="#DejaVuSans-110"/>
       <use x="766.503906" xlink:href="#DejaVuSans-97"/>
      </g>
     </g>
    </g>
    <g id="ytick_11">
     <g id="line2d_18">
      <g>
       <use style="stroke:#000000;stroke-width:0.8;" x="172.8" xlink:href="#md54dfe5843" y="380.090545"/>
      </g>
     </g>
     <g id="text_19">
      <!-- geodeta -->
      <g transform="translate(124.629687 383.889764)scale(0.1 -0.1)">
       <use xlink:href="#DejaVuSans-103"/>
       <use x="63.476562" xlink:href="#DejaVuSans-101"/>
       <use x="125" xlink:href="#DejaVuSans-111"/>
       <use x="186.181641" xlink:href="#DejaVuSans-100"/>
       <use x="249.658203" xlink:href="#DejaVuSans-101"/>
       <use x="311.181641" xlink:href="#DejaVuSans-116"/>
       <use x="350.390625" xlink:href="#DejaVuSans-97"/>
      </g>
     </g>
    </g>
    <g id="ytick_12">
     <g id="line2d_19">
      <g>
       <use style="stroke:#000000;stroke-width:0.8;" x="172.8" xlink:href="#md54dfe5843" y="405.799636"/>
      </g>
     </g>
     <g id="text_20">
      <!-- poseł na sejm RP -->
      <defs>
       <path d="M 44.390625 34.1875 
Q 47.5625 33.109375 50.5625 29.59375 
Q 53.5625 26.078125 56.59375 19.921875 
L 66.609375 0 
L 56 0 
L 46.6875 18.703125 
Q 43.0625 26.03125 39.671875 28.421875 
Q 36.28125 30.8125 30.421875 30.8125 
L 19.671875 30.8125 
L 19.671875 0 
L 9.8125 0 
L 9.8125 72.90625 
L 32.078125 72.90625 
Q 44.578125 72.90625 50.734375 67.671875 
Q 56.890625 62.453125 56.890625 51.90625 
Q 56.890625 45.015625 53.6875 40.46875 
Q 50.484375 35.9375 44.390625 34.1875 
z
M 19.671875 64.796875 
L 19.671875 38.921875 
L 32.078125 38.921875 
Q 39.203125 38.921875 42.84375 42.21875 
Q 46.484375 45.515625 46.484375 51.90625 
Q 46.484375 58.296875 42.84375 61.546875 
Q 39.203125 64.796875 32.078125 64.796875 
z
" id="DejaVuSans-82"/>
      </defs>
      <g transform="translate(80.26875 409.598855)scale(0.1 -0.1)">
       <use xlink:href="#DejaVuSans-112"/>
       <use x="63.476562" xlink:href="#DejaVuSans-111"/>
       <use x="124.658203" xlink:href="#DejaVuSans-115"/>
       <use x="176.757812" xlink:href="#DejaVuSans-101"/>
       <use x="238.28125" xlink:href="#DejaVuSans-322"/>
       <use x="266.699219" xlink:href="#DejaVuSans-32"/>
       <use x="298.486328" xlink:href="#DejaVuSans-110"/>
       <use x="361.865234" xlink:href="#DejaVuSans-97"/>
       <use x="423.144531" xlink:href="#DejaVuSans-32"/>
       <use x="454.931641" xlink:href="#DejaVuSans-115"/>
       <use x="507.03125" xlink:href="#DejaVuSans-101"/>
       <use x="568.554688" xlink:href="#DejaVuSans-106"/>
       <use x="596.337891" xlink:href="#DejaVuSans-109"/>
       <use x="693.75" xlink:href="#DejaVuSans-32"/>
       <use x="725.537109" xlink:href="#DejaVuSans-82"/>
       <use x="795.019531" xlink:href="#DejaVuSans-80"/>
      </g>
     </g>
    </g>
    <g id="ytick_13">
     <g id="line2d_20">
      <g>
       <use style="stroke:#000000;stroke-width:0.8;" x="172.8" xlink:href="#md54dfe5843" y="431.508727"/>
      </g>
     </g>
     <g id="text_21">
      <!-- przedstawiciel władzy -->
      <g transform="translate(56.326562 430.468884)scale(0.1 -0.1)">
       <use xlink:href="#DejaVuSans-112"/>
       <use x="63.476562" xlink:href="#DejaVuSans-114"/>
       <use x="104.589844" xlink:href="#DejaVuSans-122"/>
       <use x="157.080078" xlink:href="#DejaVuSans-101"/>
       <use x="218.603516" xlink:href="#DejaVuSans-100"/>
       <use x="282.080078" xlink:href="#DejaVuSans-115"/>
       <use x="334.179688" xlink:href="#DejaVuSans-116"/>
       <use x="373.388672" xlink:href="#DejaVuSans-97"/>
       <use x="434.667969" xlink:href="#DejaVuSans-119"/>
       <use x="516.455078" xlink:href="#DejaVuSans-105"/>
       <use x="544.238281" xlink:href="#DejaVuSans-99"/>
       <use x="599.21875" xlink:href="#DejaVuSans-105"/>
       <use x="627.001953" xlink:href="#DejaVuSans-101"/>
       <use x="688.525391" xlink:href="#DejaVuSans-108"/>
       <use x="716.308594" xlink:href="#DejaVuSans-32"/>
       <use x="748.095703" xlink:href="#DejaVuSans-119"/>
       <use x="829.882812" xlink:href="#DejaVuSans-322"/>
       <use x="858.300781" xlink:href="#DejaVuSans-97"/>
       <use x="919.580078" xlink:href="#DejaVuSans-100"/>
       <use x="983.056641" xlink:href="#DejaVuSans-122"/>
       <use x="1035.546875" xlink:href="#DejaVuSans-121"/>
      </g>
      <!-- samorządowej - marszałek -->
      <defs>
       <path d="M 34.28125 27.484375 
Q 23.390625 27.484375 19.1875 25 
Q 14.984375 22.515625 14.984375 16.5 
Q 14.984375 11.71875 18.140625 8.90625 
Q 21.296875 6.109375 26.703125 6.109375 
Q 34.1875 6.109375 38.703125 11.40625 
Q 43.21875 16.703125 43.21875 25.484375 
L 43.21875 27.484375 
z
M 52.203125 31.203125 
L 52.203125 0 
L 43.21875 0 
L 43.21875 8.296875 
Q 40.140625 3.328125 35.546875 0.953125 
Q 30.953125 -1.421875 24.3125 -1.421875 
Q 15.921875 -1.421875 10.953125 3.296875 
Q 6 8.015625 6 15.921875 
Q 6 25.140625 12.171875 29.828125 
Q 18.359375 34.515625 30.609375 34.515625 
L 43.21875 34.515625 
L 43.21875 35.40625 
Q 43.21875 41.609375 39.140625 45 
Q 35.0625 48.390625 27.6875 48.390625 
Q 23 48.390625 18.546875 47.265625 
Q 14.109375 46.140625 10.015625 43.890625 
L 10.015625 52.203125 
Q 14.9375 54.109375 19.578125 55.046875 
Q 24.21875 56 28.609375 56 
Q 40.484375 56 46.34375 49.84375 
Q 52.203125 43.703125 52.203125 31.203125 
z
M 43.359375 0 
L 49.171875 0 
Q 46.96875 -2.984375 45.921875 -5.125 
Q 44.875 -7.28125 44.875 -8.796875 
Q 44.875 -11.03125 46.21875 -12.15625 
Q 47.5625 -13.28125 50.203125 -13.28125 
Q 51.765625 -13.28125 53.265625 -12.90625 
Q 54.78125 -12.546875 56.296875 -11.8125 
L 56.296875 -18.3125 
Q 54.4375 -18.796875 52.78125 -19.03125 
Q 51.125 -19.28125 49.65625 -19.28125 
Q 43.703125 -19.28125 40.890625 -17.15625 
Q 38.09375 -15.046875 38.09375 -10.5 
Q 38.09375 -8.15625 39.375 -5.59375 
Q 40.671875 -3.03125 43.359375 0 
z
" id="DejaVuSans-261"/>
      </defs>
      <g transform="translate(32.223437 441.666696)scale(0.1 -0.1)">
       <use xlink:href="#DejaVuSans-115"/>
       <use x="52.099609" xlink:href="#DejaVuSans-97"/>
       <use x="113.378906" xlink:href="#DejaVuSans-109"/>
       <use x="210.791016" xlink:href="#DejaVuSans-111"/>
       <use x="271.972656" xlink:href="#DejaVuSans-114"/>
       <use x="313.085938" xlink:href="#DejaVuSans-122"/>
       <use x="365.576172" xlink:href="#DejaVuSans-261"/>
       <use x="426.855469" xlink:href="#DejaVuSans-100"/>
       <use x="490.332031" xlink:href="#DejaVuSans-111"/>
       <use x="551.513672" xlink:href="#DejaVuSans-119"/>
       <use x="633.300781" xlink:href="#DejaVuSans-101"/>
       <use x="694.824219" xlink:href="#DejaVuSans-106"/>
       <use x="722.607422" xlink:href="#DejaVuSans-32"/>
       <use x="754.394531" xlink:href="#DejaVuSans-45"/>
       <use x="790.478516" xlink:href="#DejaVuSans-32"/>
       <use x="822.265625" xlink:href="#DejaVuSans-109"/>
       <use x="919.677734" xlink:href="#DejaVuSans-97"/>
       <use x="980.957031" xlink:href="#DejaVuSans-114"/>
       <use x="1022.070312" xlink:href="#DejaVuSans-115"/>
       <use x="1074.169922" xlink:href="#DejaVuSans-122"/>
       <use x="1126.660156" xlink:href="#DejaVuSans-97"/>
       <use x="1187.939453" xlink:href="#DejaVuSans-322"/>
       <use x="1216.357422" xlink:href="#DejaVuSans-101"/>
       <use x="1277.880859" xlink:href="#DejaVuSans-107"/>
      </g>
     </g>
    </g>
    <g id="ytick_14">
     <g id="line2d_21">
      <g>
       <use style="stroke:#000000;stroke-width:0.8;" x="172.8" xlink:href="#md54dfe5843" y="457.217818"/>
      </g>
     </g>
     <g id="text_22">
      <!-- muzyk -->
      <g transform="translate(132.764062 461.017037)scale(0.1 -0.1)">
       <use xlink:href="#DejaVuSans-109"/>
       <use x="97.412109" xlink:href="#DejaVuSans-117"/>
       <use x="160.791016" xlink:href="#DejaVuSans-122"/>
       <use x="213.28125" xlink:href="#DejaVuSans-121"/>
       <use x="272.460938" xlink:href="#DejaVuSans-107"/>
      </g>
     </g>
    </g>
    <g id="ytick_15">
     <g id="line2d_22">
      <g>
       <use style="stroke:#000000;stroke-width:0.8;" x="172.8" xlink:href="#md54dfe5843" y="482.926909"/>
      </g>
     </g>
     <g id="text_23">
      <!-- dyplomata -->
      <g transform="translate(112.370312 486.726128)scale(0.1 -0.1)">
       <use xlink:href="#DejaVuSans-100"/>
       <use x="63.476562" xlink:href="#DejaVuSans-121"/>
       <use x="122.65625" xlink:href="#DejaVuSans-112"/>
       <use x="186.132812" xlink:href="#DejaVuSans-108"/>
       <use x="213.916016" xlink:href="#DejaVuSans-111"/>
       <use x="275.097656" xlink:href="#DejaVuSans-109"/>
       <use x="372.509766" xlink:href="#DejaVuSans-97"/>
       <use x="433.789062" xlink:href="#DejaVuSans-116"/>
       <use x="472.998047" xlink:href="#DejaVuSans-97"/>
      </g>
     </g>
    </g>
    <g id="ytick_16">
     <g id="line2d_23">
      <g>
       <use style="stroke:#000000;stroke-width:0.8;" x="172.8" xlink:href="#md54dfe5843" y="508.636"/>
      </g>
     </g>
     <g id="text_24">
      <!-- lekarz -->
      <g transform="translate(135.592187 512.435219)scale(0.1 -0.1)">
       <use xlink:href="#DejaVuSans-108"/>
       <use x="27.783203" xlink:href="#DejaVuSans-101"/>
       <use x="89.306641" xlink:href="#DejaVuSans-107"/>
       <use x="147.201172" xlink:href="#DejaVuSans-97"/>
       <use x="208.480469" xlink:href="#DejaVuSans-114"/>
       <use x="249.59375" xlink:href="#DejaVuSans-122"/>
      </g>
     </g>
    </g>
    <g id="ytick_17">
     <g id="line2d_24">
      <g>
       <use style="stroke:#000000;stroke-width:0.8;" x="172.8" xlink:href="#md54dfe5843" y="534.345091"/>
      </g>
     </g>
     <g id="text_25">
      <!-- nauczyciel akademicki -->
      <g transform="translate(52.8125 538.14431)scale(0.1 -0.1)">
       <use xlink:href="#DejaVuSans-110"/>
       <use x="63.378906" xlink:href="#DejaVuSans-97"/>
       <use x="124.658203" xlink:href="#DejaVuSans-117"/>
       <use x="188.037109" xlink:href="#DejaVuSans-99"/>
       <use x="243.017578" xlink:href="#DejaVuSans-122"/>
       <use x="295.507812" xlink:href="#DejaVuSans-121"/>
       <use x="354.6875" xlink:href="#DejaVuSans-99"/>
       <use x="409.667969" xlink:href="#DejaVuSans-105"/>
       <use x="437.451172" xlink:href="#DejaVuSans-101"/>
       <use x="498.974609" xlink:href="#DejaVuSans-108"/>
       <use x="526.757812" xlink:href="#DejaVuSans-32"/>
       <use x="558.544922" xlink:href="#DejaVuSans-97"/>
       <use x="619.824219" xlink:href="#DejaVuSans-107"/>
       <use x="677.71875" xlink:href="#DejaVuSans-97"/>
       <use x="738.998047" xlink:href="#DejaVuSans-100"/>
       <use x="802.474609" xlink:href="#DejaVuSans-101"/>
       <use x="863.998047" xlink:href="#DejaVuSans-109"/>
       <use x="961.410156" xlink:href="#DejaVuSans-105"/>
       <use x="989.193359" xlink:href="#DejaVuSans-99"/>
       <use x="1044.173828" xlink:href="#DejaVuSans-107"/>
       <use x="1102.083984" xlink:href="#DejaVuSans-105"/>
      </g>
     </g>
    </g>
    <g id="ytick_18">
     <g id="line2d_25">
      <g>
       <use style="stroke:#000000;stroke-width:0.8;" x="172.8" xlink:href="#md54dfe5843" y="560.054182"/>
      </g>
     </g>
     <g id="text_26">
      <!-- pedagog -->
      <g transform="translate(122.00625 563.853401)scale(0.1 -0.1)">
       <use xlink:href="#DejaVuSans-112"/>
       <use x="63.476562" xlink:href="#DejaVuSans-101"/>
       <use x="125" xlink:href="#DejaVuSans-100"/>
       <use x="188.476562" xlink:href="#DejaVuSans-97"/>
       <use x="249.755859" xlink:href="#DejaVuSans-103"/>
       <use x="313.232422" xlink:href="#DejaVuSans-111"/>
       <use x="374.414062" xlink:href="#DejaVuSans-103"/>
      </g>
     </g>
    </g>
    <g id="ytick_19">
     <g id="line2d_26">
      <g>
       <use style="stroke:#000000;stroke-width:0.8;" x="172.8" xlink:href="#md54dfe5843" y="585.763273"/>
      </g>
     </g>
     <g id="text_27">
      <!-- wykładowca akademicki -->
      <g transform="translate(44.359375 589.562491)scale(0.1 -0.1)">
       <use xlink:href="#DejaVuSans-119"/>
       <use x="81.787109" xlink:href="#DejaVuSans-121"/>
       <use x="140.966797" xlink:href="#DejaVuSans-107"/>
       <use x="198.876953" xlink:href="#DejaVuSans-322"/>
       <use x="227.294922" xlink:href="#DejaVuSans-97"/>
       <use x="288.574219" xlink:href="#DejaVuSans-100"/>
       <use x="352.050781" xlink:href="#DejaVuSans-111"/>
       <use x="413.232422" xlink:href="#DejaVuSans-119"/>
       <use x="495.019531" xlink:href="#DejaVuSans-99"/>
       <use x="550" xlink:href="#DejaVuSans-97"/>
       <use x="611.279297" xlink:href="#DejaVuSans-32"/>
       <use x="643.066406" xlink:href="#DejaVuSans-97"/>
       <use x="704.345703" xlink:href="#DejaVuSans-107"/>
       <use x="762.240234" xlink:href="#DejaVuSans-97"/>
       <use x="823.519531" xlink:href="#DejaVuSans-100"/>
       <use x="886.996094" xlink:href="#DejaVuSans-101"/>
       <use x="948.519531" xlink:href="#DejaVuSans-109"/>
       <use x="1045.931641" xlink:href="#DejaVuSans-105"/>
       <use x="1073.714844" xlink:href="#DejaVuSans-99"/>
       <use x="1128.695312" xlink:href="#DejaVuSans-107"/>
       <use x="1186.605469" xlink:href="#DejaVuSans-105"/>
      </g>
     </g>
    </g>
    <g id="ytick_20">
     <g id="line2d_27">
      <g>
       <use style="stroke:#000000;stroke-width:0.8;" x="172.8" xlink:href="#md54dfe5843" y="611.472364"/>
      </g>
     </g>
     <g id="text_28">
      <!-- etnograf -->
      <g transform="translate(123.1625 615.271582)scale(0.1 -0.1)">
       <use xlink:href="#DejaVuSans-101"/>
       <use x="61.523438" xlink:href="#DejaVuSans-116"/>
       <use x="100.732422" xlink:href="#DejaVuSans-110"/>
       <use x="164.111328" xlink:href="#DejaVuSans-111"/>
       <use x="225.292969" xlink:href="#DejaVuSans-103"/>
       <use x="288.769531" xlink:href="#DejaVuSans-114"/>
       <use x="329.882812" xlink:href="#DejaVuSans-97"/>
       <use x="391.162109" xlink:href="#DejaVuSans-102"/>
      </g>
     </g>
    </g>
    <g id="text_29">
     <!-- Zawód -->
     <defs>
      <path d="M 5.609375 72.90625 
L 62.890625 72.90625 
L 62.890625 65.375 
L 16.796875 8.296875 
L 64.015625 8.296875 
L 64.015625 0 
L 4.5 0 
L 4.5 7.515625 
L 50.59375 64.59375 
L 5.609375 64.59375 
z
" id="DejaVuSans-90"/>
     </defs>
     <g transform="translate(26.14375 384.047719)rotate(-90)scale(0.1 -0.1)">
      <use xlink:href="#DejaVuSans-90"/>
      <use x="68.505859" xlink:href="#DejaVuSans-97"/>
      <use x="129.785156" xlink:href="#DejaVuSans-119"/>
      <use x="211.572266" xlink:href="#DejaVuSans-243"/>
      <use x="272.753906" xlink:href="#DejaVuSans-100"/>
     </g>
    </g>
   </g>
   <g id="patch_23">
    <path d="M 172.8 647.208 
L 172.8 87.264 
" style="fill:none;stroke:#000000;stroke-linecap:square;stroke-linejoin:miter;stroke-width:0.8;"/>
   </g>
   <g id="patch_24">
    <path d="M 1244.16 647.208 
L 1244.16 87.264 
" style="fill:none;stroke:#000000;stroke-linecap:square;stroke-linejoin:miter;stroke-width:0.8;"/>
   </g>
   <g id="patch_25">
    <path d="M 172.8 647.208 
L 1244.16 647.208 
" style="fill:none;stroke:#000000;stroke-linecap:square;stroke-linejoin:miter;stroke-width:0.8;"/>
   </g>
   <g id="patch_26">
    <path d="M 172.8 87.264 
L 1244.16 87.264 
" style="fill:none;stroke:#000000;stroke-linecap:square;stroke-linejoin:miter;stroke-width:0.8;"/>
   </g>
   <g id="text_30">
    <!-- Średnia liczba głosów na zawód -->
    <g transform="translate(613.081875 81.264)scale(0.12 -0.12)">
     <use xlink:href="#DejaVuSans-346"/>
     <use x="63.476562" xlink:href="#DejaVuSans-114"/>
     <use x="104.558594" xlink:href="#DejaVuSans-101"/>
     <use x="166.082031" xlink:href="#DejaVuSans-100"/>
     <use x="229.558594" xlink:href="#DejaVuSans-110"/>
     <use x="292.9375" xlink:href="#DejaVuSans-105"/>
     <use x="320.720703" xlink:href="#DejaVuSans-97"/>
     <use x="382" xlink:href="#DejaVuSans-32"/>
     <use x="413.787109" xlink:href="#DejaVuSans-108"/>
     <use x="441.570312" xlink:href="#DejaVuSans-105"/>
     <use x="469.353516" xlink:href="#DejaVuSans-99"/>
     <use x="524.333984" xlink:href="#DejaVuSans-122"/>
     <use x="576.824219" xlink:href="#DejaVuSans-98"/>
     <use x="640.300781" xlink:href="#DejaVuSans-97"/>
     <use x="701.580078" xlink:href="#DejaVuSans-32"/>
     <use x="733.367188" xlink:href="#DejaVuSans-103"/>
     <use x="796.84375" xlink:href="#DejaVuSans-322"/>
     <use x="825.261719" xlink:href="#DejaVuSans-111"/>
     <use x="886.443359" xlink:href="#DejaVuSans-115"/>
     <use x="938.542969" xlink:href="#DejaVuSans-243"/>
     <use x="999.724609" xlink:href="#DejaVuSans-119"/>
     <use x="1081.511719" xlink:href="#DejaVuSans-32"/>
     <use x="1113.298828" xlink:href="#DejaVuSans-110"/>
     <use x="1176.677734" xlink:href="#DejaVuSans-97"/>
     <use x="1237.957031" xlink:href="#DejaVuSans-32"/>
     <use x="1269.744141" xlink:href="#DejaVuSans-122"/>
     <use x="1322.234375" xlink:href="#DejaVuSans-97"/>
     <use x="1383.513672" xlink:href="#DejaVuSans-119"/>
     <use x="1465.300781" xlink:href="#DejaVuSans-243"/>
     <use x="1526.482422" xlink:href="#DejaVuSans-100"/>
    </g>
   </g>
  </g>
 </g>
 <defs>
  <clipPath id="pa96a73a34e">
   <rect height="559.944" width="1071.36" x="172.8" y="87.264"/>
  </clipPath>
 </defs>
</svg>
