<?xml version="1.0" encoding="utf-8" standalone="no"?>
<!DOCTYPE svg PUBLIC "-//W3C//DTD SVG 1.1//EN"
  "http://www.w3.org/Graphics/SVG/1.1/DTD/svg11.dtd">
<!-- Created with matplotlib (https://matplotlib.org/) -->
<svg height="751.68pt" version="1.1" viewBox="0 0 1382.4 751.68" width="1382.4pt" xmlns="http://www.w3.org/2000/svg" xmlns:xlink="http://www.w3.org/1999/xlink">
 <defs>
  <style type="text/css">
*{stroke-linecap:butt;stroke-linejoin:round;white-space:pre;}
  </style>
 </defs>
 <g id="figure_1">
  <g id="patch_1">
   <path d="M 0 751.68 
L 1382.4 751.68 
L 1382.4 0 
L 0 0 
z
" style="fill:#ffffff;"/>
  </g>
  <g id="axes_1">
   <g id="patch_2">
    <path d="M 172.8 668.9952 
L 1244.16 668.9952 
L 1244.16 90.2016 
L 172.8 90.2016 
z
" style="fill:#ffffff;"/>
   </g>
   <g id="patch_3">
    <path clip-path="url(#p6dee49eaea)" d="M 172.8 116.5104 
L 1193.142857 116.5104 
L 1193.142857 164.344582 
L 172.8 164.344582 
z
" style="fill:#1f77b4;"/>
   </g>
   <g id="patch_4">
    <path clip-path="url(#p6dee49eaea)" d="M 172.8 176.303127 
L 1037.796605 176.303127 
L 1037.796605 224.137309 
L 172.8 224.137309 
z
" style="fill:#1f77b4;"/>
   </g>
   <g id="patch_5">
    <path clip-path="url(#p6dee49eaea)" d="M 172.8 236.095855 
L 309.055128 236.095855 
L 309.055128 283.930036 
L 172.8 283.930036 
z
" style="fill:#1f77b4;"/>
   </g>
   <g id="patch_6">
    <path clip-path="url(#p6dee49eaea)" d="M 172.8 295.888582 
L 275.148984 295.888582 
L 275.148984 343.722764 
L 172.8 343.722764 
z
" style="fill:#1f77b4;"/>
   </g>
   <g id="patch_7">
    <path clip-path="url(#p6dee49eaea)" d="M 172.8 355.681309 
L 256.412035 355.681309 
L 256.412035 403.515491 
L 172.8 403.515491 
z
" style="fill:#1f77b4;"/>
   </g>
   <g id="patch_8">
    <path clip-path="url(#p6dee49eaea)" d="M 172.8 415.474036 
L 200.81851 415.474036 
L 200.81851 463.308218 
L 172.8 463.308218 
z
" style="fill:#1f77b4;"/>
   </g>
   <g id="patch_9">
    <path clip-path="url(#p6dee49eaea)" d="M 172.8 475.266764 
L 199.22169 475.266764 
L 199.22169 523.100945 
L 172.8 523.100945 
z
" style="fill:#1f77b4;"/>
   </g>
   <g id="patch_10">
    <path clip-path="url(#p6dee49eaea)" d="M 172.8 535.059491 
L 182.200662 535.059491 
L 182.200662 582.893673 
L 172.8 582.893673 
z
" style="fill:#1f77b4;"/>
   </g>
   <g id="patch_11">
    <path clip-path="url(#p6dee49eaea)" d="M 172.8 594.852218 
L 177.535791 594.852218 
L 177.535791 642.6864 
L 172.8 642.6864 
z
" style="fill:#1f77b4;"/>
   </g>
   <g id="matplotlib.axis_1">
    <g id="xtick_1">
     <g id="line2d_1">
      <defs>
       <path d="M 0 0 
L 0 3.5 
" id="m9efc1cc299" style="stroke:#000000;stroke-width:0.8;"/>
      </defs>
      <g>
       <use style="stroke:#000000;stroke-width:0.8;" x="172.8" xlink:href="#m9efc1cc299" y="668.9952"/>
      </g>
     </g>
     <g id="text_1">
      <!-- 0 -->
      <defs>
       <path d="M 31.78125 66.40625 
Q 24.171875 66.40625 20.328125 58.90625 
Q 16.5 51.421875 16.5 36.375 
Q 16.5 21.390625 20.328125 13.890625 
Q 24.171875 6.390625 31.78125 6.390625 
Q 39.453125 6.390625 43.28125 13.890625 
Q 47.125 21.390625 47.125 36.375 
Q 47.125 51.421875 43.28125 58.90625 
Q 39.453125 66.40625 31.78125 66.40625 
z
M 31.78125 74.21875 
Q 44.046875 74.21875 50.515625 64.515625 
Q 56.984375 54.828125 56.984375 36.375 
Q 56.984375 17.96875 50.515625 8.265625 
Q 44.046875 -1.421875 31.78125 -1.421875 
Q 19.53125 -1.421875 13.0625 8.265625 
Q 6.59375 17.96875 6.59375 36.375 
Q 6.59375 54.828125 13.0625 64.515625 
Q 19.53125 74.21875 31.78125 74.21875 
z
" id="DejaVuSans-48"/>
      </defs>
      <g transform="translate(169.61875 683.593637)scale(0.1 -0.1)">
       <use xlink:href="#DejaVuSans-48"/>
      </g>
     </g>
    </g>
    <g id="xtick_2">
     <g id="line2d_2">
      <g>
       <use style="stroke:#000000;stroke-width:0.8;" x="386.992288" xlink:href="#m9efc1cc299" y="668.9952"/>
      </g>
     </g>
     <g id="text_2">
      <!-- 10000 -->
      <defs>
       <path d="M 12.40625 8.296875 
L 28.515625 8.296875 
L 28.515625 63.921875 
L 10.984375 60.40625 
L 10.984375 69.390625 
L 28.421875 72.90625 
L 38.28125 72.90625 
L 38.28125 8.296875 
L 54.390625 8.296875 
L 54.390625 0 
L 12.40625 0 
z
" id="DejaVuSans-49"/>
      </defs>
      <g transform="translate(371.086038 683.593637)scale(0.1 -0.1)">
       <use xlink:href="#DejaVuSans-49"/>
       <use x="63.623047" xlink:href="#DejaVuSans-48"/>
       <use x="127.246094" xlink:href="#DejaVuSans-48"/>
       <use x="190.869141" xlink:href="#DejaVuSans-48"/>
       <use x="254.492188" xlink:href="#DejaVuSans-48"/>
      </g>
     </g>
    </g>
    <g id="xtick_3">
     <g id="line2d_3">
      <g>
       <use style="stroke:#000000;stroke-width:0.8;" x="601.184575" xlink:href="#m9efc1cc299" y="668.9952"/>
      </g>
     </g>
     <g id="text_3">
      <!-- 20000 -->
      <defs>
       <path d="M 19.1875 8.296875 
L 53.609375 8.296875 
L 53.609375 0 
L 7.328125 0 
L 7.328125 8.296875 
Q 12.9375 14.109375 22.625 23.890625 
Q 32.328125 33.6875 34.8125 36.53125 
Q 39.546875 41.84375 41.421875 45.53125 
Q 43.3125 49.21875 43.3125 52.78125 
Q 43.3125 58.59375 39.234375 62.25 
Q 35.15625 65.921875 28.609375 65.921875 
Q 23.96875 65.921875 18.8125 64.3125 
Q 13.671875 62.703125 7.8125 59.421875 
L 7.8125 69.390625 
Q 13.765625 71.78125 18.9375 73 
Q 24.125 74.21875 28.421875 74.21875 
Q 39.75 74.21875 46.484375 68.546875 
Q 53.21875 62.890625 53.21875 53.421875 
Q 53.21875 48.921875 51.53125 44.890625 
Q 49.859375 40.875 45.40625 35.40625 
Q 44.1875 33.984375 37.640625 27.21875 
Q 31.109375 20.453125 19.1875 8.296875 
z
" id="DejaVuSans-50"/>
      </defs>
      <g transform="translate(585.278325 683.593637)scale(0.1 -0.1)">
       <use xlink:href="#DejaVuSans-50"/>
       <use x="63.623047" xlink:href="#DejaVuSans-48"/>
       <use x="127.246094" xlink:href="#DejaVuSans-48"/>
       <use x="190.869141" xlink:href="#DejaVuSans-48"/>
       <use x="254.492188" xlink:href="#DejaVuSans-48"/>
      </g>
     </g>
    </g>
    <g id="xtick_4">
     <g id="line2d_4">
      <g>
       <use style="stroke:#000000;stroke-width:0.8;" x="815.376863" xlink:href="#m9efc1cc299" y="668.9952"/>
      </g>
     </g>
     <g id="text_4">
      <!-- 30000 -->
      <defs>
       <path d="M 40.578125 39.3125 
Q 47.65625 37.796875 51.625 33 
Q 55.609375 28.21875 55.609375 21.1875 
Q 55.609375 10.40625 48.1875 4.484375 
Q 40.765625 -1.421875 27.09375 -1.421875 
Q 22.515625 -1.421875 17.65625 -0.515625 
Q 12.796875 0.390625 7.625 2.203125 
L 7.625 11.71875 
Q 11.71875 9.328125 16.59375 8.109375 
Q 21.484375 6.890625 26.8125 6.890625 
Q 36.078125 6.890625 40.9375 10.546875 
Q 45.796875 14.203125 45.796875 21.1875 
Q 45.796875 27.640625 41.28125 31.265625 
Q 36.765625 34.90625 28.71875 34.90625 
L 20.21875 34.90625 
L 20.21875 43.015625 
L 29.109375 43.015625 
Q 36.375 43.015625 40.234375 45.921875 
Q 44.09375 48.828125 44.09375 54.296875 
Q 44.09375 59.90625 40.109375 62.90625 
Q 36.140625 65.921875 28.71875 65.921875 
Q 24.65625 65.921875 20.015625 65.03125 
Q 15.375 64.15625 9.8125 62.3125 
L 9.8125 71.09375 
Q 15.4375 72.65625 20.34375 73.4375 
Q 25.25 74.21875 29.59375 74.21875 
Q 40.828125 74.21875 47.359375 69.109375 
Q 53.90625 64.015625 53.90625 55.328125 
Q 53.90625 49.265625 50.4375 45.09375 
Q 46.96875 40.921875 40.578125 39.3125 
z
" id="DejaVuSans-51"/>
      </defs>
      <g transform="translate(799.470613 683.593637)scale(0.1 -0.1)">
       <use xlink:href="#DejaVuSans-51"/>
       <use x="63.623047" xlink:href="#DejaVuSans-48"/>
       <use x="127.246094" xlink:href="#DejaVuSans-48"/>
       <use x="190.869141" xlink:href="#DejaVuSans-48"/>
       <use x="254.492188" xlink:href="#DejaVuSans-48"/>
      </g>
     </g>
    </g>
    <g id="xtick_5">
     <g id="line2d_5">
      <g>
       <use style="stroke:#000000;stroke-width:0.8;" x="1029.56915" xlink:href="#m9efc1cc299" y="668.9952"/>
      </g>
     </g>
     <g id="text_5">
      <!-- 40000 -->
      <defs>
       <path d="M 37.796875 64.3125 
L 12.890625 25.390625 
L 37.796875 25.390625 
z
M 35.203125 72.90625 
L 47.609375 72.90625 
L 47.609375 25.390625 
L 58.015625 25.390625 
L 58.015625 17.1875 
L 47.609375 17.1875 
L 47.609375 0 
L 37.796875 0 
L 37.796875 17.1875 
L 4.890625 17.1875 
L 4.890625 26.703125 
z
" id="DejaVuSans-52"/>
      </defs>
      <g transform="translate(1013.6629 683.593637)scale(0.1 -0.1)">
       <use xlink:href="#DejaVuSans-52"/>
       <use x="63.623047" xlink:href="#DejaVuSans-48"/>
       <use x="127.246094" xlink:href="#DejaVuSans-48"/>
       <use x="190.869141" xlink:href="#DejaVuSans-48"/>
       <use x="254.492188" xlink:href="#DejaVuSans-48"/>
      </g>
     </g>
    </g>
    <g id="xtick_6">
     <g id="line2d_6">
      <g>
       <use style="stroke:#000000;stroke-width:0.8;" x="1243.761438" xlink:href="#m9efc1cc299" y="668.9952"/>
      </g>
     </g>
     <g id="text_6">
      <!-- 50000 -->
      <defs>
       <path d="M 10.796875 72.90625 
L 49.515625 72.90625 
L 49.515625 64.59375 
L 19.828125 64.59375 
L 19.828125 46.734375 
Q 21.96875 47.46875 24.109375 47.828125 
Q 26.265625 48.1875 28.421875 48.1875 
Q 40.625 48.1875 47.75 41.5 
Q 54.890625 34.8125 54.890625 23.390625 
Q 54.890625 11.625 47.5625 5.09375 
Q 40.234375 -1.421875 26.90625 -1.421875 
Q 22.3125 -1.421875 17.546875 -0.640625 
Q 12.796875 0.140625 7.71875 1.703125 
L 7.71875 11.625 
Q 12.109375 9.234375 16.796875 8.0625 
Q 21.484375 6.890625 26.703125 6.890625 
Q 35.15625 6.890625 40.078125 11.328125 
Q 45.015625 15.765625 45.015625 23.390625 
Q 45.015625 31 40.078125 35.4375 
Q 35.15625 39.890625 26.703125 39.890625 
Q 22.75 39.890625 18.8125 39.015625 
Q 14.890625 38.140625 10.796875 36.28125 
z
" id="DejaVuSans-53"/>
      </defs>
      <g transform="translate(1227.855188 683.593637)scale(0.1 -0.1)">
       <use xlink:href="#DejaVuSans-53"/>
       <use x="63.623047" xlink:href="#DejaVuSans-48"/>
       <use x="127.246094" xlink:href="#DejaVuSans-48"/>
       <use x="190.869141" xlink:href="#DejaVuSans-48"/>
       <use x="254.492188" xlink:href="#DejaVuSans-48"/>
      </g>
     </g>
    </g>
    <g id="text_7">
     <!-- Średnia liczba głosów -->
     <defs>
      <path d="M 34.9375 92.515625 
L 43.96875 92.515625 
L 32.84375 79.625 
L 25.359375 79.625 
z
M 53.515625 70.515625 
L 53.515625 60.890625 
Q 47.90625 63.578125 42.921875 64.890625 
Q 37.9375 66.21875 33.296875 66.21875 
Q 25.25 66.21875 20.875 63.09375 
Q 16.5 59.96875 16.5 54.203125 
Q 16.5 49.359375 19.40625 46.890625 
Q 22.3125 44.4375 30.421875 42.921875 
L 36.375 41.703125 
Q 47.40625 39.59375 52.65625 34.296875 
Q 57.90625 29 57.90625 20.125 
Q 57.90625 9.515625 50.796875 4.046875 
Q 43.703125 -1.421875 29.984375 -1.421875 
Q 24.8125 -1.421875 18.96875 -0.25 
Q 13.140625 0.921875 6.890625 3.21875 
L 6.890625 13.375 
Q 12.890625 10.015625 18.65625 8.296875 
Q 24.421875 6.59375 29.984375 6.59375 
Q 38.421875 6.59375 43.015625 9.90625 
Q 47.609375 13.234375 47.609375 19.390625 
Q 47.609375 24.75 44.3125 27.78125 
Q 41.015625 30.8125 33.5 32.328125 
L 27.484375 33.5 
Q 16.453125 35.6875 11.515625 40.375 
Q 6.59375 45.0625 6.59375 53.421875 
Q 6.59375 63.09375 13.40625 68.65625 
Q 20.21875 74.21875 32.171875 74.21875 
Q 37.3125 74.21875 42.625 73.28125 
Q 47.953125 72.359375 53.515625 70.515625 
z
" id="DejaVuSans-346"/>
      <path d="M 41.109375 46.296875 
Q 39.59375 47.171875 37.8125 47.578125 
Q 36.03125 48 33.890625 48 
Q 26.265625 48 22.1875 43.046875 
Q 18.109375 38.09375 18.109375 28.8125 
L 18.109375 0 
L 9.078125 0 
L 9.078125 54.6875 
L 18.109375 54.6875 
L 18.109375 46.1875 
Q 20.953125 51.171875 25.484375 53.578125 
Q 30.03125 56 36.53125 56 
Q 37.453125 56 38.578125 55.875 
Q 39.703125 55.765625 41.0625 55.515625 
z
" id="DejaVuSans-114"/>
      <path d="M 56.203125 29.59375 
L 56.203125 25.203125 
L 14.890625 25.203125 
Q 15.484375 15.921875 20.484375 11.0625 
Q 25.484375 6.203125 34.421875 6.203125 
Q 39.59375 6.203125 44.453125 7.46875 
Q 49.3125 8.734375 54.109375 11.28125 
L 54.109375 2.78125 
Q 49.265625 0.734375 44.1875 -0.34375 
Q 39.109375 -1.421875 33.890625 -1.421875 
Q 20.796875 -1.421875 13.15625 6.1875 
Q 5.515625 13.8125 5.515625 26.8125 
Q 5.515625 40.234375 12.765625 48.109375 
Q 20.015625 56 32.328125 56 
Q 43.359375 56 49.78125 48.890625 
Q 56.203125 41.796875 56.203125 29.59375 
z
M 47.21875 32.234375 
Q 47.125 39.59375 43.09375 43.984375 
Q 39.0625 48.390625 32.421875 48.390625 
Q 24.90625 48.390625 20.390625 44.140625 
Q 15.875 39.890625 15.1875 32.171875 
z
" id="DejaVuSans-101"/>
      <path d="M 45.40625 46.390625 
L 45.40625 75.984375 
L 54.390625 75.984375 
L 54.390625 0 
L 45.40625 0 
L 45.40625 8.203125 
Q 42.578125 3.328125 38.25 0.953125 
Q 33.9375 -1.421875 27.875 -1.421875 
Q 17.96875 -1.421875 11.734375 6.484375 
Q 5.515625 14.40625 5.515625 27.296875 
Q 5.515625 40.1875 11.734375 48.09375 
Q 17.96875 56 27.875 56 
Q 33.9375 56 38.25 53.625 
Q 42.578125 51.265625 45.40625 46.390625 
z
M 14.796875 27.296875 
Q 14.796875 17.390625 18.875 11.75 
Q 22.953125 6.109375 30.078125 6.109375 
Q 37.203125 6.109375 41.296875 11.75 
Q 45.40625 17.390625 45.40625 27.296875 
Q 45.40625 37.203125 41.296875 42.84375 
Q 37.203125 48.484375 30.078125 48.484375 
Q 22.953125 48.484375 18.875 42.84375 
Q 14.796875 37.203125 14.796875 27.296875 
z
" id="DejaVuSans-100"/>
      <path d="M 54.890625 33.015625 
L 54.890625 0 
L 45.90625 0 
L 45.90625 32.71875 
Q 45.90625 40.484375 42.875 44.328125 
Q 39.84375 48.1875 33.796875 48.1875 
Q 26.515625 48.1875 22.3125 43.546875 
Q 18.109375 38.921875 18.109375 30.90625 
L 18.109375 0 
L 9.078125 0 
L 9.078125 54.6875 
L 18.109375 54.6875 
L 18.109375 46.1875 
Q 21.34375 51.125 25.703125 53.5625 
Q 30.078125 56 35.796875 56 
Q 45.21875 56 50.046875 50.171875 
Q 54.890625 44.34375 54.890625 33.015625 
z
" id="DejaVuSans-110"/>
      <path d="M 9.421875 54.6875 
L 18.40625 54.6875 
L 18.40625 0 
L 9.421875 0 
z
M 9.421875 75.984375 
L 18.40625 75.984375 
L 18.40625 64.59375 
L 9.421875 64.59375 
z
" id="DejaVuSans-105"/>
      <path d="M 34.28125 27.484375 
Q 23.390625 27.484375 19.1875 25 
Q 14.984375 22.515625 14.984375 16.5 
Q 14.984375 11.71875 18.140625 8.90625 
Q 21.296875 6.109375 26.703125 6.109375 
Q 34.1875 6.109375 38.703125 11.40625 
Q 43.21875 16.703125 43.21875 25.484375 
L 43.21875 27.484375 
z
M 52.203125 31.203125 
L 52.203125 0 
L 43.21875 0 
L 43.21875 8.296875 
Q 40.140625 3.328125 35.546875 0.953125 
Q 30.953125 -1.421875 24.3125 -1.421875 
Q 15.921875 -1.421875 10.953125 3.296875 
Q 6 8.015625 6 15.921875 
Q 6 25.140625 12.171875 29.828125 
Q 18.359375 34.515625 30.609375 34.515625 
L 43.21875 34.515625 
L 43.21875 35.40625 
Q 43.21875 41.609375 39.140625 45 
Q 35.0625 48.390625 27.6875 48.390625 
Q 23 48.390625 18.546875 47.265625 
Q 14.109375 46.140625 10.015625 43.890625 
L 10.015625 52.203125 
Q 14.9375 54.109375 19.578125 55.046875 
Q 24.21875 56 28.609375 56 
Q 40.484375 56 46.34375 49.84375 
Q 52.203125 43.703125 52.203125 31.203125 
z
" id="DejaVuSans-97"/>
      <path id="DejaVuSans-32"/>
      <path d="M 9.421875 75.984375 
L 18.40625 75.984375 
L 18.40625 0 
L 9.421875 0 
z
" id="DejaVuSans-108"/>
      <path d="M 48.78125 52.59375 
L 48.78125 44.1875 
Q 44.96875 46.296875 41.140625 47.34375 
Q 37.3125 48.390625 33.40625 48.390625 
Q 24.65625 48.390625 19.8125 42.84375 
Q 14.984375 37.3125 14.984375 27.296875 
Q 14.984375 17.28125 19.8125 11.734375 
Q 24.65625 6.203125 33.40625 6.203125 
Q 37.3125 6.203125 41.140625 7.25 
Q 44.96875 8.296875 48.78125 10.40625 
L 48.78125 2.09375 
Q 45.015625 0.34375 40.984375 -0.53125 
Q 36.96875 -1.421875 32.421875 -1.421875 
Q 20.0625 -1.421875 12.78125 6.34375 
Q 5.515625 14.109375 5.515625 27.296875 
Q 5.515625 40.671875 12.859375 48.328125 
Q 20.21875 56 33.015625 56 
Q 37.15625 56 41.109375 55.140625 
Q 45.0625 54.296875 48.78125 52.59375 
z
" id="DejaVuSans-99"/>
      <path d="M 5.515625 54.6875 
L 48.1875 54.6875 
L 48.1875 46.484375 
L 14.40625 7.171875 
L 48.1875 7.171875 
L 48.1875 0 
L 4.296875 0 
L 4.296875 8.203125 
L 38.09375 47.515625 
L 5.515625 47.515625 
z
" id="DejaVuSans-122"/>
      <path d="M 48.6875 27.296875 
Q 48.6875 37.203125 44.609375 42.84375 
Q 40.53125 48.484375 33.40625 48.484375 
Q 26.265625 48.484375 22.1875 42.84375 
Q 18.109375 37.203125 18.109375 27.296875 
Q 18.109375 17.390625 22.1875 11.75 
Q 26.265625 6.109375 33.40625 6.109375 
Q 40.53125 6.109375 44.609375 11.75 
Q 48.6875 17.390625 48.6875 27.296875 
z
M 18.109375 46.390625 
Q 20.953125 51.265625 25.265625 53.625 
Q 29.59375 56 35.59375 56 
Q 45.5625 56 51.78125 48.09375 
Q 58.015625 40.1875 58.015625 27.296875 
Q 58.015625 14.40625 51.78125 6.484375 
Q 45.5625 -1.421875 35.59375 -1.421875 
Q 29.59375 -1.421875 25.265625 0.953125 
Q 20.953125 3.328125 18.109375 8.203125 
L 18.109375 0 
L 9.078125 0 
L 9.078125 75.984375 
L 18.109375 75.984375 
z
" id="DejaVuSans-98"/>
      <path d="M 45.40625 27.984375 
Q 45.40625 37.75 41.375 43.109375 
Q 37.359375 48.484375 30.078125 48.484375 
Q 22.859375 48.484375 18.828125 43.109375 
Q 14.796875 37.75 14.796875 27.984375 
Q 14.796875 18.265625 18.828125 12.890625 
Q 22.859375 7.515625 30.078125 7.515625 
Q 37.359375 7.515625 41.375 12.890625 
Q 45.40625 18.265625 45.40625 27.984375 
z
M 54.390625 6.78125 
Q 54.390625 -7.171875 48.1875 -13.984375 
Q 42 -20.796875 29.203125 -20.796875 
Q 24.46875 -20.796875 20.265625 -20.09375 
Q 16.0625 -19.390625 12.109375 -17.921875 
L 12.109375 -9.1875 
Q 16.0625 -11.328125 19.921875 -12.34375 
Q 23.78125 -13.375 27.78125 -13.375 
Q 36.625 -13.375 41.015625 -8.765625 
Q 45.40625 -4.15625 45.40625 5.171875 
L 45.40625 9.625 
Q 42.625 4.78125 38.28125 2.390625 
Q 33.9375 0 27.875 0 
Q 17.828125 0 11.671875 7.65625 
Q 5.515625 15.328125 5.515625 27.984375 
Q 5.515625 40.671875 11.671875 48.328125 
Q 17.828125 56 27.875 56 
Q 33.9375 56 38.28125 53.609375 
Q 42.625 51.21875 45.40625 46.390625 
L 45.40625 54.6875 
L 54.390625 54.6875 
z
" id="DejaVuSans-103"/>
      <path d="M 9.71875 75.984375 
L 18.703125 75.984375 
L 18.703125 46.578125 
L 24.8125 50.984375 
L 28.515625 45.796875 
L 18.703125 38.921875 
L 18.703125 0 
L 9.71875 0 
L 9.71875 32.515625 
L 3.71875 28.21875 
L 0.09375 33.40625 
L 9.71875 40.28125 
z
" id="DejaVuSans-322"/>
      <path d="M 30.609375 48.390625 
Q 23.390625 48.390625 19.1875 42.75 
Q 14.984375 37.109375 14.984375 27.296875 
Q 14.984375 17.484375 19.15625 11.84375 
Q 23.34375 6.203125 30.609375 6.203125 
Q 37.796875 6.203125 41.984375 11.859375 
Q 46.1875 17.53125 46.1875 27.296875 
Q 46.1875 37.015625 41.984375 42.703125 
Q 37.796875 48.390625 30.609375 48.390625 
z
M 30.609375 56 
Q 42.328125 56 49.015625 48.375 
Q 55.71875 40.765625 55.71875 27.296875 
Q 55.71875 13.875 49.015625 6.21875 
Q 42.328125 -1.421875 30.609375 -1.421875 
Q 18.84375 -1.421875 12.171875 6.21875 
Q 5.515625 13.875 5.515625 27.296875 
Q 5.515625 40.765625 12.171875 48.375 
Q 18.84375 56 30.609375 56 
z
" id="DejaVuSans-111"/>
      <path d="M 44.28125 53.078125 
L 44.28125 44.578125 
Q 40.484375 46.53125 36.375 47.5 
Q 32.28125 48.484375 27.875 48.484375 
Q 21.1875 48.484375 17.84375 46.4375 
Q 14.5 44.390625 14.5 40.28125 
Q 14.5 37.15625 16.890625 35.375 
Q 19.28125 33.59375 26.515625 31.984375 
L 29.59375 31.296875 
Q 39.15625 29.25 43.1875 25.515625 
Q 47.21875 21.78125 47.21875 15.09375 
Q 47.21875 7.46875 41.1875 3.015625 
Q 35.15625 -1.421875 24.609375 -1.421875 
Q 20.21875 -1.421875 15.453125 -0.5625 
Q 10.6875 0.296875 5.421875 2 
L 5.421875 11.28125 
Q 10.40625 8.6875 15.234375 7.390625 
Q 20.0625 6.109375 24.8125 6.109375 
Q 31.15625 6.109375 34.5625 8.28125 
Q 37.984375 10.453125 37.984375 14.40625 
Q 37.984375 18.0625 35.515625 20.015625 
Q 33.0625 21.96875 24.703125 23.78125 
L 21.578125 24.515625 
Q 13.234375 26.265625 9.515625 29.90625 
Q 5.8125 33.546875 5.8125 39.890625 
Q 5.8125 47.609375 11.28125 51.796875 
Q 16.75 56 26.8125 56 
Q 31.78125 56 36.171875 55.265625 
Q 40.578125 54.546875 44.28125 53.078125 
z
" id="DejaVuSans-115"/>
      <path d="M 30.609375 48.390625 
Q 23.390625 48.390625 19.1875 42.75 
Q 14.984375 37.109375 14.984375 27.296875 
Q 14.984375 17.484375 19.15625 11.84375 
Q 23.34375 6.203125 30.609375 6.203125 
Q 37.796875 6.203125 41.984375 11.859375 
Q 46.1875 17.53125 46.1875 27.296875 
Q 46.1875 37.015625 41.984375 42.703125 
Q 37.796875 48.390625 30.609375 48.390625 
z
M 30.609375 56 
Q 42.328125 56 49.015625 48.375 
Q 55.71875 40.765625 55.71875 27.296875 
Q 55.71875 13.875 49.015625 6.21875 
Q 42.328125 -1.421875 30.609375 -1.421875 
Q 18.84375 -1.421875 12.171875 6.21875 
Q 5.515625 13.875 5.515625 27.296875 
Q 5.515625 40.765625 12.171875 48.375 
Q 18.84375 56 30.609375 56 
z
M 37.40625 79.984375 
L 47.125 79.984375 
L 31.21875 61.625 
L 23.734375 61.625 
z
" id="DejaVuSans-243"/>
      <path d="M 4.203125 54.6875 
L 13.1875 54.6875 
L 24.421875 12.015625 
L 35.59375 54.6875 
L 46.1875 54.6875 
L 57.421875 12.015625 
L 68.609375 54.6875 
L 77.59375 54.6875 
L 63.28125 0 
L 52.6875 0 
L 40.921875 44.828125 
L 29.109375 0 
L 18.5 0 
z
" id="DejaVuSans-119"/>
     </defs>
     <g transform="translate(654.403437 698.924887)scale(0.1 -0.1)">
      <use xlink:href="#DejaVuSans-346"/>
      <use x="63.476562" xlink:href="#DejaVuSans-114"/>
      <use x="104.558594" xlink:href="#DejaVuSans-101"/>
      <use x="166.082031" xlink:href="#DejaVuSans-100"/>
      <use x="229.558594" xlink:href="#DejaVuSans-110"/>
      <use x="292.9375" xlink:href="#DejaVuSans-105"/>
      <use x="320.720703" xlink:href="#DejaVuSans-97"/>
      <use x="382" xlink:href="#DejaVuSans-32"/>
      <use x="413.787109" xlink:href="#DejaVuSans-108"/>
      <use x="441.570312" xlink:href="#DejaVuSans-105"/>
      <use x="469.353516" xlink:href="#DejaVuSans-99"/>
      <use x="524.333984" xlink:href="#DejaVuSans-122"/>
      <use x="576.824219" xlink:href="#DejaVuSans-98"/>
      <use x="640.300781" xlink:href="#DejaVuSans-97"/>
      <use x="701.580078" xlink:href="#DejaVuSans-32"/>
      <use x="733.367188" xlink:href="#DejaVuSans-103"/>
      <use x="796.84375" xlink:href="#DejaVuSans-322"/>
      <use x="825.261719" xlink:href="#DejaVuSans-111"/>
      <use x="886.443359" xlink:href="#DejaVuSans-115"/>
      <use x="938.542969" xlink:href="#DejaVuSans-243"/>
      <use x="999.724609" xlink:href="#DejaVuSans-119"/>
     </g>
    </g>
   </g>
   <g id="matplotlib.axis_2">
    <g id="ytick_1">
     <g id="line2d_7">
      <defs>
       <path d="M 0 0 
L -3.5 0 
" id="m38962cd765" style="stroke:#000000;stroke-width:0.8;"/>
      </defs>
      <g>
       <use style="stroke:#000000;stroke-width:0.8;" x="172.8" xlink:href="#m38962cd765" y="140.427491"/>
      </g>
     </g>
     <g id="text_8">
      <!-- KOMITET WYBORCZY PRAWO I -->
      <defs>
       <path d="M 9.8125 72.90625 
L 19.671875 72.90625 
L 19.671875 42.09375 
L 52.390625 72.90625 
L 65.09375 72.90625 
L 28.90625 38.921875 
L 67.671875 0 
L 54.6875 0 
L 19.671875 35.109375 
L 19.671875 0 
L 9.8125 0 
z
" id="DejaVuSans-75"/>
       <path d="M 39.40625 66.21875 
Q 28.65625 66.21875 22.328125 58.203125 
Q 16.015625 50.203125 16.015625 36.375 
Q 16.015625 22.609375 22.328125 14.59375 
Q 28.65625 6.59375 39.40625 6.59375 
Q 50.140625 6.59375 56.421875 14.59375 
Q 62.703125 22.609375 62.703125 36.375 
Q 62.703125 50.203125 56.421875 58.203125 
Q 50.140625 66.21875 39.40625 66.21875 
z
M 39.40625 74.21875 
Q 54.734375 74.21875 63.90625 63.9375 
Q 73.09375 53.65625 73.09375 36.375 
Q 73.09375 19.140625 63.90625 8.859375 
Q 54.734375 -1.421875 39.40625 -1.421875 
Q 24.03125 -1.421875 14.8125 8.828125 
Q 5.609375 19.09375 5.609375 36.375 
Q 5.609375 53.65625 14.8125 63.9375 
Q 24.03125 74.21875 39.40625 74.21875 
z
" id="DejaVuSans-79"/>
       <path d="M 9.8125 72.90625 
L 24.515625 72.90625 
L 43.109375 23.296875 
L 61.8125 72.90625 
L 76.515625 72.90625 
L 76.515625 0 
L 66.890625 0 
L 66.890625 64.015625 
L 48.09375 14.015625 
L 38.1875 14.015625 
L 19.390625 64.015625 
L 19.390625 0 
L 9.8125 0 
z
" id="DejaVuSans-77"/>
       <path d="M 9.8125 72.90625 
L 19.671875 72.90625 
L 19.671875 0 
L 9.8125 0 
z
" id="DejaVuSans-73"/>
       <path d="M -0.296875 72.90625 
L 61.375 72.90625 
L 61.375 64.59375 
L 35.5 64.59375 
L 35.5 0 
L 25.59375 0 
L 25.59375 64.59375 
L -0.296875 64.59375 
z
" id="DejaVuSans-84"/>
       <path d="M 9.8125 72.90625 
L 55.90625 72.90625 
L 55.90625 64.59375 
L 19.671875 64.59375 
L 19.671875 43.015625 
L 54.390625 43.015625 
L 54.390625 34.71875 
L 19.671875 34.71875 
L 19.671875 8.296875 
L 56.78125 8.296875 
L 56.78125 0 
L 9.8125 0 
z
" id="DejaVuSans-69"/>
       <path d="M 3.328125 72.90625 
L 13.28125 72.90625 
L 28.609375 11.28125 
L 43.890625 72.90625 
L 54.984375 72.90625 
L 70.3125 11.28125 
L 85.59375 72.90625 
L 95.609375 72.90625 
L 77.296875 0 
L 64.890625 0 
L 49.515625 63.28125 
L 33.984375 0 
L 21.578125 0 
z
" id="DejaVuSans-87"/>
       <path d="M -0.203125 72.90625 
L 10.40625 72.90625 
L 30.609375 42.921875 
L 50.6875 72.90625 
L 61.28125 72.90625 
L 35.5 34.71875 
L 35.5 0 
L 25.59375 0 
L 25.59375 34.71875 
z
" id="DejaVuSans-89"/>
       <path d="M 19.671875 34.8125 
L 19.671875 8.109375 
L 35.5 8.109375 
Q 43.453125 8.109375 47.28125 11.40625 
Q 51.125 14.703125 51.125 21.484375 
Q 51.125 28.328125 47.28125 31.5625 
Q 43.453125 34.8125 35.5 34.8125 
z
M 19.671875 64.796875 
L 19.671875 42.828125 
L 34.28125 42.828125 
Q 41.5 42.828125 45.03125 45.53125 
Q 48.578125 48.25 48.578125 53.8125 
Q 48.578125 59.328125 45.03125 62.0625 
Q 41.5 64.796875 34.28125 64.796875 
z
M 9.8125 72.90625 
L 35.015625 72.90625 
Q 46.296875 72.90625 52.390625 68.21875 
Q 58.5 63.53125 58.5 54.890625 
Q 58.5 48.1875 55.375 44.234375 
Q 52.25 40.28125 46.1875 39.3125 
Q 53.46875 37.75 57.5 32.78125 
Q 61.53125 27.828125 61.53125 20.40625 
Q 61.53125 10.640625 54.890625 5.3125 
Q 48.25 0 35.984375 0 
L 9.8125 0 
z
" id="DejaVuSans-66"/>
       <path d="M 44.390625 34.1875 
Q 47.5625 33.109375 50.5625 29.59375 
Q 53.5625 26.078125 56.59375 19.921875 
L 66.609375 0 
L 56 0 
L 46.6875 18.703125 
Q 43.0625 26.03125 39.671875 28.421875 
Q 36.28125 30.8125 30.421875 30.8125 
L 19.671875 30.8125 
L 19.671875 0 
L 9.8125 0 
L 9.8125 72.90625 
L 32.078125 72.90625 
Q 44.578125 72.90625 50.734375 67.671875 
Q 56.890625 62.453125 56.890625 51.90625 
Q 56.890625 45.015625 53.6875 40.46875 
Q 50.484375 35.9375 44.390625 34.1875 
z
M 19.671875 64.796875 
L 19.671875 38.921875 
L 32.078125 38.921875 
Q 39.203125 38.921875 42.84375 42.21875 
Q 46.484375 45.515625 46.484375 51.90625 
Q 46.484375 58.296875 42.84375 61.546875 
Q 39.203125 64.796875 32.078125 64.796875 
z
" id="DejaVuSans-82"/>
       <path d="M 64.40625 67.28125 
L 64.40625 56.890625 
Q 59.421875 61.53125 53.78125 63.8125 
Q 48.140625 66.109375 41.796875 66.109375 
Q 29.296875 66.109375 22.65625 58.46875 
Q 16.015625 50.828125 16.015625 36.375 
Q 16.015625 21.96875 22.65625 14.328125 
Q 29.296875 6.6875 41.796875 6.6875 
Q 48.140625 6.6875 53.78125 8.984375 
Q 59.421875 11.28125 64.40625 15.921875 
L 64.40625 5.609375 
Q 59.234375 2.09375 53.4375 0.328125 
Q 47.65625 -1.421875 41.21875 -1.421875 
Q 24.65625 -1.421875 15.125 8.703125 
Q 5.609375 18.84375 5.609375 36.375 
Q 5.609375 53.953125 15.125 64.078125 
Q 24.65625 74.21875 41.21875 74.21875 
Q 47.75 74.21875 53.53125 72.484375 
Q 59.328125 70.75 64.40625 67.28125 
z
" id="DejaVuSans-67"/>
       <path d="M 5.609375 72.90625 
L 62.890625 72.90625 
L 62.890625 65.375 
L 16.796875 8.296875 
L 64.015625 8.296875 
L 64.015625 0 
L 4.5 0 
L 4.5 7.515625 
L 50.59375 64.59375 
L 5.609375 64.59375 
z
" id="DejaVuSans-90"/>
       <path d="M 19.671875 64.796875 
L 19.671875 37.40625 
L 32.078125 37.40625 
Q 38.96875 37.40625 42.71875 40.96875 
Q 46.484375 44.53125 46.484375 51.125 
Q 46.484375 57.671875 42.71875 61.234375 
Q 38.96875 64.796875 32.078125 64.796875 
z
M 9.8125 72.90625 
L 32.078125 72.90625 
Q 44.34375 72.90625 50.609375 67.359375 
Q 56.890625 61.8125 56.890625 51.125 
Q 56.890625 40.328125 50.609375 34.8125 
Q 44.34375 29.296875 32.078125 29.296875 
L 19.671875 29.296875 
L 19.671875 0 
L 9.8125 0 
z
" id="DejaVuSans-80"/>
       <path d="M 34.1875 63.1875 
L 20.796875 26.90625 
L 47.609375 26.90625 
z
M 28.609375 72.90625 
L 39.796875 72.90625 
L 67.578125 0 
L 57.328125 0 
L 50.6875 18.703125 
L 17.828125 18.703125 
L 11.1875 0 
L 0.78125 0 
z
" id="DejaVuSans-65"/>
      </defs>
      <g transform="translate(13.609375 139.387647)scale(0.1 -0.1)">
       <use xlink:href="#DejaVuSans-75"/>
       <use x="65.498047" xlink:href="#DejaVuSans-79"/>
       <use x="144.208984" xlink:href="#DejaVuSans-77"/>
       <use x="230.488281" xlink:href="#DejaVuSans-73"/>
       <use x="259.980469" xlink:href="#DejaVuSans-84"/>
       <use x="321.064453" xlink:href="#DejaVuSans-69"/>
       <use x="384.248047" xlink:href="#DejaVuSans-84"/>
       <use x="445.332031" xlink:href="#DejaVuSans-32"/>
       <use x="477.119141" xlink:href="#DejaVuSans-87"/>
       <use x="575.996094" xlink:href="#DejaVuSans-89"/>
       <use x="637.080078" xlink:href="#DejaVuSans-66"/>
       <use x="705.667969" xlink:href="#DejaVuSans-79"/>
       <use x="784.378906" xlink:href="#DejaVuSans-82"/>
       <use x="853.783203" xlink:href="#DejaVuSans-67"/>
       <use x="923.607422" xlink:href="#DejaVuSans-90"/>
       <use x="992.113281" xlink:href="#DejaVuSans-89"/>
       <use x="1053.197266" xlink:href="#DejaVuSans-32"/>
       <use x="1084.984375" xlink:href="#DejaVuSans-80"/>
       <use x="1145.287109" xlink:href="#DejaVuSans-82"/>
       <use x="1214.707031" xlink:href="#DejaVuSans-65"/>
       <use x="1283.037109" xlink:href="#DejaVuSans-87"/>
       <use x="1381.914062" xlink:href="#DejaVuSans-79"/>
       <use x="1460.625" xlink:href="#DejaVuSans-32"/>
       <use x="1492.412109" xlink:href="#DejaVuSans-73"/>
      </g>
      <!-- SPRAWIEDLIWOŚĆ -->
      <defs>
       <path d="M 53.515625 70.515625 
L 53.515625 60.890625 
Q 47.90625 63.578125 42.921875 64.890625 
Q 37.9375 66.21875 33.296875 66.21875 
Q 25.25 66.21875 20.875 63.09375 
Q 16.5 59.96875 16.5 54.203125 
Q 16.5 49.359375 19.40625 46.890625 
Q 22.3125 44.4375 30.421875 42.921875 
L 36.375 41.703125 
Q 47.40625 39.59375 52.65625 34.296875 
Q 57.90625 29 57.90625 20.125 
Q 57.90625 9.515625 50.796875 4.046875 
Q 43.703125 -1.421875 29.984375 -1.421875 
Q 24.8125 -1.421875 18.96875 -0.25 
Q 13.140625 0.921875 6.890625 3.21875 
L 6.890625 13.375 
Q 12.890625 10.015625 18.65625 8.296875 
Q 24.421875 6.59375 29.984375 6.59375 
Q 38.421875 6.59375 43.015625 9.90625 
Q 47.609375 13.234375 47.609375 19.390625 
Q 47.609375 24.75 44.3125 27.78125 
Q 41.015625 30.8125 33.5 32.328125 
L 27.484375 33.5 
Q 16.453125 35.6875 11.515625 40.375 
Q 6.59375 45.0625 6.59375 53.421875 
Q 6.59375 63.09375 13.40625 68.65625 
Q 20.21875 74.21875 32.171875 74.21875 
Q 37.3125 74.21875 42.625 73.28125 
Q 47.953125 72.359375 53.515625 70.515625 
z
" id="DejaVuSans-83"/>
       <path d="M 19.671875 64.796875 
L 19.671875 8.109375 
L 31.59375 8.109375 
Q 46.6875 8.109375 53.6875 14.9375 
Q 60.6875 21.78125 60.6875 36.53125 
Q 60.6875 51.171875 53.6875 57.984375 
Q 46.6875 64.796875 31.59375 64.796875 
z
M 9.8125 72.90625 
L 30.078125 72.90625 
Q 51.265625 72.90625 61.171875 64.09375 
Q 71.09375 55.28125 71.09375 36.53125 
Q 71.09375 17.671875 61.125 8.828125 
Q 51.171875 0 30.078125 0 
L 9.8125 0 
z
" id="DejaVuSans-68"/>
       <path d="M 9.8125 72.90625 
L 19.671875 72.90625 
L 19.671875 8.296875 
L 55.171875 8.296875 
L 55.171875 0 
L 9.8125 0 
z
" id="DejaVuSans-76"/>
       <path d="M 64.40625 67.28125 
L 64.40625 56.890625 
Q 59.421875 61.53125 53.78125 63.8125 
Q 48.140625 66.109375 41.796875 66.109375 
Q 29.296875 66.109375 22.65625 58.46875 
Q 16.015625 50.828125 16.015625 36.375 
Q 16.015625 21.96875 22.65625 14.328125 
Q 29.296875 6.6875 41.796875 6.6875 
Q 48.140625 6.6875 53.78125 8.984375 
Q 59.421875 11.28125 64.40625 15.921875 
L 64.40625 5.609375 
Q 59.234375 2.09375 53.4375 0.328125 
Q 47.65625 -1.421875 41.21875 -1.421875 
Q 24.65625 -1.421875 15.125 8.703125 
Q 5.609375 18.84375 5.609375 36.375 
Q 5.609375 53.953125 15.125 64.078125 
Q 24.65625 74.21875 41.21875 74.21875 
Q 47.75 74.21875 53.53125 72.484375 
Q 59.328125 70.75 64.40625 67.28125 
z
M 42.4375 92.515625 
L 51.46875 92.515625 
L 40.34375 79.625 
L 32.859375 79.625 
z
" id="DejaVuSans-262"/>
      </defs>
      <g transform="translate(73.178125 150.58546)scale(0.1 -0.1)">
       <use xlink:href="#DejaVuSans-83"/>
       <use x="63.476562" xlink:href="#DejaVuSans-80"/>
       <use x="123.779297" xlink:href="#DejaVuSans-82"/>
       <use x="193.199219" xlink:href="#DejaVuSans-65"/>
       <use x="261.529297" xlink:href="#DejaVuSans-87"/>
       <use x="360.40625" xlink:href="#DejaVuSans-73"/>
       <use x="389.898438" xlink:href="#DejaVuSans-69"/>
       <use x="453.082031" xlink:href="#DejaVuSans-68"/>
       <use x="530.083984" xlink:href="#DejaVuSans-76"/>
       <use x="585.796875" xlink:href="#DejaVuSans-73"/>
       <use x="615.289062" xlink:href="#DejaVuSans-87"/>
       <use x="714.166016" xlink:href="#DejaVuSans-79"/>
       <use x="792.876953" xlink:href="#DejaVuSans-346"/>
       <use x="856.353516" xlink:href="#DejaVuSans-262"/>
      </g>
     </g>
    </g>
    <g id="ytick_2">
     <g id="line2d_8">
      <g>
       <use style="stroke:#000000;stroke-width:0.8;" x="172.8" xlink:href="#m38962cd765" y="200.220218"/>
      </g>
     </g>
     <g id="text_9">
      <!-- KOALICYJNY KOMITET -->
      <defs>
       <path d="M 9.8125 72.90625 
L 19.671875 72.90625 
L 19.671875 5.078125 
Q 19.671875 -8.109375 14.671875 -14.0625 
Q 9.671875 -20.015625 -1.421875 -20.015625 
L -5.171875 -20.015625 
L -5.171875 -11.71875 
L -2.09375 -11.71875 
Q 4.4375 -11.71875 7.125 -8.046875 
Q 9.8125 -4.390625 9.8125 5.078125 
z
" id="DejaVuSans-74"/>
       <path d="M 9.8125 72.90625 
L 23.09375 72.90625 
L 55.421875 11.921875 
L 55.421875 72.90625 
L 64.984375 72.90625 
L 64.984375 0 
L 51.703125 0 
L 19.390625 60.984375 
L 19.390625 0 
L 9.8125 0 
z
" id="DejaVuSans-78"/>
      </defs>
      <g transform="translate(58.676562 199.180374)scale(0.1 -0.1)">
       <use xlink:href="#DejaVuSans-75"/>
       <use x="65.498047" xlink:href="#DejaVuSans-79"/>
       <use x="144.193359" xlink:href="#DejaVuSans-65"/>
       <use x="212.601562" xlink:href="#DejaVuSans-76"/>
       <use x="268.314453" xlink:href="#DejaVuSans-73"/>
       <use x="297.806641" xlink:href="#DejaVuSans-67"/>
       <use x="367.615234" xlink:href="#DejaVuSans-89"/>
       <use x="428.699219" xlink:href="#DejaVuSans-74"/>
       <use x="458.191406" xlink:href="#DejaVuSans-78"/>
       <use x="532.996094" xlink:href="#DejaVuSans-89"/>
       <use x="594.080078" xlink:href="#DejaVuSans-32"/>
       <use x="625.867188" xlink:href="#DejaVuSans-75"/>
       <use x="691.365234" xlink:href="#DejaVuSans-79"/>
       <use x="770.076172" xlink:href="#DejaVuSans-77"/>
       <use x="856.355469" xlink:href="#DejaVuSans-73"/>
       <use x="885.847656" xlink:href="#DejaVuSans-84"/>
       <use x="946.931641" xlink:href="#DejaVuSans-69"/>
       <use x="1010.115234" xlink:href="#DejaVuSans-84"/>
      </g>
      <!-- WYBORCZY KOALICJA EUROPEJSKA PO PSL SLD .N ZIELONI -->
      <defs>
       <path d="M 8.6875 72.90625 
L 18.609375 72.90625 
L 18.609375 28.609375 
Q 18.609375 16.890625 22.84375 11.734375 
Q 27.09375 6.59375 36.625 6.59375 
Q 46.09375 6.59375 50.34375 11.734375 
Q 54.59375 16.890625 54.59375 28.609375 
L 54.59375 72.90625 
L 64.5 72.90625 
L 64.5 27.390625 
Q 64.5 13.140625 57.4375 5.859375 
Q 50.390625 -1.421875 36.625 -1.421875 
Q 22.796875 -1.421875 15.734375 5.859375 
Q 8.6875 13.140625 8.6875 27.390625 
z
" id="DejaVuSans-85"/>
       <path d="M 10.6875 12.40625 
L 21 12.40625 
L 21 0 
L 10.6875 0 
z
" id="DejaVuSans-46"/>
      </defs>
      <g transform="translate(-126.23125 210.378187)scale(0.1 -0.1)">
       <use xlink:href="#DejaVuSans-87"/>
       <use x="98.876953" xlink:href="#DejaVuSans-89"/>
       <use x="159.960938" xlink:href="#DejaVuSans-66"/>
       <use x="228.548828" xlink:href="#DejaVuSans-79"/>
       <use x="307.259766" xlink:href="#DejaVuSans-82"/>
       <use x="376.664062" xlink:href="#DejaVuSans-67"/>
       <use x="446.488281" xlink:href="#DejaVuSans-90"/>
       <use x="514.994141" xlink:href="#DejaVuSans-89"/>
       <use x="576.078125" xlink:href="#DejaVuSans-32"/>
       <use x="607.865234" xlink:href="#DejaVuSans-75"/>
       <use x="673.363281" xlink:href="#DejaVuSans-79"/>
       <use x="752.058594" xlink:href="#DejaVuSans-65"/>
       <use x="820.466797" xlink:href="#DejaVuSans-76"/>
       <use x="876.179688" xlink:href="#DejaVuSans-73"/>
       <use x="905.671875" xlink:href="#DejaVuSans-67"/>
       <use x="975.496094" xlink:href="#DejaVuSans-74"/>
       <use x="1004.972656" xlink:href="#DejaVuSans-65"/>
       <use x="1073.380859" xlink:href="#DejaVuSans-32"/>
       <use x="1105.167969" xlink:href="#DejaVuSans-69"/>
       <use x="1168.351562" xlink:href="#DejaVuSans-85"/>
       <use x="1241.544922" xlink:href="#DejaVuSans-82"/>
       <use x="1311.027344" xlink:href="#DejaVuSans-79"/>
       <use x="1389.738281" xlink:href="#DejaVuSans-80"/>
       <use x="1450.041016" xlink:href="#DejaVuSans-69"/>
       <use x="1513.224609" xlink:href="#DejaVuSans-74"/>
       <use x="1542.716797" xlink:href="#DejaVuSans-83"/>
       <use x="1606.193359" xlink:href="#DejaVuSans-75"/>
       <use x="1671.753906" xlink:href="#DejaVuSans-65"/>
       <use x="1740.162109" xlink:href="#DejaVuSans-32"/>
       <use x="1771.949219" xlink:href="#DejaVuSans-80"/>
       <use x="1832.251953" xlink:href="#DejaVuSans-79"/>
       <use x="1910.962891" xlink:href="#DejaVuSans-32"/>
       <use x="1942.75" xlink:href="#DejaVuSans-80"/>
       <use x="2003.052734" xlink:href="#DejaVuSans-83"/>
       <use x="2066.529297" xlink:href="#DejaVuSans-76"/>
       <use x="2122.242188" xlink:href="#DejaVuSans-32"/>
       <use x="2154.029297" xlink:href="#DejaVuSans-83"/>
       <use x="2217.505859" xlink:href="#DejaVuSans-76"/>
       <use x="2273.21875" xlink:href="#DejaVuSans-68"/>
       <use x="2350.220703" xlink:href="#DejaVuSans-32"/>
       <use x="2382.007812" xlink:href="#DejaVuSans-46"/>
       <use x="2413.794922" xlink:href="#DejaVuSans-78"/>
       <use x="2488.599609" xlink:href="#DejaVuSans-32"/>
       <use x="2520.386719" xlink:href="#DejaVuSans-90"/>
       <use x="2588.892578" xlink:href="#DejaVuSans-73"/>
       <use x="2618.384766" xlink:href="#DejaVuSans-69"/>
       <use x="2681.568359" xlink:href="#DejaVuSans-76"/>
       <use x="2737.234375" xlink:href="#DejaVuSans-79"/>
       <use x="2815.945312" xlink:href="#DejaVuSans-78"/>
       <use x="2890.75" xlink:href="#DejaVuSans-73"/>
      </g>
     </g>
    </g>
    <g id="ytick_3">
     <g id="line2d_9">
      <g>
       <use style="stroke:#000000;stroke-width:0.8;" x="172.8" xlink:href="#m38962cd765" y="260.012945"/>
      </g>
     </g>
     <g id="text_10">
      <!-- KOMITET WYBORCZY WIOSNA -->
      <g transform="translate(15.921875 258.973102)scale(0.1 -0.1)">
       <use xlink:href="#DejaVuSans-75"/>
       <use x="65.498047" xlink:href="#DejaVuSans-79"/>
       <use x="144.208984" xlink:href="#DejaVuSans-77"/>
       <use x="230.488281" xlink:href="#DejaVuSans-73"/>
       <use x="259.980469" xlink:href="#DejaVuSans-84"/>
       <use x="321.064453" xlink:href="#DejaVuSans-69"/>
       <use x="384.248047" xlink:href="#DejaVuSans-84"/>
       <use x="445.332031" xlink:href="#DejaVuSans-32"/>
       <use x="477.119141" xlink:href="#DejaVuSans-87"/>
       <use x="575.996094" xlink:href="#DejaVuSans-89"/>
       <use x="637.080078" xlink:href="#DejaVuSans-66"/>
       <use x="705.667969" xlink:href="#DejaVuSans-79"/>
       <use x="784.378906" xlink:href="#DejaVuSans-82"/>
       <use x="853.783203" xlink:href="#DejaVuSans-67"/>
       <use x="923.607422" xlink:href="#DejaVuSans-90"/>
       <use x="992.113281" xlink:href="#DejaVuSans-89"/>
       <use x="1053.197266" xlink:href="#DejaVuSans-32"/>
       <use x="1084.984375" xlink:href="#DejaVuSans-87"/>
       <use x="1183.861328" xlink:href="#DejaVuSans-73"/>
       <use x="1213.353516" xlink:href="#DejaVuSans-79"/>
       <use x="1292.064453" xlink:href="#DejaVuSans-83"/>
       <use x="1355.541016" xlink:href="#DejaVuSans-78"/>
       <use x="1430.345703" xlink:href="#DejaVuSans-65"/>
      </g>
      <!-- ROBERTA BIEDRONIA -->
      <g transform="translate(58.825 270.170914)scale(0.1 -0.1)">
       <use xlink:href="#DejaVuSans-82"/>
       <use x="69.482422" xlink:href="#DejaVuSans-79"/>
       <use x="148.193359" xlink:href="#DejaVuSans-66"/>
       <use x="216.796875" xlink:href="#DejaVuSans-69"/>
       <use x="279.980469" xlink:href="#DejaVuSans-82"/>
       <use x="349.353516" xlink:href="#DejaVuSans-84"/>
       <use x="410.328125" xlink:href="#DejaVuSans-65"/>
       <use x="478.736328" xlink:href="#DejaVuSans-32"/>
       <use x="510.523438" xlink:href="#DejaVuSans-66"/>
       <use x="579.126953" xlink:href="#DejaVuSans-73"/>
       <use x="608.619141" xlink:href="#DejaVuSans-69"/>
       <use x="671.802734" xlink:href="#DejaVuSans-68"/>
       <use x="748.804688" xlink:href="#DejaVuSans-82"/>
       <use x="818.287109" xlink:href="#DejaVuSans-79"/>
       <use x="896.998047" xlink:href="#DejaVuSans-78"/>
       <use x="971.802734" xlink:href="#DejaVuSans-73"/>
       <use x="1001.294922" xlink:href="#DejaVuSans-65"/>
      </g>
     </g>
    </g>
    <g id="ytick_4">
     <g id="line2d_10">
      <g>
       <use style="stroke:#000000;stroke-width:0.8;" x="172.8" xlink:href="#m38962cd765" y="319.805673"/>
      </g>
     </g>
     <g id="text_11">
      <!-- KOMITET WYBORCZY -->
      <g transform="translate(60.479687 317.978329)scale(0.1 -0.1)">
       <use xlink:href="#DejaVuSans-75"/>
       <use x="65.498047" xlink:href="#DejaVuSans-79"/>
       <use x="144.208984" xlink:href="#DejaVuSans-77"/>
       <use x="230.488281" xlink:href="#DejaVuSans-73"/>
       <use x="259.980469" xlink:href="#DejaVuSans-84"/>
       <use x="321.064453" xlink:href="#DejaVuSans-69"/>
       <use x="384.248047" xlink:href="#DejaVuSans-84"/>
       <use x="445.332031" xlink:href="#DejaVuSans-32"/>
       <use x="477.119141" xlink:href="#DejaVuSans-87"/>
       <use x="575.996094" xlink:href="#DejaVuSans-89"/>
       <use x="637.080078" xlink:href="#DejaVuSans-66"/>
       <use x="705.667969" xlink:href="#DejaVuSans-79"/>
       <use x="784.378906" xlink:href="#DejaVuSans-82"/>
       <use x="853.783203" xlink:href="#DejaVuSans-67"/>
       <use x="923.607422" xlink:href="#DejaVuSans-90"/>
       <use x="992.113281" xlink:href="#DejaVuSans-89"/>
      </g>
      <!-- WYBORCÓW KONFEDERACJA KORWIN BRAUN LIROY NARODOWCY -->
      <defs>
       <path d="M 39.40625 66.21875 
Q 28.65625 66.21875 22.328125 58.203125 
Q 16.015625 50.203125 16.015625 36.375 
Q 16.015625 22.609375 22.328125 14.59375 
Q 28.65625 6.59375 39.40625 6.59375 
Q 50.140625 6.59375 56.421875 14.59375 
Q 62.703125 22.609375 62.703125 36.375 
Q 62.703125 50.203125 56.421875 58.203125 
Q 50.140625 66.21875 39.40625 66.21875 
z
M 39.40625 74.21875 
Q 54.734375 74.21875 63.90625 63.9375 
Q 73.09375 53.65625 73.09375 36.375 
Q 73.09375 19.140625 63.90625 8.859375 
Q 54.734375 -1.421875 39.40625 -1.421875 
Q 24.03125 -1.421875 14.8125 8.828125 
Q 5.609375 19.09375 5.609375 36.375 
Q 5.609375 53.65625 14.8125 63.9375 
Q 24.03125 74.21875 39.40625 74.21875 
z
M 42.0625 92.515625 
L 51.09375 92.515625 
L 39.96875 79.625 
L 32.484375 79.625 
z
" id="DejaVuSans-211"/>
       <path d="M 9.8125 72.90625 
L 51.703125 72.90625 
L 51.703125 64.59375 
L 19.671875 64.59375 
L 19.671875 43.109375 
L 48.578125 43.109375 
L 48.578125 34.8125 
L 19.671875 34.8125 
L 19.671875 0 
L 9.8125 0 
z
" id="DejaVuSans-70"/>
      </defs>
      <g transform="translate(-165.304688 331.066141)scale(0.1 -0.1)">
       <use xlink:href="#DejaVuSans-87"/>
       <use x="98.876953" xlink:href="#DejaVuSans-89"/>
       <use x="159.960938" xlink:href="#DejaVuSans-66"/>
       <use x="228.548828" xlink:href="#DejaVuSans-79"/>
       <use x="307.259766" xlink:href="#DejaVuSans-82"/>
       <use x="376.664062" xlink:href="#DejaVuSans-67"/>
       <use x="446.488281" xlink:href="#DejaVuSans-211"/>
       <use x="525.199219" xlink:href="#DejaVuSans-87"/>
       <use x="624.076172" xlink:href="#DejaVuSans-32"/>
       <use x="655.863281" xlink:href="#DejaVuSans-75"/>
       <use x="721.361328" xlink:href="#DejaVuSans-79"/>
       <use x="800.072266" xlink:href="#DejaVuSans-78"/>
       <use x="874.876953" xlink:href="#DejaVuSans-70"/>
       <use x="932.396484" xlink:href="#DejaVuSans-69"/>
       <use x="995.580078" xlink:href="#DejaVuSans-68"/>
       <use x="1072.582031" xlink:href="#DejaVuSans-69"/>
       <use x="1135.765625" xlink:href="#DejaVuSans-82"/>
       <use x="1205.185547" xlink:href="#DejaVuSans-65"/>
       <use x="1273.578125" xlink:href="#DejaVuSans-67"/>
       <use x="1343.402344" xlink:href="#DejaVuSans-74"/>
       <use x="1372.878906" xlink:href="#DejaVuSans-65"/>
       <use x="1441.287109" xlink:href="#DejaVuSans-32"/>
       <use x="1473.074219" xlink:href="#DejaVuSans-75"/>
       <use x="1538.572266" xlink:href="#DejaVuSans-79"/>
       <use x="1617.283203" xlink:href="#DejaVuSans-82"/>
       <use x="1686.703125" xlink:href="#DejaVuSans-87"/>
       <use x="1785.580078" xlink:href="#DejaVuSans-73"/>
       <use x="1815.072266" xlink:href="#DejaVuSans-78"/>
       <use x="1889.876953" xlink:href="#DejaVuSans-32"/>
       <use x="1921.664062" xlink:href="#DejaVuSans-66"/>
       <use x="1990.267578" xlink:href="#DejaVuSans-82"/>
       <use x="2059.6875" xlink:href="#DejaVuSans-65"/>
       <use x="2128.095703" xlink:href="#DejaVuSans-85"/>
       <use x="2201.289062" xlink:href="#DejaVuSans-78"/>
       <use x="2276.09375" xlink:href="#DejaVuSans-32"/>
       <use x="2307.880859" xlink:href="#DejaVuSans-76"/>
       <use x="2363.59375" xlink:href="#DejaVuSans-73"/>
       <use x="2393.085938" xlink:href="#DejaVuSans-82"/>
       <use x="2462.568359" xlink:href="#DejaVuSans-79"/>
       <use x="2541.201172" xlink:href="#DejaVuSans-89"/>
       <use x="2602.285156" xlink:href="#DejaVuSans-32"/>
       <use x="2634.072266" xlink:href="#DejaVuSans-78"/>
       <use x="2708.876953" xlink:href="#DejaVuSans-65"/>
       <use x="2777.285156" xlink:href="#DejaVuSans-82"/>
       <use x="2846.767578" xlink:href="#DejaVuSans-79"/>
       <use x="2925.478516" xlink:href="#DejaVuSans-68"/>
       <use x="3002.480469" xlink:href="#DejaVuSans-79"/>
       <use x="3081.191406" xlink:href="#DejaVuSans-87"/>
       <use x="3180.068359" xlink:href="#DejaVuSans-67"/>
       <use x="3249.876953" xlink:href="#DejaVuSans-89"/>
      </g>
     </g>
    </g>
    <g id="ytick_5">
     <g id="line2d_11">
      <g>
       <use style="stroke:#000000;stroke-width:0.8;" x="172.8" xlink:href="#m38962cd765" y="379.5984"/>
      </g>
     </g>
     <g id="text_12">
      <!-- KOMITET WYBORCZY -->
      <g transform="translate(60.479687 378.558556)scale(0.1 -0.1)">
       <use xlink:href="#DejaVuSans-75"/>
       <use x="65.498047" xlink:href="#DejaVuSans-79"/>
       <use x="144.208984" xlink:href="#DejaVuSans-77"/>
       <use x="230.488281" xlink:href="#DejaVuSans-73"/>
       <use x="259.980469" xlink:href="#DejaVuSans-84"/>
       <use x="321.064453" xlink:href="#DejaVuSans-69"/>
       <use x="384.248047" xlink:href="#DejaVuSans-84"/>
       <use x="445.332031" xlink:href="#DejaVuSans-32"/>
       <use x="477.119141" xlink:href="#DejaVuSans-87"/>
       <use x="575.996094" xlink:href="#DejaVuSans-89"/>
       <use x="637.080078" xlink:href="#DejaVuSans-66"/>
       <use x="705.667969" xlink:href="#DejaVuSans-79"/>
       <use x="784.378906" xlink:href="#DejaVuSans-82"/>
       <use x="853.783203" xlink:href="#DejaVuSans-67"/>
       <use x="923.607422" xlink:href="#DejaVuSans-90"/>
       <use x="992.113281" xlink:href="#DejaVuSans-89"/>
      </g>
      <!-- WYBORCÓW KUKIZ'15 -->
      <defs>
       <path d="M 17.921875 72.90625 
L 17.921875 45.796875 
L 9.625 45.796875 
L 9.625 72.90625 
z
" id="DejaVuSans-39"/>
      </defs>
      <g transform="translate(54.507812 389.756369)scale(0.1 -0.1)">
       <use xlink:href="#DejaVuSans-87"/>
       <use x="98.876953" xlink:href="#DejaVuSans-89"/>
       <use x="159.960938" xlink:href="#DejaVuSans-66"/>
       <use x="228.548828" xlink:href="#DejaVuSans-79"/>
       <use x="307.259766" xlink:href="#DejaVuSans-82"/>
       <use x="376.664062" xlink:href="#DejaVuSans-67"/>
       <use x="446.488281" xlink:href="#DejaVuSans-211"/>
       <use x="525.199219" xlink:href="#DejaVuSans-87"/>
       <use x="624.076172" xlink:href="#DejaVuSans-32"/>
       <use x="655.863281" xlink:href="#DejaVuSans-75"/>
       <use x="721.408203" xlink:href="#DejaVuSans-85"/>
       <use x="794.601562" xlink:href="#DejaVuSans-75"/>
       <use x="860.177734" xlink:href="#DejaVuSans-73"/>
       <use x="889.669922" xlink:href="#DejaVuSans-90"/>
       <use x="958.175781" xlink:href="#DejaVuSans-39"/>
       <use x="985.666016" xlink:href="#DejaVuSans-49"/>
       <use x="1049.289062" xlink:href="#DejaVuSans-53"/>
      </g>
     </g>
    </g>
    <g id="ytick_6">
     <g id="line2d_12">
      <g>
       <use style="stroke:#000000;stroke-width:0.8;" x="172.8" xlink:href="#m38962cd765" y="439.391127"/>
      </g>
     </g>
     <g id="text_13">
      <!-- KOALICYJNY KOMITET -->
      <g transform="translate(58.676562 438.351284)scale(0.1 -0.1)">
       <use xlink:href="#DejaVuSans-75"/>
       <use x="65.498047" xlink:href="#DejaVuSans-79"/>
       <use x="144.193359" xlink:href="#DejaVuSans-65"/>
       <use x="212.601562" xlink:href="#DejaVuSans-76"/>
       <use x="268.314453" xlink:href="#DejaVuSans-73"/>
       <use x="297.806641" xlink:href="#DejaVuSans-67"/>
       <use x="367.615234" xlink:href="#DejaVuSans-89"/>
       <use x="428.699219" xlink:href="#DejaVuSans-74"/>
       <use x="458.191406" xlink:href="#DejaVuSans-78"/>
       <use x="532.996094" xlink:href="#DejaVuSans-89"/>
       <use x="594.080078" xlink:href="#DejaVuSans-32"/>
       <use x="625.867188" xlink:href="#DejaVuSans-75"/>
       <use x="691.365234" xlink:href="#DejaVuSans-79"/>
       <use x="770.076172" xlink:href="#DejaVuSans-77"/>
       <use x="856.355469" xlink:href="#DejaVuSans-73"/>
       <use x="885.847656" xlink:href="#DejaVuSans-84"/>
       <use x="946.931641" xlink:href="#DejaVuSans-69"/>
       <use x="1010.115234" xlink:href="#DejaVuSans-84"/>
      </g>
      <!-- WYBORCZY LEWICA RAZEM - PARTIA RAZEM, UNIA PRACY, RSS -->
      <defs>
       <path d="M 4.890625 31.390625 
L 31.203125 31.390625 
L 31.203125 23.390625 
L 4.890625 23.390625 
z
" id="DejaVuSans-45"/>
       <path d="M 11.71875 12.40625 
L 22.015625 12.40625 
L 22.015625 4 
L 14.015625 -11.625 
L 7.71875 -11.625 
L 11.71875 4 
z
" id="DejaVuSans-44"/>
      </defs>
      <g transform="translate(-149.740625 449.549096)scale(0.1 -0.1)">
       <use xlink:href="#DejaVuSans-87"/>
       <use x="98.876953" xlink:href="#DejaVuSans-89"/>
       <use x="159.960938" xlink:href="#DejaVuSans-66"/>
       <use x="228.548828" xlink:href="#DejaVuSans-79"/>
       <use x="307.259766" xlink:href="#DejaVuSans-82"/>
       <use x="376.664062" xlink:href="#DejaVuSans-67"/>
       <use x="446.488281" xlink:href="#DejaVuSans-90"/>
       <use x="514.994141" xlink:href="#DejaVuSans-89"/>
       <use x="576.078125" xlink:href="#DejaVuSans-32"/>
       <use x="607.865234" xlink:href="#DejaVuSans-76"/>
       <use x="663.578125" xlink:href="#DejaVuSans-69"/>
       <use x="726.761719" xlink:href="#DejaVuSans-87"/>
       <use x="825.638672" xlink:href="#DejaVuSans-73"/>
       <use x="855.130859" xlink:href="#DejaVuSans-67"/>
       <use x="924.955078" xlink:href="#DejaVuSans-65"/>
       <use x="993.363281" xlink:href="#DejaVuSans-32"/>
       <use x="1025.150391" xlink:href="#DejaVuSans-82"/>
       <use x="1094.570312" xlink:href="#DejaVuSans-65"/>
       <use x="1162.978516" xlink:href="#DejaVuSans-90"/>
       <use x="1231.484375" xlink:href="#DejaVuSans-69"/>
       <use x="1294.667969" xlink:href="#DejaVuSans-77"/>
       <use x="1380.947266" xlink:href="#DejaVuSans-32"/>
       <use x="1412.734375" xlink:href="#DejaVuSans-45"/>
       <use x="1448.818359" xlink:href="#DejaVuSans-32"/>
       <use x="1480.605469" xlink:href="#DejaVuSans-80"/>
       <use x="1540.814453" xlink:href="#DejaVuSans-65"/>
       <use x="1609.222656" xlink:href="#DejaVuSans-82"/>
       <use x="1678.595703" xlink:href="#DejaVuSans-84"/>
       <use x="1739.679688" xlink:href="#DejaVuSans-73"/>
       <use x="1769.171875" xlink:href="#DejaVuSans-65"/>
       <use x="1837.580078" xlink:href="#DejaVuSans-32"/>
       <use x="1869.367188" xlink:href="#DejaVuSans-82"/>
       <use x="1938.787109" xlink:href="#DejaVuSans-65"/>
       <use x="2007.195312" xlink:href="#DejaVuSans-90"/>
       <use x="2075.701172" xlink:href="#DejaVuSans-69"/>
       <use x="2138.884766" xlink:href="#DejaVuSans-77"/>
       <use x="2225.164062" xlink:href="#DejaVuSans-44"/>
       <use x="2256.951172" xlink:href="#DejaVuSans-32"/>
       <use x="2288.738281" xlink:href="#DejaVuSans-85"/>
       <use x="2361.931641" xlink:href="#DejaVuSans-78"/>
       <use x="2436.736328" xlink:href="#DejaVuSans-73"/>
       <use x="2466.228516" xlink:href="#DejaVuSans-65"/>
       <use x="2534.636719" xlink:href="#DejaVuSans-32"/>
       <use x="2566.423828" xlink:href="#DejaVuSans-80"/>
       <use x="2626.726562" xlink:href="#DejaVuSans-82"/>
       <use x="2696.146484" xlink:href="#DejaVuSans-65"/>
       <use x="2764.539062" xlink:href="#DejaVuSans-67"/>
       <use x="2834.347656" xlink:href="#DejaVuSans-89"/>
       <use x="2895.431641" xlink:href="#DejaVuSans-44"/>
       <use x="2927.21875" xlink:href="#DejaVuSans-32"/>
       <use x="2959.005859" xlink:href="#DejaVuSans-82"/>
       <use x="3028.488281" xlink:href="#DejaVuSans-83"/>
       <use x="3091.964844" xlink:href="#DejaVuSans-83"/>
      </g>
     </g>
    </g>
    <g id="ytick_7">
     <g id="line2d_13">
      <g>
       <use style="stroke:#000000;stroke-width:0.8;" x="172.8" xlink:href="#m38962cd765" y="499.183855"/>
      </g>
     </g>
     <g id="text_14">
      <!-- KOMITET WYBORCZY -->
      <g transform="translate(60.479687 497.356511)scale(0.1 -0.1)">
       <use xlink:href="#DejaVuSans-75"/>
       <use x="65.498047" xlink:href="#DejaVuSans-79"/>
       <use x="144.208984" xlink:href="#DejaVuSans-77"/>
       <use x="230.488281" xlink:href="#DejaVuSans-73"/>
       <use x="259.980469" xlink:href="#DejaVuSans-84"/>
       <use x="321.064453" xlink:href="#DejaVuSans-69"/>
       <use x="384.248047" xlink:href="#DejaVuSans-84"/>
       <use x="445.332031" xlink:href="#DejaVuSans-32"/>
       <use x="477.119141" xlink:href="#DejaVuSans-87"/>
       <use x="575.996094" xlink:href="#DejaVuSans-89"/>
       <use x="637.080078" xlink:href="#DejaVuSans-66"/>
       <use x="705.667969" xlink:href="#DejaVuSans-79"/>
       <use x="784.378906" xlink:href="#DejaVuSans-82"/>
       <use x="853.783203" xlink:href="#DejaVuSans-67"/>
       <use x="923.607422" xlink:href="#DejaVuSans-90"/>
       <use x="992.113281" xlink:href="#DejaVuSans-89"/>
      </g>
      <!-- WYBORCÓW POLSKA FAIR PLAY BEZPARTYJNI GWIAZDOWSKI -->
      <defs>
       <path d="M 59.515625 10.40625 
L 59.515625 29.984375 
L 43.40625 29.984375 
L 43.40625 38.09375 
L 69.28125 38.09375 
L 69.28125 6.78125 
Q 63.578125 2.734375 56.6875 0.65625 
Q 49.8125 -1.421875 42 -1.421875 
Q 24.90625 -1.421875 15.25 8.5625 
Q 5.609375 18.5625 5.609375 36.375 
Q 5.609375 54.25 15.25 64.234375 
Q 24.90625 74.21875 42 74.21875 
Q 49.125 74.21875 55.546875 72.453125 
Q 61.96875 70.703125 67.390625 67.28125 
L 67.390625 56.78125 
Q 61.921875 61.421875 55.765625 63.765625 
Q 49.609375 66.109375 42.828125 66.109375 
Q 29.4375 66.109375 22.71875 58.640625 
Q 16.015625 51.171875 16.015625 36.375 
Q 16.015625 21.625 22.71875 14.15625 
Q 29.4375 6.6875 42.828125 6.6875 
Q 48.046875 6.6875 52.140625 7.59375 
Q 56.25 8.5 59.515625 10.40625 
z
" id="DejaVuSans-71"/>
      </defs>
      <g transform="translate(-139.754688 510.444323)scale(0.1 -0.1)">
       <use xlink:href="#DejaVuSans-87"/>
       <use x="98.876953" xlink:href="#DejaVuSans-89"/>
       <use x="159.960938" xlink:href="#DejaVuSans-66"/>
       <use x="228.548828" xlink:href="#DejaVuSans-79"/>
       <use x="307.259766" xlink:href="#DejaVuSans-82"/>
       <use x="376.664062" xlink:href="#DejaVuSans-67"/>
       <use x="446.488281" xlink:href="#DejaVuSans-211"/>
       <use x="525.199219" xlink:href="#DejaVuSans-87"/>
       <use x="624.076172" xlink:href="#DejaVuSans-32"/>
       <use x="655.863281" xlink:href="#DejaVuSans-80"/>
       <use x="716.166016" xlink:href="#DejaVuSans-79"/>
       <use x="794.876953" xlink:href="#DejaVuSans-76"/>
       <use x="850.589844" xlink:href="#DejaVuSans-83"/>
       <use x="914.066406" xlink:href="#DejaVuSans-75"/>
       <use x="979.626953" xlink:href="#DejaVuSans-65"/>
       <use x="1048.035156" xlink:href="#DejaVuSans-32"/>
       <use x="1079.822266" xlink:href="#DejaVuSans-70"/>
       <use x="1137.201172" xlink:href="#DejaVuSans-65"/>
       <use x="1205.609375" xlink:href="#DejaVuSans-73"/>
       <use x="1235.101562" xlink:href="#DejaVuSans-82"/>
       <use x="1304.583984" xlink:href="#DejaVuSans-32"/>
       <use x="1336.371094" xlink:href="#DejaVuSans-80"/>
       <use x="1396.673828" xlink:href="#DejaVuSans-76"/>
       <use x="1452.417969" xlink:href="#DejaVuSans-65"/>
       <use x="1520.716797" xlink:href="#DejaVuSans-89"/>
       <use x="1581.800781" xlink:href="#DejaVuSans-32"/>
       <use x="1613.587891" xlink:href="#DejaVuSans-66"/>
       <use x="1682.191406" xlink:href="#DejaVuSans-69"/>
       <use x="1745.375" xlink:href="#DejaVuSans-90"/>
       <use x="1813.880859" xlink:href="#DejaVuSans-80"/>
       <use x="1874.089844" xlink:href="#DejaVuSans-65"/>
       <use x="1942.498047" xlink:href="#DejaVuSans-82"/>
       <use x="2011.871094" xlink:href="#DejaVuSans-84"/>
       <use x="2072.955078" xlink:href="#DejaVuSans-89"/>
       <use x="2134.039062" xlink:href="#DejaVuSans-74"/>
       <use x="2163.53125" xlink:href="#DejaVuSans-78"/>
       <use x="2238.335938" xlink:href="#DejaVuSans-73"/>
       <use x="2267.828125" xlink:href="#DejaVuSans-32"/>
       <use x="2299.615234" xlink:href="#DejaVuSans-71"/>
       <use x="2377.105469" xlink:href="#DejaVuSans-87"/>
       <use x="2475.982422" xlink:href="#DejaVuSans-73"/>
       <use x="2505.474609" xlink:href="#DejaVuSans-65"/>
       <use x="2573.882812" xlink:href="#DejaVuSans-90"/>
       <use x="2642.388672" xlink:href="#DejaVuSans-68"/>
       <use x="2719.390625" xlink:href="#DejaVuSans-79"/>
       <use x="2798.101562" xlink:href="#DejaVuSans-87"/>
       <use x="2896.978516" xlink:href="#DejaVuSans-83"/>
       <use x="2960.455078" xlink:href="#DejaVuSans-75"/>
       <use x="3026.03125" xlink:href="#DejaVuSans-73"/>
      </g>
     </g>
    </g>
    <g id="ytick_8">
     <g id="line2d_14">
      <g>
       <use style="stroke:#000000;stroke-width:0.8;" x="172.8" xlink:href="#m38962cd765" y="558.976582"/>
      </g>
     </g>
     <g id="text_15">
      <!-- KOALICYJNY KOMITET -->
      <g transform="translate(58.676562 557.936738)scale(0.1 -0.1)">
       <use xlink:href="#DejaVuSans-75"/>
       <use x="65.498047" xlink:href="#DejaVuSans-79"/>
       <use x="144.193359" xlink:href="#DejaVuSans-65"/>
       <use x="212.601562" xlink:href="#DejaVuSans-76"/>
       <use x="268.314453" xlink:href="#DejaVuSans-73"/>
       <use x="297.806641" xlink:href="#DejaVuSans-67"/>
       <use x="367.615234" xlink:href="#DejaVuSans-89"/>
       <use x="428.699219" xlink:href="#DejaVuSans-74"/>
       <use x="458.191406" xlink:href="#DejaVuSans-78"/>
       <use x="532.996094" xlink:href="#DejaVuSans-89"/>
       <use x="594.080078" xlink:href="#DejaVuSans-32"/>
       <use x="625.867188" xlink:href="#DejaVuSans-75"/>
       <use x="691.365234" xlink:href="#DejaVuSans-79"/>
       <use x="770.076172" xlink:href="#DejaVuSans-77"/>
       <use x="856.355469" xlink:href="#DejaVuSans-73"/>
       <use x="885.847656" xlink:href="#DejaVuSans-84"/>
       <use x="946.931641" xlink:href="#DejaVuSans-69"/>
       <use x="1010.115234" xlink:href="#DejaVuSans-84"/>
      </g>
      <!-- WYBORCZY POLEXIT - KOALICJA -->
      <defs>
       <path d="M 6.296875 72.90625 
L 16.890625 72.90625 
L 35.015625 45.796875 
L 53.21875 72.90625 
L 63.8125 72.90625 
L 40.375 37.890625 
L 65.375 0 
L 54.78125 0 
L 34.28125 31 
L 13.625 0 
L 2.984375 0 
L 29 38.921875 
z
" id="DejaVuSans-88"/>
      </defs>
      <g transform="translate(6.795312 569.134551)scale(0.1 -0.1)">
       <use xlink:href="#DejaVuSans-87"/>
       <use x="98.876953" xlink:href="#DejaVuSans-89"/>
       <use x="159.960938" xlink:href="#DejaVuSans-66"/>
       <use x="228.548828" xlink:href="#DejaVuSans-79"/>
       <use x="307.259766" xlink:href="#DejaVuSans-82"/>
       <use x="376.664062" xlink:href="#DejaVuSans-67"/>
       <use x="446.488281" xlink:href="#DejaVuSans-90"/>
       <use x="514.994141" xlink:href="#DejaVuSans-89"/>
       <use x="576.078125" xlink:href="#DejaVuSans-32"/>
       <use x="607.865234" xlink:href="#DejaVuSans-80"/>
       <use x="668.167969" xlink:href="#DejaVuSans-79"/>
       <use x="746.878906" xlink:href="#DejaVuSans-76"/>
       <use x="802.591797" xlink:href="#DejaVuSans-69"/>
       <use x="865.775391" xlink:href="#DejaVuSans-88"/>
       <use x="934.28125" xlink:href="#DejaVuSans-73"/>
       <use x="963.773438" xlink:href="#DejaVuSans-84"/>
       <use x="1024.857422" xlink:href="#DejaVuSans-32"/>
       <use x="1056.644531" xlink:href="#DejaVuSans-45"/>
       <use x="1092.728516" xlink:href="#DejaVuSans-32"/>
       <use x="1124.515625" xlink:href="#DejaVuSans-75"/>
       <use x="1190.013672" xlink:href="#DejaVuSans-79"/>
       <use x="1268.708984" xlink:href="#DejaVuSans-65"/>
       <use x="1337.117188" xlink:href="#DejaVuSans-76"/>
       <use x="1392.830078" xlink:href="#DejaVuSans-73"/>
       <use x="1422.322266" xlink:href="#DejaVuSans-67"/>
       <use x="1492.146484" xlink:href="#DejaVuSans-74"/>
       <use x="1521.623047" xlink:href="#DejaVuSans-65"/>
      </g>
     </g>
    </g>
    <g id="ytick_9">
     <g id="line2d_15">
      <g>
       <use style="stroke:#000000;stroke-width:0.8;" x="172.8" xlink:href="#m38962cd765" y="618.769309"/>
      </g>
     </g>
     <g id="text_16">
      <!-- KOMITET WYBORCZY JEDNOŚĆ -->
      <g transform="translate(11.648437 618.516965)scale(0.1 -0.1)">
       <use xlink:href="#DejaVuSans-75"/>
       <use x="65.498047" xlink:href="#DejaVuSans-79"/>
       <use x="144.208984" xlink:href="#DejaVuSans-77"/>
       <use x="230.488281" xlink:href="#DejaVuSans-73"/>
       <use x="259.980469" xlink:href="#DejaVuSans-84"/>
       <use x="321.064453" xlink:href="#DejaVuSans-69"/>
       <use x="384.248047" xlink:href="#DejaVuSans-84"/>
       <use x="445.332031" xlink:href="#DejaVuSans-32"/>
       <use x="477.119141" xlink:href="#DejaVuSans-87"/>
       <use x="575.996094" xlink:href="#DejaVuSans-89"/>
       <use x="637.080078" xlink:href="#DejaVuSans-66"/>
       <use x="705.667969" xlink:href="#DejaVuSans-79"/>
       <use x="784.378906" xlink:href="#DejaVuSans-82"/>
       <use x="853.783203" xlink:href="#DejaVuSans-67"/>
       <use x="923.607422" xlink:href="#DejaVuSans-90"/>
       <use x="992.113281" xlink:href="#DejaVuSans-89"/>
       <use x="1053.197266" xlink:href="#DejaVuSans-32"/>
       <use x="1084.984375" xlink:href="#DejaVuSans-74"/>
       <use x="1114.476562" xlink:href="#DejaVuSans-69"/>
       <use x="1177.660156" xlink:href="#DejaVuSans-68"/>
       <use x="1254.662109" xlink:href="#DejaVuSans-78"/>
       <use x="1329.466797" xlink:href="#DejaVuSans-79"/>
       <use x="1408.177734" xlink:href="#DejaVuSans-346"/>
       <use x="1471.654297" xlink:href="#DejaVuSans-262"/>
      </g>
      <!-- NARODU -->
      <g transform="translate(121.639062 629.714778)scale(0.1 -0.1)">
       <use xlink:href="#DejaVuSans-78"/>
       <use x="74.804688" xlink:href="#DejaVuSans-65"/>
       <use x="143.212891" xlink:href="#DejaVuSans-82"/>
       <use x="212.695312" xlink:href="#DejaVuSans-79"/>
       <use x="291.40625" xlink:href="#DejaVuSans-68"/>
       <use x="368.408203" xlink:href="#DejaVuSans-85"/>
      </g>
     </g>
    </g>
    <g id="text_17">
     <!-- Partia -->
     <defs>
      <path d="M 18.3125 70.21875 
L 18.3125 54.6875 
L 36.8125 54.6875 
L 36.8125 47.703125 
L 18.3125 47.703125 
L 18.3125 18.015625 
Q 18.3125 11.328125 20.140625 9.421875 
Q 21.96875 7.515625 27.59375 7.515625 
L 36.8125 7.515625 
L 36.8125 0 
L 27.59375 0 
Q 17.1875 0 13.234375 3.875 
Q 9.28125 7.765625 9.28125 18.015625 
L 9.28125 47.703125 
L 2.6875 47.703125 
L 2.6875 54.6875 
L 9.28125 54.6875 
L 9.28125 70.21875 
z
" id="DejaVuSans-116"/>
     </defs>
     <g transform="translate(-171.384375 394.142931)rotate(-90)scale(0.1 -0.1)">
      <use xlink:href="#DejaVuSans-80"/>
      <use x="60.240234" xlink:href="#DejaVuSans-97"/>
      <use x="121.519531" xlink:href="#DejaVuSans-114"/>
      <use x="162.632812" xlink:href="#DejaVuSans-116"/>
      <use x="201.841797" xlink:href="#DejaVuSans-105"/>
      <use x="229.625" xlink:href="#DejaVuSans-97"/>
     </g>
    </g>
   </g>
   <g id="patch_12">
    <path d="M 172.8 668.9952 
L 172.8 90.2016 
" style="fill:none;stroke:#000000;stroke-linecap:square;stroke-linejoin:miter;stroke-width:0.8;"/>
   </g>
   <g id="patch_13">
    <path d="M 1244.16 668.9952 
L 1244.16 90.2016 
" style="fill:none;stroke:#000000;stroke-linecap:square;stroke-linejoin:miter;stroke-width:0.8;"/>
   </g>
   <g id="patch_14">
    <path d="M 172.8 668.9952 
L 1244.16 668.9952 
" style="fill:none;stroke:#000000;stroke-linecap:square;stroke-linejoin:miter;stroke-width:0.8;"/>
   </g>
   <g id="patch_15">
    <path d="M 172.8 90.2016 
L 1244.16 90.2016 
" style="fill:none;stroke:#000000;stroke-linecap:square;stroke-linejoin:miter;stroke-width:0.8;"/>
   </g>
   <g id="text_18">
    <!-- Średnia liczba głosów na kandydatów partii -->
    <defs>
     <path d="M 9.078125 75.984375 
L 18.109375 75.984375 
L 18.109375 31.109375 
L 44.921875 54.6875 
L 56.390625 54.6875 
L 27.390625 29.109375 
L 57.625 0 
L 45.90625 0 
L 18.109375 26.703125 
L 18.109375 0 
L 9.078125 0 
z
" id="DejaVuSans-107"/>
     <path d="M 32.171875 -5.078125 
Q 28.375 -14.84375 24.75 -17.8125 
Q 21.140625 -20.796875 15.09375 -20.796875 
L 7.90625 -20.796875 
L 7.90625 -13.28125 
L 13.1875 -13.28125 
Q 16.890625 -13.28125 18.9375 -11.515625 
Q 21 -9.765625 23.484375 -3.21875 
L 25.09375 0.875 
L 2.984375 54.6875 
L 12.5 54.6875 
L 29.59375 11.921875 
L 46.6875 54.6875 
L 56.203125 54.6875 
z
" id="DejaVuSans-121"/>
     <path d="M 18.109375 8.203125 
L 18.109375 -20.796875 
L 9.078125 -20.796875 
L 9.078125 54.6875 
L 18.109375 54.6875 
L 18.109375 46.390625 
Q 20.953125 51.265625 25.265625 53.625 
Q 29.59375 56 35.59375 56 
Q 45.5625 56 51.78125 48.09375 
Q 58.015625 40.1875 58.015625 27.296875 
Q 58.015625 14.40625 51.78125 6.484375 
Q 45.5625 -1.421875 35.59375 -1.421875 
Q 29.59375 -1.421875 25.265625 0.953125 
Q 20.953125 3.328125 18.109375 8.203125 
z
M 48.6875 27.296875 
Q 48.6875 37.203125 44.609375 42.84375 
Q 40.53125 48.484375 33.40625 48.484375 
Q 26.265625 48.484375 22.1875 42.84375 
Q 18.109375 37.203125 18.109375 27.296875 
Q 18.109375 17.390625 22.1875 11.75 
Q 26.265625 6.109375 33.40625 6.109375 
Q 40.53125 6.109375 44.609375 11.75 
Q 48.6875 17.390625 48.6875 27.296875 
z
" id="DejaVuSans-112"/>
    </defs>
    <g transform="translate(578.020312 84.2016)scale(0.12 -0.12)">
     <use xlink:href="#DejaVuSans-346"/>
     <use x="63.476562" xlink:href="#DejaVuSans-114"/>
     <use x="104.558594" xlink:href="#DejaVuSans-101"/>
     <use x="166.082031" xlink:href="#DejaVuSans-100"/>
     <use x="229.558594" xlink:href="#DejaVuSans-110"/>
     <use x="292.9375" xlink:href="#DejaVuSans-105"/>
     <use x="320.720703" xlink:href="#DejaVuSans-97"/>
     <use x="382" xlink:href="#DejaVuSans-32"/>
     <use x="413.787109" xlink:href="#DejaVuSans-108"/>
     <use x="441.570312" xlink:href="#DejaVuSans-105"/>
     <use x="469.353516" xlink:href="#DejaVuSans-99"/>
     <use x="524.333984" xlink:href="#DejaVuSans-122"/>
     <use x="576.824219" xlink:href="#DejaVuSans-98"/>
     <use x="640.300781" xlink:href="#DejaVuSans-97"/>
     <use x="701.580078" xlink:href="#DejaVuSans-32"/>
     <use x="733.367188" xlink:href="#DejaVuSans-103"/>
     <use x="796.84375" xlink:href="#DejaVuSans-322"/>
     <use x="825.261719" xlink:href="#DejaVuSans-111"/>
     <use x="886.443359" xlink:href="#DejaVuSans-115"/>
     <use x="938.542969" xlink:href="#DejaVuSans-243"/>
     <use x="999.724609" xlink:href="#DejaVuSans-119"/>
     <use x="1081.511719" xlink:href="#DejaVuSans-32"/>
     <use x="1113.298828" xlink:href="#DejaVuSans-110"/>
     <use x="1176.677734" xlink:href="#DejaVuSans-97"/>
     <use x="1237.957031" xlink:href="#DejaVuSans-32"/>
     <use x="1269.744141" xlink:href="#DejaVuSans-107"/>
     <use x="1327.638672" xlink:href="#DejaVuSans-97"/>
     <use x="1388.917969" xlink:href="#DejaVuSans-110"/>
     <use x="1452.296875" xlink:href="#DejaVuSans-100"/>
     <use x="1515.773438" xlink:href="#DejaVuSans-121"/>
     <use x="1574.953125" xlink:href="#DejaVuSans-100"/>
     <use x="1638.429688" xlink:href="#DejaVuSans-97"/>
     <use x="1699.708984" xlink:href="#DejaVuSans-116"/>
     <use x="1738.917969" xlink:href="#DejaVuSans-243"/>
     <use x="1800.099609" xlink:href="#DejaVuSans-119"/>
     <use x="1881.886719" xlink:href="#DejaVuSans-32"/>
     <use x="1913.673828" xlink:href="#DejaVuSans-112"/>
     <use x="1977.150391" xlink:href="#DejaVuSans-97"/>
     <use x="2038.429688" xlink:href="#DejaVuSans-114"/>
     <use x="2079.542969" xlink:href="#DejaVuSans-116"/>
     <use x="2118.751953" xlink:href="#DejaVuSans-105"/>
     <use x="2146.535156" xlink:href="#DejaVuSans-105"/>
    </g>
   </g>
  </g>
 </g>
 <defs>
  <clipPath id="p6dee49eaea">
   <rect height="578.7936" width="1071.36" x="172.8" y="90.2016"/>
  </clipPath>
 </defs>
</svg>
